<svg width="20" height="20" viewBox="0 0 20 20" fill="none" xmlns="http://www.w3.org/2000/svg">
<circle cx="6.25008" cy="7.75008" r="4.58333" fill="#6E501F"/>
<path d="M8.82826 16.0678C9.06416 15.6259 9.63736 15.5195 10.0018 15.8632C10.3311 16.1737 10.5929 16.5231 10.8012 16.8826C11.1373 17.4626 10.653 18.1172 9.98275 18.1172H9.28724C8.68707 18.1172 8.23275 17.5909 8.42223 17.0214C8.52041 16.7264 8.6524 16.3973 8.82826 16.0678ZM12.083 14C14.3549 14 15.3386 15.8022 15.7442 17.022C15.9336 17.5915 15.479 18.1172 14.8789 18.1172H13.14C12.6844 18.1172 12.2936 17.8063 12.1349 17.3793C11.9121 16.7798 11.5814 16.1367 11.0869 15.5547C10.6483 15.0386 10.6588 14.2068 11.3228 14.0732C11.5586 14.0258 11.8116 14 12.083 14Z" fill="#6E501F"/>
<path d="M6.24992 14C10.1203 14 11.2252 16.5527 11.5406 18.0102C11.6574 18.55 11.2189 19 10.6666 19H1.83325C1.28097 19 0.842453 18.55 0.959269 18.0102C1.27468 16.5527 2.37957 14 6.24992 14Z" fill="#6E501F"/>
<path d="M12.0596 6.14529C13.7627 6.23591 15.0705 7.68993 14.98 9.39295C14.8894 11.0961 13.4346 12.404 11.7314 12.3133C11.1511 12.2824 10.619 12.0897 10.1703 11.7863C11.1786 10.9083 11.8452 9.63983 11.9219 8.19947C11.9601 7.48032 11.8474 6.78778 11.6123 6.15278C11.7589 6.13945 11.9083 6.13725 12.0596 6.14529ZM10.6383 6.40998C10.851 6.94521 10.9559 7.53353 10.9233 8.14633L10.9062 8.35763C10.791 9.4644 10.2402 10.43 9.43736 11.0959C9.01039 10.5342 8.77156 9.8245 8.81199 9.06473C8.87582 7.86756 9.61413 6.86782 10.6383 6.40998Z" fill="#6E501F"/>
<path d="M17 2V6" stroke="#6E501F" stroke-width="2" stroke-linecap="round"/>
<path d="M19 4L15 4" stroke="#6E501F" stroke-width="2" stroke-linecap="round"/>
</svg>
