<svg width="259" height="110" viewBox="0 0 259 110" fill="none" xmlns="http://www.w3.org/2000/svg">
<path d="M10.1299 24.4812C11.0039 38.897 10.0753 48.7372 9.9273 62.1104C9.79656 73.9486 9.76574 87.304 9.77412 101C9.77355 100.85 9.65452 100.725 9.5 100.72C27.8775 100.694 46.542 100.616 62.698 100.628C85.4878 100.646 108.645 100.708 131.298 100.758C132.459 100.761 133.152 100.857 133.679 100.858C138.639 100.869 146.956 100.782 151.876 100.795C162.226 100.821 180.234 100.806 189.713 100.896C193.738 100.934 197.867 100.95 199.432 101.178C200.903 101.19 201.705 100.984 202.089 100.972C202.094 100.973 202.098 100.973 202.103 100.973C203.34 100.938 206.463 101.083 207.153 101.074C207.256 101.072 206.621 100.923 208.294 100.968C208.442 100.972 208.305 101.074 209.713 101.075C210.08 101.075 214.789 100.92 216.135 100.91C220.615 100.879 231.311 101.001 236.667 100.999C237.486 100.999 237.957 100.94 238.822 100.939C239.269 100.938 239.939 101.003 240.076 101.002C240.679 101 243.311 100.707 242.366 101.285C245.114 101.248 244.304 101.057 244.366 100.933C247.267 100.916 248.706 101.173 249.5 100.922C249.5 100.915 249.5 100.907 249.5 100.899C249.438 100.91 249.413 100.951 249.414 101C249.444 88.4026 249.474 75.8052 249.504 63.2078C249.457 63.2035 249.41 63.1991 249.363 63.1947C249.55 58.8708 249.233 57.3876 249.505 54.9191C249.445 53.397 249.385 51.8749 249.325 50.3528C249.391 36.5534 249.405 22.7653 249.397 9C249.4 9.0588 249.438 9.10143 249.5 9.10774C226.351 9.13195 203.27 9.20922 180.313 9.20881C178.681 9.20881 178.273 9.1088 175.581 9.1081C172.609 9.1074 168.429 9.22362 164.511 9.22223C161.075 9.22118 156.006 9.12657 152.174 9.11176C151.309 9.10859 150.684 9.17193 150.587 9.17158C150.014 9.1691 149.985 9.06883 149.43 9.06599C148.765 9.06282 147.963 9.13709 147.195 9.13251C144.327 9.11597 141.202 9.14157 140.839 9.13984C139.09 9.13035 138.703 9.03228 138.56 9.0312C136.614 9.01923 137.343 9.10774 136.859 9.10261C134.344 9.07548 132.567 8.85454 129.125 9.0666C129.218 8.98461 129.312 8.90262 129.406 8.82063C126.772 8.7745 128.512 8.99236 127.973 9.03181C127.754 9.04643 122.083 9.01982 121.646 9.01594C120.123 9.00185 120.082 8.8929 119.95 8.89143C119.629 8.88791 115.797 9.01157 113.833 8.91646C111.508 8.80375 114.244 8.58211 113.667 8.54049C113.57 8.53345 111.136 8.55616 110.81 8.48678C110.449 8.41214 112.553 8.41372 112.521 8.38241C112.498 8.36093 109.004 8.20706 109.674 8.10349C110.212 7.99962 114.953 8.1328 115.957 8.08396C116.123 8.07588 115.81 7.94768 115.957 7.94298C116.547 7.92572 127.468 7.92186 127.968 7.94298C127.399 8.00136 126.831 8.05975 126.262 8.11814C127.018 8.12404 127.774 8.12994 128.531 8.13584C127.455 8.18263 126.38 8.22942 125.305 8.27622C126.903 8.75699 131.716 8.26961 131.914 8.02964C132 7.91868 129.058 7.63318 131.796 7.46692C131.379 7.43843 130.963 7.40995 130.547 7.38147C129.689 7.42826 128.831 7.47505 127.973 7.52185C128.545 7.55134 129.116 7.58084 129.687 7.61034C129.477 7.64371 129.267 7.67707 129.056 7.71044C127.453 7.76394 125.849 7.81745 124.246 7.87096C123.421 7.8463 123.592 7.74779 123.026 7.72875C115.958 7.48887 120.568 7.79412 115.941 7.75011C115.28 7.69721 114.62 7.64432 113.959 7.59142C114.192 7.81019 112.143 7.67283 109.663 7.7672C109.96 7.6964 110.256 7.6256 110.552 7.5548C106.961 7.5925 99.6809 7.23555 101.645 7.62621C100.823 7.59285 99.9998 7.55948 99.177 7.52612C98.4821 7.59 97.7872 7.65388 97.0923 7.71776C96.1319 7.71044 95.1715 7.70311 94.2111 7.69579C94.2067 7.6612 94.2024 7.62662 94.198 7.59203C94.9638 7.59183 95.7297 7.59163 96.4956 7.59142C95.9208 7.48604 95.3459 7.38065 94.7711 7.27527C94.2058 7.29277 93.6407 7.31026 93.0755 7.32776C95.4463 7.42743 92.3206 7.59023 91.5639 7.72936C89.5653 7.78078 88.2882 7.60017 87.618 7.59203C87.303 7.58816 83.5922 7.90678 85.047 7.55663C83.1376 7.59915 81.2282 7.64167 79.3188 7.68419C78.5722 7.65734 77.8256 7.63048 77.079 7.60363C78.6992 7.44054 74.0035 7.24403 77.4628 7.1764C80.0459 7.12567 80.6825 7.27816 81.9082 7.2771C83.0131 7.27635 83.5973 7.17365 84.7999 7.16907C92.8872 7.14019 99.4749 7.15903 107.155 7.20447C108.673 7.2136 110.053 7.16325 111.072 7.17029C112.223 7.17842 110.781 7.30723 112.248 7.27588C113.787 7.24274 114.12 7.13762 114.527 7.1355C114.78 7.13431 115.582 7.22889 116.32 7.22889C119.352 7.22887 123.796 7.13742 124.227 7.13795C124.714 7.139 133.291 7.22434 133.701 7.23987C133.919 7.24833 133.468 7.59756 135.358 7.22522C135.947 7.21831 136.537 7.21139 137.127 7.20447C137.031 7.27425 136.936 7.34403 136.84 7.41382C140.334 7.14928 139.132 7.29727 142.5 7.27649C150.565 7.22648 162.461 7.28528 171.281 7.26062C173.25 7.25498 174.001 7.17142 176.331 7.16541C178.495 7.16013 184.148 7.40944 182.919 7.0641C187.735 7.36313 188.509 6.84746 190.921 7.16907C191.213 7.12228 191.504 7.07549 191.796 7.0287C194.414 7.22948 195.221 7.05302 198.079 7.0287C199.31 7.01813 197.891 7.23168 200.377 6.99391C200.852 7.01161 201.327 7.02931 201.802 7.04701C201.691 7.09868 201.581 7.15036 201.47 7.20203C204.231 7.15976 204.409 7.18669 204.094 6.9933C205.427 7.02849 206.759 7.06369 208.092 7.09888C208.258 7.03541 208.424 6.97194 208.589 6.90846C207.951 6.78739 177.688 6.96997 173.473 7.02809C168.531 6.88441 158.601 7.06403 154.609 7.02992C153.011 7.01618 152.305 6.87262 149.979 6.85536C147.655 6.83812 144.729 6.9685 143.491 6.97316C139.367 6.98936 119.83 6.96072 133.118 6.78212C132.736 6.71214 132.354 6.64215 131.972 6.57217C126.691 6.81098 128.603 6.66396 124.222 6.6393C122.377 6.62878 117.991 6.78506 118.236 6.46719C121.661 6.40801 125.3 6.50961 128.278 6.50503C128.573 6.50453 132.1 6.3594 133.914 6.39883C135.552 6.43483 134.424 6.73785 137.986 6.39761C140.632 6.72997 142.162 6.42844 142.86 6.39639C144.068 6.34081 144.2 6.50485 145.408 6.52395C146.723 6.54505 147.628 6.43616 147.808 6.43545C149.611 6.43299 159.005 6.41814 159.435 6.48428C159.057 6.51337 158.68 6.54246 158.302 6.57156C160.742 6.61838 160.232 6.45065 160.873 6.43057C161.351 6.43118 161.828 6.43179 162.306 6.4324C162.117 6.46719 161.927 6.50198 161.738 6.53677C164.619 6.52937 162.415 6.40848 166.504 6.41165C169.101 6.41378 171.783 6.54659 172.035 6.53677C172.11 6.53395 171.292 6.44441 172.351 6.4324C174.103 6.41268 177.133 6.41496 177.472 6.53677C178.33 6.51953 178.257 6.40033 178.371 6.39761C178.869 6.38599 187.442 6.34546 188.978 6.33841C193.234 6.31904 197.972 6.34445 202.582 6.32437C203.056 6.32236 202.754 6.39886 203.229 6.39639C203.992 6.39247 207.907 6.27243 208.492 6.26395C209.952 6.24318 213.792 6.29079 214.396 6.25601C214.482 6.25108 213.218 6.14769 214.696 6.11564C216.337 6.08017 215.453 6.21923 215.542 6.22062C218.881 6.26817 220.989 6.17155 223.269 6.15287C224.007 6.14688 225.37 6.25153 226.413 6.22062C226.533 6.2171 226.295 6.1204 226.413 6.11564C227.988 6.06491 229.461 6.24439 230.143 6.25601C231.811 6.28443 230.903 6.15198 230.989 6.15104C232.1 6.14681 233.596 6.19459 235.285 6.18827C240.319 6.16943 244.734 6.15957 249.5 6.15773C250.936 6.11553 252.368 7.3982 252.34 9C252.34 9.39124 252.34 9.78672 252.339 10.1868C252.338 11.1923 252.245 12.3859 252.245 12.5397C252.245 13.015 252.355 12.8791 252.353 14.2537C252.347 17.1517 252.352 19.8386 252.35 22.708C252.35 23.2857 252.248 23.532 252.246 23.9725C252.239 25.4498 252.506 30.4881 252.174 30.5708C252.468 33.5032 252.215 35.451 252.218 37.8107C252.224 43.4008 252.284 52.1538 252.246 57.7267C252.238 58.9 252.153 59.4505 252.148 60.1032C252.14 61.2738 252.187 67.9658 252.174 68.3157C252.148 69.003 251.774 68.591 252.1 72.1249C252.123 74.1966 251.97 73.9519 251.961 74.3804C251.9 77.7196 252.242 80.9681 251.928 80.361C252.014 84.2489 252.187 86.7687 251.894 88.3553C252.037 88.3346 252.123 90.1631 252.068 92.3669C251.828 90.1104 251.674 90.3897 251.718 84.9326C251.719 84.8466 251.822 85.0106 251.823 84.9247C251.83 84.1454 251.778 82.5199 251.783 81.1917C251.789 79.8633 251.86 80.6009 251.858 80.0692C251.857 79.5824 251.758 79.5986 251.756 78.8941C251.752 76.609 251.725 74.5869 251.723 73.2868C251.722 72.4679 251.809 71.5512 251.809 70.9156C251.809 68.4583 251.741 63.2513 251.75 60.1242C251.752 59.4727 251.85 59.7462 251.858 58.3208C251.859 58.1544 251.757 57.5472 251.736 56.2993C251.715 55.0509 251.766 54.0831 251.755 53.2814C251.746 52.6113 251.656 52.8914 251.65 51.5174C251.646 50.3719 251.711 37.3979 251.725 36.6934C251.746 35.68 251.873 35.1983 251.858 34.5798C251.854 34.4709 251.732 34.2867 251.723 33.9095C251.591 28.2782 251.716 16.4612 251.74 9C251.743 8.55571 251.616 8.15735 251.419 7.83495C251.016 7.16821 250.267 6.74967 249.5 6.75809C236.192 6.77064 223.647 6.83252 210.046 6.85841C209.778 6.87978 209.511 6.90114 209.244 6.9225C210.759 6.92331 212.274 6.92413 213.789 6.92494C213.799 6.98272 213.808 7.0405 213.818 7.09827C215.866 7.10742 215.595 6.97078 215.537 6.88832C216.295 6.92331 217.053 6.9583 217.811 6.9933C218.465 6.79195 223.52 6.92586 226.126 6.92555C227.821 6.92555 229.838 6.84879 230.732 6.85475C232.62 6.86707 232.571 6.99132 232.719 6.9933C232.971 6.99611 235.607 6.88653 237.509 6.89076C240.32 6.89679 240.624 7.08757 244.473 6.92555C246.099 6.95819 247.783 6.97465 249.5 6.98147C250.552 6.9587 251.543 7.91019 251.524 9C251.53 10.4683 251.537 11.9394 251.541 13.3993C251.365 12.3874 251.532 17.1504 251.529 19.2984C251.512 32.4028 251.437 48.5093 251.367 61.7856C251.358 63.4918 251.254 64.7809 251.258 65.7315C251.259 66.247 251.382 66.472 251.366 67.1879C251.363 67.3136 251.248 67.4011 251.231 68.7337C251.188 72.0499 251.379 80.3104 251.159 82.401C251.177 88.6007 251.196 94.8003 251.215 101C251.246 101.91 250.421 102.752 249.5 102.733C246.456 102.743 243.412 102.752 240.368 102.761C240.083 102.714 239.798 102.667 239.514 102.62C237.36 102.859 228.845 102.719 224.692 102.73C217.384 102.75 208.059 102.825 201.656 102.833C200.264 102.835 199.124 102.767 197.807 102.768C197.24 102.769 196.536 102.857 195.946 102.857C189.325 102.864 180.36 102.773 173.688 102.775C158.538 102.78 144.271 102.767 128.921 102.771C88.96 102.781 49.1767 102.861 9.5 102.872C8.50477 102.9 7.59959 101.996 7.62639 101C7.62543 91.4337 7.62884 81.8735 7.63856 72.3182C7.63926 71.6309 7.74038 71.6652 7.74109 71.1326C7.74602 67.9882 7.66267 60.9664 7.66724 57.4153C7.67076 54.5859 7.82538 50.095 7.66968 49.1213C7.43402 59.1732 7.45175 69.793 7.38588 80.2572C7.38124 81.0011 7.2851 81.0936 7.28334 81.1852C7.24994 82.8793 7.38233 81.8095 7.38832 84.2662C7.39033 85.0873 7.08343 92.6712 7.38893 91.7689C7.32275 92.7525 7.27449 96.9581 7.25058 101C7.19954 102.418 8.61915 103.351 9.5 103.265C10.1871 103.263 10.7315 103.26 11.0756 103.254C11.8259 103.242 11.2947 103.151 11.4436 103.146C12.0903 103.126 12.3824 103.251 12.9604 103.255C14.5011 103.262 18.4199 103.161 19.1645 103.162C20.8776 103.163 26.0138 103.264 28.276 103.24C30.3494 103.219 29.9613 103.088 31.754 103.076C33.1669 103.067 31.6278 103.177 34.7824 103.21C36.3459 103.226 41.8153 103.148 43.1447 103.148C44.4735 103.148 45.9518 103.226 47.7846 103.22C50.4248 103.211 56.168 103.168 58.8547 103.143C59.015 103.141 59.4058 103.04 59.801 103.042C60.6196 103.046 60.3738 103.172 60.9919 103.184C61.6103 103.197 72.322 103.182 74.1413 103.183C75.3953 103.184 76.2613 103.109 76.9542 103.11C77.498 103.111 77.5561 103.215 78.1109 103.216C78.2827 103.216 79.7445 103.125 81.205 103.128C82.585 103.13 87.8248 103.216 88.4317 103.217C88.8269 103.217 88.3937 103.143 89.5621 103.145C90.6269 103.146 91.3264 103.243 91.9333 103.244C93.3417 103.247 94.916 103.165 96.4102 103.165C100.706 103.164 100.485 103.283 100.743 103.287C101.457 103.298 101.743 103.188 101.978 103.186C102.969 103.177 105.396 103.157 106.279 103.153C107.379 103.147 107.844 103.251 109.013 103.251C109.884 103.251 111.642 103.15 113.629 103.145C118.108 103.134 123.434 103.115 127.833 103.118C129.144 103.119 129.346 103.214 129.746 103.217C131.854 103.23 133.033 103.124 133.635 103.125C137.924 103.135 145.577 103.301 149.557 103.315C151.178 103.321 158.275 103.244 162.278 103.258C162.736 103.259 162.308 103.333 162.817 103.322C164.036 103.294 163.923 103.143 164.542 103.147C164.84 103.15 165.521 103.235 166.39 103.244C170.897 103.288 173.997 103.221 176.053 103.226C195.802 103.27 215.94 103.309 234.382 103.323C236.438 103.324 238.988 103.234 242.092 103.322C242.188 103.369 242.283 103.416 242.379 103.463C242.488 103.416 242.596 103.37 242.705 103.324C245.63 103.303 247.041 103.259 249.5 103.278C249.787 103.282 250.095 103.238 250.416 103.109C250.568 103.069 251.209 102.906 251.221 102.452C252.103 101.359 251.764 101.261 251.784 101C251.761 100.764 251.738 100.387 251.732 99.5594C251.714 96.9193 251.773 94.3537 251.787 91.7938C251.882 90.3905 252.102 96.2787 252.102 96.6624C252.101 97.2807 251.968 97.923 251.961 98.5184C251.951 99.4155 251.973 100.298 251.981 101C251.99 101.427 251.878 101.733 251.785 101.823C251.274 103.13 252.014 101.548 252.004 101.714C251.697 102.656 250.807 103.352 249.876 103.434C249.826 103.49 249.695 103.544 249.5 103.568C247.385 103.734 241.003 103.382 241.514 103.638C240.846 103.579 240.177 103.521 239.508 103.463C236.576 103.828 234.852 103.571 230.941 103.462C231.223 103.509 231.505 103.556 231.787 103.602C231.707 103.622 228.256 103.697 229.49 103.497C225.951 103.76 226.1 103.323 222.928 103.639C221.044 103.68 222.177 103.496 218.804 103.499C216.805 103.501 214.323 103.597 212.09 103.604C211.575 103.605 211.351 103.499 210.893 103.499C210.436 103.499 210.212 103.603 209.658 103.605C208.512 103.611 207.027 103.538 206.311 103.545C205.67 103.551 204.753 103.643 203.207 103.657C197.807 103.708 199.438 103.577 198.585 103.533C197.669 103.486 197.01 103.658 195.184 103.638C195 103.636 195.474 103.529 194.879 103.533C194.398 103.536 194.156 103.653 192.565 103.675C191.932 103.684 182.095 103.709 180.596 103.711C178.299 103.714 173.183 103.615 170.806 103.616C169.89 103.616 168.911 103.71 167.938 103.709C164.714 103.707 159.551 103.699 155.462 103.695C151.779 103.69 145.315 103.483 143.298 103.67C138.127 103.694 136.871 103.534 136.482 103.532C135.428 103.526 134.94 103.632 133.611 103.637C116.4 103.699 93.7356 103.629 77.4353 103.637C54.8438 103.649 32.1788 103.675 9.5 103.684C8.07162 103.722 6.7775 102.43 6.81337 101C6.80975 87.8131 6.8125 74.6234 6.82742 61.4427C6.78043 61.341 6.73343 61.2394 6.68644 61.1377C6.65614 65.6224 6.5745 70.8929 6.55583 75.3203C6.53119 81.231 6.7269 89.999 6.40568 94.3347C6.37751 92.5764 6.50068 89.7118 6.3355 89.7631C6.3237 92.9063 6.3119 96.0495 6.3001 99.1928C6.37639 99.099 6.45268 99.0052 6.52897 98.9115C6.53366 99.6047 6.53661 100.301 6.53846 101C6.50182 102.571 7.92703 104.001 9.5 103.958C10.0211 103.957 10.5412 103.956 11.0598 103.955C11.6318 103.953 11.2267 103.883 11.7249 103.883C12.2822 103.883 11.9044 103.953 12.0088 103.954C13.4175 103.955 13.8427 103.883 14.0146 103.884C14.4556 103.887 14.1127 103.955 15.3842 103.974C17.743 104.01 19.432 103.829 18.8779 104.13C19.6394 104.13 20.4009 104.13 21.1624 104.13C21.3596 104.048 21.5567 103.966 21.7539 103.884C26.4379 104.215 28.5977 103.635 31.1861 104.095C32.0396 104.025 32.8931 103.955 33.7466 103.884C34.2277 103.966 34.7088 104.048 35.1899 104.13C35.2836 104.06 35.3774 103.989 35.4712 103.919C40.0699 103.971 44.9663 103.887 49.3646 103.895C52.4283 103.9 53.1623 103.928 55.8762 103.923C61.9127 103.911 55.918 104.05 60.9341 104.201C60.6729 104.114 60.4118 104.028 60.1507 103.942C60.9814 103.911 61.8121 103.879 62.6428 103.848C63.2212 103.918 63.7995 103.988 64.3778 104.058C66.9433 103.694 68.6053 103.988 68.9546 103.988C69.2369 103.987 70.2061 103.768 73.2423 103.954C71.9832 103.654 75.5585 103.952 75.8448 103.954C76.117 103.955 79.5978 103.888 81.0105 103.891C82.1218 103.893 84.4923 103.958 86.1472 103.955C87.6084 103.952 87.4602 103.85 87.5668 103.849C89.3652 103.841 88.2383 103.92 89.5384 103.923C90.8385 103.927 91.8472 103.841 92.1278 103.848C92.2691 103.852 91.797 103.947 92.4433 103.956C94.179 103.981 97.3175 103.898 99.3046 103.901C100.009 103.902 100.897 103.982 101.681 103.984C102.884 103.988 103.446 103.881 104.144 103.884C104.387 103.886 105.938 104.051 107.867 104.025C108.234 104.02 109.311 103.671 110.743 104.166C110.853 104.096 110.963 104.027 111.074 103.957C117.54 103.785 119.34 104.35 122.215 103.848C126.91 103.904 123.687 104.1 124.202 104.13C124.535 104.149 126.066 104.095 126.234 104.098C126.532 104.104 126.481 104.167 126.807 104.166C132.793 104.155 130.135 104.036 132.031 103.961C136.538 103.783 140.055 104.179 132.215 104.06C132.215 104.095 132.215 104.13 132.215 104.165C134.145 104.132 139.046 104.148 137.41 104.325C136.121 104.465 124.495 104.374 131.079 104.57C132.574 104.614 133.349 104.483 135.937 104.729C137.649 104.742 137.896 104.423 140.215 104.551C139.833 104.44 139.452 104.329 139.071 104.218C142.232 104.073 146.133 104.267 148.561 104.205C149.386 104.184 152.359 103.653 151.666 104.183C153.053 104.15 159.587 104.248 160.801 104.201C161.093 104.189 161.473 103.907 165.698 104.005C165.992 104.041 166.286 104.076 166.579 104.111C162.715 104.214 169.539 104.319 167.686 104.587C167.056 104.466 163.991 104.393 163.498 104.332C162.656 104.228 165.164 104.094 161.968 104.13C159.953 104.578 165.714 104.372 164.834 104.797C169.029 104.599 169.449 104.788 170.399 104.796C174.459 104.828 177.015 104.783 180.846 104.833C181.779 104.745 174.844 104.619 173.985 104.657C177.146 104.347 171.704 104.333 169.408 104.517C169.215 104.424 169.022 104.33 168.829 104.237C171.819 104.287 174.735 104.313 177.696 104.237C177.889 104.272 178.082 104.307 178.275 104.342C177.611 104.394 176.946 104.447 176.282 104.5C178.745 104.586 177.268 104.313 180.549 104.552C180.65 104.447 180.752 104.341 180.854 104.236C184 104.271 187.145 104.306 190.291 104.341C191.929 104.13 197.982 104.208 196.874 104.482C199.317 104.501 196.301 104.356 198.59 104.289C199.587 104.26 201.535 104.252 202.016 104.326C201.809 104.586 198.894 104.619 198.012 104.797C198.547 104.855 212.102 104.669 210.893 104.974C211.976 105.01 211.478 104.853 213.43 104.813C218.9 104.701 227.372 105.012 231.777 104.622C226.605 104.406 225.075 104.635 221.112 104.644C218.58 104.65 203.145 104.687 206.593 104.412C206.026 104.447 205.459 104.482 204.892 104.517C204.319 104.435 203.746 104.353 203.173 104.271C204.787 104.259 206.403 104.247 208.017 104.235C208.403 104.317 208.789 104.399 209.174 104.481C209.352 104.422 209.53 104.364 209.708 104.305C210.388 104.294 211.068 104.282 211.748 104.271C211.557 104.341 211.366 104.411 211.175 104.481C212.223 104.493 213.271 104.505 214.319 104.517C214.037 104.423 213.754 104.33 213.472 104.236C218.408 104.212 216.736 104.271 219.474 104.446C221.518 104.464 218.065 104.284 222.389 104.238C227.418 104.185 224.119 104.472 230.631 104.41C230.724 104.364 230.818 104.317 230.912 104.27C232.344 104.317 233.776 104.364 235.208 104.41C235.018 104.352 234.829 104.294 234.64 104.236C237.595 104.258 241.668 104.147 242.647 104.376C239.652 104.266 239.681 104.664 240.46 104.738C241.066 104.794 244.815 104.81 249.5 104.806C251.412 104.877 253.355 103.095 253.294 101C253.275 94.7466 253.243 88.4928 253.238 86.3574C253.226 80.4699 253.353 76.0199 253.157 70.6422C252.996 74.2865 253.128 87.1019 253.017 89.5304C253.006 89.7709 252.64 89.7032 253.051 91.2496C253.01 94.2061 253.034 97.5052 253.058 101C253.129 102.835 251.465 104.63 249.5 104.587C249.124 104.587 248.748 104.587 248.37 104.586C248.56 104.481 248.75 104.376 248.941 104.271C249.128 104.282 249.314 104.291 249.5 104.299C252.409 104.362 252.799 101.201 252.786 101C252.812 100.914 252.853 100.902 252.912 100.974C252.912 100.212 252.912 99.4507 252.912 98.6893C252.841 98.6893 252.771 98.6893 252.701 98.6893C252.701 97.5413 252.701 96.3934 252.701 95.2455C252.771 95.2455 252.841 95.2455 252.912 95.2455C252.912 94.2947 252.912 93.344 252.912 92.3932C252.842 92.2942 252.771 92.1952 252.701 92.0961C252.847 89.2491 252.457 79.5432 252.876 83.81C252.876 82.4728 252.876 81.1356 252.876 79.7984C252.825 79.8028 252.773 79.8072 252.722 79.8116C252.715 79.2367 252.708 78.6619 252.701 78.0871C252.748 78.2763 252.794 78.4656 252.841 78.6549C252.757 76.0206 253.003 73.5233 252.842 71.7936C252.806 72.9345 252.771 74.0755 252.736 75.2164C252.803 73.0282 252.664 68.9972 252.664 68.6364C252.663 67.5368 252.767 66.957 252.773 65.7657C252.777 64.6903 252.697 64.8383 252.7 64.6379C252.781 58.837 253.214 61.0478 252.702 58.3392C252.772 58.0509 252.842 57.7627 252.912 57.4744C252.853 57.0905 252.795 56.7067 252.737 56.3229C252.742 54.6098 252.748 52.8967 252.753 51.1836C252.666 51.7549 252.578 52.3262 252.491 52.8976C252.452 50.3297 252.627 49.132 252.631 48.8833C252.641 48.1795 252.531 47.8575 252.531 47.6399C252.54 37.1756 252.637 43.5315 253.051 38.3022C252.889 36.4377 252.726 38.3241 252.561 38.5888C252.638 36.1095 252.592 35.3357 252.602 32.7186C252.604 32.0377 252.693 31.3054 252.694 30.8758C252.695 30.5036 252.601 29.3402 252.6 28.4467C252.6 26.9577 252.656 24.9756 252.655 22.9367C252.653 21.2413 252.586 16.0517 252.586 12.4319C252.586 10.8872 252.665 11.2456 252.665 10.8467C252.665 10.7086 252.6 9.85368 252.577 9C252.573 8.86518 252.561 8.73288 252.545 8.60518C252.385 7.13344 251.005 5.89671 249.5 5.92279C243.275 5.90725 236.983 5.8726 230.784 5.87395C225.063 5.875 219.249 5.95127 213.516 5.94352C212.296 5.94176 212.942 5.87214 212.409 5.86967C212.226 5.86905 212.006 5.99054 210.119 5.94169C209.438 5.92408 210.221 5.83911 209.551 5.83489C209.225 5.83287 209.087 5.93937 207.18 5.96367C203.715 6.00803 201.853 5.86606 201.544 5.87028C200.961 5.87846 201.131 5.9666 200.358 5.96977C196.579 5.98527 193.423 6.00021 190.051 6.00761C188.476 6.01113 177.616 6.02895 177.019 6.0131C175.685 5.97788 176.927 5.79383 175.216 5.8001C174.737 5.84668 174.257 5.89327 173.778 5.93986C174.54 5.97526 175.301 6.01066 176.063 6.04606C173.966 5.98688 171.589 6.07059 170.037 6.06742C169.75 6.0667 167.112 5.98323 165.765 5.99235C166.338 5.95777 166.91 5.92318 167.482 5.88859C167.28 5.8591 167.077 5.8296 166.875 5.8001C164.183 5.84482 161.336 5.84367 158.576 5.83733C157.58 5.83517 157.917 5.7635 156.909 5.76103C151.039 5.74592 152.522 6.04392 146.875 5.48455C148.781 5.53527 155.737 5.46411 156.749 5.48272C157.453 5.49576 160.185 5.9684 159.183 5.48333C164.819 5.48545 159.923 5.75298 165.187 5.69451C165.082 5.63531 164.977 5.5761 164.872 5.5169C166.709 5.47958 168.066 5.44967 169.183 5.55413C169.557 5.26692 175.801 5.43496 179.225 5.41559C184.174 5.38811 189.764 5.31806 194.667 5.30573C196.356 5.30155 197.313 5.41411 197.524 5.41376C197.834 5.41295 198.704 5.31437 199.323 5.31366C201.631 5.31085 208.654 5.4775 210.4 5.2038C196.666 5.2038 182.931 5.2038 169.196 5.2038C170.923 5.33833 157.03 5.35148 156.325 5.34479C155.673 5.33877 156.222 5.24432 156.028 5.23859C154.585 5.19808 153.353 5.33502 152.895 5.33502C152.545 5.335 151.84 5.27075 150.597 5.27216C150.369 5.27236 150.306 5.34031 150.061 5.34052C148.44 5.34052 146.84 5.33955 145.213 5.33991C145.114 5.33925 144.704 5.23999 144.293 5.23981C143.881 5.23981 143.474 5.33899 143.37 5.33929C142.07 5.33859 139.841 5.27408 138.604 5.27338C138.175 5.27341 138.473 5.34609 137.992 5.3454C136.514 5.34364 137.001 5.20134 135.174 5.23798C134.561 5.25032 134.601 5.35914 133.428 5.34479C132.598 5.33457 132.687 5.14066 132.555 5.13361C132.373 5.1251 129.508 5.27823 128.57 5.15131C130.619 4.81624 126.329 5.13383 126.535 5.27521C125.4 5.23961 124.264 5.204 123.128 5.1684C122.741 5.20421 122.354 5.24001 121.966 5.27582C117.384 5.11449 114.589 5.21135 110.081 5.16169C109.864 5.15922 106.066 5.07962 106.243 5.02925C108.517 4.94261 110.785 4.93865 112.24 5.09882C114.634 4.79341 114.675 5.0368 118.541 4.99629C119.835 4.98255 119.927 4.89969 120.076 4.89863C125.11 4.85743 133.173 4.82177 136.564 5.06403C137.515 4.99851 134.097 4.97253 135.426 4.92427C136.151 4.89784 153.593 4.82047 148.021 5.09943C148.599 5.0917 149.177 5.08397 149.756 5.07624C150.334 4.81275 153.211 4.87301 152.884 5.13544C153.157 5.08173 153.429 5.02803 153.702 4.97432C154.24 4.92887 154.877 4.90453 155.771 4.89009C159.192 4.83516 179.546 4.92656 180.629 4.88887C180.653 4.82662 180.678 4.76436 180.702 4.70211C171.71 4.63166 162.987 4.78636 153.181 4.60812C153.466 4.66651 153.751 4.72489 154.036 4.78328C150.123 4.7015 146.21 4.61971 142.298 4.53793C146.439 4.43225 153.027 4.3435 157.374 4.43051C158.147 4.44603 157.58 4.52746 157.758 4.53732C158.222 4.56293 158.721 4.42166 160.387 4.40793C162.054 4.39421 166.241 4.49436 166.625 4.49154C167.365 4.48573 169.361 4.32409 170.621 4.32614C172.276 4.32896 171.167 4.42901 171.499 4.43112C172.873 4.44095 174.105 4.39138 175.182 4.39877C176.78 4.40977 180.101 4.5857 181.218 4.32736C180.076 4.31556 178.934 4.30376 177.792 4.29196C183.984 4.19932 188.825 4.52956 194.924 4.27487C196.311 3.96207 191.27 4.00434 195.532 3.87083C194.758 3.87531 193.984 3.87979 193.21 3.88426C193.029 3.94977 192.848 4.01528 192.666 4.08079C191.333 4.034 190.001 3.9872 188.668 3.94041C189.048 3.9988 189.428 4.05719 189.809 4.11558C185.084 4.15961 180.312 4.21948 178.662 3.90562C178.565 3.98151 178.468 4.05739 178.371 4.13328C173.984 4.04101 167.398 4.36265 168.628 3.94041C168.421 3.96279 168.213 3.98517 168.005 4.00755C165.353 3.92124 166.486 4.09585 165.489 4.11558C165.205 4.12113 160.05 4.03098 162.335 3.90562C157.306 3.80982 158.857 4.20446 157.471 4.22178C154.253 4.02627 148.462 4.31953 150.897 4.0106C150.417 3.999 149.938 3.98741 149.459 3.97581C147.884 4.21887 146.331 3.94386 144.624 3.85191C144.046 3.84642 143.468 3.84093 142.889 3.83544C142.502 3.91722 142.115 3.999 141.727 4.08079C136.286 3.69154 138.009 4.75607 135.523 3.86168C135.911 3.80817 136.298 3.75467 136.685 3.70116C137.604 3.67573 138.522 3.6503 139.44 3.62487C135.736 3.60127 132.032 3.57767 128.328 3.55407C123.627 3.30338 120.951 3.57538 115.728 3.37708C115.239 3.40088 114.75 3.42468 114.261 3.44848C114.76 3.24594 116.657 3.2757 113.123 3.18482C112.822 3.04162 115.208 3.02308 116.296 3.13294C116.558 3.15975 114.327 3.26944 116.835 3.27332C118.54 3.27608 115.444 3.10398 120.552 3.16773C120.363 3.13274 120.174 3.09775 119.984 3.06275C120.538 3.06377 121.092 3.06479 121.646 3.06581C122.138 3.14678 122.631 3.22775 123.123 3.30872C124.389 3.19177 125.099 3.02788 127.992 3.06275C127.207 3.11347 128.272 3.27607 129.703 3.27332C129.703 3.21473 129.703 3.15613 129.703 3.09754C133.168 3.05985 131.972 3.23175 134.853 3.09754C135.141 3.14413 135.43 3.19072 135.718 3.23731C137.287 3.04533 143.065 2.91472 142.011 3.20252C143.632 2.92282 147.036 3.04902 148.302 3.27271C148.399 3.21452 148.497 3.15634 148.594 3.09815C149.268 3.08635 149.942 3.07455 150.615 3.06275C150.991 3.09795 151.367 3.13315 151.743 3.16834C152.221 3.13315 152.698 3.09795 153.176 3.06275C153.464 3.12114 153.752 3.17953 154.041 3.23792C154.808 3.16793 155.576 3.09795 156.344 3.02796C156.813 3.07455 157.283 3.12114 157.753 3.16773C157.801 3.04594 162.455 3.01882 163.754 3.09876C164.142 3.06336 164.529 3.02796 164.916 2.99257C165.106 3.05055 165.295 3.10853 165.484 3.16651C165.772 3.12013 166.061 3.07374 166.349 3.02735C167.013 3.07374 167.677 3.12013 168.342 3.16651C171.051 2.88225 171.138 3.13165 171.757 3.12989C172.903 3.12663 176.808 2.94862 177.461 2.95778C178.113 2.967 178.428 3.06903 178.954 3.07862C187.631 3.23889 184.064 2.96511 185.805 2.92177C186.744 2.89817 187.409 2.99334 188.239 2.9828C189.66 2.96519 196.825 2.83925 197.238 2.85158C197.838 2.86937 196.425 3.31819 198.376 3.20252C198.441 2.96152 202.614 3.20476 200.663 2.86867C202.382 2.89817 204.1 2.92767 205.818 2.95717C205.624 2.67148 207.743 2.85522 210.051 2.83937C213.322 2.81716 220.685 2.62932 220.416 2.92238C221.2 2.85504 221.983 2.7877 222.766 2.72036C228.127 2.81261 233.385 2.71595 238.705 2.71242C242.246 2.70997 245.855 2.71127 249.5 2.71542C252.832 2.63706 255.857 5.63976 255.775 9C255.754 19.6147 255.715 30.3842 255.677 40.5604C255.674 41.316 255.579 41.2073 255.576 41.7513C255.566 44.6093 255.634 52.0381 255.612 56.0416C255.606 57.3241 255.512 57.9484 255.508 58.355C255.493 59.7354 255.616 59.4096 255.612 60.0454C255.607 61.0482 255.493 66.352 255.481 68.179C255.475 69.0835 255.572 70.1537 255.542 71.2127C255.54 71.3038 255.439 71.1355 255.437 71.2127C255.425 73.1428 255.512 71.9819 255.507 72.6349C255.475 77.2911 255.473 82.2681 255.452 87.3195C255.447 88.5739 255.376 90.4936 255.369 91.5704C255.367 91.9811 255.443 91.2444 255.437 92.664C255.434 93.1502 255.335 93.3164 255.329 93.8653C255.301 96.2305 255.621 97.022 255.364 99.0547C255.367 99.6444 255.371 100.3 255.376 101C255.534 103.834 252.794 107.015 249.5 106.928C247.185 106.948 244.975 106.964 243.396 106.965C242.55 106.965 242.137 106.906 241.33 106.907C240.757 106.908 239.75 106.999 238.856 107C237.963 107.001 236.553 106.915 234.834 106.918C233.025 106.921 230.776 106.972 230.368 106.972C229.875 106.972 229.646 106.863 229.153 106.864C227.664 106.868 223.677 106.975 221.758 106.987C219.697 106.999 218.459 106.946 217.755 106.947C217.102 106.948 216.341 107.041 216.043 107.042C215.58 107.043 215.47 106.935 214.881 106.936C213.919 106.938 212.928 107.006 211.485 107.007C185.505 107.041 160.033 106.982 134.757 106.903C131.939 106.894 130.347 106.97 126.195 106.935C124.511 106.921 125.221 106.81 123.91 106.831C123.326 106.841 123.474 106.928 122.735 106.932C119.471 106.951 115.667 106.869 114.252 106.871C113.691 106.871 113.05 106.971 111.899 106.972C103.325 106.983 93.1816 106.955 83.9548 106.973C79.0692 106.982 71.6728 107.032 66.0656 107.039C50.573 107.058 33.9064 107.035 19.777 107.045C16.3489 107.047 12.9235 107.051 9.5 107.056C6.27085 107.136 3.36119 104.233 3.43335 101C3.40672 85.2224 3.37712 69.4784 3.45778 53.7034C3.21719 63.6634 3.23727 77.2262 3.2112 88.3146C3.20142 92.51 3.19532 96.741 3.19209 101C3.11034 104.35 6.12426 107.388 9.5 107.311C35.8248 107.314 63.0691 107.225 89.4859 107.229C100.906 107.231 115.306 107.225 127.809 107.281C128.376 107.283 129.551 107.207 130.777 107.215C131.037 107.217 134.266 107.356 135.354 107.358C134.323 107.11 138.584 107.331 139.902 107.325C141.563 107.317 145.028 107.193 148.916 107.263C152.444 107.327 151.471 107.422 151.666 107.428C152.914 107.467 153.349 107.313 154.305 107.297C158.211 107.235 178.304 107.325 183.911 107.33C185.36 107.332 185.401 107.429 185.728 107.43C186.592 107.43 187.823 107.334 189.208 107.335C191.705 107.336 194.582 107.428 195.956 107.429C199.244 107.43 205.482 107.321 209.755 107.319C210.957 107.318 210.883 107.42 211.427 107.419C213.822 107.418 220.058 107.298 223.031 107.297C227.859 107.295 232.825 107.361 237.734 107.327C238.045 107.373 238.356 107.418 238.667 107.463C239.158 107.416 239.649 107.368 240.139 107.321C243.245 107.334 246.371 107.328 249.5 107.316C252.87 107.386 255.877 104.346 255.787 101C255.772 97.866 255.759 94.7413 255.761 91.644C255.762 90.6931 255.849 85.9858 255.849 85.2007C255.849 84.5478 255.737 83.9052 255.753 82.9373C255.776 81.5814 255.99 82.8573 255.929 80.6423C255.913 80.0467 255.821 80.6242 255.792 79.4278C255.783 79.0326 255.746 71.3622 255.752 70.9498C255.763 70.2627 255.959 69.6499 255.963 69.4724C255.986 68.5506 255.835 68.5898 255.821 67.9713C255.78 66.1464 255.881 63.7621 255.879 63.4655C255.851 59.88 255.731 53.1774 255.802 49.4143C255.812 48.894 255.924 48.9563 255.928 48.8649C255.951 48.2753 255.823 47.9088 255.821 47.3481C255.806 44.3296 255.892 39.6028 255.914 36.5672C255.916 36.2176 255.855 35.4797 255.861 34.8558C255.895 31.3277 255.994 32.4721 255.998 32.2717C256.009 31.7963 255.9 30.9604 255.893 29.6954C255.875 26.4365 255.891 20.187 255.899 16.6932C255.906 14.0758 256.03 14.1153 256.033 13.9434C256.037 13.5764 255.938 12.5567 255.927 10.8335C255.921 10.0322 255.923 9.44658 255.929 9C255.781 6.77167 255.65 6.65834 254.8 5.23949C254.64 5.14382 254.987 5.20991 253.096 3.7146C252.254 3.13763 250.976 2.60473 249.5 2.60578C246.239 2.58974 241.715 2.53342 239.278 2.53726C238.075 2.53902 237.794 2.63132 236.563 2.63308C234.61 2.63624 230.204 2.53639 229.856 2.53665C229.759 2.53665 229.541 2.64284 228.968 2.64284C228.338 2.64283 227.718 2.58817 227.249 2.58853C224.574 2.58999 219.967 2.77532 221.247 2.39627C220.39 2.48985 219.533 2.58344 218.676 2.67702C213.074 2.65835 207.633 2.69584 202.083 2.71486C200.835 2.71908 199.792 2.64729 198.739 2.65078C197.686 2.6543 193.038 2.77306 192.261 2.77529C190.875 2.77916 182.999 2.79167 182.02 2.78322C180.106 2.76702 178.251 2.61037 177.472 2.64101C176.847 2.66567 177.425 2.75394 176.233 2.77895C174.171 2.82221 170.667 2.70883 170.037 2.71059C169.768 2.71131 170.272 2.78011 167.753 2.78505C166.395 2.78787 165.667 2.71207 165.174 2.71242C165.021 2.71282 165.251 2.83574 162.563 2.81923C160.708 2.80761 159.916 2.71277 159.722 2.71242C159.429 2.71179 158.724 2.81299 157.55 2.80947C154.807 2.80063 149.791 2.68462 147.185 2.6758C146.681 2.67404 146.852 2.7963 144.843 2.78505C143.405 2.77695 143.656 2.67969 143.118 2.6758C142.265 2.66982 140.993 2.78891 139.109 2.78505C136.738 2.78012 119.131 2.65659 118.22 2.62453C117.607 2.60305 116.897 2.60169 116.593 2.54885C116.853 2.4982 117.114 2.44754 117.374 2.39688C120.07 2.57465 118.982 2.37148 119.698 2.35843C120.734 2.33976 124.641 2.36568 125.586 2.32059C125.923 2.3043 125.152 2.19617 126.961 2.14054C128.902 2.08107 129.766 2.27357 130.539 2.01054C133.294 2.30257 135.94 1.99262 132.75 1.90984C130.969 1.86368 113.499 1.75942 109.932 1.74321C107.039 1.7302 101.621 1.80845 98.065 1.78838C95.9745 1.7764 90.8257 1.76283 91.0434 1.62298C89.1877 1.60537 91.1515 1.74459 90.7621 1.76397C89.9476 1.80442 84.1557 1.70827 83.0596 1.71209C77.6528 1.7304 70.83 1.88674 65.5778 1.71026C65.8223 1.67282 66.0668 1.63539 66.3113 1.59795C67.4912 1.52926 72.9667 1.62747 73.5853 1.44781C65.5778 1.44781 57.5704 1.44781 49.563 1.44781C49.7119 1.60069 39.7801 1.59864 39.3105 1.5296C39.4849 1.45554 39.6592 1.38149 39.8336 1.30744C45.4459 1.58848 44.9426 1.21699 48.7112 1.41424C50.2454 1.41703 49.7824 1.29467 50.5383 1.27143C58.0626 1.04041 50.659 1.52251 56.419 1.41302C54.6851 1.23555 59.4024 1.17069 61.5163 1.14814C61.9974 1.14321 68.316 1.18819 69.0663 1.18537C73.2816 1.16952 80.521 1.07229 84.7079 1.1695C88.0067 1.18113 89.8227 1.05471 92.8178 1.02546C95.0912 1.00327 94.4396 1.09212 95.5098 1.09321C97.755 1.09568 98.4939 0.825187 99.9315 1.20246C101.454 1.15546 102.976 1.10847 104.498 1.06147C104.498 1.12006 104.498 1.17866 104.498 1.23725C105.454 1.23725 106.41 1.23725 107.366 1.23725C107.647 1.17886 107.928 1.12047 108.21 1.06208C111.244 1.14205 109.977 1.28314 110.544 1.44903C111.2 1.46043 111.855 1.47182 112.51 1.48321C113.018 1.35586 113.525 1.2285 114.033 1.10114C116.959 1.11152 119.886 1.1219 122.813 1.13227C123.002 1.19066 123.191 1.24905 123.381 1.30744C123.387 1.24905 123.393 1.19066 123.399 1.13227C128.355 1.12027 133.312 1.10826 138.268 1.09626C139.586 1.00259 131.645 0.931613 131.044 0.925979C127.699 0.89499 118.815 0.988898 118.804 0.780719C116.725 0.936047 110.465 0.897481 108.517 0.711142C111.473 0.722331 114.429 0.73352 117.384 0.744709C117.289 0.674928 117.193 0.605147 117.098 0.535366C120.78 0.816809 121.319 0.801319 125.105 0.535366C125.109 0.62895 125.112 0.722534 125.116 0.816119C127.756 0.490703 132.422 1.04271 132.555 0.640953C133.961 0.673504 135.366 0.706055 136.772 0.738606C139.807 0.689631 135.094 0.380651 146.977 0.501797C147.796 0.510251 147.625 0.612593 148.857 0.605554C149.212 0.60344 151.245 0.45456 155.134 0.47006C155.741 0.472536 155.787 0.561323 156.417 0.572596C157.872 0.599363 160.769 0.423762 159.454 0.709921C165.215 0.793378 162.827 0.558523 164.614 0.465177C165.805 0.403228 165.565 0.572538 166.596 0.534145C167.872 0.486531 166.936 0.315847 172.043 0.394379C171.47 0.405975 170.897 0.417571 170.324 0.429168C170.612 0.475553 170.9 0.521938 171.189 0.568324C174.104 0.457024 173.828 0.619647 175.203 0.358979C177.322 0.475224 179.156 0.484481 182.054 0.463346C187.684 0.422132 184.797 0.141212 191.223 0.519497C192.264 0.466398 193.305 0.413299 194.346 0.3602C196.057 0.471858 194.673 0.611557 197.227 0.639732C195.228 0.363912 200.617 0.464482 201.528 0.218603C201.624 0.277194 201.719 0.335787 201.815 0.394379C202.385 0.394379 202.956 0.394379 203.526 0.394379C203.528 0.347383 203.53 0.300387 203.531 0.253392C204.291 0.288588 205.051 0.323783 205.81 0.358979C206.382 0.312391 206.953 0.265802 207.524 0.219213C208.464 0.317477 209.403 0.41574 210.343 0.514004C210.932 0.520718 211.522 0.527431 212.112 0.534145C211.925 0.46416 211.739 0.394175 211.552 0.32419C212.31 0.347587 213.068 0.370983 213.826 0.394379C212.944 0.279541 213.498 0.144892 215.858 0.148415C217.805 0.15124 215.612 0.390921 219.799 0.291233C220.091 0.284126 220.608 0.113185 224.565 0.086771C229.31 0.0550981 227.005 0.178914 227.851 0.183203C228.017 0.183908 229.466 0.0978808 230.824 0.0855503C231.594 0.0785308 232.336 0.147985 232.438 0.147804C232.913 0.144634 233.052 0.0463762 233.71 0.0428271C235.382 0.0343747 237.627 0.0825195 239.265 0.0776157C240.01 0.0755024 240.71 0.0172873 241.042 0.0165825C241.558 0.0159097 242.211 0.104823 242.732 0.104471C244.657 0.10261 247.578 -0.192394 248.471 0.217382C248.77 0.156524 249.122 0.117379 249.5 0.0934558C251.694 -0.0291672 254.258 1.12424 255.618 2.53852C257.031 3.92701 257.497 5.26279 257.494 4.95891C258.029 6.03049 258.444 7.44215 258.438 9C258.42 14.7722 258.625 25.2163 258.247 24.8715C258.61 27.6714 258.347 27.4212 258.352 28.594C258.358 29.9056 258.429 29.2261 258.425 30.2685C258.418 32.7024 258.388 35.0281 258.386 37.4505C258.328 37.0702 258.27 36.6899 258.212 36.3096C258.193 38.8525 258.329 37.977 258.355 40.5709C258.402 45.3419 258.294 43.3314 258.142 44.0357C258.289 43.8467 258.266 49.4725 258.247 50.0453C258.235 50.3867 258.045 48.89 258.106 52.335C258.165 52.1466 258.223 51.9582 258.281 51.7698C258.202 53.3393 258.303 57.6026 258.283 58.3261C258.274 58.6583 257.803 60.4351 258.176 62.0617C258.117 62.258 258.059 62.4542 258.001 62.6505C258.071 64.4565 258.141 66.2626 258.211 68.0686C258.106 68.3569 258.001 68.6452 257.896 68.9335C257.896 69.5065 257.896 70.0796 257.896 70.6527C257.989 70.2724 258.082 69.8921 258.176 69.5118C258.134 73.0505 258.281 77.3737 257.966 78.1028C258.024 78.8608 258.083 79.6188 258.141 80.3768C258.036 80.8701 257.931 81.3635 257.827 81.8568C257.853 85.3667 257.923 85.4247 258.035 87.8243C257.953 87.7305 257.871 87.6367 257.789 87.543C257.904 89.3129 258.011 92.5439 258.026 95.0983C258.032 96.3126 257.92 98.3977 257.93 98.684C257.937 98.8662 258.115 100.062 258.15 101C258.177 102.189 257.868 103.18 257.664 103.369C256.215 108.238 252.025 109.623 249.5 109.555C248.475 109.533 247.68 109.499 246.914 109.501C245.809 109.503 245.305 109.596 244.056 109.605C242.269 109.619 240.471 109.574 239.44 109.581C238.85 109.584 238.74 109.674 238.333 109.677C236.41 109.691 237.537 109.599 235.51 109.605C235.323 109.606 233.841 109.716 232.171 109.701C231.238 109.694 228.822 109.571 228.609 109.571C227.664 109.573 228.419 109.819 225.189 109.535C225.283 109.582 225.377 109.628 225.47 109.675C221.473 109.794 220.841 109.585 220.034 109.571C219.931 109.57 218.957 109.65 218.375 109.639C217.391 109.62 216.995 109.51 216.777 109.505C216.009 109.488 213.424 109.537 211.735 109.43C212.09 109.744 206.169 109.856 204.858 109.5C203.81 109.57 202.762 109.64 201.714 109.711C201.239 109.652 200.765 109.593 200.291 109.535C200.003 109.593 199.715 109.652 199.426 109.71C197.899 109.581 196.372 109.453 194.844 109.324C194.747 109.453 194.65 109.582 194.553 109.711C194.125 109.696 193.697 109.681 193.27 109.667C192.936 109.564 192.602 109.462 192.268 109.36C191.734 109.379 191.199 109.399 190.665 109.418C190.532 109.492 190.4 109.566 190.268 109.64C187.394 109.726 188.871 109.019 183.396 109.64C182.544 109.582 181.692 109.524 180.841 109.465C179.879 109.749 178.076 109.577 176.621 109.609C175.596 109.632 175.652 109.745 174.255 109.747C172.858 109.75 172.908 109.642 172.799 109.641C171.66 109.634 170.801 109.73 169.965 109.711C169.839 109.708 169.524 109.58 168.459 109.571C167.393 109.563 166.751 109.7 165.165 109.674C164.352 109.661 164.117 109.553 163.396 109.543C159.959 109.497 156.499 110.044 153.921 109.395C153.34 109.477 149.126 109.765 147.323 109.748C144.518 109.722 145.599 109.595 144.484 109.571C144.323 109.568 143.469 109.611 141.116 109.603C140.695 109.602 140.793 109.674 140.732 109.675C137.989 109.673 132.662 109.616 129.649 109.606C129.38 109.605 127.971 109.805 125.582 109.536C122.043 109.735 115.376 109.307 110.708 109.607C110.061 109.614 109.276 109.542 108.989 109.545C106.521 109.567 107.425 109.784 101.847 109.466C102.298 109.577 100.993 109.677 99.1495 109.668C96.3773 109.656 98.3464 109.449 96.1184 109.466C96.1184 109.524 96.1184 109.583 96.1184 109.641C90.993 109.484 89.9732 109.734 84.8302 109.735C82.9802 109.735 80.2475 109.606 79.8065 109.606C79.6359 109.606 77.6126 109.747 77.4195 109.748C76.3313 109.752 75.7168 109.687 74.7775 109.687C71.6734 109.685 67.9691 109.869 68.6392 109.536C67.7857 109.606 66.9322 109.676 66.0787 109.747C62.8541 109.392 60.4427 109.881 59.7669 109.536C59.1903 109.607 58.6137 109.678 58.0371 109.75C44.2068 109.714 30.3765 109.678 16.5462 109.642C15.9963 109.753 9.96527 109.713 9.65598 109.696C9.59952 109.693 9.54768 109.689 9.5 109.686C8.25961 109.608 8.33982 109.477 7.98286 109.37C7.6714 109.174 6.70014 109.321 4.29176 107.63C3.69604 107.297 3.13119 106.885 2.61574 106.4C0.941299 104.171 0.919698 102.654 0.814174 101.989C0.758885 101.286 0.802598 101.218 0.823525 101C0.846781 100.911 0.87184 100.77 0.893768 100.331C0.880697 99.7303 0.79844 99.9243 0.792453 99.1113C0.759696 94.7011 0.755812 85.6582 0.749119 80.8356C0.747712 79.8631 0.824605 80.0099 0.8248 79.7078C0.824096 78.8775 0.727198 77.2389 0.727148 75.5727C0.727852 65.2691 0.782494 50.6688 0.863862 40.2963C0.869498 39.5918 0.961208 39.5046 0.965787 39.0292C0.971747 38.3704 0.897616 36.8987 0.905365 36.2058C0.912411 35.5531 0.982068 35.135 0.990201 34.4366C1.02825 31.2406 0.910561 26.9437 1.11593 23.5243C1.13325 23.2368 1.50247 19.6542 1.52668 19.5732C1.67041 19.0978 1.8962 22.2814 2.1065 17.0521C2.29003 21.7258 2.61447 20.2658 2.77298 14.1946C2.81388 17.2397 2.85477 20.2847 2.89566 23.3298C2.93411 23.3342 2.97256 23.3385 3.01101 23.3429C3.20158 20.571 3.26499 17.8208 3.28261 13.6057C3.31821 13.7372 3.35382 13.8686 3.38942 14C3.56731 17.7229 3.60019 22.2139 3.8429 25.049C4.02254 20.8911 4.20218 16.7332 4.38182 12.5752C4.4099 12.7829 4.43797 12.9906 4.46605 13.1983C4.53896 15.1914 4.58177 19.5452 4.64976 21.2004C4.90899 27.5223 4.84376 15.6674 5.00192 17.6147C4.99622 24.2893 4.99053 30.9639 4.98483 37.6385C5.1013 37.8726 5.423 12.195 5.7746 12.4595C5.7982 14.5574 5.8218 16.6552 5.8454 18.753C5.93471 17.818 6.02402 16.883 6.11333 15.948C6.14161 16.2056 6.16989 16.4633 6.19817 16.7209C6.26755 20.2602 6.33692 23.7995 6.40629 27.3388C6.33656 16.5781 6.38718 11.5775 7.09048 9C7.10838 9.2918 7.12628 9.5836 7.14419 9.8754C6.70421 12.2065 6.84652 23.2102 6.93423 29.058C7.06311 27.8661 6.96355 22.7171 7.04104 21.6289C7.06326 21.3206 7.15271 22.3959 7.19851 21.6815C7.31757 19.8144 7.47075 11.858 7.61658 13.0142C7.71029 13.7588 7.83884 26.5608 7.82898 29.058C7.99736 23.2046 8.04607 17.1735 8.25072 11.3029C8.53605 15.0085 8.88522 18.2903 8.90072 25.0543C9.05044 27.116 9.25783 12.797 9.33955 12.4648C9.42724 14.9429 9.51492 17.421 9.60261 19.8992C9.57921 17.8031 9.55582 15.707 9.53242 13.611C9.56172 13.6048 9.59101 13.5987 9.62031 13.5926C9.75628 19.0223 10.0059 23.9898 9.98895 30.2042C10.1439 30.0037 10.1285 26.2854 10.1299 24.4812ZM82.2 0.814288C82.0745 0.685772 84.353 0.706843 85.6358 0.709311C85.4431 0.685914 85.2502 0.662518 85.0575 0.639122C87.7953 0.663428 92.8917 0.712748 93.0807 0.463346C95.0337 0.432349 94.1702 0.64923 94.8 0.673911C95.0463 0.683774 97.5954 0.557555 99.6344 0.711142C100.119 0.710531 100.604 0.709921 101.088 0.709311C101.182 0.627526 101.276 0.545741 101.369 0.463956C102.045 0.563237 102.721 0.662518 103.396 0.761799C96.3344 0.779295 89.2724 0.796792 82.2105 0.814288C82.207 0.814288 82.2034 0.814288 82.2 0.814288ZM152.592 0.7087C155.164 0.754846 159.103 0.827709 158.307 0.603723C156.683 0.615522 155.058 0.627322 153.434 0.639122C153.153 0.662315 152.873 0.685507 152.592 0.7087ZM195.144 109.115C192.996 108.894 191.019 109.085 187.697 109.045C187.701 109.092 187.705 109.139 187.71 109.185C189.068 109.073 192.659 109.148 195.144 109.115ZM18.3876 1.65716C17.9144 1.63986 17.4412 1.62257 16.968 1.60528C18.8925 1.35482 19.2369 1.53132 21.4134 1.50702C21.5446 1.50549 21.499 1.44816 21.5448 1.44781C22.0774 1.44395 22.5701 1.51295 23.0511 1.5119C23.979 1.50978 24.7355 1.43985 26.3792 1.44232C27.6503 1.44446 27.6623 1.55439 28.109 1.55157C28.4897 1.54885 32.2615 1.24643 34.689 1.37701C39.3054 1.62571 19.7965 1.68041 18.3876 1.65716ZM2.46593 6.2547C2.77923 5.44875 3.23183 4.70046 3.79468 4.05076C2.3388 6.34606 5.31316 1.27834 9.5 1.58698C9.50158 1.58697 9.50316 1.58697 9.50475 1.58697C9.5039 1.58912 9.50232 1.59124 9.5 1.59331C9.37775 1.67421 7.20249 1.62063 5.23545 3.07539C3.21208 4.42913 2.10515 7.28544 2.22796 9C2.13445 8.10637 2.20972 7.16308 2.46593 6.2547ZM62.439 1.79753C60.6525 1.81405 60.9502 1.6118 61.0247 1.55157C61.5934 1.55157 62.1621 1.55157 62.7308 1.55157C62.6335 1.63356 62.5363 1.71555 62.439 1.79753ZM49.003 1.86772C49.5586 1.73034 53.4369 1.67026 55.2754 1.65899C55.3557 1.65897 54.8507 1.73436 56.1508 1.72735C56.5412 1.72515 60.3818 1.4508 59.5368 1.76213C56.0272 1.79733 52.5178 1.83253 49.0083 1.86772C49.0065 1.86772 49.0048 1.86772 49.003 1.86772ZM45.086 1.78655C45.8169 1.74342 46.5476 1.70029 47.2785 1.65716C47.6562 1.72165 48.0338 1.78614 48.4115 1.85063C47.5799 1.86691 46.7483 1.88318 45.9168 1.89946C45.6398 1.86182 45.363 1.82418 45.086 1.78655ZM7.99562 107.868C8.27344 108 8.56387 108.114 8.86356 108.209C9.01145 108.228 9.23163 108.242 9.5 108.238C10.5408 108.208 12.8798 107.972 11.993 107.921C11.162 107.948 10.331 107.975 9.5 108.002C9.0003 108.012 8.49351 107.968 7.99562 107.868ZM2.6143 92.8967C2.64909 92.2307 2.68387 91.5648 2.71866 90.8988C2.60168 90.1329 2.4847 89.3671 2.36772 88.6012C2.28883 91.9282 2.19794 95.4681 2.54289 94.8972C2.54289 95.6587 2.54289 96.4202 2.54289 97.1817C2.40026 96.5404 2.35327 96.6267 2.26274 98.6197C2.38621 98.8908 2.39374 99.7907 2.3923 101C2.38111 102.291 2.77942 103.842 3.72061 105.118C2.87291 103.929 2.40941 102.45 2.42046 101C2.42648 100.109 2.4325 99.2186 2.43852 98.3279C2.47351 98.3279 2.50851 98.3279 2.5435 98.3279C2.53085 102.152 2.75282 97.399 2.61369 94.9078C2.66027 94.7115 2.70686 94.5152 2.75345 94.3189C2.70707 93.8448 2.66068 93.3708 2.6143 92.8967ZM256.456 85.2401C256.421 85.7142 256.386 86.1883 256.351 86.6623C256.809 88.4995 256.374 84.7591 256.737 82.096C256.462 82.9758 256.473 78.9161 256.455 78.6838C256.362 79.1509 256.269 79.6179 256.176 80.085C256.27 81.8034 256.363 83.5217 256.456 85.2401ZM256.14 98.6787C256.243 97.9376 256.303 99.1722 256.332 101C256.381 102.686 255.603 104.721 254.176 106.014C252.778 107.349 250.859 107.877 249.5 107.841C249.305 107.838 249.125 107.836 248.964 107.833C248.305 107.82 247.131 107.695 246.656 107.711C246.368 107.757 246.08 107.803 245.791 107.85C245.45 107.689 240.16 107.87 238.076 107.956C237.879 107.898 237.683 107.839 237.487 107.781C236.727 107.804 235.967 107.827 235.208 107.85C235.303 107.792 235.399 107.734 235.494 107.676C234.919 107.746 234.344 107.816 233.77 107.886C231.513 107.964 232.904 107.646 231.209 107.745C229.325 107.855 232.413 108.044 232.355 108.167C233.885 108.135 237.362 108.064 238.914 108.061C239.805 108.059 238.795 108.279 242.637 108.026C243.479 108.085 244.321 108.144 245.163 108.203C246.609 108.115 248.054 108.028 249.5 107.94C249.673 107.934 249.844 107.921 250.016 107.903C250.518 107.947 251.037 107.937 251.557 107.866C251.695 107.848 253.339 107.263 254.418 106.089C255.544 104.962 255.996 103.497 255.906 103.652C256.22 103.013 256.512 102.095 256.537 101C256.603 99.4217 256.619 97.2599 256.624 95.0168C256.58 94.7153 256.536 94.4139 256.491 94.1124C256.587 97.1413 256.444 95.0762 256.359 95.9789C256.311 96.5001 256.214 98.0945 256.14 98.6787ZM29.7377 107.852C24.6518 108.051 27.8006 107.886 22.3033 107.886C22.6871 107.992 23.0709 108.097 23.4547 108.202C26.1576 108.01 30.6049 108.138 29.7429 107.852C29.7412 107.852 29.7394 107.852 29.7377 107.852ZM2.29814 73.7272C2.3619 76.6363 2.52579 75.1765 2.57829 78.864C2.57829 78.8657 2.57829 78.8675 2.57829 78.8692C2.59009 76.9624 2.60189 75.0556 2.61369 73.1489C2.50851 73.3417 2.40332 73.5344 2.29814 73.7272ZM146.006 108.074C148.795 108.12 148.246 108.038 150.777 108.202C154.546 108.003 151.356 108.031 151.356 107.851C150.494 107.904 149.633 107.957 148.771 108.01C146.683 107.841 148.664 107.756 148.664 107.74C148.662 107.74 148.66 107.74 148.658 107.74C148.658 107.686 148.726 107.674 147.925 107.642C147.285 107.786 146.646 107.93 146.006 108.074ZM157.943 107.852C156.987 107.971 156.557 108.125 159.071 108.202C159.073 108.202 159.075 108.202 159.076 108.202C159.278 107.934 161.689 108.15 162.788 108.132C163.077 108.103 163.365 108.074 163.653 108.045C161.75 107.981 159.847 107.916 157.943 107.852ZM200.005 107.606C200.015 107.901 197.905 107.929 200.875 108.202C201.452 108.197 202.028 108.191 202.605 108.186C202.983 108.121 203.362 108.056 203.74 107.991C211.054 108.526 213.235 107.615 200.875 107.956C200.873 107.956 200.871 107.956 200.87 107.957C200.581 107.84 200.293 107.723 200.005 107.606ZM187.123 107.631C187.031 107.786 186.938 107.941 186.845 108.096C185.23 107.722 183.143 108.079 179.976 107.815C179.689 107.862 179.403 107.909 179.116 107.957C177.932 107.853 166.305 107.823 168.824 108.061C169.924 108.166 172.319 108.024 172.526 108.027C173.224 108.039 174.135 108.172 175.315 108.165C175.996 108.16 177.433 108.003 178.824 108.004C181.934 108.004 187.611 108.425 191.7 108.027C191.995 108.073 192.289 108.12 192.584 108.167C195.618 108.139 194.605 107.99 197.429 108.167C199.379 107.43 186.078 108.203 188.848 107.606C188.846 107.606 188.844 107.606 188.843 107.606C188.27 107.614 187.697 107.622 187.123 107.631ZM103.571 107.852C103.388 107.719 99.8682 107.923 100.695 107.606C99.5464 107.717 98.3976 107.827 97.2488 107.938C97.2576 107.967 97.2663 107.997 97.2751 108.026C98.4169 108.003 99.5587 107.98 100.7 107.957C100.705 108.003 100.709 108.05 100.714 108.097C102.415 107.928 109.516 108.001 109.299 108.167C109.679 108.097 110.058 108.027 110.438 107.957C113.834 108.148 116.756 107.945 120.456 108.131C120.743 108.073 121.029 108.015 121.316 107.957C121.502 108.004 121.689 108.051 121.876 108.097C123.223 108.103 124.571 108.109 125.919 108.115C130.311 107.927 121.777 107.683 120.743 107.711C120.605 107.714 120.627 107.836 119.767 107.855C118.242 107.888 109.7 107.767 107.06 107.847C107.037 107.767 107.014 107.687 106.991 107.606C105.851 107.688 104.711 107.77 103.571 107.852ZM216.325 107.922C216.517 108.004 216.71 108.085 216.903 108.167C220.23 108.085 222.325 108.157 221.472 107.886C221.47 107.886 221.468 107.886 221.467 107.886C219.753 107.898 218.039 107.91 216.325 107.922ZM139.992 2.00871C140.08 2.17128 141.67 2.23206 143.725 2.11552C143.626 2.06832 143.527 2.02112 143.428 1.97392C142.357 2.11236 141.021 1.87107 137.716 1.90312C137.716 1.98491 137.716 2.06669 137.716 2.14848C138.475 2.10189 139.233 2.0553 139.992 2.00871ZM213.454 107.886C212.44 107.79 209.594 108.082 211.467 108.097C212.898 108.108 213.998 107.938 213.454 107.886ZM2.45622 62.2839C2.43913 63.0357 2.42204 63.7876 2.40495 64.5394C2.47453 64.9311 2.54411 65.3228 2.61369 65.7145C2.61369 65.7128 2.61369 65.711 2.61369 65.7093C2.5612 64.5675 2.50871 63.4257 2.45622 62.2839ZM136.471 108.088C139.021 108.078 141.571 108.067 144.121 108.057C144.146 108.012 144.172 107.966 144.197 107.921C141.643 108.087 140.616 107.908 140.02 107.897C140.023 107.897 140.025 107.897 140.028 107.897C138.115 107.861 136.293 107.835 134.484 107.781C135.146 107.883 135.809 107.985 136.471 108.088ZM127.73 107.801C128.16 108.122 128.721 108.159 132.638 107.934C132.483 107.894 132.328 107.855 132.173 107.816C130.143 107.839 128.959 107.913 129.315 107.746C128.787 107.764 128.259 107.783 127.73 107.801ZM167.662 107.904C167.192 107.802 163.461 107.904 163.664 107.956C163.744 107.976 168.579 108.104 167.662 107.904ZM111.667 2.07951C112.526 2.1029 113.386 2.1263 114.245 2.1497C113.102 2.18448 111.958 2.21927 110.815 2.25406C111.099 2.19588 111.383 2.13769 111.667 2.07951ZM102.229 2.53543C101.616 2.49457 103.609 2.20636 99.9446 2.132C102.611 2.12589 105.278 2.11979 107.944 2.11369C106.694 2.16027 105.443 2.20686 104.193 2.25345C104.411 2.33625 104.629 2.41906 104.847 2.50186C103.975 2.51305 103.102 2.52424 102.229 2.53543ZM99.3663 2.32425C100.802 2.5433 93.241 2.55975 92.5365 2.53298C92.3796 2.52662 91.6337 2.36055 91.3588 2.32486C92.5006 2.32466 93.6424 2.32445 94.7842 2.32425C94.4021 2.27197 94.0201 2.21968 93.638 2.1674C94.9744 2.14949 96.3107 2.13159 97.647 2.11369C97.0757 2.16617 96.5044 2.21866 95.933 2.27115C97.0774 2.28885 98.2218 2.30655 99.3663 2.32425ZM129.703 2.27115C128.747 2.26566 127.791 2.26017 126.835 2.25467C127.026 2.33646 127.217 2.41824 127.408 2.50003C127.98 2.50003 128.552 2.50003 129.125 2.50003C129.317 2.42374 129.51 2.34744 129.703 2.27115ZM110.223 2.37674C111.615 1.98296 115.408 2.84383 110.975 2.52505C110.528 2.49264 110.092 2.41478 110.223 2.37674ZM89.7027 2.48599C86.7301 2.77308 87.4009 2.13922 90.2074 2.32486C90.3485 2.33474 89.9257 2.46479 89.7027 2.48599ZM67.4154 2.49514C67.1746 2.49301 66.7537 2.28778 64.4553 2.48294C64.0759 2.45954 63.6964 2.43615 63.317 2.41275C64.205 2.31739 71.8008 2.26066 70.7514 2.46402C69.5887 2.46719 68.6181 2.50148 67.4154 2.49514ZM74.7709 3.2544C75.9109 3.2487 77.051 3.24301 78.191 3.23731C77.8151 3.17302 77.4391 3.10873 77.0632 3.04444C77.624 3.02695 78.1848 3.00945 78.7457 2.99196C79.7043 3.10283 80.663 3.21371 81.6216 3.32459C79.1435 3.34229 76.6654 3.35999 74.1873 3.37769C74.3818 3.33659 74.5763 3.29549 74.7709 3.2544ZM105.081 3.41308C102.888 3.33242 100.2 3.41828 96.6375 3.40454C96.6358 3.40434 96.634 3.40413 96.6323 3.40393C96.4546 3.40299 96.1396 3.31468 95.5676 3.31116C95.0802 3.30835 85.4586 3.40533 86.2089 3.25562C89.9317 3.12143 91.3224 3.32544 92.2158 2.99257C92.3972 3.06275 92.5786 3.13294 92.76 3.20313C96.3397 3.32466 97.3611 3.08169 99.3715 2.99257C99.3636 3.04546 99.3557 3.09836 99.3479 3.15125C100.69 3.15654 102.033 3.16183 103.375 3.16712C103.186 3.13233 102.997 3.09754 102.807 3.06275C103.282 3.06275 103.757 3.06275 104.232 3.06275C105.389 3.21949 106.856 3.25602 105.081 3.41308ZM69.5999 3.16712C68.5461 3.56834 58.2761 3.29352 53.5851 3.37769C56.0479 3.1361 59.8634 3.30259 62.5494 3.30506C67.7421 3.30961 64.1527 3.16175 65.0337 3.09693C65.4689 3.06488 68.4143 3.32212 69.5999 3.16712ZM113.094 3.3429C110.505 3.31049 109.056 3.40286 106.816 3.25562C107.004 3.22632 107.191 3.19703 107.379 3.16773C108.146 3.19455 114.399 3.27917 113.094 3.3429ZM46.7107 3.27271C51.7108 3.41678 49.2444 3.05351 51.8448 3.32581C50.1334 3.3431 48.4221 3.36039 46.7107 3.37769C46.7107 3.34269 46.7107 3.3077 46.7107 3.27271ZM207.731 106.377C205.624 106.368 203.271 106.295 202.011 106.446C203.442 106.469 204.874 106.493 206.306 106.516C206.781 106.47 207.256 106.423 207.731 106.377ZM253.398 88.9626C253.362 89.4437 253.469 91.3463 253.469 91.5467C253.469 91.9192 253.416 91.8174 253.402 91.8227C253.412 94.2608 253.576 92.0115 253.611 93.8154C253.617 94.1238 253.536 98.3615 253.543 100.085C253.544 100.391 253.545 100.697 253.546 101C253.59 103.518 251.227 104.864 250.41 104.942C250.146 105.004 249.839 105.05 249.5 105.056C247.749 105.086 245.189 105.174 242.881 105.179C241.748 105.181 241.352 105.083 240.213 105.085C232.899 105.102 218.5 105.237 212.011 105.175C210.407 105.159 208.878 105.03 208.031 105.041C207.362 105.088 206.693 105.135 206.025 105.182C203.969 104.759 203.281 105.135 201.064 105.175C199.656 105.2 198.998 105.074 198.809 105.075C197.555 105.077 196.936 105.137 195.951 105.147C194.846 105.157 193.257 105.101 192.862 105.111C192.62 105.118 193.394 105.285 189.106 105.281C184.735 105.278 180.42 105.261 175.975 105.253C177.457 105.756 178.734 105.411 180.549 105.393C181.036 105.388 180.727 105.468 181.151 105.465C182.348 105.455 184.64 105.377 185.63 105.396C186.7 105.416 186.335 105.601 187.691 105.533C187.76 105.529 187.543 105.453 187.862 105.44C191.07 105.314 192.119 105.447 196.175 105.45C198.861 105.453 215.178 105.377 215.738 105.427C218.659 105.695 201.466 105.697 199.455 105.676C198.752 105.668 199.489 105.584 198.848 105.568C198.576 105.561 196.132 105.722 193.717 105.736C190.796 105.752 184.926 105.642 182.142 105.646C158.212 105.679 134.615 105.582 110.708 105.58C110.199 105.58 109.527 105.676 107.867 105.676C76.8692 105.675 44.7422 105.599 13.3495 105.644C12.0647 105.646 10.782 105.651 9.5 105.656C7.02014 105.726 4.76264 103.501 4.81156 101C4.79625 97.5466 4.79104 94.0855 4.82736 90.5938C4.75697 89.7368 4.68658 88.8798 4.61619 88.0228C4.67216 90.2149 4.51294 94.2317 4.5106 94.5975C4.5099 94.7293 4.58927 95.5604 4.58506 96.9004C4.57943 98.7848 4.5106 99.6112 4.5106 99.7658C4.51038 100.245 4.58358 99.9311 4.58323 100.389C4.58304 100.595 4.58293 100.799 4.58291 101C4.58433 103.869 7.00321 105.944 9.5 105.902C10.2467 105.9 11.0044 105.899 11.7932 105.898C15.3323 105.898 17.1262 106.034 19.7034 105.884C19.9952 105.943 20.287 106.001 20.5788 106.06C22.5044 105.807 33.9705 105.835 38.6152 105.848C40.0807 105.853 39.8236 105.955 40.3161 105.955C40.6305 105.955 40.5065 105.821 44.3408 105.847C46.271 105.861 46.7772 105.958 47.7452 105.955C48.2711 105.953 48.1857 105.856 48.9413 105.856C53.3112 105.856 56.8794 105.888 61.1575 105.906C62.3603 105.911 62.3736 105.992 62.6428 105.991C63.6339 105.987 65.3577 105.85 67.8768 105.85C72.0235 105.851 80.2879 105.851 83.6788 105.918C84.1771 105.928 84.5898 106.025 84.9564 106.024C85.5113 106.021 85.729 105.92 85.8265 105.919C87.6822 105.917 86.5658 106.012 87.8087 105.989C88.4786 105.976 89.1773 105.861 90.7346 105.848C92.7908 105.831 92.386 105.968 93.2451 105.954C93.3359 105.952 93.363 105.856 94.2073 105.853C97.4089 105.842 102.053 105.82 105.083 105.82C105.953 105.82 106.6 105.885 107.814 105.886C110.26 105.888 124.161 105.847 125.301 105.884C125.421 105.888 124.185 106.028 126.156 106.024C126.728 105.966 127.3 105.907 127.872 105.848C128.829 105.942 129.786 106.036 130.743 106.13C130.708 105.806 136.338 105.756 136.282 106.087C136.898 106.1 137.514 106.114 138.13 106.127C139.413 105.898 140.267 105.983 142.746 105.848C143.133 105.919 143.519 105.989 143.905 106.059C144.003 106.012 144.1 105.965 144.197 105.919C145.52 106.172 147.69 105.918 147.954 105.916C148.967 105.911 149.729 105.975 150.204 105.973C151.979 105.966 155.823 105.877 157.896 105.919C157.993 105.921 157.898 106.029 158.488 106.043C159.552 106.067 159.655 105.908 161.074 106.094C161.361 106.048 161.647 106.001 161.934 105.954C162.238 105.978 162.542 106.002 162.846 106.027C164.641 106.014 166.435 106.002 168.23 105.989C166.598 106.173 168.476 106.275 170.252 106.131C170.852 106.082 170.319 105.97 170.52 105.953C170.795 105.93 178.849 105.987 179.382 106.06C179.763 106.024 180.144 105.989 180.525 105.954C180.718 106.024 180.911 106.095 181.103 106.165C181.314 106.141 181.524 106.116 181.734 106.091C183.83 106.215 189.271 105.931 190.257 105.953C190.784 105.965 190.31 106.265 192.836 106.235C192.924 106.152 193.011 106.07 193.099 105.988C193.677 105.976 194.256 105.964 194.834 105.952C195.919 105.96 197.499 106.102 197.549 106.2C197.889 106.141 198.228 106.083 198.567 106.024C199.477 106.215 204.334 106.147 206.288 106.027C206.859 106.084 207.43 106.142 208.002 106.199C208.769 106.129 209.537 106.059 210.305 105.989C212.083 105.968 210.204 106.085 210.583 106.094C211.385 106.114 215.471 105.918 215.202 106.163C215.759 106.163 216.317 106.164 216.874 106.165C217.161 106.095 217.447 106.025 217.734 105.955C218.69 106.196 220.346 106.111 223.741 106.199C224.025 106.143 224.31 106.088 224.595 106.032C225.645 106.111 226.694 106.19 227.744 106.269C227.96 106.177 228.175 106.085 228.391 105.993C228.848 105.98 229.304 105.967 229.761 105.953C230.688 106.159 232.354 105.937 233.202 106.022C234.439 106.146 233.482 106.294 231.185 106.322C231.357 106.472 238.199 106.403 239.776 106.392C239.672 106.363 239.568 106.334 239.464 106.304C237.85 106.328 236.237 106.351 234.624 106.374C233.272 105.997 237.653 106.098 239.663 106.049C239.847 106.045 240.889 105.902 242.915 105.915C243.7 105.92 246.761 106.129 247.345 106.141C248.431 106.163 249.083 106.164 249.5 106.156C250.395 106.114 250.435 106.014 250.815 105.92C251.142 105.747 252.087 105.835 253.66 104.12C252.835 104.738 254.566 103.561 254.628 101C254.634 100.41 254.636 99.7696 254.627 99.123C254.62 98.6531 254.458 94.6681 254.453 94.399C254.427 92.7209 254.604 94.5477 254.558 92.1198C254.512 91.828 254.465 91.5362 254.419 91.2444C254.419 90.6792 254.419 90.114 254.419 89.5488C254.834 86.119 254.528 85.3212 254.489 84.1018C254.473 83.6093 254.581 84.2434 254.558 82.9662C254.55 82.4852 254.46 81.9519 254.453 80.6581C254.434 76.6092 254.819 75.2348 254.418 71.5123C254.476 70.941 254.534 70.3697 254.593 69.7983C254.523 69.4128 254.453 69.0272 254.383 68.6417C254.586 65.6926 254.378 66.7574 254.381 65.6921C254.387 62.8797 254.427 57.124 254.594 56.62C254.21 54.192 254.643 51.2889 254.628 50.3318C254.581 49.7631 254.535 49.1944 254.488 48.6257C254.535 47.9571 254.582 47.2885 254.629 46.6199C254.252 46.9449 254.622 43.4822 254.628 43.1498C254.634 42.7661 254.522 37.4404 254.524 35.4579C254.526 33.4781 254.628 30.0281 254.629 29.7244C254.629 29.375 254.526 26.0051 254.527 23.3705C254.528 21.4659 254.628 11.8142 254.567 9C254.546 8.24984 254.406 7.89995 254.423 8.08951C254.462 8.36664 254.483 8.6755 254.472 9C254.44 9.78626 254.414 10.7079 254.397 11.5328C254.33 14.9466 254.245 34.9826 254.218 40.103C254.165 50.372 254.174 61.0819 254.138 71.3967C254.136 72.0035 254.038 72.0959 254.036 72.6165C254.033 73.4069 254.131 75.4127 254.129 76.1917C254.12 79.1012 254.104 82.6413 254.102 84.1991C254.097 87.6809 254.038 90.0691 254.029 92.7034C254.026 93.5281 254.147 97.6977 254.096 100.556C254.088 100.704 254.08 100.852 254.072 101C254.053 101.422 253.975 101.839 253.842 102.236C253.925 101.921 253.999 101.493 253.99 101C253.952 99.2009 253.896 96.4234 253.889 94.9826C253.875 92.3145 253.954 90.9229 253.953 89.9379C253.952 89.1132 253.862 84.8985 253.86 82.9793C253.859 82.3837 253.961 82.2614 253.961 81.7517C253.958 78.9854 253.956 75.342 253.855 72.9424C253.888 73.9218 253.951 67.8057 253.95 67.485C253.95 66.9352 253.855 66.3387 253.855 65.2163C253.855 63.0579 254.055 63.3316 253.855 60.6342C253.913 59.9665 253.971 59.2988 254.03 58.631C253.763 58.59 254.126 50.1526 253.802 47.7529C253.765 47.6899 253.661 58.6541 253.656 59.559C253.624 64.9884 253.689 73.023 253.642 78.2921C253.628 79.878 253.466 84.864 253.469 85.2401C253.473 85.8468 253.566 85.2988 253.57 85.5608C253.639 90.9257 253.452 88.2492 253.398 88.9626ZM99.3715 3.58886C101.001 3.59985 102.631 3.61083 104.261 3.62182C104.143 3.68041 104.025 3.739 103.906 3.79759C103.16 3.77481 102.413 3.75202 101.667 3.72924C101.093 3.76423 100.519 3.79922 99.9446 3.83421C99.7536 3.75243 99.5626 3.67065 99.3715 3.58886ZM95.3547 3.83421C93.9412 3.86372 93.8722 3.74016 93.546 3.73412C92.5725 3.71581 91.7306 3.76577 90.7857 3.76403C91.874 3.47053 94.1919 3.60503 95.3547 3.83421ZM124.548 3.9398C124.229 3.92576 122.102 3.60979 119.682 3.90379C117.872 3.81041 116.061 3.71703 114.251 3.62365C117.326 3.76632 121.583 3.61801 123.089 3.62365C123.661 3.62579 123.77 3.72278 124.227 3.72435C126.862 3.7321 129.423 3.51234 129.693 3.8336C127.201 3.74025 124.955 3.95706 124.548 3.9398ZM108.649 3.82567C108.227 3.75853 107.806 3.6914 107.384 3.62426C108.907 3.62426 110.43 3.62426 111.953 3.62426C111.541 3.69221 111.129 3.76016 110.718 3.82811C110.028 3.8273 109.338 3.82648 108.649 3.82567ZM225.813 4.04783C224.874 4.04702 223.935 4.0462 222.995 4.04539C223.047 4.09432 224.121 4.09413 224.517 4.12717C224.516 4.12717 224.514 4.12717 224.512 4.12717C224.953 4.16451 224.764 4.22752 225.566 4.25534C225.649 4.18617 225.731 4.117 225.813 4.04783ZM4.82614 86.8845C4.82966 85.3099 4.83002 70.7692 4.65159 72.008C4.56247 72.6322 4.64018 77.6054 4.63877 79.0716C4.63696 81.0482 4.44399 86.3863 4.82614 86.8845ZM4.86093 61.1325C4.68311 60.8806 4.65483 69.968 4.68577 70.8565C4.71112 70.6679 4.76756 70.3771 4.78037 70.1257C4.84166 68.9001 4.81233 63.0915 4.86093 61.1325ZM253.939 31.6355C254.029 30.9029 254.119 30.1704 254.209 29.4378C254.092 29.6306 253.975 29.8234 253.858 30.0162C253.885 30.556 253.912 31.0957 253.939 31.6355ZM253.663 102.882C252.954 104.486 251.254 105.587 249.5 105.566C238.824 105.561 228.149 105.556 217.473 105.551C218.547 105.502 219.62 105.453 220.694 105.405C230.157 105.42 240.186 105.462 249.5 105.415C250.644 105.416 251.766 104.943 252.559 104.157C252.995 103.814 253.374 103.382 253.663 102.882ZM127.986 4.46652C131.113 4.46827 133.725 4.38234 137.127 4.51901C133.885 4.65146 132.28 4.44653 129.13 4.64168C129.128 4.64168 129.126 4.64168 129.125 4.64168C128.745 4.5833 128.366 4.52491 127.986 4.46652ZM197.798 4.50192C196.847 4.5837 195.896 4.66549 194.946 4.74727C196.089 4.74727 197.233 4.74727 198.376 4.74727C198.183 4.66549 197.991 4.5837 197.798 4.50192ZM147.633 105.113C144.362 105.291 135.996 104.968 133.337 105.183C133.166 105.197 134.746 105.288 132.191 105.463C134.121 105.427 135.483 105.391 135.627 105.253C136.2 105.3 136.773 105.346 137.346 105.393C138.297 105.358 139.248 105.322 140.199 105.287C140.096 105.424 140.171 105.417 141.631 105.323C142.297 105.358 142.963 105.392 143.629 105.427C143.912 105.369 144.194 105.311 144.476 105.253C145.052 105.334 145.629 105.415 146.206 105.497C148.453 105.409 147.084 105.251 147.633 105.113ZM159.082 105.147C158.55 105.116 143.386 105.215 150.278 105.489C152.069 105.48 153.86 105.471 155.651 105.463C154.168 105.009 159.049 105.415 159.45 105.424C161.368 105.469 163.813 105.361 165.204 105.366C166.401 105.371 167.112 105.453 167.954 105.45C170.822 105.443 175.351 105.44 175.975 105.253C173.746 105.249 171.481 105.247 169.163 105.252C166.712 105.256 164.557 105.079 159.952 105.322C158.813 105.296 159.219 105.154 159.082 105.147ZM192.083 4.72835C192.197 4.53977 186.41 4.58487 186.373 4.65938C186.361 4.70306 188.246 4.70203 188.515 4.71859C188.517 4.71859 188.519 4.71859 188.521 4.71859C188.633 4.72582 188.063 4.79801 188.949 4.81807C189.994 4.78816 191.038 4.75826 192.083 4.72835ZM11.717 105.252C11.5617 105.231 10.7329 105.216 9.5 105.205C7.8329 105.326 5.26228 103.633 5.31535 101C5.31626 96.0009 5.29248 90.6061 5.26497 90.3204C5.2509 90.1775 5.20449 90.3768 5.17769 90.3204C5.28867 93.4194 5.21953 97.4894 5.17193 101C5.14623 102.321 5.77152 103.53 6.60027 104.258C7.54434 105.006 7.32862 104.673 7.37509 104.725C7.37754 104.727 7.37999 104.728 7.38244 104.73C7.66249 104.9 8.51972 105.348 9.5 105.352C10.3883 105.371 11.302 105.362 11.717 105.252ZM127.615 105.269C128.374 105.299 129.134 105.328 129.894 105.358C130.086 105.299 130.279 105.241 130.472 105.183C130.47 105.183 130.469 105.183 130.467 105.183C129.516 105.211 128.565 105.24 127.615 105.269ZM101.292 105.077C101.477 105.118 101.662 105.159 101.847 105.2C103.76 105.206 105.672 105.212 107.585 105.217C107.393 105.241 107.2 105.264 107.007 105.287C109.899 105.349 111.097 105.204 112.638 105.225C112.636 105.225 112.635 105.225 112.633 105.225C112.799 105.228 112.999 105.313 113.616 105.316C115.03 105.323 119.083 105.355 119.573 105.269C120.609 105.085 112.453 105.172 110.932 105.164C110.245 105.16 109.418 105.085 109 105.083C108.542 105.081 107.918 105.183 106.802 105.179C106.476 105.178 102.856 105.059 101.292 105.077ZM67.5272 105.2C68.1171 105.292 69.3487 105.203 69.8011 105.218C69.9092 105.222 69.0685 105.299 70.0877 105.322C70.376 105.269 70.6643 105.217 70.9526 105.164C69.8108 105.176 68.669 105.188 67.5272 105.2ZM182.359 4.81746C182.525 4.83734 185.632 4.83007 185.781 4.81746C187.643 4.64838 181.207 4.66669 182.359 4.81746ZM103.948 5.01094C105.378 5.25669 88.4202 5.01509 86.7768 5.02803C86.8589 4.87357 90.8929 5.02886 88.7799 4.81685C90.796 4.93345 96.3696 4.87153 97.6812 4.90535C98.4772 4.92579 98.6782 5.0592 98.7984 5.06342C99.2705 5.07845 103.444 4.92431 103.948 5.01094ZM72.7651 4.92305C74.3766 4.95234 75.988 4.98164 77.5995 5.01094C75.698 5.02843 73.7964 5.04593 71.8949 5.06342C72.1849 5.01663 72.475 4.96984 72.7651 4.92305ZM70.7382 4.99324C70.7898 5.14295 65.3198 5.0289 63.8822 5.06342C65.503 4.80876 68.2068 5.04885 70.7382 4.99324ZM161.749 5.2038C164.269 5.30279 165.352 4.84644 162.287 5.04511C162.194 5.05168 161.643 5.19856 161.749 5.2038ZM146.855 104.471C146.425 104.468 141.081 104.32 140.772 104.393C139.794 104.627 143.301 104.533 144.476 104.622C146.372 104.765 143.584 104.883 148.211 104.796C148.022 104.843 147.833 104.89 147.644 104.937C150.352 104.952 149.466 104.628 149.952 104.586C150.101 104.574 151.794 104.601 152.1 104.58C155.916 104.319 147.253 104.473 146.855 104.471ZM224.133 5.23859C229.151 5.37597 226.992 5.17439 232.141 5.18671C232.313 5.08385 224.786 5.14841 224.133 5.23859ZM195.709 104.656C190.52 104.696 186.253 104.562 181.414 104.742C181.729 105.021 197.055 104.728 195.709 104.656ZM6.12615 49.6891C5.73407 65.6608 5.75428 83.5716 5.78367 101C5.7397 102.989 7.53726 104.759 9.5 104.706C11.9774 104.702 14.4389 104.699 16.8774 104.699C19.22 104.698 19.4446 104.808 20.2923 104.796C20.8475 104.788 20.7504 104.7 21.4884 104.699C48.1615 104.685 73.7014 104.568 99.252 104.622C100.861 104.625 108.691 104.816 110.364 104.528C111.629 104.31 106.004 104.48 105.067 104.478C104.363 104.477 104.333 104.374 103.863 104.374C103.365 104.373 103.776 104.444 103.198 104.445C100.747 104.45 98.0719 104.422 95.8555 104.428C74.1195 104.486 52.9732 104.469 31.3518 104.459C28.7346 104.458 29.2726 104.376 29.1409 104.376C29.1392 104.376 29.1374 104.376 29.1357 104.376C22.8924 104.373 16.2545 104.407 9.5 104.441C7.67683 104.498 5.99406 102.855 6.03004 101C6.00312 94.6163 5.98809 88.2054 6.01751 81.9975C6.07407 71.5313 6.13063 61.065 6.18718 50.5987C6.16684 50.2955 6.1465 49.9923 6.12615 49.6891ZM157.936 104.761C156.63 104.451 156.338 104.763 151.653 104.637C151.271 104.69 150.89 104.743 150.509 104.796C152.987 104.784 155.465 104.772 157.943 104.761C157.941 104.761 157.938 104.761 157.936 104.761ZM126.991 104.648C126.2 104.229 115.723 104.525 111.006 104.445C110.141 104.656 116.999 104.561 118.616 104.583C119.424 104.594 123.749 104.81 127.036 104.691C127.021 104.676 127.006 104.662 126.991 104.648ZM121.69 5.62615C122.453 5.61394 123.215 5.60174 123.977 5.58953C122.07 5.54315 120.162 5.49676 118.254 5.45038C121.298 5.48028 124.341 5.51019 127.384 5.54009C126.817 5.62697 126.25 5.71384 125.684 5.80071C124.353 5.74252 123.021 5.68434 121.69 5.62615ZM131.564 5.5816C126.235 5.61431 131.798 5.38176 133.128 5.48516C133.925 5.54716 132.108 5.57807 131.564 5.5816ZM145.426 5.73113C142.941 5.88364 137.918 5.89414 139.703 5.58953C142.389 5.7322 144.121 5.61365 148.016 5.69573C147.447 5.75412 146.878 5.81251 146.309 5.87089C146.307 5.87089 146.304 5.87089 146.302 5.87089C146.01 5.82431 145.718 5.77772 145.426 5.73113ZM129.13 5.76592C125.639 5.59092 135.745 5.65075 132.568 5.76592C132.42 5.7712 129.267 5.77261 129.13 5.76592ZM6.44108 72.008C6.34154 71.5874 6.34341 74.2721 6.33672 75.1652C6.30714 79.0367 6.35045 84.0019 6.33672 88.0281C6.36947 87.7249 6.40223 87.4217 6.43498 87.1185C6.43701 82.0817 6.43905 77.0448 6.44108 72.008ZM6.33611 100.623C6.33611 100.749 6.33611 100.874 6.33611 101C6.29405 102.684 7.8156 104.206 9.5 104.164C10.0462 104.164 10.5924 104.164 11.1386 104.164C11.3964 104.164 12.6057 104.078 11.7065 104.058C10.971 104.067 10.2355 104.075 9.5 104.084C7.86022 104.152 6.32575 102.684 6.34062 101C6.33912 100.874 6.33761 100.749 6.33611 100.623ZM175.399 104.164C173.278 104.108 179.386 103.822 179.111 104.128C177.873 104.14 176.636 104.152 175.399 104.164ZM195.136 104.042C193.806 104.071 192.476 104.1 191.146 104.129C191.144 104.094 191.142 104.059 191.14 104.024C192.472 104.03 193.804 104.036 195.136 104.042ZM6.51127 61.1325C6.39083 62.5415 6.40937 65.9028 6.4069 67.999C6.51039 66.5552 6.45951 63.1139 6.51127 61.1325ZM143.619 104.041C143.791 104.123 135.353 104.102 138.274 103.958C140.056 103.985 141.837 104.013 143.619 104.041ZM126.481 103.919C128.291 103.901 129.693 103.929 129.321 104.058C128.361 104.053 127.402 104.047 126.442 104.042C126.455 104.001 126.468 103.96 126.481 103.919ZM154.887 5.97648C157.937 5.96489 160.986 5.95329 164.036 5.94169C163.923 5.97689 163.81 6.01209 163.697 6.04728C160.757 6.05867 157.817 6.07007 154.877 6.08146C154.88 6.04647 154.884 6.01147 154.887 5.97648ZM6.82742 59.4079C6.80443 57.3136 6.78145 55.2193 6.75846 53.125C6.73486 55.2211 6.71126 57.3171 6.68766 59.4132C6.73445 59.4132 6.78124 59.4132 6.82803 59.4132C6.82783 59.4114 6.82763 59.4097 6.82742 59.4079ZM113.112 6.4324C122.428 6.59654 110.542 6.77005 108.083 6.52883C108.081 6.52904 108.078 6.52924 108.076 6.52944C107.86 6.50813 108.315 6.40503 107.957 6.36343C108.905 6.41002 109.854 6.45661 110.802 6.5032C111.667 6.44522 112.531 6.38724 113.396 6.32925C113.681 6.35204 113.966 6.37483 114.251 6.39761C113.871 6.40921 113.492 6.4208 113.112 6.4324ZM75.5148 6.52395C67.0678 6.50492 75.7108 6.24711 79.8918 6.45071C79.8618 6.49783 76.293 6.52571 75.5148 6.52395ZM97.6523 6.46841C98.9833 6.44501 100.314 6.42162 101.645 6.39822C101.815 6.42772 101.985 6.45722 102.155 6.48672C101.134 6.51602 100.112 6.54531 99.0902 6.57461C98.6109 6.53921 98.1316 6.50381 97.6523 6.46841ZM141.428 6.92372C143.57 6.95613 146.302 6.62811 139.424 6.71437C139.428 6.74957 139.431 6.78477 139.435 6.81996C139.709 6.81434 140.514 6.78133 140.557 6.78395C140.683 6.79276 140.535 6.91029 141.428 6.92372ZM59.8732 7.45105C59.6327 7.46444 59.5018 7.83569 56.9999 7.45166C56.2437 7.47505 55.4875 7.49845 54.7312 7.52185C54.5358 7.44006 54.3404 7.35828 54.145 7.27649C57.0718 7.3399 57.3821 7.17443 57.5941 7.1709C58.567 7.15542 57.8469 7.24053 58.4747 7.2417C60.0953 7.24452 63.7782 7.18737 62.1078 7.4303C61.5064 7.5173 60.1138 7.43766 59.8732 7.45105ZM65.5962 7.66222C65.2413 7.63123 66.3848 7.52263 66.1167 7.49194C65.882 7.46517 62.3544 7.35437 63.3091 7.1709C63.8884 7.17863 64.4676 7.18637 65.0468 7.1941C65.2431 7.24435 65.4394 7.2946 65.6357 7.34485C66.1965 7.29846 66.7573 7.25208 67.3181 7.20569C68.2632 7.32969 70.2743 7.49032 67.8859 7.59142C68.764 7.58084 69.642 7.57027 70.52 7.55969C70.9748 7.50028 71.4296 7.44087 71.8844 7.38147C71.6461 7.472 71.4077 7.56253 71.1694 7.65307C69.3116 7.65612 67.454 7.65917 65.5962 7.66222ZM38.3773 7.62743C38.4841 7.58064 38.5911 7.53385 38.698 7.48706C35.4733 7.57405 30.4516 7.60712 33.3036 7.31372C37.6718 7.28931 42.0401 7.26489 46.4084 7.24048C46.6984 7.27568 46.9884 7.31087 47.2785 7.34607C44.0196 7.21047 45.0268 7.7875 42.1917 7.62194C41.7138 7.59387 43.1007 7.39208 40.0965 7.52123C40.2034 7.56823 40.3103 7.61523 40.4172 7.66222C39.7372 7.65063 39.0572 7.63903 38.3773 7.62743ZM10.6562 7.55724C15.6426 7.61833 11.1654 7.76352 9.5 7.68651C9.43859 7.67826 9.38903 7.67144 9.35435 7.66124C9.35495 7.66118 9.35554 7.66112 9.35613 7.66106C8.88073 7.57528 9.04332 7.43811 9.5 7.40803C10.7126 7.40033 12.469 7.45173 12.662 7.45044C13.1492 7.447 14.2838 7.16889 16.9338 7.57433C14.8413 7.56864 12.7487 7.56294 10.6562 7.55724ZM28.6821 7.62682C28.2182 7.63598 28.475 7.56535 28.2746 7.5664C28.2729 7.5664 28.2711 7.5664 28.2694 7.5664C25.314 7.58155 18.2844 7.64478 17.5227 7.41687C19.7104 7.39785 29.4993 7.3486 30.0912 7.50354C29.6215 7.54463 29.1518 7.58573 28.6821 7.62682ZM49.4788 7.45715C51.2933 7.60471 47.2085 7.62436 46.1376 7.55602C45.9354 7.54122 47.5991 7.30429 49.4788 7.45715ZM188.657 7.838C192.649 7.74923 187.404 7.66064 189.22 7.52185C188.458 7.53365 187.695 7.54544 186.933 7.55724C187.508 7.65083 188.082 7.74441 188.657 7.838ZM232.905 101.882C231.974 101.865 232.415 101.95 232.334 101.951C231.723 101.949 231.147 101.88 230.912 101.887C226.575 102.027 229.459 102.098 229.503 102.114C229.595 102.198 228.455 102.296 230.034 102.392C230.993 102.362 231.951 102.333 232.91 102.303C233.386 102.35 233.862 102.396 234.337 102.443C236.242 102.343 233.75 102.315 233.467 102.183C233.358 102.131 235.15 102.068 232.905 101.882ZM195.81 8.11875C196.458 7.97151 198.044 7.78576 196.486 7.63781C196.484 7.63781 196.482 7.63781 196.481 7.63781C196.193 7.61074 195.019 7.59586 194.659 7.55785C192.089 7.75402 193.074 7.95674 195.81 8.11875ZM249.597 101.611C249.823 101.621 250.101 101.44 250.197 101.189C250.281 101.216 250.365 101.245 250.448 101.275C250.371 101.459 250.233 101.618 250.066 101.719C250.038 101.792 250 101.865 249.95 101.934C250.231 101.912 250.55 101.741 250.758 101.458C250.798 101.309 250.811 101.158 250.798 101C250.776 100.228 250.754 99.456 250.732 98.684C250.686 99.2527 250.639 99.8214 250.592 100.39C250.541 97.366 250.756 98.0244 250.838 95.5215C250.756 94.6645 250.674 93.8075 250.592 92.9505C250.675 91.7097 250.757 90.4689 250.839 89.2281C250.801 87.1432 250.738 86.9599 250.644 88.3632C250.537 87.3266 250.706 86.1916 250.662 84.9431C250.658 84.84 250.558 85.0342 250.556 84.9431C250.488 78.4881 250.753 78.8315 250.765 77.8005C250.772 77.073 250.594 74.1686 250.533 74.1228C250.451 74.0668 250.127 80.1075 250.118 70.6475C249.894 75.5384 250.122 81.0988 250.451 77.5035C250.418 79.0514 250.5 85.8775 250.49 86.3127C250.475 86.9471 250.35 86.7246 250.347 87.5193C250.345 87.989 250.63 89.2333 250.381 92.9505C250.428 93.4254 250.475 93.9004 250.522 94.3753C250.483 94.8205 250.445 95.2656 250.406 95.7108C250.269 94.7942 250.132 93.8776 249.995 92.961C250.126 96.1639 249.924 98.8854 250.036 101C250.051 101.043 250.068 101.082 250.088 101.125C249.989 101.39 249.83 101.425 249.824 101.275C249.782 101.324 249.729 101.363 249.676 101.388C249.668 101.462 249.644 101.539 249.597 101.611ZM207.54 7.90819C209.44 8.04509 210.123 7.74974 209.827 7.73302C208.161 7.64111 206.552 7.83696 207.54 7.90819ZM236.354 102.039C238.45 102.115 240.546 102.191 242.642 102.267C242.642 102.174 242.642 102.08 242.642 101.987C240.546 102.004 238.45 102.021 236.354 102.039ZM188.074 8.04795C187.881 7.97797 187.688 7.90798 187.495 7.838C185.199 8.09363 182.92 7.72685 181.786 7.8026C181.539 7.81915 182.036 7.94272 182.506 7.96922C182.798 7.98578 187.667 8.07155 188.074 8.04795ZM92.4971 8.01438C93.3524 7.96739 94.2076 7.92039 95.0629 7.8734C95.0155 7.95213 94.9682 8.03086 94.9209 8.1096C94.4985 8.12424 94.0762 8.13889 93.6538 8.15354C93.2682 8.10715 92.8827 8.06077 92.4971 8.01438ZM102.229 7.88927C103.755 7.89557 105.28 7.90188 106.806 7.90819C100.987 7.9804 105.762 8.01564 102.229 8.11814C102.229 8.04185 102.229 7.96556 102.229 7.88927ZM117.671 8.04856C117.483 8.09556 117.296 8.14255 117.108 8.18955C115.583 8.18955 114.057 8.18955 112.531 8.18955C113.496 8.35271 114.461 8.51587 115.426 8.67904C115.985 8.67944 116.544 8.67985 117.103 8.68026C117.292 8.46969 117.482 8.25913 117.671 8.04856ZM191.695 101.531C190.773 101.528 187.564 101.671 187.702 101.723C189.035 101.788 190.367 101.852 191.7 101.917C191.706 101.823 191.713 101.729 191.719 101.636C191.907 101.682 192.096 101.729 192.284 101.776C193.042 101.741 193.8 101.706 194.558 101.671C194.94 101.752 195.322 101.834 195.704 101.916C196.088 101.823 196.472 101.729 196.855 101.636C193.196 101.47 193.322 101.636 192.56 101.634C192.174 101.633 191.929 101.575 191.792 101.546C191.76 101.541 191.727 101.536 191.695 101.531ZM237.802 101.443C233.432 101.42 230.935 101.666 227.773 101.46C229.801 101.899 242.894 101.446 247.51 101.812C247.99 101.741 248.469 101.671 248.948 101.601C246.435 101.663 244.693 101.518 243.467 101.497C242.494 101.481 242.595 101.555 242.521 101.554C242.517 101.554 242.514 101.554 242.51 101.554C240.231 101.523 239.526 101.452 237.802 101.443ZM184.827 8.39218C186.001 8.5034 188.056 8.49227 188.079 8.32993C186.935 8.28293 185.792 8.23593 184.648 8.18894C184.883 8.23051 184.627 8.37316 184.827 8.39218ZM119.445 8.50204C120.362 8.55488 122.527 8.50858 121.593 8.36838C121.425 8.34349 119.269 8.44204 120.534 8.18894C118.433 8.19285 118.924 8.47167 119.445 8.50204ZM250.276 44.3065C250.271 43.5354 250.266 42.7643 250.262 41.9931C250.196 41.8135 250.131 41.6339 250.065 41.4542C250.135 42.405 250.205 43.3557 250.276 44.3065ZM174.916 8.50448C173.891 8.18388 172.14 8.49587 170.216 8.23227C169.505 8.23024 168.795 8.2282 168.084 8.22617C168.082 8.22617 168.081 8.22617 168.079 8.22617C168.06 8.31365 168.04 8.40113 168.021 8.48861C170.319 8.4939 172.618 8.49919 174.916 8.50448ZM250.118 92.3879C250.158 91.913 250.199 91.438 250.24 90.9631C250.192 90.1175 250.145 89.2719 250.097 88.4263C250.063 88.8837 250.029 89.3411 249.996 89.7985C250.036 90.6617 250.077 91.5248 250.118 92.3879ZM162.424 8.53195C164.91 8.5721 165.845 8.2934 162.666 8.2927C161.326 8.2927 159.82 8.48999 162.424 8.53195ZM144.208 101.635C145.059 101.658 145.911 101.682 146.763 101.706C147.053 101.647 147.343 101.589 147.633 101.53C146.491 101.565 145.35 101.6 144.208 101.635ZM107.658 8.4703C107.758 8.41171 107.857 8.35312 107.957 8.29453C108.717 8.30633 109.477 8.31813 110.237 8.32993C110.045 8.38811 109.854 8.4463 109.663 8.50448C108.995 8.49309 108.326 8.4817 107.658 8.4703ZM149.939 101.671C150.619 101.682 151.3 101.693 151.981 101.704C152.439 101.676 152.896 101.647 153.353 101.619C152.716 101.591 152.079 101.562 151.442 101.534C150.941 101.58 150.44 101.625 149.939 101.671ZM138.862 8.50509C139.818 8.57554 143.639 8.35604 140.197 8.30002C138.004 8.26445 138.718 8.49437 138.862 8.50509ZM133.707 8.57528C137.349 8.70949 134.618 8.02831 130.271 8.46969C134.647 8.40918 133.493 8.56718 133.707 8.57528ZM101.674 8.92683C101.583 8.92648 101.507 8.82853 100.775 8.82491C98.1407 8.81222 94.6628 8.77352 92.7784 8.76753C88.2483 8.75309 74.3722 8.93015 72.7493 8.64669C72.4113 8.58716 73.1891 8.40927 73.0516 8.40011C72.6484 8.37457 70.3273 8.46088 70.7566 8.32993C73.0341 8.33094 75.3115 8.33196 77.589 8.33298C77.0299 8.42534 76.4708 8.5177 75.9118 8.61007C81.5864 8.56076 79.7081 8.56645 81.3403 8.36533C82.3007 8.44324 83.2611 8.52116 84.2215 8.59908C86.3124 8.52076 88.4031 8.44243 90.4939 8.3641C90.0199 8.42249 89.5458 8.48088 89.0717 8.53927C92.2217 8.64741 91.3466 8.5765 93.0702 8.4349C93.0737 8.49329 93.0772 8.55168 93.0807 8.61007C96.122 8.46775 96.7145 8.64274 97.3789 8.64486C98.7418 8.6483 100.479 7.95746 105.678 8.64486C107.87 8.31425 107.82 8.98683 109.109 8.64486C112.819 9.01714 105.763 8.8824 102.424 8.87007C102.422 8.87007 102.42 8.87007 102.418 8.87007C102.166 8.86901 102.566 8.9317 101.674 8.92683ZM120.733 8.58443C118.487 8.88791 127.361 8.91632 124.424 8.47824C123.987 8.464 123.55 8.44975 123.113 8.43551C122.318 8.48515 121.523 8.53479 120.728 8.58443C120.73 8.58443 120.732 8.58443 120.733 8.58443ZM204.11 8.78584C212.329 8.66114 207.656 8.48657 204.872 8.65706C204.317 8.69088 204.012 8.73724 204.11 8.78584ZM231.559 101.21C231.439 101.246 231.319 101.283 231.199 101.319C233.955 101.285 239.284 101.426 239.211 101.18C236.66 101.19 234.11 101.2 231.559 101.21ZM249.543 101.025C249.518 101.033 249.5 101.001 249.528 101.088C249.557 101.15 249.662 101.17 249.754 101.135C249.735 101.085 249.701 101.051 249.663 101.027C249.644 101.059 249.545 101.029 249.543 101.025Z" fill="#FFE992"/>
</svg>
