<svg width="22" height="41" viewBox="0 0 22 41" fill="none" xmlns="http://www.w3.org/2000/svg">
<path d="M20.454 3.37401C20.6344 3.18307 20.7754 2.95846 20.8691 2.713C20.9627 2.46754 21.0071 2.20605 20.9997 1.94344C20.9922 1.68084 20.9331 1.42227 20.8258 1.1825C20.7184 0.942724 20.5649 0.726446 20.374 0.54601C20.183 0.365574 19.9584 0.224513 19.7129 0.130882C19.4675 0.0372511 19.206 -0.00711697 18.9434 0.000311723C18.6808 0.00774041 18.4222 0.0668201 18.1824 0.174178C17.9427 0.281535 17.7264 0.435068 17.546 0.62601L0.545953 18.626C0.19488 18.9973 -0.000732422 19.489 -0.000732422 20C-0.000732422 20.511 0.19488 21.0027 0.545953 21.374L17.546 39.376C17.7252 39.5711 17.9414 39.7287 18.1821 39.8395C18.4227 39.9504 18.683 40.0123 18.9478 40.0217C19.2126 40.0311 19.4766 39.9878 19.7245 39.8943C19.9724 39.8009 20.1993 39.659 20.3919 39.4771C20.5846 39.2952 20.7392 39.0768 20.8467 38.8347C20.9542 38.5925 21.0126 38.3314 21.0183 38.0665C21.0241 37.8016 20.9772 37.5382 20.8803 37.2916C20.7834 37.045 20.6385 36.8201 20.454 36.63L4.74995 20L20.454 3.37401Z" fill="#6E501F"/>
</svg>
