<svg width="22" height="41" viewBox="0 0 22 41" fill="none" xmlns="http://www.w3.org/2000/svg">
<path d="M1.54605 37.626C1.36561 37.8169 1.22455 38.0415 1.13092 38.287C1.03729 38.5325 0.99292 38.794 1.00035 39.0566C1.00778 39.3192 1.06686 39.5777 1.17422 39.8175C1.28157 40.0573 1.4351 40.2736 1.62605 40.454C1.81699 40.6344 2.0416 40.7755 2.28706 40.8691C2.53252 40.9627 2.79401 41.0071 3.05662 40.9997C3.31922 40.9923 3.57779 40.9332 3.81756 40.8258C4.05733 40.7185 4.27361 40.5649 4.45405 40.374L21.454 22.374C21.8051 22.0027 22.0007 21.511 22.0007 21C22.0007 20.489 21.8051 19.9973 21.454 19.626L4.45405 1.62399C4.2748 1.42887 4.05857 1.2713 3.81792 1.16045C3.57726 1.04961 3.31699 0.987679 3.0522 0.978271C2.78741 0.968864 2.52339 1.01217 2.27547 1.10566C2.02756 1.19915 1.80069 1.34097 1.60805 1.52287C1.41541 1.70478 1.26084 1.92316 1.1533 2.16531C1.04577 2.40746 0.987427 2.66857 0.981657 2.93346C0.975887 3.19836 1.02281 3.46176 1.1197 3.70836C1.21659 3.95497 1.36151 4.17986 1.54605 4.36999L17.25 21L1.54605 37.626Z" fill="#6E501F"/>
</svg>
