<svg width="185" height="93" viewBox="0 0 185 93" fill="none" xmlns="http://www.w3.org/2000/svg">
<path d="M9.62993 20.4376C10.5039 31.088 9.5753 38.3579 9.4273 48.2381C9.26641 59.0012 9.25684 71.4619 9.28542 84C9.28875 83.8439 9.16582 83.7061 9 83.6976C19.6873 83.665 30.2338 83.6184 39.6314 83.6282C56.4686 83.6459 73.5773 83.7082 90.3129 83.7582C91.1712 83.7607 91.6834 83.8565 92.0725 83.8577C95.7368 83.869 101.881 83.7822 105.516 83.7949C113.163 83.8213 126.467 83.8064 133.47 83.8962C136.444 83.9342 139.495 83.9501 140.651 84.1781C141.737 84.1898 142.33 83.9837 142.614 83.9725C142.617 83.9727 142.621 83.9729 142.624 83.9731C143.538 83.9383 145.846 84.0828 146.355 84.0738C146.431 84.0724 145.962 83.9231 147.198 83.9682C147.308 83.9721 147.206 84.0736 148.247 84.075C148.517 84.0753 151.997 83.9197 152.991 83.9102C156.301 83.8792 164.203 84.0014 168.16 83.9993C168.765 83.9993 169.113 83.9399 169.752 83.9389C170.082 83.9383 170.577 84.0027 170.679 84.0024C171.124 84.0001 173.068 83.7074 172.37 84.285C174.401 84.2483 173.803 84.0574 173.848 83.9334C174.737 83.9262 175.44 83.9661 176 83.9974C176.011 84.0447 176.035 84.0638 175.957 83.91C175.923 83.9278 175.911 83.9718 175.914 84C175.944 74.693 175.974 65.386 176.004 56.0791C175.957 56.0758 175.91 56.0726 175.863 56.0693C176.05 52.8749 175.733 51.779 176.005 49.9553C175.945 48.8308 175.885 47.7063 175.825 46.5817C175.906 34.0366 175.91 21.5041 175.889 9C175.889 9.06333 175.929 9.11508 176 9.12394C161.804 9.15586 147.649 9.20915 133.556 9.20881C132.35 9.20881 132.049 9.1088 130.06 9.1081C127.864 9.1074 124.776 9.22362 121.882 9.22223C119.343 9.22118 115.598 9.12657 112.767 9.11176C112.128 9.10859 111.666 9.17193 111.594 9.17158C111.171 9.1691 111.15 9.06883 110.739 9.06599C110.248 9.06282 109.655 9.13709 109.088 9.13251C106.97 9.11597 104.661 9.14157 104.392 9.13984C103.1 9.13035 102.815 9.03228 102.708 9.0312C101.271 9.01923 101.81 9.10774 101.452 9.10261C99.5941 9.07548 98.281 8.85454 95.7378 9.0666C95.8071 8.98461 95.8763 8.90262 95.9456 8.82063C93.9993 8.7745 95.2849 8.99236 94.8871 9.03181C94.7249 9.04643 90.5354 9.01982 90.2123 9.01594C89.087 9.00185 89.0568 8.8929 88.9596 8.89143C88.7226 8.88791 85.8915 9.01157 84.4401 8.91646C82.7228 8.80375 84.7441 8.58211 84.3177 8.54049C84.2458 8.53345 82.448 8.55616 82.2066 8.48678C81.9401 8.41214 83.4948 8.41372 83.4709 8.38241C83.454 8.36093 80.8726 8.20706 81.3675 8.10349C81.7653 7.99962 85.2675 8.1328 86.0094 8.08396C86.1318 8.07588 85.9009 7.94768 86.0094 7.94298C86.4451 7.92572 94.5141 7.92186 94.8832 7.94298C94.4631 8.00136 94.0429 8.05975 93.6228 8.11814C94.1814 8.12404 94.7402 8.12994 95.2989 8.13584C94.5045 8.18263 93.7102 8.22942 92.9158 8.27622C94.0963 8.75699 97.652 8.26961 97.7985 8.02964C97.862 7.91868 95.6884 7.63318 97.7111 7.46692C97.4036 7.43843 97.096 7.40995 96.7885 7.38147C96.1547 7.42826 95.5209 7.47505 94.8871 7.52185C95.3092 7.55134 95.7313 7.58084 96.1534 7.61034C95.9981 7.64371 95.8427 7.67707 95.6873 7.71044C94.5026 7.76394 93.3178 7.81745 92.1331 7.87096C91.524 7.8463 91.6505 7.74779 91.2319 7.72875C86.0104 7.48887 89.4163 7.79412 85.9977 7.75011C85.5096 7.69721 85.0214 7.64432 84.5333 7.59142C84.7055 7.81019 83.1913 7.67283 81.3598 7.7672C81.5786 7.6964 81.7974 7.6256 82.0162 7.5548C79.3631 7.5925 73.9846 7.23555 75.4361 7.62621C74.8282 7.59285 74.2203 7.55948 73.6124 7.52612C73.099 7.59 72.5856 7.65388 72.0722 7.71776C71.3626 7.71044 70.6531 7.70311 69.9436 7.69579C69.9403 7.6612 69.9371 7.62662 69.9339 7.59203C70.4997 7.59183 71.0655 7.59163 71.6313 7.59142C71.2066 7.48604 70.7819 7.38065 70.3573 7.27527C69.9397 7.29277 69.5221 7.31026 69.1045 7.32776C70.8561 7.42743 68.5469 7.59023 67.9878 7.72936C66.5112 7.78078 65.5677 7.60017 65.0726 7.59203C64.8398 7.58816 62.0983 7.90678 63.1731 7.55663C61.7624 7.59915 60.3517 7.64167 58.9411 7.68419C58.3895 7.65734 57.8379 7.63048 57.2863 7.60363C58.4834 7.44054 55.0141 7.24403 57.5699 7.1764C59.4783 7.12567 59.9486 7.27816 60.8541 7.2771C61.6704 7.27635 62.1021 7.17365 62.9905 7.16907C68.9654 7.14019 73.8324 7.15903 79.5069 7.20447C80.628 7.2136 81.6477 7.16325 82.4008 7.17029C83.2509 7.17842 82.1858 7.30723 83.2689 7.27588C84.4064 7.24274 84.6525 7.13762 84.9528 7.1355C85.1397 7.13431 85.7321 7.22889 86.2774 7.22889C88.518 7.22887 91.8011 7.13742 92.1195 7.13795C92.4791 7.139 98.8158 7.22434 99.1192 7.23987C99.28 7.24833 98.9463 7.59756 100.343 7.22522C100.778 7.21831 101.214 7.21139 101.65 7.20447C101.579 7.27425 101.509 7.34403 101.438 7.41382C104.019 7.14928 103.132 7.29727 105.62 7.27649C111.578 7.22648 120.366 7.28528 126.883 7.26062C128.338 7.25498 128.892 7.17142 130.614 7.16541C132.213 7.16013 136.389 7.40944 135.481 7.0641C139.039 7.36313 139.611 6.84746 141.393 7.16907C141.608 7.12228 141.824 7.07549 142.04 7.0287C143.973 7.22948 144.57 7.05302 146.681 7.0287C147.591 7.01813 146.542 7.23168 148.379 6.99391C148.73 7.01161 149.081 7.02931 149.432 7.04701C149.35 7.09868 149.268 7.15036 149.187 7.20203C151.226 7.15976 151.358 7.18669 151.125 6.9933C152.11 7.02849 153.095 7.06369 154.079 7.09888C154.202 7.03541 154.324 6.97194 154.446 6.90846C153.975 6.78739 131.617 6.96997 128.503 7.02809C124.851 6.88441 117.515 7.06403 114.565 7.02992C113.385 7.01618 112.863 6.87262 111.145 6.85536C109.428 6.83812 107.266 6.9685 106.352 6.97316C103.305 6.98936 88.8708 6.96072 98.688 6.78212C98.4057 6.71214 98.1235 6.64215 97.8412 6.57217C93.9401 6.81098 95.3527 6.66396 92.1156 6.6393C90.7529 6.62878 87.5123 6.78506 87.6933 6.46719C90.2237 6.40801 92.912 6.50961 95.1124 6.50503C95.3305 6.50453 97.9357 6.3594 99.2765 6.39883C100.486 6.43483 99.6533 6.73785 102.285 6.39761C104.239 6.72997 105.37 6.42844 105.886 6.39639C106.778 6.34081 106.876 6.50485 107.768 6.52395C108.739 6.54505 109.408 6.43616 109.541 6.43545C110.873 6.43299 117.813 6.41814 118.131 6.48428C117.852 6.51337 117.573 6.54246 117.294 6.57156C119.096 6.61838 118.72 6.45065 119.194 6.43057C119.546 6.43118 119.899 6.43179 120.252 6.4324C120.112 6.46719 119.972 6.50198 119.833 6.53677C121.961 6.52937 120.332 6.40848 123.354 6.41165C125.272 6.41378 127.254 6.54659 127.44 6.53677C127.495 6.53395 126.891 6.44441 127.673 6.4324C128.968 6.41268 131.206 6.41496 131.457 6.53677C132.091 6.51953 132.037 6.40033 132.121 6.39761C132.489 6.38599 138.823 6.34546 139.958 6.33841C143.102 6.31904 146.602 6.34445 150.008 6.32437C150.359 6.32236 150.135 6.39886 150.486 6.39639C151.05 6.39247 153.942 6.27243 154.374 6.26395C155.453 6.24318 158.29 6.29079 158.737 6.25601C158.8 6.25108 157.866 6.14769 158.958 6.11564C160.17 6.08017 159.518 6.21923 159.583 6.22062C162.05 6.26817 163.608 6.17155 165.292 6.15287C165.837 6.14688 166.844 6.25153 167.614 6.22062C167.703 6.2171 167.527 6.1204 167.614 6.11564C168.778 6.06491 169.867 6.24439 170.37 6.25601C171.602 6.28443 170.932 6.15198 170.996 6.15104C171.817 6.14681 172.921 6.19459 174.169 6.18827C174.791 6.18512 175.4 6.18222 176 6.17957C177.553 6.1441 178.869 7.51042 178.84 9C178.844 11.4948 178.843 14.0394 178.839 16.907C178.838 17.6499 178.745 18.5317 178.745 18.6453C178.745 18.9965 178.855 18.896 178.853 19.9116C178.847 22.0526 178.852 24.0377 178.85 26.1577C178.85 26.5845 178.748 26.7665 178.746 27.0919C178.739 28.1833 179.006 31.9056 178.674 31.9668C178.968 34.1332 178.715 35.5722 178.718 37.3156C178.724 41.4455 178.784 47.9123 178.746 52.0296C178.738 52.8964 178.653 53.3031 178.648 53.7853C178.64 54.6502 178.687 59.5942 178.674 59.8527C178.648 60.3605 178.274 60.0561 178.6 62.667C178.623 64.1976 178.47 64.0168 178.461 64.3334C178.4 66.8004 178.742 69.2004 178.428 68.7519C178.514 71.6243 178.687 73.4859 178.394 74.6581C178.537 74.6428 178.623 75.9937 178.568 77.6218C178.328 75.9547 178.174 76.1611 178.218 72.1293C178.219 72.0658 178.322 72.187 178.323 72.1235C178.33 71.5478 178.278 70.3468 178.283 69.3656C178.289 68.3842 178.36 68.9291 178.358 68.5363C178.357 68.1766 178.258 68.1886 178.256 67.6681C178.252 65.9799 178.225 64.4859 178.223 63.5254C178.222 62.9204 178.309 62.2432 178.309 61.7736C178.309 59.9581 178.241 56.1111 178.25 53.8009C178.252 53.3195 178.35 53.5216 178.358 52.4685C178.359 52.3455 178.257 51.8969 178.236 50.975C178.215 50.0527 178.266 49.3377 178.255 48.7453C178.246 48.2503 178.156 48.4572 178.15 47.4421C178.146 46.5958 178.211 37.0106 178.225 36.4901C178.246 35.7414 178.373 35.3855 178.358 34.9286C178.354 34.8482 178.232 34.712 178.223 34.4333C178.078 29.8378 178.245 19.6665 178.244 14.4152C178.244 12.5894 178.242 10.787 178.238 9C178.263 7.7985 177.172 6.74065 176 6.78018C169.249 6.80431 162.578 6.84023 155.522 6.85841C155.325 6.87978 155.127 6.90114 154.93 6.9225C156.049 6.92331 157.169 6.92413 158.288 6.92494C158.295 6.98272 158.302 7.0405 158.309 7.09827C159.823 7.10742 159.622 6.97078 159.58 6.88832C160.14 6.92331 160.7 6.9583 161.26 6.9933C161.743 6.79195 165.477 6.92586 167.403 6.92555C168.655 6.92555 170.145 6.84879 170.805 6.85475C172.201 6.86707 172.164 6.99132 172.274 6.9933C172.46 6.99611 174.408 6.88653 175.812 6.89076C175.877 6.89095 175.939 6.89131 176 6.89184C176.969 7.04463 177.207 7.16122 177.962 8.32427C178.024 8.54104 178.053 8.76647 178.045 9C177.987 12.2831 178.027 15.8244 178.041 19.2804C177.865 18.5327 178.032 22.0517 178.029 23.6386C178.012 33.3202 177.937 45.2197 177.867 55.0283C177.858 56.2888 177.754 57.2412 177.758 57.9436C177.759 58.3244 177.882 58.4906 177.866 59.0195C177.863 59.1124 177.748 59.1771 177.731 60.1615C177.688 62.6116 177.879 68.7145 177.659 70.259C177.677 74.8393 177.696 79.4197 177.715 84C177.749 84.9102 176.925 85.7563 176 85.74C174.298 85.7469 172.596 85.7538 170.894 85.7607C170.684 85.7139 170.474 85.6672 170.263 85.6204C168.672 85.8595 162.381 85.719 159.313 85.7302C153.914 85.7503 147.025 85.8247 142.294 85.8328C141.266 85.8345 140.423 85.7667 139.45 85.7681C139.032 85.7688 138.511 85.8567 138.075 85.8572C133.184 85.8639 126.56 85.7733 121.631 85.7754C110.438 85.78 99.8976 85.7666 88.5572 85.7705C61.9442 85.7801 35.438 85.8457 9 85.8671C8.00759 85.8959 7.10288 84.9944 7.12873 84C7.12386 74.5855 7.12562 65.1793 7.13856 55.7796C7.13926 55.2718 7.24038 55.2972 7.24109 54.9037C7.24602 52.5806 7.16267 47.3929 7.16724 44.7693C7.17076 42.679 7.32538 39.3611 7.16968 38.6417C6.93402 46.0681 6.95175 53.914 6.88588 61.645C6.88124 62.1946 6.7851 62.2629 6.78334 62.3306C6.74994 63.5822 6.88233 62.7918 6.88832 64.6069C6.89033 65.2135 6.58343 70.8165 6.88893 70.1499C6.76672 71.4917 6.70563 80.9507 6.74611 82.7761C6.75844 83.3304 6.84895 82.938 6.85353 83.048C6.87072 83.4587 6.7809 83.6758 6.75331 84C6.7488 84.0304 6.74654 84.0624 6.7475 84.0964C6.61583 84.8359 7.86101 86.0313 8.19269 86.0065C8.36666 86.0771 8.64511 86.1704 9 86.1809C10.6702 86.2094 12.9911 86.2578 14.2004 86.2405C15.7322 86.2186 15.4454 86.0883 16.7699 86.0763C17.8138 86.0672 16.6767 86.1768 19.0073 86.2099C20.1624 86.2261 24.2033 86.1477 25.1854 86.1477C26.1671 86.1477 27.2593 86.2257 28.6134 86.2197C30.5639 86.2113 34.8071 86.1678 36.792 86.1428C36.9104 86.1414 37.1992 86.04 37.4911 86.0421C38.0959 86.0464 37.9143 86.1716 38.371 86.1843C38.8279 86.197 46.7417 86.1817 48.0858 86.1831C49.0122 86.1838 49.652 86.1092 50.1639 86.1098C50.5657 86.1105 50.6087 86.2149 51.0185 86.216C51.1455 86.216 52.2254 86.1254 53.3045 86.1275C54.324 86.1297 58.1951 86.2158 58.6436 86.2167C58.9355 86.217 58.6155 86.1429 59.4787 86.1446C60.2654 86.1465 60.7821 86.2427 61.2306 86.2441C62.2711 86.2473 63.4342 86.1652 64.5381 86.1648C67.7117 86.1637 67.5484 86.283 67.7388 86.2868C68.2668 86.2976 68.4783 86.1884 68.6517 86.1861C69.3834 86.177 71.1768 86.1568 71.8291 86.1526C72.6415 86.1473 72.9857 86.2511 73.849 86.2514C74.4924 86.2514 75.7916 86.1502 77.2595 86.1452C80.5684 86.1336 84.5035 86.1145 87.7531 86.1184C88.7221 86.1195 88.8708 86.2142 89.167 86.2167C90.7237 86.2297 91.5952 86.1237 92.0395 86.1251C95.2089 86.1346 100.862 86.3008 103.803 86.3149C105.001 86.3206 110.244 86.2438 113.202 86.2575C113.54 86.259 113.223 86.3333 113.6 86.3216C114.501 86.2938 114.417 86.1425 114.874 86.1471C115.094 86.1497 115.597 86.235 116.239 86.2435C119.569 86.2875 121.86 86.2212 123.379 86.2258C137.969 86.2698 152.847 86.3095 166.472 86.3229C167.991 86.3243 169.875 86.2343 172.169 86.3216C172.239 86.3686 172.31 86.4156 172.38 86.4626C172.46 86.4164 172.541 86.3703 172.621 86.3241C174.056 86.3103 174.997 86.2859 176 86.2769C176.464 86.2626 176.958 86.1616 177.504 85.7386C177.601 85.6741 178.069 85.4757 177.957 85.1138C178.507 84.2374 178.294 84.2012 178.284 84C178.261 83.8254 178.238 83.5473 178.232 82.9357C178.214 80.9852 178.273 79.0897 178.287 77.1984C178.382 76.1617 178.602 80.5119 178.602 80.7954C178.601 81.2522 178.468 81.7267 178.461 82.1666C178.451 82.8294 178.473 83.4811 178.481 84C178.49 84.3155 178.426 84.546 178.349 84.6145C178.123 85.628 178.504 84.3978 178.548 84.5311C178.359 85.2359 177.854 85.8312 177.229 86.1347C177.198 86.3056 176.689 86.627 176 86.6127C174.033 86.5956 171.458 86.4465 171.741 86.6378C171.247 86.5794 170.753 86.521 170.259 86.4626C168.093 86.8285 166.819 86.5709 163.93 86.462C164.138 86.5088 164.347 86.5556 164.555 86.6024C164.496 86.6219 161.946 86.6967 162.858 86.4974C160.243 86.76 160.354 86.3232 158.01 86.639C156.618 86.6795 157.455 86.4961 154.963 86.4992C153.486 86.501 151.653 86.5969 150.002 86.6036C149.622 86.6048 149.457 86.4986 149.119 86.4986C148.78 86.4987 148.615 86.6028 148.206 86.6054C147.359 86.6111 146.262 86.538 145.733 86.545C145.259 86.551 144.582 86.6429 143.44 86.6573C139.45 86.7084 140.655 86.5772 140.025 86.5328C139.348 86.4856 138.862 86.6584 137.512 86.6384C137.377 86.6363 137.727 86.5286 137.287 86.5328C136.932 86.5361 136.753 86.6532 135.578 86.675C135.109 86.6838 127.842 86.7089 126.735 86.711C125.038 86.7142 121.258 86.6151 119.502 86.6158C118.825 86.6158 118.102 86.7098 117.383 86.7092C115.001 86.7071 111.187 86.6991 108.166 86.6945C105.445 86.6903 100.669 86.4828 99.179 86.6701C95.3588 86.6944 94.4309 86.5344 94.1429 86.5322C93.3643 86.5262 93.0038 86.6322 92.022 86.6372C79.3064 86.6988 62.5621 86.6287 50.5194 86.6372C36.7085 86.6473 22.8603 86.6665 9 86.6783C7.5751 86.7166 6.28204 85.4281 6.31701 84C6.30913 71.9158 6.30891 59.8252 6.32742 47.7448C6.28043 47.6697 6.23343 47.5946 6.18644 47.5195C6.15614 50.8328 6.0745 54.7266 6.05583 57.9976C6.03119 62.3644 6.2269 68.8423 5.90568 72.0455C5.87751 70.7464 6.00068 68.6301 5.8355 68.668C5.8237 70.9902 5.8119 73.3124 5.8001 75.6346C5.87639 75.5654 5.95268 75.4961 6.02897 75.4268C6.05116 77.8514 6.03453 80.3313 6.04545 82.7644C6.04725 83.1871 6.11651 82.8878 6.11686 83.2558C6.11711 83.6676 6.04662 83.3884 6.04606 83.4655C6.04592 83.6705 6.04858 83.8473 6.05292 84C6.07868 84.4632 6.18456 84.606 6.19552 84.678C6.26434 84.902 6.09561 84.7589 6.37448 85.3987C7.00427 86.6042 8.12188 86.6667 7.67917 86.8384C8.07762 87.0245 8.51408 87.1237 8.9564 87.1294C8.97105 87.1193 8.98558 87.1091 9 87.0987C9.12727 87.0273 9.25454 86.9558 9.38181 86.8844C12.8424 87.2146 14.438 86.6353 16.3504 87.0949C16.981 87.0247 17.6115 86.9546 18.2421 86.8844C18.5975 86.9661 18.9529 87.0479 19.3084 87.1297C19.3776 87.0595 19.4469 86.9893 19.5162 86.9192C22.9137 86.9709 26.5312 86.8866 29.7806 86.8947C32.0442 86.9004 32.5865 86.9281 34.5915 86.9228C39.0513 86.9108 34.6224 87.0501 38.3282 87.2005C38.1353 87.1145 37.9424 87.0284 37.7495 86.9423C38.3632 86.9108 38.9769 86.8793 39.5907 86.8477C40.0179 86.9179 40.4452 86.9881 40.8725 87.0583C42.7679 86.6943 43.9958 86.9881 44.2539 86.9881C44.4623 86.9875 45.1784 86.7683 47.4216 86.9539C46.4914 86.6543 49.1328 86.9522 49.3443 86.9539C49.5454 86.9552 52.117 86.8883 53.1607 86.8911C53.9818 86.8932 55.7331 86.9577 56.9558 86.9546C58.0353 86.9517 57.9258 86.85 58.0046 86.849C59.3333 86.8405 58.5006 86.9195 59.4612 86.9234C60.4217 86.9273 61.1669 86.8406 61.3743 86.8484C61.4786 86.8525 61.1298 86.9472 61.6073 86.9564C62.8896 86.9813 65.2084 86.8984 66.6765 86.9008C67.1968 86.9016 67.8527 86.982 68.4322 86.9845C69.3206 86.988 69.7358 86.8812 70.252 86.8844C70.4315 86.8858 71.5776 87.0507 73.0022 87.0253C73.2732 87.0203 74.0693 86.6713 75.1269 87.1657C75.2085 87.0961 75.2901 87.0266 75.3716 86.957C80.149 86.7847 81.4784 87.35 83.6026 86.8484C87.0715 86.9044 84.6901 87.0998 85.0709 87.1297C85.3169 87.1486 86.4479 87.0949 86.5723 87.098C86.7923 87.104 86.7545 87.1667 86.9957 87.1663C91.4176 87.1547 89.4542 87.0363 90.8548 86.9613C94.1849 86.7827 96.7831 87.1792 90.9907 87.0601C90.9907 87.0951 90.9907 87.1301 90.9907 87.1651C92.417 87.1317 96.0375 87.1476 94.8285 87.325C93.8765 87.4649 85.287 87.3736 90.1517 87.5698C91.2561 87.6142 91.8282 87.4828 93.7409 87.7291C95.0058 87.7424 95.188 87.4234 96.9008 87.5515C96.6192 87.4402 96.3376 87.3289 96.056 87.2176C98.3917 87.0725 101.273 87.2671 103.067 87.2048C103.677 87.1835 105.873 86.653 105.361 87.1834C106.386 87.1504 111.213 87.2481 112.11 87.2005C112.326 87.189 112.607 86.9066 115.728 87.0052C115.945 87.0406 116.162 87.076 116.379 87.1114C113.524 87.2142 118.566 87.3189 117.197 87.5869C116.731 87.4664 114.467 87.3929 114.103 87.3323C113.481 87.2281 115.334 87.0937 112.972 87.1303C111.484 87.5782 115.74 87.3721 115.089 87.7974C118.189 87.5989 118.499 87.7883 119.201 87.7962C122.201 87.8282 124.089 87.7832 126.919 87.8328C127.609 87.7455 122.485 87.6193 121.85 87.657C124.186 87.3474 120.166 87.3334 118.469 87.5173C118.326 87.4237 118.184 87.3301 118.042 87.2365C120.25 87.2872 122.405 87.3133 124.593 87.2365C124.735 87.2715 124.877 87.3065 125.02 87.3415C124.529 87.3942 124.038 87.4469 123.548 87.4996C125.367 87.5859 124.276 87.313 126.7 87.5521C126.775 87.4467 126.85 87.3413 126.925 87.2359C129.249 87.2709 131.573 87.3059 133.898 87.3409C135.108 87.1296 139.58 87.2083 138.761 87.4819C140.566 87.5012 138.338 87.3556 140.029 87.289C140.765 87.2601 142.204 87.252 142.56 87.3256C142.407 87.5862 140.253 87.6185 139.602 87.7974C139.997 87.8551 150.011 87.6691 149.119 87.9738C149.918 88.0104 149.551 87.8535 150.993 87.8133C155.034 87.7013 161.293 88.0115 164.547 87.6223C160.726 87.4056 159.596 87.6351 156.668 87.6442C154.798 87.6502 143.394 87.6872 145.941 87.4117C145.522 87.4467 145.103 87.4817 144.685 87.5167C144.261 87.4347 143.838 87.3527 143.414 87.2707C144.608 87.2589 145.801 87.2471 146.994 87.2353C147.279 87.3171 147.564 87.3989 147.848 87.4807C147.98 87.4223 148.111 87.3639 148.243 87.3055C148.745 87.2939 149.247 87.2823 149.75 87.2707C149.609 87.3409 149.467 87.4111 149.326 87.4813C150.101 87.4933 150.875 87.5053 151.649 87.5173C151.441 87.4235 151.232 87.3297 151.024 87.2359C154.67 87.2123 153.435 87.2711 155.458 87.4465C156.968 87.4644 154.417 87.2841 157.612 87.2384C161.327 87.1852 158.89 87.4718 163.701 87.4105C163.77 87.3637 163.839 87.3169 163.908 87.2701C164.966 87.3169 166.024 87.3637 167.082 87.4105C166.942 87.3523 166.802 87.2941 166.662 87.2359C168.846 87.2585 171.855 87.1474 172.578 87.3757C170.365 87.2658 170.387 87.6643 170.962 87.7376C171.337 87.785 173.333 87.8035 176 87.8064C177.799 87.9003 179.862 86.1673 179.794 84C179.775 79.3799 179.743 74.7596 179.738 73.182C179.726 68.8323 179.853 65.5447 179.657 61.5716C179.496 64.264 179.628 73.7321 179.517 75.5262C179.506 75.7039 179.14 75.6539 179.551 76.7964C179.51 78.9806 179.534 81.4181 179.558 84C179.613 85.5837 178.392 87.204 176.719 87.5143C176.821 87.3861 176.911 87.2536 176.989 87.1188C179.177 86.6214 179.222 84.1779 179.286 84C179.312 83.9365 179.353 83.9273 179.412 83.9806C179.412 83.418 179.412 82.8554 179.412 82.2928C179.341 82.2928 179.271 82.2928 179.201 82.2928C179.201 81.4447 179.201 80.5966 179.201 79.7485C179.271 79.7485 179.341 79.7485 179.412 79.7485C179.412 79.0461 179.412 78.3437 179.412 77.6413C179.342 77.5681 179.271 77.495 179.201 77.4218C179.347 75.3184 178.957 68.1477 179.376 71.3C179.376 70.3121 179.376 69.3242 179.376 68.3362C179.325 68.3395 179.273 68.3427 179.222 68.3459C179.215 67.9212 179.208 67.4966 179.201 67.0719C179.248 67.2117 179.294 67.3515 179.341 67.4914C179.257 65.5452 179.503 63.7002 179.342 62.4223C179.306 63.2652 179.271 64.1081 179.236 64.951C179.303 63.3344 179.164 60.3562 179.164 60.0897C179.163 59.2773 179.267 58.849 179.273 57.9688C179.277 57.1743 179.197 57.2836 179.2 57.1356C179.281 52.8499 179.714 54.4832 179.202 52.4821C179.272 52.2691 179.342 52.0561 179.412 51.8431C179.353 51.5596 179.295 51.276 179.237 50.9925C179.242 49.7268 179.248 48.4611 179.253 47.1955C179.166 47.6176 179.078 48.0397 178.991 48.4618C178.952 46.5646 179.127 45.6798 179.131 45.4961C179.141 44.9761 179.031 44.7382 179.031 44.5774C179.04 36.8464 179.137 41.5421 179.551 37.6787C179.389 36.3012 179.226 37.6949 179.061 37.8904C179.138 36.0588 179.092 35.4871 179.102 33.5535C179.104 33.0505 179.193 32.5095 179.194 32.1921C179.195 31.9171 179.101 31.0575 179.1 30.3975C179.1 29.2973 179.156 27.833 179.155 26.3266C179.153 25.0741 179.086 21.24 179.086 18.5656C179.086 17.4244 179.165 17.6892 179.165 17.3945C179.165 17.2718 179.07 16.3824 179.07 15.6504C179.069 13.4493 179.077 11.2281 179.087 9C179.139 7.35949 177.659 5.8514 176 5.88464C174.276 5.87797 172.555 5.87345 170.844 5.87395C166.617 5.875 162.322 5.95127 158.086 5.94352C157.185 5.94176 157.662 5.87214 157.268 5.86967C157.133 5.86905 156.97 5.99054 155.577 5.94169C155.073 5.92408 155.652 5.83911 155.157 5.83489C154.916 5.83287 154.814 5.93937 153.405 5.96367C150.846 6.00803 149.47 5.86606 149.241 5.87028C148.81 5.87846 148.936 5.9666 148.365 5.96977C145.573 5.98527 143.242 6.00021 140.75 6.00761C139.586 6.01113 131.563 6.02895 131.123 6.0131C130.137 5.97788 131.054 5.79383 129.79 5.8001C129.436 5.84668 129.082 5.89327 128.728 5.93986C129.29 5.97526 129.853 6.01066 130.416 6.04606C128.867 5.98688 127.111 6.07059 125.964 6.06742C125.752 6.0667 123.803 5.98323 122.808 5.99235C123.231 5.95777 123.654 5.92318 124.076 5.88859C123.927 5.8591 123.777 5.8296 123.628 5.8001C121.639 5.84482 119.536 5.84367 117.496 5.83733C116.761 5.83517 117.009 5.7635 116.265 5.76103C111.928 5.74592 113.024 6.04392 108.851 5.48455C110.26 5.53527 115.399 5.46411 116.146 5.48272C116.667 5.49576 118.685 5.9684 117.945 5.48333C122.109 5.48545 118.492 5.75298 122.381 5.69451C122.303 5.63531 122.225 5.5761 122.148 5.5169C123.505 5.47958 124.508 5.44967 125.333 5.55413C125.61 5.26692 130.222 5.43496 132.752 5.41559C136.408 5.38811 140.538 5.31806 144.161 5.30573C145.408 5.30155 146.115 5.41411 146.272 5.41376C146.5 5.41295 147.143 5.31437 147.6 5.31366C149.306 5.31085 154.494 5.4775 155.785 5.2038C145.637 5.2038 135.49 5.2038 125.343 5.2038C126.618 5.33833 116.354 5.35148 115.834 5.34479C115.352 5.33877 115.757 5.24432 115.614 5.23859C114.548 5.19808 113.638 5.33502 113.299 5.33502C113.041 5.335 112.52 5.27075 111.602 5.27216C111.433 5.27236 111.386 5.34031 111.205 5.34052C110.008 5.34052 108.826 5.33955 107.624 5.33991C107.551 5.33925 107.248 5.23999 106.944 5.23981C106.64 5.23981 106.339 5.33899 106.263 5.33929C105.302 5.33859 103.655 5.27408 102.741 5.27338C102.424 5.27341 102.644 5.34609 102.289 5.3454C101.197 5.34364 101.557 5.20134 100.207 5.23798C99.7543 5.25032 99.7836 5.35914 98.9172 5.34479C98.3036 5.33457 98.3697 5.14066 98.2724 5.13361C98.138 5.1251 96.0207 5.27823 95.328 5.15131C96.8415 4.81624 93.6724 5.13383 93.8248 5.27521C92.9857 5.23961 92.1467 5.204 91.3077 5.1684C91.0215 5.20421 90.7354 5.24001 90.4492 5.27582C87.064 5.11449 84.9987 5.21135 81.6686 5.16169C81.5077 5.15922 78.7018 5.07962 78.833 5.02925C80.5126 4.94261 82.1883 4.93865 83.2631 5.09882C85.0319 4.79341 85.0622 5.0368 87.9185 4.99629C88.8749 4.98255 88.9428 4.89969 89.0528 4.89863C92.7719 4.85743 98.7287 4.82177 101.234 5.06403C101.937 4.99851 99.4115 4.97253 100.393 4.92427C100.929 4.89784 113.815 4.82047 109.698 5.09943C110.126 5.0917 110.553 5.08397 110.98 5.07624C111.408 4.81275 113.533 4.87301 113.291 5.13544C113.493 5.08173 113.694 5.02803 113.895 4.97432C114.293 4.92887 114.764 4.90453 115.424 4.89009C117.951 4.83516 132.99 4.92656 133.789 4.88887C133.807 4.82662 133.825 4.76436 133.844 4.70211C127.2 4.63166 120.755 4.78636 113.511 4.60812C113.721 4.66651 113.932 4.72489 114.142 4.78328C111.251 4.7015 108.361 4.61971 105.47 4.53793C108.53 4.43225 113.397 4.3435 116.609 4.43051C117.179 4.44603 116.761 4.52746 116.892 4.53732C117.235 4.56293 117.603 4.42166 118.834 4.40793C120.066 4.39421 123.16 4.49436 123.443 4.49154C123.99 4.48573 125.465 4.32409 126.395 4.32614C127.618 4.32896 126.799 4.42901 127.044 4.43112C128.059 4.44095 128.97 4.39138 129.765 4.39877C130.946 4.40977 133.399 4.5857 134.224 4.32736C133.381 4.31556 132.537 4.30376 131.694 4.29196C136.268 4.19932 139.844 4.52956 144.351 4.27487C145.375 3.96207 141.651 4.00434 144.799 3.87083C144.228 3.87531 143.656 3.87979 143.085 3.88426C142.951 3.94977 142.817 4.01528 142.683 4.08079C141.698 4.034 140.713 3.9872 139.728 3.94041C140.009 3.9988 140.29 4.05719 140.571 4.11558C137.08 4.15961 133.555 4.21948 132.336 3.90562C132.265 3.98151 132.193 4.05739 132.121 4.13328C128.88 4.04101 124.014 4.36265 124.923 3.94041C124.77 3.96279 124.616 3.98517 124.463 4.00755C122.504 3.92124 123.34 4.09585 122.604 4.11558C122.394 4.12113 118.586 4.03098 120.274 3.90562C116.559 3.80982 117.704 4.20446 116.68 4.22178C114.302 4.02627 110.025 4.31953 111.823 4.0106C111.469 3.999 111.115 3.98741 110.761 3.97581C109.597 4.21887 108.45 3.94386 107.189 3.85191C106.762 3.84642 106.334 3.84093 105.907 3.83544C105.621 3.91722 105.335 3.999 105.049 4.08079C101.029 3.69154 102.302 4.75607 100.465 3.86168C100.751 3.80817 101.037 3.75467 101.324 3.70116C102.002 3.67573 102.681 3.6503 103.359 3.62487C100.622 3.60127 97.8859 3.57767 95.1493 3.55407C91.6758 3.30338 89.6992 3.57538 85.8404 3.37708C85.4791 3.40088 85.1179 3.42468 84.7567 3.44848C85.1248 3.24594 86.5264 3.2757 83.9157 3.18482C83.6932 3.04162 85.4563 3.02308 86.2599 3.13294C86.4536 3.15975 84.8051 3.26944 86.6581 3.27332C87.9178 3.27608 85.6304 3.10398 89.4043 3.16773C89.2645 3.13274 89.1246 3.09775 88.9848 3.06275C89.394 3.06377 89.8031 3.06479 90.2123 3.06581C90.5761 3.14678 90.9399 3.22775 91.3038 3.30872C92.2389 3.19177 92.7639 3.02788 94.9007 3.06275C94.3211 3.11347 95.1075 3.27607 96.1651 3.27332C96.1651 3.21473 96.1651 3.15613 96.1651 3.09754C98.7252 3.05985 97.8414 3.23175 99.9698 3.09754C100.183 3.14413 100.396 3.19072 100.609 3.23731C101.768 3.04533 106.037 2.91472 105.258 3.20252C106.456 2.92282 108.971 3.04902 109.906 3.27271C109.978 3.21452 110.05 3.15634 110.122 3.09815C110.62 3.08635 111.117 3.07455 111.615 3.06275C111.893 3.09795 112.171 3.13315 112.448 3.16834C112.801 3.13315 113.154 3.09795 113.507 3.06275C113.72 3.12114 113.933 3.17953 114.146 3.23792C114.713 3.16793 115.28 3.09795 115.847 3.02796C116.194 3.07455 116.541 3.12114 116.888 3.16773C116.924 3.04594 120.362 3.01882 121.322 3.09876C121.608 3.06336 121.895 3.02796 122.181 2.99257C122.321 3.05055 122.46 3.10853 122.6 3.16651C122.813 3.12013 123.026 3.07374 123.239 3.02735C123.73 3.07374 124.221 3.12013 124.711 3.16651C126.713 2.88225 126.777 3.13165 127.234 3.12989C128.081 3.12663 130.967 2.94862 131.449 2.95778C131.931 2.967 132.163 3.06903 132.552 3.07862C138.963 3.23889 136.327 2.96511 137.613 2.92177C138.307 2.89817 138.798 2.99334 139.412 2.9828C140.461 2.96519 145.755 2.83925 146.06 2.85158C146.503 2.86937 145.459 3.31819 146.901 3.20252C146.949 2.96152 150.032 3.20476 148.591 2.86867C149.86 2.89817 151.13 2.92767 152.399 2.95717C152.255 2.67148 153.821 2.85522 155.526 2.83937C157.943 2.81716 163.383 2.62932 163.184 2.92238C163.763 2.85504 164.342 2.7877 164.921 2.72036C168.647 2.80716 172.306 2.72671 176 2.71396C176.362 2.71313 176.726 2.74364 177.086 2.80633C179.982 3.25981 182.339 6.00212 182.287 9C182.279 19.0464 182.226 29.5676 182.177 39.3471C182.174 39.9053 182.079 39.825 182.076 40.2269C182.066 42.3384 182.134 47.8268 182.112 50.7846C182.106 51.7321 182.012 52.1933 182.008 52.4938C181.993 53.5136 182.116 53.2729 182.112 53.7426C182.107 54.4835 181.993 58.402 181.981 59.7517C181.975 60.42 182.072 61.2107 182.042 61.993C182.04 62.0604 181.939 61.936 181.937 61.993C181.925 63.4191 182.012 62.5614 182.007 63.0438C181.975 66.4838 181.973 70.1608 181.952 73.8928C181.947 74.8195 181.876 76.2378 181.869 77.0334C181.867 77.3368 181.943 76.7925 181.937 77.8413C181.934 78.2006 181.835 78.3234 181.829 78.7289C181.801 80.4763 182.121 81.0611 181.864 82.5628C181.867 82.9985 181.871 83.4827 181.876 84C182.076 86.8666 179.135 90.085 176 89.9458C174.912 89.9566 173.916 89.9642 173.132 89.9647C172.506 89.965 172.202 89.9063 171.605 89.9073C171.182 89.908 170.438 89.999 169.778 90.0001C169.118 90.0012 168.076 89.9145 166.806 89.9177C165.47 89.9209 163.808 89.9724 163.506 89.972C163.142 89.972 162.973 89.8626 162.609 89.864C161.509 89.8675 158.563 89.9751 157.146 89.9867C155.623 89.999 154.708 89.946 154.188 89.947C153.706 89.9485 153.144 90.0408 152.923 90.0416C152.581 90.043 152.5 89.9351 152.065 89.936C151.354 89.9378 150.621 90.0056 149.556 90.0074C130.361 90.0409 111.543 89.9816 92.8688 89.9031C90.7871 89.8943 89.6107 89.9699 86.5431 89.9354C85.2994 89.9213 85.8233 89.81 84.8554 89.831C84.4238 89.8406 84.5329 89.9281 83.9872 89.9324C81.5752 89.9507 78.7649 89.8693 77.7197 89.8707C77.3052 89.8711 76.8314 89.9706 75.9815 89.972C69.6471 89.9833 62.1528 89.9554 55.336 89.9726C51.7265 89.9818 46.2621 90.0325 42.1194 90.0392C31.0653 90.0572 19.2023 90.0363 9 90.0438C8.4564 90.0442 7.91305 89.9714 7.39025 89.8274C4.82562 89.1565 2.91198 86.6472 2.94812 84C2.92307 69.9869 2.86091 56.0235 2.95778 42.027C2.71719 49.3855 2.73727 59.4057 2.7112 67.5978C2.69417 72.9953 2.68829 78.4725 2.68931 84C2.60952 87.3518 5.62647 90.387 9 90.3068C25.719 90.29 42.7927 90.2254 59.4224 90.229C67.8599 90.2307 78.4983 90.2252 87.7356 90.2809C88.1545 90.2833 89.0228 90.2068 89.9284 90.215C90.1207 90.2168 92.5061 90.3564 93.3097 90.3578C92.5481 90.1098 95.6964 90.3308 96.6697 90.3248C97.8972 90.317 100.457 90.1931 103.329 90.2632C105.936 90.3266 105.217 90.422 105.361 90.428C106.283 90.4666 106.605 90.3129 107.311 90.2973C110.197 90.2353 125.041 90.3247 129.184 90.3303C130.254 90.3317 130.285 90.4294 130.526 90.4298C131.165 90.4304 132.074 90.3339 133.097 90.3346C134.942 90.336 137.067 90.4282 138.083 90.4286C140.512 90.4296 145.121 90.3208 148.278 90.3187C149.165 90.3181 149.111 90.4198 149.513 90.4194C151.282 90.4176 155.89 90.2978 158.086 90.2967C161.653 90.295 165.322 90.3607 168.948 90.3272C169.178 90.3726 169.408 90.418 169.638 90.4634C170 90.4157 170.363 90.3681 170.725 90.3205C172.477 90.3309 174.237 90.33 176 90.3235C179.372 90.3952 182.382 87.3464 182.287 84C182.272 81.6846 182.259 79.376 182.261 77.0877C182.262 76.3852 182.349 72.9074 182.349 72.3274C182.349 71.845 182.237 71.3703 182.253 70.6552C182.276 69.6535 182.49 70.5961 182.429 68.9597C182.413 68.5196 182.321 68.9463 182.292 68.0624C182.283 67.7704 182.246 62.1035 182.252 61.7988C182.263 61.2912 182.459 60.8384 182.463 60.7073C182.486 60.0263 182.335 60.0553 182.321 59.5983C182.28 58.2501 182.381 56.4885 182.379 56.2694C182.351 53.6205 182.231 48.6685 182.302 45.8884C182.312 45.5039 182.424 45.55 182.428 45.4825C182.451 45.0469 182.323 44.7761 182.321 44.3618C182.306 42.1318 182.392 38.6396 182.414 36.3969C182.416 36.1386 182.355 35.5934 182.361 35.1325C182.395 32.5259 182.494 33.3715 182.498 33.2234C182.509 32.8721 182.4 32.2545 182.393 31.32C182.375 28.9123 182.391 24.2952 182.399 21.7139C182.406 19.7802 182.53 19.8094 182.533 19.6824C182.537 19.4113 182.438 18.6578 182.427 17.3848C182.405 14.9352 182.502 15.2143 182.498 14.2074C182.498 14.1227 182.402 14.2699 182.393 13.1528C182.384 12.1649 182.399 10.6136 182.417 9C182.542 5.79947 179.76 3.19898 177.785 2.78746C176.985 2.56895 176.512 2.57638 176 2.59559C175.76 2.61518 175.5 2.63233 175.113 2.63308C173.671 2.63624 170.415 2.53639 170.159 2.53665C170.087 2.53665 169.925 2.64284 169.502 2.64284C169.037 2.64283 168.579 2.58817 168.232 2.58853C166.256 2.58999 162.852 2.77532 163.798 2.39627C163.165 2.48985 162.532 2.58344 161.899 2.67702C157.76 2.65835 153.74 2.69584 149.639 2.71486C148.717 2.71908 147.947 2.64729 147.169 2.65078C146.391 2.6543 142.957 2.77306 142.383 2.77529C141.359 2.77916 135.54 2.79167 134.817 2.78322C133.403 2.76702 132.032 2.61037 131.457 2.64101C130.995 2.66567 131.422 2.75394 130.542 2.77895C129.018 2.82221 126.43 2.70883 125.964 2.71059C125.765 2.71131 126.137 2.78011 124.276 2.78505C123.273 2.78787 122.735 2.71207 122.371 2.71242C122.258 2.71282 122.428 2.83574 120.442 2.81923C119.071 2.80761 118.487 2.71277 118.343 2.71242C118.127 2.71179 117.606 2.81299 116.739 2.80947C114.712 2.80063 111.006 2.68462 109.081 2.6758C108.708 2.67404 108.835 2.7963 107.35 2.78505C106.288 2.77695 106.474 2.67969 106.076 2.6758C105.446 2.66982 104.506 2.78891 103.114 2.78505C101.362 2.78012 88.3547 2.65659 87.6816 2.62453C87.2288 2.60305 86.7036 2.60169 86.4794 2.54885C86.6717 2.4982 86.8639 2.44754 87.0562 2.39688C89.0482 2.57465 88.2444 2.37148 88.7731 2.35843C89.539 2.33976 92.4254 2.36568 93.1236 2.32059C93.3724 2.3043 92.8029 2.19617 94.1394 2.14054C95.5735 2.08107 96.2115 2.27357 96.7827 2.01054C98.8181 2.30257 100.773 1.99262 98.4161 1.90984C97.1003 1.86368 84.1936 1.75942 81.5579 1.74321C79.4208 1.7302 75.4183 1.80845 72.7908 1.78838C71.2463 1.7764 67.4424 1.76283 67.6032 1.62298C66.2322 1.60537 67.6832 1.74459 67.3954 1.76397C66.7937 1.80442 62.5146 1.70827 61.7048 1.71209C57.7102 1.7304 52.6695 1.88674 48.7892 1.71026C48.9698 1.67282 49.1505 1.63539 49.3311 1.59795C50.2028 1.52926 54.2481 1.62747 54.7051 1.44781C48.7892 1.44781 42.8733 1.44781 36.9574 1.44781C37.0674 1.60069 29.7298 1.59864 29.3828 1.5296C29.5117 1.45554 29.6405 1.38149 29.7693 1.30744C33.9157 1.58848 33.5439 1.21699 36.3281 1.41424C37.4616 1.41703 37.1194 1.29467 37.6779 1.27143C43.237 1.04041 37.7671 1.52251 42.0226 1.41302C40.7416 1.23555 44.2268 1.17069 45.7885 1.14814C46.144 1.14321 50.8122 1.18819 51.3665 1.18537C54.4808 1.16952 59.8293 1.07229 62.9225 1.1695C65.3598 1.18113 66.7014 1.05471 68.9142 1.02546C70.5938 1.00327 70.1124 1.09212 70.903 1.09321C72.5617 1.09568 73.1077 0.825187 74.1698 1.20246C75.2943 1.15546 76.4188 1.10847 77.5434 1.06147C77.5434 1.12006 77.5434 1.17866 77.5434 1.23725C78.2497 1.23725 78.956 1.23725 79.6623 1.23725C79.8701 1.17886 80.0779 1.12047 80.2857 1.06208C82.5274 1.14205 81.5915 1.28314 82.0104 1.44903C82.4947 1.46043 82.9789 1.47182 83.4632 1.48321C83.838 1.35586 84.2128 1.2285 84.5877 1.10114C86.75 1.11152 88.9123 1.1219 91.0746 1.13227C91.2144 1.19066 91.3543 1.24905 91.4941 1.30744C91.4987 1.24905 91.5032 1.19066 91.5077 1.13227C95.1694 1.12027 98.8311 1.10826 102.493 1.09626C103.467 1.00259 97.5998 0.931613 97.1556 0.925979C94.6842 0.89499 88.1212 0.988898 88.1128 0.780719C86.5766 0.936047 81.9517 0.897481 80.513 0.711142C82.6966 0.722331 84.8803 0.73352 87.064 0.744709C86.9934 0.674928 86.9229 0.605147 86.8523 0.535366C89.5731 0.816809 89.9712 0.801319 92.7682 0.535366C92.7708 0.62895 92.7734 0.722534 92.776 0.816119C94.7262 0.490703 98.1735 1.04271 98.2724 0.640953C99.3108 0.673504 100.349 0.706055 101.388 0.738606C103.63 0.689631 100.148 0.380651 108.927 0.501797C109.532 0.510251 109.406 0.612593 110.316 0.605554C110.578 0.60344 112.081 0.45456 114.954 0.47006C115.402 0.472536 115.436 0.561323 115.902 0.572596C116.976 0.599363 119.117 0.423762 118.145 0.709921C122.401 0.793378 120.637 0.558523 121.957 0.465177C122.837 0.403228 122.66 0.572538 123.422 0.534145C124.364 0.486531 123.673 0.315847 127.446 0.394379C127.023 0.405975 126.599 0.417571 126.176 0.429168C126.389 0.475553 126.602 0.521938 126.815 0.568324C128.968 0.457024 128.765 0.619647 129.781 0.358979C131.346 0.475224 132.701 0.484481 134.842 0.463346C139.001 0.422132 136.869 0.141212 141.616 0.519497C142.385 0.466398 143.154 0.413299 143.924 0.3602C145.188 0.471858 144.165 0.611557 146.052 0.639732C144.575 0.363912 148.557 0.464482 149.23 0.218603C149.3 0.277194 149.371 0.335787 149.441 0.394379C149.863 0.394379 150.284 0.394379 150.706 0.394379C150.707 0.347383 150.708 0.300387 150.71 0.253392C151.271 0.288588 151.832 0.323783 152.393 0.358979C152.816 0.312391 153.238 0.265802 153.66 0.219213C154.354 0.317477 155.048 0.41574 155.742 0.514004C156.178 0.520718 156.613 0.527431 157.049 0.534145C156.911 0.46416 156.773 0.394175 156.635 0.32419C157.195 0.347587 157.755 0.370983 158.315 0.394379C157.664 0.279541 158.073 0.144892 159.817 0.148415C161.255 0.15124 159.635 0.390921 162.728 0.291233C162.944 0.284126 163.326 0.113185 166.249 0.086771C169.755 0.0550981 168.052 0.178914 168.677 0.183203C168.8 0.183908 169.871 0.0978808 170.873 0.0855503C171.443 0.0785308 171.991 0.147985 172.066 0.147804C172.417 0.144634 172.519 0.0463762 173.006 0.0428271C173.893 0.0367556 174.999 0.0598879 176 0.0715837C176.868 0.0751414 177.707 0.208747 178.442 0.417237C179.633 0.744019 180.669 1.29921 181.118 1.61661C181.829 2.09863 182.553 2.91171 183.064 3.59281C184.134 4.92198 185.023 7.09018 184.998 9C185.01 9.71305 184.97 10.3265 184.783 10.6279C185.159 11.9945 184.704 14.8578 184.957 14.6482C184.861 18.3004 185.171 28.0418 184.747 27.7561C185.11 29.8246 184.847 29.6398 184.852 30.5062C184.858 31.4753 184.929 30.9733 184.925 31.7434C184.918 33.5416 184.888 35.2598 184.886 37.0495C184.828 36.7685 184.77 36.4875 184.712 36.2066C184.693 38.0852 184.829 37.4384 184.855 39.3549C184.902 42.8796 184.794 41.3943 184.642 41.9147C184.789 41.775 184.766 45.9314 184.747 46.3545C184.735 46.6068 184.545 45.501 184.606 48.0462C184.665 47.907 184.723 47.7678 184.781 47.6286C184.702 48.7882 184.803 51.9379 184.783 52.4724C184.774 52.7178 184.303 54.0305 184.676 55.2323C184.617 55.3773 184.559 55.5223 184.501 55.6673C184.571 57.0016 184.641 58.3359 184.711 59.6702C184.606 59.8832 184.501 60.0962 184.396 60.3092C184.396 60.7326 184.396 61.1559 184.396 61.5793C184.489 61.2984 184.582 61.0174 184.676 60.7364C184.634 63.3508 184.781 66.5448 184.466 67.0835C184.524 67.6435 184.583 68.2035 184.641 68.7635C184.536 69.128 184.431 69.4925 184.327 69.857C184.353 72.4501 184.423 72.4929 184.535 74.2657C184.453 74.1965 184.371 74.1272 184.289 74.0579C184.404 75.3655 184.511 77.7526 184.526 79.6398C184.532 80.5369 184.42 82.0774 184.43 82.2889C184.437 82.4235 184.615 83.3068 184.65 84C184.674 84.8769 184.493 85.6146 184.317 85.7577C182.698 91.9413 178.202 92.4462 176 92.5022C175.909 92.5009 175.82 92.5003 175.73 92.5006C174.914 92.5035 174.542 92.5955 173.619 92.605C172.299 92.6187 170.971 92.5743 170.209 92.5806C169.773 92.5845 169.692 92.6742 169.391 92.677C167.971 92.6907 168.803 92.599 167.305 92.605C167.167 92.606 166.072 92.7155 164.839 92.7014C164.149 92.6937 162.364 92.5705 162.207 92.5708C161.509 92.5729 162.067 92.8191 159.68 92.5348C159.749 92.5816 159.819 92.6284 159.888 92.6752C156.934 92.7939 156.468 92.5853 155.872 92.5708C155.795 92.5696 155.076 92.6503 154.646 92.6392C153.919 92.6202 153.626 92.5098 153.465 92.5049C152.898 92.488 150.988 92.5366 149.74 92.4298C150.002 92.7441 145.628 92.8558 144.659 92.5C143.885 92.5702 143.111 92.6404 142.336 92.7106C141.986 92.652 141.636 92.5934 141.286 92.5348C141.073 92.5932 140.86 92.6516 140.647 92.71C139.518 92.5814 138.39 92.4528 137.262 92.3243C137.19 92.453 137.118 92.5818 137.046 92.7106C136.73 92.696 136.414 92.6813 136.098 92.6667C135.851 92.5643 135.605 92.462 135.358 92.3597C134.963 92.3792 134.568 92.3987 134.173 92.4183C134.076 92.4923 133.978 92.5664 133.88 92.6404C131.757 92.7258 132.848 92.0195 128.803 92.6404C128.174 92.582 127.545 92.5236 126.915 92.4652C126.205 92.7494 124.873 92.5773 123.798 92.6093C123.041 92.6318 123.082 92.7447 122.05 92.7472C121.018 92.7497 121.055 92.6417 120.974 92.641C120.133 92.6344 119.498 92.7296 118.881 92.7106C118.788 92.7078 118.555 92.5796 117.768 92.5714C116.981 92.5633 116.506 92.6997 115.334 92.674C114.733 92.6609 114.56 92.5529 114.027 92.5434C111.488 92.4969 108.932 93.0439 107.027 92.3951C106.598 92.4773 103.485 92.765 102.153 92.7484C100.08 92.722 100.879 92.5947 100.055 92.5714C99.9365 92.5679 99.3054 92.6109 97.567 92.6032C97.2559 92.6018 97.3281 92.6736 97.2834 92.6746C95.2567 92.6732 91.3211 92.6165 89.0952 92.6062C88.8963 92.6052 87.855 92.8055 86.0906 92.536C83.4758 92.7351 78.5503 92.3075 75.1017 92.6075C74.6236 92.6138 74.0432 92.5421 73.8315 92.5446C72.0077 92.5668 72.676 92.7843 68.5546 92.4659C68.8882 92.5768 67.924 92.6769 66.5619 92.6685C64.5138 92.6558 65.9686 92.4489 64.3225 92.4659C64.3225 92.5242 64.3225 92.5826 64.3225 92.641C60.5358 92.484 59.7825 92.7336 55.9827 92.735C54.616 92.7354 52.597 92.606 52.2712 92.6056C52.1451 92.606 50.6504 92.7468 50.5077 92.7478C49.7037 92.7521 49.2498 92.6871 48.5558 92.6868C46.2624 92.6854 43.5257 92.8685 44.0208 92.536C43.3902 92.6062 42.7597 92.6764 42.1291 92.7466C39.7467 92.3915 37.9652 92.8809 37.4659 92.536C37.0399 92.6072 36.6139 92.6785 36.1879 92.7497C27.1253 92.7177 18.0626 92.6858 9 92.6538C6.50948 92.6683 4.00959 91.503 2.41651 89.5979C2.05833 89.3566 0.184012 86.8076 0.282958 84C0.282872 82.8811 0.295916 81.8349 0.304049 81.7273C0.382263 80.6781 0.624236 81.7863 0.568934 79.6452C0.462939 79.4083 0.356945 79.1714 0.25095 78.9344C0.216434 76.2433 0.321908 77.5377 0.393768 76.4756C0.380697 76.0318 0.29844 76.1751 0.292453 75.5744C0.259696 72.3162 0.255812 65.6353 0.249119 62.0723C0.247712 61.3539 0.324605 61.4623 0.3248 61.2391C0.324096 60.6257 0.227198 59.4151 0.227148 58.184C0.227852 50.5717 0.282494 39.785 0.363862 32.1218C0.369498 31.6013 0.461208 31.5369 0.465787 31.1856C0.471747 30.6989 0.397616 29.6117 0.405365 29.0997C0.412411 28.6175 0.482068 28.3086 0.490201 27.7926C0.528245 25.4314 0.410561 22.2568 0.61593 19.7306C0.633253 19.5181 1.00247 16.8714 1.02668 16.8115C1.17041 16.4603 1.3962 18.8123 1.6065 14.9489C1.79003 18.4019 2.11447 17.3232 2.27298 12.8378C2.31388 15.0875 2.35477 17.3372 2.39566 19.5869C2.43411 19.5901 2.47256 19.5934 2.51101 19.5966C2.70158 17.5487 2.76499 15.5168 2.78261 12.4027C2.81821 12.4998 2.85382 12.5969 2.88942 12.694C3.06731 15.4445 3.10019 18.7625 3.3429 20.8571C3.52254 17.7852 3.70218 14.7133 3.88182 11.6414C3.9099 11.7948 3.93797 11.9482 3.96605 12.1017C4.03896 13.5743 4.08177 16.7908 4.14976 18.0137C4.40899 22.6843 4.34376 13.9259 4.50192 15.3646C4.49622 20.2958 4.49053 25.227 4.48483 30.1582C4.6013 30.3311 4.923 11.3605 5.2746 11.5559C5.2982 13.1058 5.3218 14.6557 5.3454 16.2055C5.43471 15.5148 5.52402 14.824 5.61333 14.1332C5.64161 14.3235 5.66989 14.5139 5.69817 14.7042C5.76755 17.3191 5.83692 19.9339 5.90629 22.5487C5.83656 14.5987 5.88718 10.9043 6.59048 9C6.60838 9.21558 6.62628 9.43117 6.64419 9.64675C6.20421 11.369 6.34652 19.4985 6.43423 23.8189C6.56311 22.9383 6.46355 19.1342 6.54104 18.3303C6.56326 18.1025 6.65271 18.8969 6.69851 18.3691C6.81757 16.9897 6.97075 11.1115 7.11658 11.9657C7.21029 12.5158 7.33884 21.974 7.32898 23.8189C7.49736 19.4944 7.54607 15.0386 7.75072 10.7014C8.03605 13.4391 8.38522 15.8637 8.40072 20.861C8.55044 22.3841 8.75783 11.8052 8.83955 11.5598C8.92724 13.3906 9.01492 15.2215 9.10261 17.0523C9.07921 15.5037 9.05582 13.9552 9.03242 12.4066C9.06172 12.4021 9.09101 12.3975 9.12031 12.393C9.25628 16.4045 9.50586 20.0745 9.48895 24.6657C9.64394 24.5176 9.62853 21.7705 9.62993 20.4376ZM61.0697 0.814288C60.977 0.685772 62.6604 0.706843 63.6081 0.709311C63.4657 0.685914 63.3233 0.662518 63.1809 0.639122C65.2035 0.663428 68.9688 0.712748 69.1084 0.463346C70.5513 0.432349 69.9133 0.64923 70.3786 0.673911C70.5606 0.683774 72.4439 0.557555 73.9503 0.711142C74.3083 0.710531 74.6663 0.709921 75.0243 0.709311C75.0936 0.627526 75.1629 0.545741 75.2321 0.463956C75.7313 0.563237 76.2304 0.662518 76.7296 0.761799C71.5122 0.779295 66.2948 0.796792 61.0775 0.814288C61.0749 0.814288 61.0723 0.814288 61.0697 0.814288ZM113.076 0.7087C114.976 0.754846 117.886 0.827709 117.298 0.603723C116.098 0.615522 114.898 0.627322 113.697 0.639122C113.49 0.662315 113.283 0.685507 113.076 0.7087ZM137.483 92.1149C135.896 91.8944 134.435 92.0851 131.981 92.0453C131.984 92.0919 131.987 92.1385 131.99 92.1851C132.994 92.0732 135.647 92.1477 137.483 92.1149ZM13.925 1.65716C13.5753 1.63986 13.2258 1.62257 12.8762 1.60528C14.298 1.35482 14.5524 1.53132 16.1604 1.50702C16.2574 1.50549 16.2237 1.44816 16.2575 1.44781C16.651 1.44395 17.015 1.51295 17.3704 1.5119C18.0559 1.50978 18.6148 1.43985 19.8292 1.44232C20.7683 1.44446 20.7772 1.55439 21.1072 1.55157C21.3884 1.54885 24.1751 1.24643 25.9685 1.37701C29.3791 1.62571 14.9659 1.68041 13.925 1.65716ZM1.73214 6.95249C1.90412 6.33711 2.15541 5.74371 2.47599 5.19318C1.76123 7.02619 3.25655 3.1965 6.04708 2.19938C6.05177 2.29344 4.61912 2.86465 3.46313 4.24267C2.25673 5.57553 1.65102 7.7209 1.72796 9C1.63518 8.33912 1.63278 7.64658 1.73214 6.95249ZM46.4702 1.79753C45.1504 1.81405 45.3704 1.6118 45.4253 1.55157C45.8455 1.55157 46.2657 1.55157 46.6858 1.55157C46.6139 1.63356 46.5421 1.71555 46.4702 1.79753ZM36.5437 1.86772C36.9542 1.73034 39.8195 1.67026 41.1778 1.65899C41.2371 1.65897 40.864 1.73436 41.8245 1.72735C42.1129 1.72515 44.9504 1.4508 44.3261 1.76213C41.7333 1.79733 39.1404 1.83253 36.5476 1.86772C36.5463 1.86772 36.545 1.86772 36.5437 1.86772ZM33.6498 1.78655C34.1898 1.74342 34.7297 1.70029 35.2696 1.65716C35.5486 1.72165 35.8277 1.78614 36.1067 1.85063C35.4923 1.86691 34.878 1.88318 34.2636 1.89946C34.059 1.86182 33.8544 1.82418 33.6498 1.78655ZM1.96965 80.9737C1.90068 81.0993 1.83171 81.2249 1.76274 81.3505C1.72047 81.8371 2.02077 84.2029 2.0789 83.4539C2.04248 82.6272 2.00606 81.8004 1.96965 80.9737ZM2.1143 70.9831C2.14909 70.4911 2.18387 69.999 2.21866 69.507C2.10168 68.9412 1.9847 68.3754 1.86772 67.8095C1.78883 70.2675 1.69794 72.8828 2.04289 72.4611C2.04289 73.0237 2.04289 73.5863 2.04289 74.1489C1.90026 73.6751 1.85327 73.7388 1.76274 75.2112C1.96122 75.5333 1.8601 77.0557 1.90373 78.7985C1.91533 77.5309 1.92692 76.2633 1.93852 74.9956C1.97351 74.9956 2.00851 74.9956 2.0435 74.9956C2.03085 77.8211 2.25282 74.3094 2.11369 72.4689C2.16027 72.3238 2.20686 72.1788 2.25345 72.0338C2.20707 71.6836 2.16068 71.3333 2.1143 70.9831ZM182.956 72.3566C182.921 72.7068 182.886 73.057 182.851 73.4073C183.309 74.7646 182.874 72.0012 183.237 70.0337C182.962 70.6837 182.973 67.6844 182.955 67.5127C182.862 67.8578 182.769 68.2029 182.676 68.5479C182.77 69.8175 182.863 71.087 182.956 72.3566ZM182.64 82.285C182.743 81.7375 182.803 82.6496 182.832 84C183.116 86.9803 179.997 90.2005 178.093 90.5053C177.548 90.6814 176.67 90.773 176 90.7299C175.814 90.7147 175.651 90.7055 175.54 90.7105C175.327 90.7569 175.114 90.8033 174.901 90.8497C174.649 90.6894 170.741 90.8696 169.201 90.9559C169.056 90.8975 168.911 90.8391 168.766 90.7807C168.205 90.8039 167.643 90.8271 167.082 90.8503C167.152 90.7921 167.223 90.7339 167.294 90.6758C166.869 90.7457 166.444 90.8157 166.02 90.8857C164.352 90.9636 165.38 90.6463 164.128 90.7453C162.736 90.8552 165.017 91.0441 164.975 91.1671C166.105 91.1354 168.674 91.0644 169.82 91.0609C170.479 91.059 169.733 91.2792 172.571 91.0261C173.193 91.0851 173.815 91.1441 174.437 91.2031C174.958 91.1603 175.479 91.1175 176 91.0747C177.09 91.0256 178.173 90.7155 179.111 90.1842C179.477 90.0911 179.841 89.9658 180.198 89.8085C180.291 89.7581 181.275 88.9696 181.868 87.9573C182.493 86.9635 182.707 85.8647 182.645 85.9809C182.838 85.4892 183.011 84.8076 183.037 84C183.103 82.834 183.119 81.2368 183.124 79.5796C183.08 79.3569 183.036 79.1342 182.991 78.9115C183.087 81.1492 182.944 79.6235 182.859 80.2904C182.811 80.6755 182.714 81.8534 182.64 82.285ZM15.2802 90.8515C11.5228 91.0505 13.8492 90.8863 9.78773 90.8863C10.0713 90.9917 10.3549 91.0971 10.6384 91.2025C12.6353 91.0099 15.921 91.138 15.2841 90.8515C15.2828 90.8515 15.2815 90.8515 15.2802 90.8515ZM1.79814 56.8206C1.8619 58.9699 2.02579 57.8913 2.07829 60.6157C2.07829 60.617 2.07829 60.6183 2.07829 60.6196C2.09009 59.2108 2.10189 57.8021 2.11369 56.3933C2.00851 56.5358 1.90332 56.6782 1.79814 56.8206ZM101.179 91.0743C103.24 91.1201 102.835 91.0381 104.705 91.2019C107.489 91.0032 105.132 91.0313 105.132 90.8509C104.495 90.9038 103.859 90.9567 103.223 91.0096C101.68 90.8409 103.143 90.756 103.143 90.7398C103.142 90.7398 103.14 90.7398 103.139 90.7398C103.139 90.6857 103.189 90.6743 102.597 90.6416C102.125 90.7858 101.652 90.9301 101.179 91.0743ZM109.999 90.8515C109.292 90.9713 108.975 91.1251 110.832 91.2019C110.833 91.2019 110.835 91.2019 110.836 91.2019C110.985 90.9342 112.766 91.1502 113.578 91.1323C113.791 91.1032 114.004 91.0741 114.217 91.045C112.811 90.9805 111.405 90.916 109.999 90.8515ZM141.074 90.6056C141.082 90.9013 139.523 90.9294 141.717 91.2019C142.143 91.1966 142.569 91.1913 142.995 91.186C143.275 91.1211 143.554 91.0562 143.834 90.9913C149.238 91.5264 150.848 90.6153 141.717 90.9559C141.716 90.9561 141.714 90.9563 141.713 90.9565C141.5 90.8395 141.287 90.7225 141.074 90.6056ZM131.557 90.6306C131.489 90.7858 131.42 90.941 131.351 91.0963C130.158 90.7218 128.617 91.0791 126.276 90.8149C126.065 90.8621 125.853 90.9093 125.641 90.9565C124.767 90.8526 116.177 90.8227 118.038 91.0615C118.85 91.1657 120.62 91.0241 120.772 91.0273C121.288 91.039 121.962 91.1724 122.833 91.1646C123.337 91.16 124.398 91.0032 125.426 91.0035C127.723 91.0042 131.917 91.425 134.939 91.0267C135.156 91.0735 135.374 91.1203 135.591 91.1671C137.833 91.1385 137.085 90.9902 139.171 91.1671C140.612 90.4298 130.785 91.2034 132.831 90.6056C132.83 90.6056 132.829 90.6056 132.827 90.6056C132.404 90.6139 131.981 90.6222 131.557 90.6306ZM69.8286 90.8515C69.6933 90.7191 67.0928 90.9234 67.7039 90.6062C66.8551 90.7166 66.0064 90.8271 65.1577 90.9376C65.1641 90.9671 65.1706 90.9966 65.1771 91.0261C66.0206 91.0029 66.8642 90.9797 67.7078 90.9565C67.711 91.0033 67.7142 91.0501 67.7175 91.0969C68.9745 90.9276 74.2204 91.0013 74.0607 91.1671C74.341 91.0971 74.6213 91.0271 74.9016 90.9571C77.4109 91.1477 79.5697 90.9451 82.3033 91.1311C82.515 91.0731 82.7267 91.0151 82.9384 90.9571C83.0763 91.0039 83.2142 91.0507 83.3521 91.0975C84.3478 91.1034 85.3435 91.1093 86.3392 91.1152C89.5839 90.9268 83.2794 90.6829 82.515 90.7105C82.4135 90.7144 82.4292 90.8356 81.7945 90.8546C80.6671 90.888 74.357 90.7674 72.4059 90.8473C72.3891 90.7669 72.3723 90.6865 72.3554 90.6062C71.5132 90.688 70.6709 90.7697 69.8286 90.8515ZM153.131 90.9217C153.274 91.0035 153.416 91.0853 153.558 91.1671C156.016 91.0854 157.564 91.1568 156.934 90.8863C156.933 90.8863 156.931 90.8863 156.93 90.8863C155.664 90.8981 154.397 90.9099 153.131 90.9217ZM103.767 2.00871C103.831 2.17128 105.006 2.23206 106.525 2.11552C106.452 2.06832 106.378 2.02112 106.305 1.97392C105.514 2.11236 104.526 1.87107 102.085 1.90312C102.085 1.98491 102.085 2.06669 102.085 2.14848C102.646 2.10189 103.206 2.0553 103.767 2.00871ZM151.01 90.8863C150.261 90.7899 148.158 91.0824 149.542 91.0969C150.6 91.1078 151.412 90.9381 151.01 90.8863ZM1.95622 48.3663C1.93913 48.9217 1.92204 49.4772 1.90495 50.0327C1.97453 50.3221 2.04411 50.6114 2.11369 50.9008C2.11369 50.8995 2.11369 50.8982 2.11369 50.8969C2.0612 50.0534 2.00871 49.2098 1.95622 48.3663ZM94.1351 91.0877C96.0191 91.0776 97.903 91.0674 99.7869 91.0572C99.8057 91.0118 99.8245 90.9665 99.8432 90.9211C97.956 91.0867 97.1972 90.9082 96.7571 90.8973C96.759 90.8973 96.761 90.8973 96.7629 90.8973C95.3499 90.8614 94.0037 90.835 92.6669 90.7807C93.1563 90.8831 93.6457 90.9854 94.1351 91.0877ZM87.6774 90.8015C87.9947 91.122 88.4092 91.1594 91.3034 90.9339C91.1888 90.8944 91.0743 90.855 90.9597 90.8155C89.4599 90.8391 88.5852 90.9131 88.8485 90.7459C88.4581 90.7645 88.0677 90.783 87.6774 90.8015ZM117.179 90.904C116.832 90.802 114.075 90.9044 114.225 90.9559C114.284 90.9763 117.856 91.1041 117.179 90.904ZM82.8397 2.07951C83.4748 2.1029 84.1099 2.1263 84.745 2.1497C83.9002 2.18448 83.0553 2.21927 82.2104 2.25406C82.4202 2.19588 82.6299 2.13769 82.8397 2.07951ZM75.8672 2.53543C75.4146 2.49457 76.8865 2.20636 74.1795 2.132C76.1495 2.12589 78.1196 2.11979 80.0896 2.11369C79.1657 2.16027 78.2419 2.20686 77.3181 2.25345C77.4793 2.33625 77.6405 2.41906 77.8017 2.50186C77.1569 2.51305 76.512 2.52424 75.8672 2.53543ZM73.7522 2.32425C74.8131 2.5433 69.2268 2.55975 68.7064 2.53298C68.5905 2.52662 68.0394 2.36055 67.8363 2.32486C68.6798 2.32466 69.5234 2.32445 70.367 2.32425C70.0847 2.27197 69.8024 2.21968 69.5202 2.1674C70.5074 2.14949 71.4947 2.13159 72.482 2.11369C72.0599 2.16617 71.6378 2.21866 71.2157 2.27115C72.0612 2.28885 72.9067 2.30655 73.7522 2.32425ZM96.1651 2.27115C95.4588 2.26566 94.7525 2.26017 94.0462 2.25467C94.1873 2.33646 94.3284 2.41824 94.4696 2.50003C94.8923 2.50003 95.3151 2.50003 95.7378 2.50003C95.8802 2.42374 96.0227 2.34744 96.1651 2.27115ZM81.7735 2.37674C82.8018 1.98296 85.604 2.84383 82.3289 2.52505C81.9989 2.49264 81.6761 2.41478 81.7735 2.37674ZM66.6127 2.48599C64.4166 2.77308 64.9122 2.13922 66.9856 2.32486C67.0899 2.33474 66.7775 2.46479 66.6127 2.48599ZM50.1468 2.49514C49.9689 2.49301 49.6579 2.28778 47.9599 2.48294C47.6796 2.45954 47.3993 2.43615 47.1189 2.41275C47.7749 2.31739 53.3868 2.26066 52.6115 2.46402C51.7525 2.46719 51.0354 2.50148 50.1468 2.49514ZM55.5811 3.2544C56.4233 3.2487 57.2656 3.24301 58.1079 3.23731C57.8301 3.17302 57.5524 3.10873 57.2747 3.04444C57.689 3.02695 58.1033 3.00945 58.5177 2.99196C59.2259 3.10283 59.9342 3.21371 60.6424 3.32459C58.8116 3.34229 56.9807 3.35999 55.1499 3.37769C55.2936 3.33659 55.4373 3.29549 55.5811 3.2544ZM77.9745 3.41308C76.3539 3.33242 74.3682 3.41828 71.7362 3.40454C71.7349 3.40434 71.7336 3.40413 71.7323 3.40393C71.6011 3.40299 71.3683 3.31468 70.9457 3.31116C70.5856 3.30835 63.4772 3.40533 64.0315 3.25562C66.7819 3.12143 67.8093 3.32544 68.4694 2.99257C68.6035 3.06275 68.7375 3.13294 68.8715 3.20313C71.5162 3.32466 72.2708 3.08169 73.7561 2.99257C73.7503 3.04546 73.7444 3.09836 73.7386 3.15125C74.7304 3.15654 75.7222 3.16183 76.714 3.16712C76.5742 3.13233 76.4344 3.09754 76.2945 3.06275C76.6454 3.06275 76.9963 3.06275 77.3472 3.06275C78.2019 3.21949 79.2856 3.25602 77.9745 3.41308ZM51.7608 3.16712C50.9822 3.56834 43.3947 3.29352 39.9289 3.37769C41.7485 3.1361 44.5673 3.30259 46.5518 3.30506C50.3882 3.30961 47.7363 3.16175 48.3872 3.09693C48.7088 3.06488 50.8848 3.32212 51.7608 3.16712ZM83.8943 3.3429C81.9817 3.31049 80.9109 3.40286 79.2564 3.25562C79.3949 3.22632 79.5335 3.19703 79.672 3.16773C80.2387 3.19455 84.8585 3.27917 83.8943 3.3429ZM34.8501 3.27271C38.5442 3.41678 36.7221 3.05351 38.6432 3.32581C37.3789 3.3431 36.1145 3.36039 34.8501 3.37769C34.8501 3.34269 34.8501 3.3077 34.8501 3.27271ZM146.782 89.377C145.225 89.3678 143.487 89.2946 142.556 89.4459C143.614 89.4693 144.672 89.4927 145.729 89.5161C146.08 89.4697 146.431 89.4233 146.782 89.377ZM179.898 75.1067C179.862 75.4622 179.969 76.8678 179.969 77.0159C179.969 77.2911 179.916 77.2159 179.902 77.2198C179.912 79.021 180.076 77.3593 180.111 78.692C180.117 78.9199 180.036 82.0506 180.043 83.3241C180.044 83.5501 180.045 83.776 180.046 84C180.084 85.8071 178.751 87.0834 178.21 87.3887C177.725 87.7134 176.945 88.0795 176 88.1058C174.974 88.1396 173.826 88.1755 172.751 88.1789C171.914 88.1813 171.622 88.083 170.78 88.0855C165.376 88.1021 154.738 88.237 149.944 88.1746C148.76 88.1591 147.63 88.0304 147.004 88.0409C146.51 88.0879 146.016 88.1349 145.522 88.1819C144.003 87.7589 143.494 88.1352 141.857 88.1746C140.816 88.1995 140.33 88.0742 140.19 88.0745C139.264 88.077 138.807 88.1367 138.079 88.1465C137.262 88.1574 136.089 88.1009 135.797 88.1111C135.618 88.118 136.19 88.2846 133.022 88.2814C129.792 88.2781 126.605 88.2605 123.32 88.2527C124.416 88.7557 125.359 88.4115 126.7 88.3931C127.06 88.3882 126.831 88.468 127.145 88.4645C128.029 88.455 129.722 88.3765 130.454 88.3955C131.245 88.4161 130.974 88.6012 131.977 88.5329C132.028 88.5294 131.867 88.4529 132.103 88.4401C134.473 88.3136 135.248 88.4466 138.244 88.4505C140.229 88.4533 152.284 88.3774 152.698 88.4273C154.856 88.695 142.153 88.6968 140.668 88.6757C140.148 88.6683 140.693 88.5839 140.219 88.5677C140.019 88.5612 138.213 88.7221 136.428 88.7355C134.27 88.7517 129.933 88.6419 127.877 88.6458C110.198 88.6792 92.7638 88.582 75.1017 88.5799C74.7251 88.5799 74.2292 88.6763 73.0022 88.6763C52.0156 88.6747 30.3284 88.6107 9 88.635C6.7148 88.6826 4.60498 86.7997 4.38577 84.5278C4.36561 84.3525 4.35539 84.1767 4.35495 84C4.34087 79.0979 4.25767 74.2313 4.32736 69.2817C4.25697 68.6486 4.18658 68.0154 4.11619 67.3823C4.17216 69.0018 4.01294 71.9694 4.0106 72.2397C4.0099 72.337 4.08927 72.951 4.08506 73.941C4.07943 75.3332 4.0106 75.9438 4.0106 76.058C4.01038 76.4121 4.08358 76.1801 4.08323 76.5183C4.08006 79.0403 4.10084 80.9916 4.10154 83.3063C4.1016 83.5481 4.1005 83.7788 4.09855 84C4.18745 86.6551 5.62124 88.1655 7.63477 88.6908C7.87168 88.8205 8.12385 88.9321 8.3873 89.0228C8.53693 89.0199 8.7436 89.0199 9 89.0029C11.2935 88.8116 18.6893 88.8361 21.839 88.8484C22.9217 88.8527 22.7318 88.9552 23.0956 88.9552C23.3279 88.9551 23.2363 88.8208 26.0691 88.8472C27.4951 88.8606 27.8691 88.9584 28.5843 88.9552C28.9728 88.9534 28.9097 88.8563 29.468 88.8563C32.6964 88.8563 35.3326 88.8878 38.4933 88.9058C39.3819 88.9107 39.3918 88.9917 39.5907 88.9906C40.3228 88.987 41.5964 88.8499 43.4576 88.8502C46.5212 88.8509 52.6269 88.8514 55.1321 88.918C55.5002 88.9279 55.8051 89.025 56.076 89.0236C56.486 89.0211 56.6468 88.9198 56.7188 88.9192C58.0899 88.9174 57.265 89.0117 58.1833 88.9888C58.6782 88.9764 59.1944 88.8609 60.3449 88.8478C61.864 88.8305 61.565 88.9677 62.1997 88.954C62.2668 88.9519 62.2868 88.8565 62.9105 88.8533C65.2759 88.842 68.7071 88.82 70.9454 88.8203C71.5884 88.8203 72.0666 88.8846 72.9633 88.8856C74.7702 88.8878 85.0405 88.8468 85.8828 88.8838C85.9716 88.8877 85.0583 89.0284 86.514 89.0242C86.9367 88.9656 87.3595 88.907 87.7822 88.8484C88.4892 88.9422 89.1962 89.036 89.9031 89.1298C89.8777 88.8057 94.0368 88.7557 93.9953 89.0871C94.4505 89.1005 94.9055 89.1139 95.3607 89.1273C96.3084 88.8984 96.9394 88.9829 98.7712 88.8484C99.0567 88.9186 99.3422 88.9888 99.6277 89.059C99.6995 89.0122 99.7714 88.9654 99.8432 88.9186C100.821 89.1722 102.424 88.9176 102.619 88.9162C103.367 88.9105 103.93 88.975 104.281 88.9729C105.593 88.9662 108.432 88.8774 109.964 88.9186C110.036 88.9207 109.965 89.0291 110.401 89.0425C111.187 89.0667 111.264 88.908 112.312 89.0944C112.524 89.0476 112.736 89.0008 112.947 88.954C113.172 88.9782 113.397 89.0024 113.621 89.0266C114.947 89.0142 116.273 89.0018 117.599 88.9894C116.393 89.1729 117.781 89.2754 119.092 89.131C119.536 89.082 119.142 88.9703 119.29 88.9534C119.494 88.9305 125.444 88.9874 125.838 89.0596C126.119 89.0244 126.401 88.9892 126.682 88.954C126.825 89.0244 126.967 89.0948 127.11 89.1652C127.265 89.1406 127.42 89.1159 127.576 89.0913C129.124 89.2153 133.144 88.9309 133.872 88.9534C134.262 88.9654 133.912 89.2654 135.778 89.2347C135.842 89.1524 135.907 89.07 135.972 88.9876C136.399 88.9758 136.826 88.964 137.254 88.9522C138.056 88.9595 139.223 89.1023 139.26 89.2C139.511 89.1414 139.761 89.0828 140.012 89.0242C140.684 89.2151 144.273 89.1474 145.716 89.0266C146.138 89.0842 146.56 89.1418 146.982 89.1994C147.549 89.1294 148.116 89.0594 148.684 88.9894C149.997 88.9683 148.609 89.0847 148.889 89.0944C149.482 89.1145 152.501 88.9179 152.302 89.1627C152.714 89.1633 153.125 89.164 153.537 89.1646C153.749 89.0946 153.96 89.0246 154.172 88.9546C154.879 89.1959 156.102 89.1107 158.61 89.1987C158.82 89.1432 159.031 89.0877 159.241 89.0321C160.017 89.1111 160.792 89.19 161.568 89.2689C161.727 89.177 161.887 89.085 162.046 88.9931C162.383 88.9798 162.72 88.9666 163.058 88.9534C163.743 89.1594 164.973 88.9368 165.6 89.0217C166.514 89.1457 165.807 89.2935 164.11 89.322C164.237 89.4721 169.292 89.4032 170.457 89.3922C170.38 89.3629 170.303 89.3336 170.226 89.3043C169.034 89.3275 167.843 89.3507 166.651 89.3739C165.652 88.9966 168.889 89.0978 170.374 89.0492C170.51 89.0446 171.279 88.9016 172.776 88.9149C173.337 88.92 175.469 89.1155 176 89.139C176.023 89.1398 176.045 89.1402 176.063 89.1404C178.319 89.005 178.481 88.4152 178.718 88.3249C178.884 88.0901 179.36 88.2069 180.623 86.3807C180.092 86.9117 181.092 85.8613 181.128 84C181.134 83.5643 181.136 83.091 181.127 82.6133C181.12 82.2661 180.958 79.322 180.953 79.1232C180.927 77.8834 181.104 79.233 181.058 77.4393C181.012 77.2237 180.965 77.0081 180.919 76.7925C180.919 76.375 180.919 75.9574 180.919 75.5398C181.334 73.0059 181.028 72.4164 180.989 71.5156C180.973 71.1517 181.081 71.6202 181.058 70.6766C181.05 70.3212 180.96 69.9272 180.953 68.9713C180.934 65.98 181.319 64.9646 180.918 62.2144C180.976 61.7923 181.034 61.3702 181.093 60.9481C181.023 60.6633 180.953 60.3784 180.883 60.0936C181.086 57.9148 180.878 58.7014 180.881 57.9144C180.887 55.8367 180.927 51.5843 181.094 51.2119C180.71 49.4181 181.143 47.2733 181.128 46.5662C181.081 46.146 181.035 45.7259 180.988 45.3057C181.035 44.8118 181.082 44.3178 181.129 43.8238C180.752 44.064 181.122 41.5057 181.128 41.2601C181.134 40.9767 181.022 37.042 181.024 35.5773C181.026 34.1146 181.128 31.5658 181.129 31.3414C181.129 31.0832 181.026 28.5936 181.027 26.6471C181.028 24.9438 181.174 14.8534 181.006 15.4892C180.959 16.1493 180.919 17.089 180.897 17.9014C180.83 20.4236 180.745 35.2262 180.718 39.0091C180.665 46.5959 180.674 54.5084 180.638 62.129C180.636 62.5773 180.538 62.6455 180.536 63.0302C180.533 63.6141 180.631 65.096 180.629 65.6715C180.62 67.8211 180.604 70.4366 180.602 71.5875C180.597 74.1598 180.538 75.9242 180.529 77.8704C180.526 78.4797 180.647 81.5602 180.596 83.6718C180.588 83.7812 180.58 83.8906 180.572 84C180.553 84.3115 180.502 84.6199 180.42 84.918C180.463 84.6811 180.499 84.3641 180.49 84C180.452 82.6708 180.396 80.6188 180.389 79.5543C180.375 77.5832 180.454 76.555 180.453 75.8273C180.452 75.218 180.362 72.1042 180.36 70.6863C180.359 70.2462 180.461 70.1559 180.461 69.7793C180.458 67.7355 180.456 65.0438 180.355 63.271C180.388 63.9946 180.451 59.476 180.45 59.239C180.45 58.8328 180.355 58.3922 180.355 57.5629C180.355 55.9683 180.555 56.1705 180.355 54.1777C180.413 53.6843 180.471 53.191 180.53 52.6977C180.263 52.6674 180.626 46.4338 180.302 44.6609C180.265 44.6144 180.161 52.7147 180.156 53.3833C180.124 57.3945 180.189 63.3305 180.142 67.2234C180.128 68.395 179.966 72.0786 179.969 72.3566C179.973 72.8048 180.066 72.3999 180.07 72.5935C180.139 76.5571 179.952 74.5796 179.898 75.1067ZM73.7561 3.58886C74.9603 3.59985 76.1644 3.61083 77.3686 3.62182C77.2812 3.68041 77.1938 3.739 77.1064 3.79759C76.5548 3.77481 76.0032 3.75202 75.4516 3.72924C75.0276 3.76423 74.6035 3.79922 74.1795 3.83421C74.0384 3.75243 73.8972 3.67065 73.7561 3.58886ZM70.7884 3.83421C69.7442 3.86372 69.6932 3.74016 69.4522 3.73412C68.733 3.71581 68.1109 3.76577 67.4129 3.76403C68.2169 3.47053 69.9294 3.60503 70.7884 3.83421ZM92.3565 3.9398C92.121 3.92576 90.5492 3.60979 88.7615 3.90379C87.4239 3.81041 86.0864 3.71703 84.7489 3.62365C87.0212 3.76632 90.1656 3.61801 91.2785 3.62365C91.7012 3.62579 91.7818 3.72278 92.1195 3.72435C94.066 3.7321 95.9584 3.51234 96.1573 3.8336C94.3166 3.74025 92.6569 3.95706 92.3565 3.9398ZM80.6101 3.82567C80.2987 3.75853 79.9873 3.6914 79.6759 3.62426C80.801 3.62426 81.9263 3.62426 83.0514 3.62426C82.7471 3.69221 82.4429 3.76016 82.1386 3.82811C81.6291 3.8273 81.1196 3.82648 80.6101 3.82567ZM167.172 4.04783C166.478 4.04702 165.784 4.0462 165.09 4.04539C165.128 4.09432 165.922 4.09413 166.214 4.12717C166.213 4.12717 166.212 4.12717 166.21 4.12717C166.536 4.16451 166.397 4.22752 166.989 4.25534C167.05 4.18617 167.111 4.117 167.172 4.04783ZM4.32614 66.5413C4.32966 65.378 4.33002 54.6353 4.15159 55.5504C4.06247 56.0117 4.14018 59.6858 4.13877 60.7691C4.13696 62.2294 3.94399 66.1732 4.32614 66.5413ZM4.36093 47.5156C4.18311 47.3295 4.15483 54.0433 4.18577 54.6998C4.21112 54.5604 4.26756 54.3456 4.28037 54.1598C4.34166 53.2543 4.31233 48.963 4.36093 47.5156ZM180.439 32.7533C180.529 32.2121 180.619 31.6709 180.709 31.1297C180.592 31.2721 180.475 31.4145 180.358 31.557C180.385 31.9557 180.412 32.3545 180.439 32.7533ZM180.346 85.4096C179.772 87.2509 177.928 88.5934 176 88.5645C168.66 88.5598 161.32 88.5552 153.98 88.5506C154.773 88.5019 155.566 88.4533 156.359 88.4047C162.798 88.419 169.591 88.4553 176 88.4246C177.471 88.4305 178.879 87.6377 179.649 86.4531C179.924 86.1471 180.161 85.7955 180.346 85.4096ZM94.8968 4.46652C97.207 4.46827 99.1365 4.38234 101.65 4.51901C99.2548 4.65146 98.0691 4.44653 95.7417 4.64168C95.7404 4.64168 95.7391 4.64168 95.7378 4.64168C95.4575 4.5833 95.1772 4.52491 94.8968 4.46652ZM146.474 4.50192C145.771 4.5837 145.069 4.66549 144.366 4.74727C145.211 4.74727 146.056 4.74727 146.901 4.74727C146.759 4.66549 146.616 4.5837 146.474 4.50192ZM102.382 88.113C99.9654 88.2915 93.7839 87.9684 91.8201 88.1832C91.6931 88.1972 92.8605 88.2879 90.9733 88.4633C92.3989 88.4274 93.4054 88.3907 93.5117 88.2527C93.9351 88.2995 94.3585 88.3463 94.7819 88.3931C95.4843 88.3577 96.1868 88.3223 96.8892 88.2869C96.813 88.4243 96.8686 88.417 97.9477 88.3229C98.4397 88.3577 98.9317 88.3925 99.4237 88.4273C99.6322 88.3691 99.8407 88.3109 100.049 88.2527C100.475 88.3341 100.901 88.4155 101.327 88.4969C102.988 88.4086 101.976 88.2509 102.382 88.113ZM110.84 88.1465C110.447 88.1163 99.244 88.215 104.336 88.4889C105.659 88.4802 106.982 88.4714 108.305 88.4627C107.209 88.009 110.816 88.4147 111.112 88.4242C112.529 88.4686 114.335 88.3607 115.363 88.3662C116.248 88.3712 116.773 88.4526 117.395 88.4505C119.513 88.4434 122.86 88.4405 123.32 88.2527C121.674 88.2488 120.001 88.2468 118.288 88.2515C116.477 88.2564 114.885 88.0792 111.483 88.3223C110.642 88.2962 110.941 88.1543 110.84 88.1465ZM142.251 4.72835C142.336 4.53977 138.06 4.58487 138.033 4.65938C138.024 4.70306 139.417 4.70203 139.616 4.71859C139.617 4.71859 139.618 4.71859 139.62 4.71859C139.703 4.72582 139.282 4.79801 139.936 4.81807C140.708 4.78816 141.48 4.75826 142.251 4.72835ZM4.74788 83.25C4.8537 82.672 4.81565 69.4687 4.76497 69.0797C4.7509 68.9741 4.70449 69.1214 4.67769 69.0797C4.827 72.16 4.65028 76.5389 4.63863 79.4627C4.63549 80.2777 4.71046 80.0341 4.71187 80.0803C4.71187 80.0822 4.71187 80.0842 4.71187 80.0861C4.71206 80.5486 4.5289 82.6366 4.74788 83.25ZM87.5919 88.2692C88.1532 88.2987 88.7145 88.3282 89.2758 88.3577C89.4182 88.2993 89.5606 88.2409 89.7031 88.1825C89.7018 88.1825 89.7005 88.1825 89.6992 88.1825C88.9967 88.2114 88.2943 88.2403 87.5919 88.2692ZM68.1447 88.077C68.2813 88.118 68.4179 88.1591 68.5546 88.2002C69.9678 88.2059 71.3811 88.2116 72.7944 88.2173C72.6519 88.2405 72.5095 88.2637 72.3671 88.2869C74.504 88.3489 75.389 88.2045 76.5272 88.2253C76.526 88.2253 76.5247 88.2253 76.5234 88.2253C76.6459 88.2277 76.7941 88.3133 77.2497 88.3162C78.2945 88.3229 81.2889 88.3548 81.6507 88.2686C82.4165 88.0848 76.3904 88.172 75.2668 88.1636C74.759 88.1597 74.1481 88.0848 73.8392 88.0831C73.5009 88.0814 73.0398 88.1826 72.2156 88.1795C71.9744 88.1784 69.3002 88.0594 68.1447 88.077ZM43.1992 88.1996C43.6351 88.2923 44.5449 88.2028 44.8792 88.2179C44.9591 88.2215 44.338 88.2991 45.0909 88.3223C45.3039 88.2694 45.5169 88.2165 45.7299 88.1636C44.8864 88.1756 44.0428 88.1876 43.1992 88.1996ZM135.067 4.81746C135.19 4.83734 137.486 4.83007 137.596 4.81746C138.971 4.64838 134.217 4.66669 135.067 4.81746ZM77.1374 5.01094C78.1934 5.25669 65.6652 5.01509 64.451 5.02803C64.5117 4.87357 67.4921 5.02886 65.931 4.81685C67.4205 4.93345 71.5382 4.87153 72.5073 4.90535C73.0954 4.92579 73.2439 5.0592 73.3327 5.06342C73.6814 5.07845 76.7652 4.92431 77.1374 5.01094ZM54.0992 4.92305C55.2897 4.95234 56.4803 4.98164 57.6709 5.01094C56.266 5.02843 54.8612 5.04593 53.4563 5.06342C53.6706 5.01663 53.8849 4.96984 54.0992 4.92305ZM52.6017 4.99324C52.6398 5.14295 48.5986 5.0289 47.5365 5.06342C48.7339 4.80876 50.7315 5.04885 52.6017 4.99324ZM119.84 5.2038C121.702 5.30279 122.502 4.84644 120.239 5.04511C120.17 5.05168 119.763 5.19856 119.84 5.2038ZM101.807 87.4709C101.489 87.4681 97.5411 87.3201 97.3126 87.3934C96.5899 87.6271 99.1809 87.5334 100.049 87.6216C101.45 87.7647 99.3899 87.8825 102.809 87.7962C102.669 87.843 102.529 87.8898 102.389 87.9366C104.391 87.9521 103.736 87.6279 104.095 87.5862C104.205 87.5736 105.456 87.6008 105.681 87.5801C108.501 87.319 102.101 87.4731 101.807 87.4709ZM165.931 5.23859C169.637 5.37597 168.043 5.17439 171.846 5.18671C171.973 5.08385 166.413 5.14841 165.931 5.23859ZM137.9 87.6558C134.067 87.6963 130.914 87.5618 127.339 87.7425C127.572 88.0208 138.895 87.7277 137.9 87.6558ZM5.62615 39.0612C5.16224 53.023 5.27552 68.9904 5.29827 84C5.29555 84.952 5.67858 85.8874 6.33342 86.5629C7.52202 87.6299 7.78484 87.587 8.34032 87.7391C8.67576 87.7832 8.67697 87.7142 9 87.7035C9.05287 87.7008 9.11392 87.6992 9.18565 87.6992C28.8918 87.6847 47.7608 87.5685 66.6376 87.6216C67.8266 87.6252 73.6113 87.816 74.8473 87.5283C75.782 87.31 71.6263 87.4802 70.9337 87.4782C70.4133 87.4768 70.3911 87.3742 70.0442 87.3738C69.6761 87.3735 69.9802 87.4436 69.5528 87.4446C67.7419 87.4496 65.7658 87.4222 64.1283 87.4282C48.0697 87.4856 32.4467 87.4692 16.4728 87.4593C14.5392 87.4582 14.9367 87.376 14.8394 87.3757C14.8381 87.3759 14.8368 87.3761 14.8355 87.3763C12.935 87.3749 10.9851 87.3799 9 87.3886C7.22914 87.4469 5.54747 85.8532 5.57522 84C5.52923 77.0218 5.47339 69.8078 5.51751 62.9308C5.57407 55.1982 5.63063 47.4657 5.68718 39.7332C5.66684 39.5092 5.6465 39.2852 5.62615 39.0612ZM109.993 87.7608C109.028 87.4508 108.813 87.7634 105.351 87.6369C105.07 87.6898 104.788 87.7427 104.506 87.7956C106.337 87.784 108.168 87.7724 109.999 87.7608C109.997 87.7608 109.995 87.7608 109.993 87.7608ZM87.1316 87.6479C86.5467 87.2292 78.8064 87.5251 75.3211 87.4453C74.6823 87.6555 79.749 87.5611 80.9438 87.5832C81.5404 87.5941 84.7357 87.8104 87.1646 87.6906C87.1536 87.6764 87.1426 87.6621 87.1316 87.6479ZM90.2453 5.62615C90.8085 5.61394 91.3718 5.60174 91.935 5.58953C90.5256 5.54315 89.1162 5.49676 87.7068 5.45038C89.9553 5.48028 92.2037 5.51019 94.4521 5.54009C94.0332 5.62697 93.6143 5.71384 93.1955 5.80071C92.2121 5.74252 91.2287 5.68434 90.2453 5.62615ZM97.5402 5.5816C93.6028 5.61431 97.7131 5.38176 98.6958 5.48516C99.2839 5.54716 97.9422 5.57807 97.5402 5.5816ZM107.781 5.73113C105.945 5.88364 102.234 5.89414 103.553 5.58953C105.538 5.7322 106.817 5.61365 109.694 5.69573C109.274 5.75412 108.854 5.81251 108.434 5.87089C108.432 5.87089 108.43 5.87089 108.428 5.87089C108.212 5.82431 107.997 5.77772 107.781 5.73113ZM95.7417 5.76592C93.1628 5.59092 100.629 5.65075 98.2821 5.76592C98.1721 5.7712 95.8433 5.77261 95.7417 5.76592ZM5.94108 55.5504C5.84154 55.2397 5.84341 57.2232 5.83672 57.883C5.80714 60.7433 5.85045 64.4116 5.83672 67.3862C5.86947 67.1622 5.90223 66.9381 5.93498 66.7141C5.93701 62.9929 5.93905 59.2717 5.94108 55.5504ZM5.83611 76.6912C5.83611 78.735 5.83611 80.7789 5.83611 82.8227C5.83611 83.0131 5.92152 83.9065 5.9423 83.2422C5.9069 81.0585 5.87151 78.8749 5.83611 76.6912ZM122.895 87.1639C121.328 87.1082 125.841 86.8224 125.637 87.1285C124.723 87.1403 123.809 87.1521 122.895 87.1639ZM137.477 87.0418C136.494 87.0709 135.512 87.1 134.529 87.1291C134.528 87.0939 134.526 87.0587 134.525 87.0235C135.509 87.0296 136.493 87.0357 137.477 87.0418ZM6.01127 47.5156C5.89083 48.5566 5.90937 51.0399 5.9069 52.5886C6.01039 51.5219 5.95951 48.9795 6.01127 47.5156ZM99.416 87.0406C99.5429 87.1227 93.3094 87.102 95.4675 86.9576C96.7837 86.9853 98.0998 87.0129 99.416 87.0406ZM86.7548 86.9192C88.0918 86.9012 89.1274 86.9294 88.8524 87.0583C88.1435 87.0528 87.4346 87.0473 86.7257 87.0418C86.7354 87.0009 86.7451 86.96 86.7548 86.9192ZM114.771 5.97648C117.024 5.96489 119.277 5.95329 121.53 5.94169C121.447 5.97689 121.363 6.01209 121.28 6.04728C119.108 6.05867 116.936 6.07007 114.764 6.08146C114.766 6.04647 114.769 6.01147 114.771 5.97648ZM6.32742 46.2415C6.30443 44.6942 6.28145 43.1469 6.25846 41.5997C6.23486 43.1482 6.21126 44.6968 6.18766 46.2454C6.23445 46.2454 6.28124 46.2454 6.32803 46.2454C6.32783 46.2441 6.32763 46.2428 6.32742 46.2415ZM83.9079 6.4324C90.7905 6.59654 82.0086 6.77005 80.1925 6.52883C80.1906 6.52904 80.1886 6.52924 80.1867 6.52944C80.0277 6.50813 80.3639 6.40503 80.0993 6.36343C80.7998 6.41002 81.5003 6.45661 82.2007 6.5032C82.8397 6.44522 83.4787 6.38724 84.1177 6.32925C84.3281 6.35204 84.5385 6.37483 84.7489 6.39761C84.4686 6.40921 84.1882 6.4208 83.9079 6.4324ZM56.1307 6.52395C49.89 6.50492 56.2755 6.24711 59.3645 6.45071C59.3422 6.49783 56.7056 6.52571 56.1307 6.52395ZM72.4859 6.46841C73.4693 6.44501 74.4527 6.42162 75.4361 6.39822C75.5617 6.42772 75.6873 6.45722 75.8129 6.48672C75.058 6.51602 74.3032 6.54531 73.5483 6.57461C73.1941 6.53921 72.84 6.50381 72.4859 6.46841ZM104.827 6.92372C106.41 6.95613 108.429 6.62811 103.347 6.71437C103.35 6.74957 103.353 6.78477 103.355 6.81996C103.558 6.81434 104.152 6.78133 104.184 6.78395C104.277 6.79276 104.168 6.91029 104.827 6.92372ZM44.5747 7.45105C44.397 7.46444 44.3002 7.83569 42.4519 7.45166C41.8932 7.47505 41.3344 7.49845 40.7757 7.52185C40.6314 7.44006 40.487 7.35828 40.3426 7.27649C42.5049 7.3399 42.7342 7.17443 42.8908 7.1709C43.6096 7.15542 43.0776 7.24053 43.5414 7.2417C44.7388 7.24452 47.4597 7.18737 46.2255 7.4303C45.7812 7.5173 44.7524 7.43766 44.5747 7.45105ZM48.8028 7.66222C48.5406 7.63123 49.3854 7.52263 49.1874 7.49194C49.0139 7.46517 46.4077 7.35437 47.1131 7.1709C47.541 7.17863 47.969 7.18637 48.3969 7.1941C48.5419 7.24435 48.6869 7.2946 48.8319 7.34485C49.2463 7.29846 49.6606 7.25208 50.075 7.20569C50.7732 7.32969 52.259 7.49032 50.4945 7.59142C51.1432 7.58084 51.7918 7.57027 52.4405 7.55969C52.7765 7.50028 53.1125 7.44087 53.4485 7.38147C53.2724 7.472 53.0964 7.56253 52.9203 7.65307C51.5478 7.65612 50.1753 7.65917 48.8028 7.66222ZM28.6934 7.62743C28.7724 7.58064 28.8513 7.53385 28.9303 7.48706C26.548 7.57405 22.8379 7.60712 24.9449 7.31372C28.1722 7.28931 31.3995 7.26489 34.6268 7.24048C34.841 7.27568 35.0554 7.31087 35.2696 7.34607C32.862 7.21047 33.6061 7.7875 31.5115 7.62194C31.1584 7.59387 32.1831 7.39208 29.9636 7.52123C30.0425 7.56823 30.1215 7.61523 30.2005 7.66222C29.6981 7.65063 29.1958 7.63903 28.6934 7.62743ZM8.71507 7.58487C8.82477 7.56845 8.91976 7.5682 9 7.57427C10.4686 7.61601 9.90532 7.67677 9 7.69949C8.755 7.71051 8.48825 7.80638 8.36976 7.8094C8.37015 7.80919 8.37053 7.80899 8.37091 7.80879C7.71645 7.88795 8.46445 7.3424 9 7.43193C9.36167 7.44191 9.6339 7.45099 9.69485 7.45044C10.0548 7.447 10.8931 7.16889 12.8509 7.57433C11.5673 7.5696 10.2836 7.56487 9 7.56014C8.90193 7.55919 8.80726 7.5676 8.71507 7.58487ZM21.5306 7.62682C21.1878 7.63598 21.3776 7.56535 21.2295 7.5664C21.2282 7.5664 21.227 7.5664 21.2256 7.5664C19.0422 7.58155 13.8487 7.64478 13.286 7.41687C14.9023 7.39785 22.1343 7.3486 22.5716 7.50354C22.2246 7.54463 21.8776 7.58573 21.5306 7.62682ZM36.8952 7.45715C38.2357 7.60471 35.218 7.62436 34.4267 7.55602C34.2774 7.54122 35.5065 7.30429 36.8952 7.45715ZM139.721 7.838C142.67 7.74923 138.795 7.66064 140.136 7.52185C139.573 7.53365 139.01 7.54544 138.447 7.55724C138.871 7.65083 139.296 7.74441 139.721 7.838ZM165.381 84.8819C164.693 84.8655 165.019 84.9502 164.959 84.9514C164.507 84.9491 164.082 84.8801 163.908 84.8874C160.704 85.0267 162.835 85.0978 162.867 85.1144C162.935 85.1982 162.093 85.2963 163.26 85.3921C163.968 85.3624 164.676 85.3327 165.384 85.303C165.736 85.3496 166.088 85.3962 166.439 85.4428C167.846 85.3428 166.005 85.3154 165.796 85.1828C165.716 85.1306 167.039 85.0682 165.381 84.8819ZM145.005 8.11875C145.484 7.97151 146.656 7.78576 145.505 7.63781C145.503 7.63781 145.502 7.63781 145.501 7.63781C145.288 7.61074 144.421 7.59586 144.155 7.55785C142.256 7.75402 142.983 7.95674 145.005 8.11875ZM176.305 84.5383C176.477 84.4809 176.639 84.3282 176.708 84.1422C176.794 84.1624 176.88 84.1839 176.965 84.2066C176.912 84.3461 176.827 84.4665 176.721 84.5638C176.722 84.6278 176.715 84.6947 176.701 84.7626C176.917 84.7012 177.134 84.5586 177.294 84.3431C177.31 84.2301 177.311 84.1166 177.298 84C177.276 83.4296 177.254 82.8593 177.232 82.2889C177.186 82.7091 177.139 83.1292 177.092 83.5494C177.041 81.3152 177.256 81.8017 177.338 79.9525C177.256 79.3193 177.174 78.6862 177.092 78.053C177.175 77.1363 177.257 76.2196 177.339 75.3029C177.301 73.7626 177.238 73.6272 177.144 74.6639C177.037 73.8981 177.206 73.0595 177.162 72.1371C177.158 72.061 177.058 72.2044 177.056 72.1371C176.988 67.3682 177.253 67.6218 177.265 66.8602C177.272 66.3227 177.094 64.1769 177.033 64.143C176.95 64.1017 176.627 68.5646 176.618 61.5755C176.394 65.1889 176.622 69.2969 176.951 66.6407C176.918 67.7843 177 72.8274 176.99 73.149C176.975 73.6177 176.85 73.4533 176.847 74.0404C176.845 74.3874 177.13 75.3067 176.881 78.053C176.928 78.4039 176.975 78.7548 177.022 79.1057C176.983 79.4346 176.945 79.7634 176.906 80.0923C176.769 79.4151 176.632 78.738 176.495 78.0608C176.626 80.4271 176.424 82.4377 176.536 84C176.551 84.0319 176.57 84.0618 176.593 84.0942C176.526 84.2935 176.428 84.3302 176.37 84.2097C176.348 84.2483 176.317 84.286 176.282 84.3175C176.302 84.3862 176.31 84.4611 176.305 84.5383ZM153.671 7.90819C155.075 8.04509 155.58 7.74974 155.361 7.73302C154.13 7.64111 152.941 7.83696 153.671 7.90819ZM167.929 85.0387C169.477 85.1148 171.026 85.1909 172.574 85.267C172.574 85.1736 172.574 85.0802 172.574 84.9868C171.026 85.0041 169.477 85.0214 167.929 85.0387ZM139.29 8.04795C139.147 7.97797 139.005 7.90798 138.862 7.838C137.166 8.09363 135.482 7.72685 134.644 7.8026C134.462 7.81915 134.829 7.94272 135.176 7.96922C135.392 7.98578 138.989 8.07155 139.29 8.04795ZM68.6773 8.01438C69.3091 7.96739 69.941 7.92039 70.5728 7.8734C70.5379 7.95213 70.5029 8.03086 70.468 8.1096C70.1559 8.12424 69.8439 8.13889 69.5318 8.15354C69.247 8.10715 68.9621 8.06077 68.6773 8.01438ZM75.8672 7.88927C76.9944 7.89557 78.1215 7.90188 79.2486 7.90819C74.9495 7.9804 78.4777 8.01564 75.8672 8.11814C75.8672 8.04185 75.8672 7.96556 75.8672 7.88927ZM87.2757 8.04856C87.1372 8.09556 86.9986 8.14255 86.8601 8.18955C85.7329 8.18955 84.6058 8.18955 83.4787 8.18955C84.1915 8.35271 84.9043 8.51587 85.6171 8.67904C86.0301 8.67944 86.4431 8.67985 86.8562 8.68026C86.996 8.46969 87.1359 8.25913 87.2757 8.04856ZM134.935 84.5309C134.253 84.5281 131.883 84.6707 131.985 84.7232C132.969 84.7877 133.954 84.8522 134.939 84.9166C134.943 84.8231 134.948 84.7295 134.952 84.6359C135.091 84.6825 135.231 84.7291 135.37 84.7757C135.93 84.7407 136.49 84.7057 137.05 84.6707C137.332 84.7525 137.614 84.8343 137.897 84.916C138.18 84.8227 138.464 84.7293 138.747 84.6359C136.043 84.4703 136.136 84.6358 135.574 84.6341C135.288 84.6333 135.108 84.5753 135.007 84.5462C134.983 84.5411 134.959 84.536 134.935 84.5309ZM168.999 84.443C165.77 84.4198 163.925 84.6662 161.589 84.4601C163.063 84.8919 172.448 84.4602 176 84.7944C176.013 84.8 176.025 84.8054 176.037 84.8109C176.11 84.7373 176.156 84.6553 176.183 84.5729C176.127 84.6064 176.065 84.6186 176 84.6144C174.785 84.6011 173.874 84.5132 173.184 84.4974C172.465 84.4808 172.54 84.5546 172.485 84.5535C172.483 84.5535 172.48 84.5535 172.477 84.5535C170.793 84.5232 170.272 84.4522 168.999 84.443ZM136.891 8.39218C137.758 8.5034 139.276 8.49227 139.293 8.32993C138.449 8.28293 137.604 8.23593 136.759 8.18894C136.932 8.23051 136.743 8.37316 136.891 8.39218ZM88.5867 8.50204C89.2637 8.55488 90.8632 8.50858 90.1734 8.36838C90.0494 8.34349 88.4563 8.44204 89.3907 8.18894C87.8384 8.19285 88.2017 8.47167 88.5867 8.50204ZM176.776 42.1147C176.771 41.545 176.766 40.9753 176.762 40.4056C176.696 40.2729 176.631 40.1401 176.565 40.0074C176.635 40.7099 176.705 41.4123 176.776 42.1147ZM129.569 8.50448C128.811 8.18388 127.518 8.49587 126.096 8.23227C125.571 8.23024 125.046 8.2282 124.521 8.22617C124.52 8.22617 124.518 8.22617 124.517 8.22617C124.503 8.31365 124.489 8.40113 124.474 8.48861C126.173 8.4939 127.871 8.49919 129.569 8.50448ZM176.618 77.6374C176.658 77.2865 176.699 76.9356 176.74 76.5847C176.692 75.96 176.645 75.3352 176.597 74.7105C176.563 75.0484 176.529 75.3864 176.496 75.7243C176.536 76.362 176.577 76.9997 176.618 77.6374ZM120.34 8.53195C122.176 8.5721 122.867 8.2934 120.518 8.2927C119.528 8.2927 118.415 8.48999 120.34 8.53195ZM99.851 84.6347C100.48 84.6585 101.11 84.6823 101.739 84.7061C101.953 84.6475 102.167 84.5889 102.382 84.5303C101.538 84.5651 100.695 84.5999 99.851 84.6347ZM79.8779 8.4703C79.9517 8.41171 80.0255 8.35312 80.0993 8.29453C80.6606 8.30633 81.2219 8.31813 81.7832 8.32993C81.642 8.38811 81.5009 8.4463 81.3598 8.50448C80.8658 8.49309 80.3718 8.4817 79.8779 8.4703ZM104.085 84.6707C104.588 84.6819 105.091 84.6931 105.594 84.7043C105.932 84.6758 106.27 84.6473 106.608 84.6188C106.137 84.5905 105.667 84.5622 105.196 84.534C104.826 84.5795 104.455 84.6251 104.085 84.6707ZM102.932 8.50509C103.638 8.57554 106.461 8.35604 103.918 8.30002C102.298 8.26445 102.826 8.49437 102.932 8.50509ZM99.123 8.57528C101.814 8.70949 99.7963 8.02831 96.5846 8.46969C99.8178 8.40918 98.9649 8.56718 99.123 8.57528ZM75.4575 8.92683C75.3898 8.92648 75.334 8.82853 74.7932 8.82491C72.8467 8.81222 70.2773 8.77352 68.8851 8.76753C65.5382 8.75309 55.2865 8.93015 54.0875 8.64669C53.8378 8.58716 54.4124 8.40927 54.3109 8.40011C54.013 8.37457 52.2982 8.46088 52.6153 8.32993C54.2979 8.33094 55.9805 8.33196 57.6631 8.33298C57.2501 8.42534 56.837 8.5177 56.424 8.61007C60.6165 8.56076 59.2287 8.56645 60.4346 8.36533C61.1441 8.44324 61.8537 8.52116 62.5632 8.59908C64.1079 8.52076 65.6526 8.44243 67.1973 8.3641C66.8471 8.42249 66.4968 8.48088 66.1466 8.53927C68.4738 8.64741 67.8273 8.5765 69.1006 8.4349C69.1033 8.49329 69.1058 8.55168 69.1084 8.61007C71.3553 8.46775 71.7931 8.64274 72.2839 8.64486C73.2909 8.6483 74.5744 7.95746 78.4154 8.64486C80.035 8.31425 79.9981 8.98683 80.95 8.64486C83.6911 9.01714 78.4779 8.8824 76.011 8.87007C76.0097 8.87007 76.0084 8.87007 76.0071 8.87007C75.821 8.86901 76.1165 8.9317 75.4575 8.92683ZM89.5383 8.58443C87.8789 8.88791 94.4348 8.91632 92.2652 8.47824C91.9421 8.464 91.6191 8.44975 91.296 8.43551C90.7088 8.48515 90.1216 8.53479 89.5344 8.58443C89.5358 8.58443 89.537 8.58443 89.5383 8.58443ZM151.137 8.78584C157.209 8.66114 153.757 8.48657 151.7 8.65706C151.29 8.69088 151.065 8.73724 151.137 8.78584ZM164.386 84.2099C164.297 84.2463 164.209 84.2827 164.12 84.3191C166.156 84.285 170.094 84.4255 170.04 84.18C168.155 84.1899 166.271 84.1999 164.386 84.2099ZM176.047 84.0192C176.031 84.0178 175.996 84.0035 176.051 84.0765C176.106 84.118 176.191 84.1258 176.269 84.1029C176.239 84.0662 176.203 84.0407 176.164 84.0207C176.146 84.0478 176.049 84.0229 176.047 84.0192Z" fill="#FFE992"/>
</svg>
