<svg width="202" height="60" viewBox="0 0 202 60" fill="none" xmlns="http://www.w3.org/2000/svg">
<path d="M5.31497 18.0781C5.75193 28.3939 5.28765 35.4353 5.21365 45.005C5.1938 47.5777 5.17855 50.2506 5.16707 53C5.12882 53.9526 5.99455 54.873 7 54.8527C25.361 54.8936 46.1664 54.805 63.1144 54.8141C79.4225 54.8229 95.9935 54.8541 112.203 54.8791C113.034 54.8804 113.531 54.9283 113.908 54.9289C117.457 54.9345 123.408 54.8911 126.929 54.8974C134.335 54.9106 147.221 54.9032 154.004 54.9481C156.885 54.9671 159.839 54.975 160.959 55.0891C162.012 55.0949 162.586 54.9918 162.861 54.9862C162.864 54.9863 162.867 54.9864 162.87 54.9865C163.755 54.9691 165.991 55.0414 166.484 55.0369C166.558 55.0362 166.104 54.9616 167.3 54.9841C167.407 54.986 167.309 55.0368 168.316 55.0375C168.578 55.0377 171.949 54.9599 172.912 54.9551C176.117 54.9396 183.771 55.0007 187.604 54.9997C188.19 54.9997 188.527 54.97 189.146 54.9694C189.466 54.9691 189.945 55.0014 190.044 55.0012C190.475 55 192.358 54.8537 191.682 55.1425C193.648 55.1242 193.069 55.0287 193.114 54.9667C193.873 54.9635 194.492 54.9787 195 54.993C195.466 55.0143 195.746 54.9063 195.862 54.7496C196.518 54.4335 196.963 53.7326 196.957 53C196.972 43.9855 196.987 34.971 197.002 25.9565C196.978 25.9534 196.955 25.9502 196.931 25.9471C197.025 22.853 196.866 21.7916 197.003 20.0252C196.973 18.936 196.943 17.8468 196.913 16.7576C196.923 13.5041 196.931 10.2515 196.937 7C196.969 5.97013 196.034 5.02846 195 5.05429C172.383 5.03283 149.832 5.10469 127.444 5.1044C126.276 5.1044 125.985 5.0544 124.058 5.05405C121.931 5.0537 118.94 5.11181 116.137 5.11112C113.678 5.11059 110.05 5.06329 107.309 5.05588C106.69 5.0543 106.242 5.08596 106.172 5.08579C105.763 5.08455 105.742 5.03442 105.345 5.03299C104.869 5.03141 104.295 5.06855 103.746 5.06626C101.693 5.05799 99.4568 5.07079 99.197 5.06992C97.9452 5.06517 97.6689 5.01614 97.566 5.0156C96.1736 5.00962 96.6956 5.05387 96.3489 5.0513C94.5496 5.03774 93.2778 4.92727 90.8145 5.0333C90.8816 4.9923 90.9487 4.95131 91.0158 4.91032C89.1307 4.88725 90.3759 4.99618 89.9906 5.0159C89.8334 5.02321 85.7757 5.00991 85.4626 5.00797C84.3727 5.00093 84.3435 4.94645 84.2493 4.94572C84.0198 4.94395 81.2777 5.00578 79.8718 4.95823C78.2085 4.90187 80.1664 4.79106 79.7533 4.77025C79.6837 4.76672 77.9423 4.77808 77.7085 4.74339C77.4504 4.70607 78.9563 4.70686 78.9331 4.69121C78.9167 4.68046 76.4165 4.60353 76.8959 4.55175C77.2811 4.49981 80.6732 4.5664 81.3918 4.54198C81.5104 4.53794 81.2868 4.47384 81.3918 4.47149C81.8138 4.46286 89.6293 4.46093 89.9868 4.47149C89.5798 4.50068 89.1729 4.52988 88.7659 4.55907C89.3071 4.56202 89.8482 4.56497 90.3894 4.56792C89.62 4.59132 88.8506 4.61471 88.0812 4.63811C89.2246 4.87849 92.6685 4.63481 92.8104 4.51482C92.8719 4.45934 90.7667 4.31659 92.7258 4.23346C92.4279 4.21922 92.1301 4.20498 91.8322 4.19073C91.2183 4.21413 90.6045 4.23753 89.9906 4.26092C90.3994 4.27567 90.8083 4.29042 91.2171 4.30517C91.0666 4.32185 90.9161 4.33854 90.7656 4.35522C89.6181 4.38197 88.4706 4.40872 87.3231 4.43548C86.7331 4.42315 86.8557 4.3739 86.4502 4.36437C81.3928 4.24443 84.6916 4.39706 81.3805 4.37505C80.9077 4.34861 80.4349 4.32216 79.9621 4.29571C80.1289 4.40509 78.6624 4.33641 76.8883 4.3836C77.1003 4.3482 77.3122 4.3128 77.5242 4.2774C74.9544 4.29625 69.745 4.11778 71.1508 4.31311C70.562 4.29642 69.9732 4.27974 69.3844 4.26306C68.8871 4.295 68.3899 4.32694 67.8926 4.35888C67.2054 4.35522 66.5181 4.35156 65.8309 4.3479C65.8278 4.3306 65.8246 4.31331 65.8215 4.29602C66.3695 4.29592 66.9176 4.29581 67.4656 4.29571C67.0543 4.24302 66.6429 4.19033 66.2316 4.13764C65.8271 4.14638 65.4227 4.15513 65.0182 4.16388C66.7148 4.21372 64.4781 4.29512 63.9366 4.36468C62.5064 4.39039 61.5925 4.30009 61.113 4.29602C60.8875 4.29408 58.2321 4.45339 59.2732 4.27832C57.9068 4.29958 56.5405 4.32084 55.1742 4.3421C54.6399 4.32867 54.1056 4.31524 53.5714 4.30181C54.7309 4.22027 51.3706 4.12201 53.8461 4.0882C55.6945 4.06284 56.15 4.13908 57.0271 4.13855C57.8178 4.13818 58.2358 4.08683 59.0964 4.08454C64.8835 4.07009 69.5975 4.07952 75.0937 4.10224C76.1796 4.1068 77.1673 4.08162 77.8966 4.08515C78.7201 4.08921 77.6884 4.15361 78.7375 4.13794C79.8393 4.12137 80.0775 4.06881 80.3685 4.06775C80.5495 4.06716 81.1233 4.11444 81.6514 4.11444C83.8216 4.11443 87.0015 4.06871 87.3099 4.06897C87.6582 4.0695 93.7957 4.11217 94.0896 4.11994C94.2454 4.12416 93.9222 4.29878 95.2747 4.11261C95.6968 4.10915 96.1188 4.10569 96.5408 4.10224C96.4725 4.13713 96.4041 4.17202 96.3357 4.20691C98.8358 4.07464 97.9759 4.14864 100.386 4.13825C106.157 4.11324 114.669 4.14264 120.981 4.13031C122.39 4.12749 122.927 4.08571 124.594 4.08271C126.143 4.08006 130.188 4.20472 129.309 4.03205C132.755 4.18157 133.309 3.92373 135.035 4.08454C135.244 4.06114 135.452 4.03774 135.661 4.01435C137.534 4.11474 138.112 4.02651 140.157 4.01435C141.038 4.00906 140.023 4.11584 141.801 3.99695C142.141 4.0058 142.481 4.01465 142.821 4.0235C142.742 4.04934 142.663 4.07518 142.584 4.10102C144.559 4.07988 144.687 4.09334 144.461 3.99665C145.415 4.01425 146.369 4.03184 147.323 4.04944C147.441 4.0177 147.56 3.98597 147.678 3.95423C147.221 3.89369 125.566 3.98499 122.55 4.01404C119.013 3.94221 111.908 4.03202 109.05 4.01496C107.907 4.00809 107.402 3.93631 105.738 3.92768C104.074 3.91906 101.981 3.98425 101.095 3.98658C98.1441 3.99468 84.1633 3.98036 93.672 3.89106C93.3986 3.85607 93.1252 3.82108 92.8518 3.78608C89.0733 3.90549 90.4415 3.83198 87.3062 3.81965C85.9863 3.81439 82.8475 3.89253 83.0228 3.7336C85.4737 3.70401 88.0775 3.7548 90.2088 3.75252C90.42 3.75227 92.9434 3.6797 94.242 3.69942C95.4135 3.71741 94.6069 3.86893 97.1559 3.69881C99.0491 3.86499 100.144 3.71422 100.644 3.6982C101.508 3.67041 101.602 3.75242 102.466 3.76198C103.408 3.77253 104.055 3.71808 104.184 3.71773C105.474 3.71649 112.196 3.70907 112.504 3.74214C112.234 3.75669 111.964 3.77123 111.693 3.78578C113.439 3.80919 113.074 3.72532 113.533 3.71529C113.875 3.71559 114.217 3.7159 114.558 3.7162C114.423 3.7336 114.288 3.75099 114.152 3.76838C116.214 3.76469 114.636 3.70424 117.563 3.70582C119.421 3.70689 121.34 3.77329 121.521 3.76838C121.574 3.76698 120.989 3.7222 121.746 3.7162C123 3.70634 125.168 3.70748 125.411 3.76838C126.025 3.75976 125.973 3.70016 126.054 3.69881C126.411 3.69299 132.546 3.67273 133.645 3.6692C136.69 3.65952 140.08 3.67223 143.38 3.66219C143.719 3.66118 143.502 3.69943 143.842 3.6982C144.388 3.69624 147.19 3.63621 147.609 3.63197C148.653 3.62159 151.401 3.6454 151.834 3.62801C151.895 3.62554 150.991 3.57385 152.048 3.55782C153.222 3.54009 152.59 3.60961 152.654 3.61031C155.043 3.63408 156.551 3.58578 158.182 3.57643C158.711 3.57344 159.686 3.62577 160.432 3.61031C160.518 3.60855 160.348 3.5602 160.432 3.55782C161.559 3.53246 162.614 3.6222 163.102 3.62801C164.295 3.64222 163.645 3.57599 163.707 3.57552C164.502 3.57341 165.572 3.5973 166.781 3.59413C172.171 3.58004 176.569 3.576 182.299 3.5804C183.018 3.58093 183.872 3.62764 183.983 3.6277C184.323 3.62735 184.225 3.57245 185.209 3.57369C187.283 3.57651 189.206 3.57385 191.259 3.57491C191.672 3.57513 191.848 3.62599 192.164 3.62709C192.709 3.62873 193.934 3.59402 195 3.58286C195.868 3.5633 196.539 3.94999 196.515 4.02567C197.902 4.63014 198.389 5.88315 198.366 7C198.362 7.25614 198.359 7.51573 198.359 7.78265C198.362 11.7828 198.392 18.0464 198.373 22.0343C198.369 22.8739 198.326 23.2678 198.324 23.7349C198.32 24.5725 198.344 29.3612 198.337 29.6116C198.324 30.1034 198.137 29.8086 198.3 32.3374C198.312 33.8199 198.235 33.6448 198.231 33.9514C198.2 36.3409 198.371 38.6655 198.214 38.231C198.257 41.0132 198.344 42.8163 198.197 43.9516C198.268 43.9369 198.311 45.2453 198.284 46.8223C198.164 45.2076 198.087 45.4075 198.109 41.5024C198.109 41.4409 198.161 41.5582 198.161 41.4967C198.165 40.9391 198.139 39.7759 198.142 38.8255C198.144 37.8749 198.18 38.4027 198.179 38.0222C198.178 37.6739 198.129 37.6855 198.128 37.1814C198.126 35.5462 198.113 34.0992 198.112 33.1689C198.111 32.5828 198.155 31.9269 198.155 31.4721C198.154 29.7136 198.12 25.9876 198.125 23.7499C198.126 23.2837 198.175 23.4794 198.179 22.4594C198.18 22.3403 198.129 21.9058 198.118 21.0128C198.108 20.1195 198.133 19.427 198.128 18.8533C198.123 18.3738 198.078 18.5742 198.075 17.591C198.073 16.7791 198.105 7.6639 198.112 7C198.112 6.99496 198.113 6.99054 198.113 6.98675C198.11 6.42177 198.081 6.14047 197.95 5.81391C197.925 5.75727 197.832 5.68396 197.728 5.50263C197.31 4.74343 196.309 3.90672 195 3.9176C190.123 3.92403 183.679 3.87755 179.885 3.87794C169.254 3.87882 159.446 3.91494 148.72 3.92921C148.529 3.93989 148.338 3.95057 148.147 3.96125C149.231 3.96166 150.315 3.96206 151.399 3.96247C151.406 3.99136 151.413 4.02025 151.42 4.04914C152.885 4.05371 152.691 3.98539 152.65 3.94416C153.192 3.96166 153.735 3.97915 154.277 3.99665C154.745 3.89597 158.362 3.96293 160.227 3.96277C161.44 3.96277 162.884 3.9244 163.523 3.92738C164.874 3.93353 164.839 3.99566 164.945 3.99665C165.126 3.99806 167.012 3.94327 168.373 3.94538C170.384 3.9484 170.602 4.04378 173.356 3.96277C176.885 4.01226 180.794 3.98736 184.598 3.97925C183.874 4.06742 187.282 3.98397 188.819 3.98536C190.797 3.98718 192.87 3.99029 195 3.99439C196.566 3.95325 198.037 5.38045 197.991 7C197.975 13.1153 197.954 19.3744 197.933 24.9388C197.929 26.1597 197.877 27.0821 197.879 27.7624C197.88 28.1313 197.941 28.2923 197.933 28.8046C197.931 28.8945 197.874 28.9572 197.865 29.9107C197.844 32.2837 197.939 38.1949 197.829 39.6908C197.839 44.1272 197.848 48.5636 197.857 53C197.9 54.5204 196.528 55.9043 195 55.8704C193.417 55.8737 191.835 55.8771 190.252 55.8804C190.049 55.857 189.845 55.8336 189.641 55.8102C188.1 55.9297 182.007 55.8595 179.035 55.8651C173.805 55.8751 167.133 55.9123 162.55 55.9164C161.555 55.9173 160.739 55.8833 159.796 55.884C159.391 55.8844 158.887 55.9284 158.465 55.9286C153.727 55.9319 147.312 55.8866 142.537 55.8877C131.696 55.89 121.487 55.8833 110.503 55.8853C75.8451 55.8917 41.3745 55.9488 7 55.9346C5.43754 55.9731 4.02786 54.5598 4.0688 53C4.06895 52.7698 4.06911 52.5397 4.06928 52.3095C4.06963 51.8177 4.12019 51.8423 4.12055 51.4611C4.12301 49.2111 4.08133 44.1864 4.08362 41.6452C4.08538 39.6206 4.16269 36.4069 4.08484 35.7102C3.99313 41.3086 3.97817 47.1533 3.96052 53C3.93568 54.2758 4.81746 55.5022 6.02854 55.8997C6.41453 56.0224 6.4629 56.057 6.51215 56.0704C6.75731 56.1121 6.90029 56.1104 7 56.1069C7.35527 56.0945 7.28129 56.058 8.57594 56.0558C9.1635 56.0548 14.5905 56.2083 13.9448 56.0555C15.2444 56.1166 24.4061 56.1472 26.1742 56.1269C26.7111 56.1208 26.3309 56.0755 26.4375 56.0732C26.9003 56.0632 27.1093 56.1256 27.5229 56.1273C28.6255 56.1311 31.4297 56.0805 31.9625 56.0809C33.1884 56.0814 36.8637 56.1322 38.4826 56.1202C39.9662 56.1093 39.6885 56.0441 40.9713 56.0381C41.9824 56.0336 40.881 56.0884 43.1384 56.105C44.2572 56.1131 48.1711 56.0739 49.1224 56.0738C50.0732 56.0738 51.1311 56.1129 52.4426 56.1099C54.3318 56.1056 58.4417 56.0839 60.3642 56.0714C60.4789 56.0707 60.7586 56.02 61.0414 56.021C61.6272 56.0232 61.4512 56.0858 61.8935 56.0922C62.3361 56.0985 70.0012 56.0908 71.3031 56.0915C72.2004 56.0919 72.8201 56.0546 73.3159 56.0549C73.7051 56.0553 73.7467 56.1074 74.1436 56.108C74.2666 56.108 75.3126 56.0627 76.3577 56.0638C77.3452 56.0648 81.0948 56.1079 81.529 56.1083C81.8119 56.1085 81.5018 56.0714 82.3379 56.0723C83.0999 56.0732 83.6004 56.1214 84.0347 56.1221C85.0426 56.1236 86.1691 56.0826 87.2384 56.0824C90.3122 56.0819 90.1541 56.1415 90.3385 56.1434C90.8498 56.1488 91.0548 56.0942 91.2226 56.0931C91.9314 56.0885 93.6684 56.0784 94.3002 56.0763C95.0871 56.0736 95.4205 56.1255 96.2566 56.1257C96.8798 56.1257 98.1382 56.0751 99.5599 56.0726C102.765 56.0668 106.576 56.0573 109.724 56.0592C110.662 56.0597 110.806 56.1071 111.093 56.1083C112.601 56.1148 113.445 56.0619 113.876 56.0626C116.945 56.0673 122.421 56.1504 125.27 56.1575C126.43 56.1603 131.508 56.1219 134.373 56.1288C134.7 56.1295 134.393 56.1666 134.758 56.1608C135.631 56.1469 135.55 56.0713 135.992 56.0735C136.206 56.0749 136.693 56.1175 137.315 56.1218C140.54 56.1438 142.758 56.1106 144.23 56.1129C158.361 56.1349 172.772 56.1547 185.969 56.1614C187.44 56.1621 189.265 56.1171 191.486 56.1608C191.555 56.1843 191.623 56.2078 191.691 56.2313C191.769 56.2082 191.847 56.1851 191.925 56.162C193.22 56.1556 194.1 56.1446 195 56.1395C195.661 56.1246 196.373 55.9696 197.124 55.3252C197.256 55.2224 197.707 54.8671 197.741 54.5031C198.359 53.2761 198.114 53.2737 198.142 53C198.13 52.8309 198.119 52.5615 198.116 51.9691C198.107 50.0799 198.137 48.244 198.143 46.4122C198.191 45.408 198.301 49.6215 198.301 49.8961C198.3 50.3385 198.234 50.7982 198.231 51.2242C198.225 51.8662 198.236 52.4974 198.241 53C198.245 53.3963 198.171 53.6873 198.117 53.7877C197.751 55.0513 198.264 53.4959 198.237 53.6518C198.042 54.5285 197.467 55.3026 196.705 55.7455C196.613 55.8887 195.913 56.3222 195 56.3053C193.125 56.2929 190.808 56.2265 191.073 56.3189C190.594 56.2897 190.116 56.2605 189.637 56.2313C187.539 56.4142 186.305 56.2854 183.507 56.231C183.708 56.2544 183.91 56.2778 184.112 56.3012C184.055 56.311 181.585 56.3484 182.468 56.2487C179.936 56.38 180.043 56.1616 177.773 56.3195C176.424 56.3398 177.235 56.248 174.821 56.2496C173.391 56.2505 171.615 56.2985 170.017 56.3018C169.649 56.3024 169.488 56.2493 169.161 56.2493C168.833 56.2493 168.673 56.3014 168.277 56.3027C167.457 56.3055 166.394 56.269 165.882 56.2725C165.423 56.2755 164.767 56.3214 163.66 56.3287C159.796 56.3542 160.964 56.2886 160.353 56.2664C159.698 56.2428 159.226 56.3292 157.919 56.3192C157.788 56.3181 158.127 56.2643 157.701 56.2664C157.357 56.2681 157.184 56.3266 156.045 56.3375C155.592 56.3419 148.553 56.3545 147.48 56.3555C145.837 56.3571 142.176 56.3076 140.475 56.3079C139.82 56.3079 139.119 56.3549 138.423 56.3546C136.115 56.3535 132.421 56.3496 129.495 56.3473C126.86 56.3451 122.234 56.2414 120.791 56.3351C117.09 56.3472 116.192 56.2672 115.913 56.2661C115.159 56.2631 114.809 56.3161 113.859 56.3186C101.543 56.3494 85.3244 56.3144 73.6602 56.3186C51.5023 56.327 29.2455 56.3479 7 56.3434C5.21958 56.3871 3.61342 54.779 3.65857 53C3.65979 50.1753 3.66148 47.351 3.66371 44.5272C3.64021 44.4544 3.61672 44.3817 3.59322 44.309C3.58034 47.0383 3.54888 50.1743 3.53402 53C3.53111 53.4323 3.60948 53.8537 3.75492 54.2379C4.1661 55.4165 5.49446 56.494 7 56.4609C10.3089 56.4477 13.7346 56.4412 15.7808 56.5472C14.5225 56.5612 12.4727 56.4997 12.5094 56.5823C14.7587 56.5882 17.0079 56.5941 19.2571 56.6C19.19 56.5618 19.123 56.5237 19.0559 56.4855C21.4043 56.4744 23.8063 56.4827 26.1629 56.4773C26.5722 56.4764 26.2823 56.4417 26.6388 56.4416C27.0376 56.4414 26.7672 56.4767 26.842 56.477C27.85 56.4773 28.1543 56.4417 28.2773 56.4422C28.5929 56.4436 28.3475 56.4775 29.2574 56.487C30.9453 56.5048 32.1539 56.4146 31.7574 56.5649C32.3023 56.5649 32.8472 56.5649 33.3921 56.5649C33.5332 56.524 33.6743 56.4831 33.8154 56.4422C37.1672 56.6073 38.7127 56.3177 40.565 56.5475C41.1757 56.5124 41.7865 56.4773 42.3972 56.4422C42.7415 56.4831 43.0857 56.524 43.43 56.5649C43.4971 56.5298 43.5642 56.4947 43.6313 56.4596C46.922 56.4855 50.4259 56.4433 53.5732 56.4474C55.7656 56.4502 56.2908 56.464 58.2328 56.4614C62.5525 56.4554 58.2628 56.5251 61.8522 56.6003C61.6653 56.5572 61.4784 56.5142 61.2916 56.4712C61.886 56.4554 62.4805 56.4396 63.0749 56.4239C63.4888 56.459 63.9026 56.4941 64.3165 56.5292C66.1523 56.3471 67.3416 56.4941 67.5916 56.4941C67.7935 56.4937 68.4871 56.3842 70.6597 56.477C69.7588 56.3272 72.3172 56.4761 72.5221 56.477C72.7168 56.4776 75.2076 56.4441 76.2185 56.4455C77.0138 56.4466 78.71 56.4789 79.8943 56.4773C80.9399 56.4759 80.8338 56.425 80.9101 56.4245C82.1971 56.4203 81.3906 56.4598 82.321 56.4617C83.2513 56.4636 83.9731 56.4203 84.174 56.4242C84.275 56.4262 83.9372 56.4736 84.3997 56.4782C85.6417 56.4907 87.8876 56.4492 89.3095 56.4504C89.8135 56.4508 90.4488 56.491 91.0101 56.4922C91.8706 56.494 92.2727 56.4406 92.7727 56.4422C92.9466 56.4429 94.0566 56.5253 95.4364 56.5127C95.6989 56.5101 96.47 56.3356 97.4944 56.5829C97.5734 56.5481 97.6524 56.5133 97.7314 56.4785C102.359 56.3924 103.646 56.675 105.704 56.4242C109.064 56.4522 106.757 56.5499 107.126 56.5649C107.364 56.5743 108.46 56.5475 108.58 56.549C108.793 56.552 108.757 56.5833 108.99 56.5832C113.273 56.5774 111.371 56.5181 112.728 56.4806C115.954 56.3913 118.47 56.5896 112.86 56.5301C112.86 56.5476 112.86 56.5651 112.86 56.5826C114.241 56.5658 117.748 56.5738 116.577 56.6625C115.655 56.7324 107.335 56.6868 112.047 56.7849C113.117 56.8071 113.671 56.7414 115.523 56.8645C116.749 56.8712 116.925 56.7117 118.584 56.7757C118.311 56.7201 118.039 56.6644 117.766 56.6088C120.028 56.5363 122.819 56.6336 124.557 56.6024C125.147 56.5918 127.274 56.3265 126.778 56.5917C127.771 56.5752 132.447 56.624 133.315 56.6003C133.524 56.5945 133.796 56.4533 136.82 56.5026C137.03 56.5203 137.24 56.538 137.45 56.5557C134.685 56.6071 139.568 56.6594 138.242 56.7934C137.791 56.7332 135.598 56.6965 135.245 56.6662C134.643 56.614 136.438 56.5468 134.151 56.5652C132.709 56.7891 136.831 56.6861 136.201 56.8987C139.204 56.7994 139.504 56.8942 140.183 56.8981C143.089 56.9141 144.918 56.8916 147.659 56.9164C148.327 56.8727 143.364 56.8097 142.749 56.8285C145.012 56.6737 141.118 56.6667 139.474 56.7586C139.336 56.7118 139.198 56.6651 139.06 56.6183C141.2 56.6436 143.287 56.6567 145.406 56.6183C145.544 56.6358 145.681 56.6533 145.819 56.6707C145.344 56.6971 144.869 56.7234 144.394 56.7498C146.156 56.7929 145.099 56.6565 147.447 56.776C147.519 56.7233 147.592 56.6707 147.665 56.618C149.916 56.6355 152.167 56.653 154.418 56.6704C155.59 56.5648 159.922 56.6041 159.129 56.7409C160.877 56.7506 158.719 56.6778 160.357 56.6445C161.07 56.6301 162.464 56.626 162.808 56.6628C162.66 56.7931 160.574 56.8093 159.943 56.8987C160.326 56.9276 170.026 56.8346 169.161 56.9869C169.935 57.0052 169.579 56.9267 170.976 56.9066C174.89 56.8506 180.953 57.0058 184.105 56.8111C180.404 56.7028 179.309 56.8175 176.473 56.8221C174.661 56.8251 163.616 56.8436 166.083 56.7058C165.678 56.7233 165.272 56.7408 164.866 56.7583C164.456 56.7173 164.046 56.6763 163.636 56.6353C164.792 56.6295 165.947 56.6236 167.103 56.6177C167.379 56.6585 167.655 56.6994 167.931 56.7403C168.058 56.7111 168.185 56.6819 168.312 56.6527C168.799 56.6469 169.286 56.6411 169.772 56.6353C169.635 56.6704 169.499 56.7055 169.362 56.7406C170.112 56.7466 170.862 56.7526 171.612 56.7586C171.41 56.7117 171.208 56.6649 171.006 56.618C174.538 56.6062 173.342 56.6355 175.301 56.7232C176.763 56.7322 174.293 56.6421 177.387 56.6192C180.985 56.5926 178.625 56.7359 183.285 56.7052C183.352 56.6818 183.419 56.6584 183.486 56.635C184.51 56.6584 185.535 56.6818 186.56 56.7052C186.424 56.6761 186.289 56.647 186.153 56.618C188.268 56.6292 191.182 56.5737 191.883 56.6878C189.74 56.6329 189.761 56.8322 190.318 56.8688C190.671 56.8919 192.516 56.9013 195 56.9031C196.825 57.0013 198.962 55.2381 198.897 53C198.888 48.5251 198.871 44.05 198.869 42.522C198.863 38.3089 198.927 35.1246 198.829 31.2764C198.748 33.8842 198.814 43.0547 198.758 44.7925C198.753 44.9646 198.57 44.9162 198.776 46.0228C198.755 48.1384 198.767 50.4992 198.779 53C198.822 54.6286 197.614 56.285 195.919 56.681C196.032 56.5988 196.137 56.5115 196.236 56.4201C198.476 55.7308 198.647 53.2243 198.643 53C198.656 52.9385 198.676 52.9296 198.706 52.9812C198.706 52.4363 198.706 51.8914 198.706 51.3465C198.671 51.3465 198.635 51.3465 198.6 51.3465C198.6 50.525 198.6 49.7036 198.6 48.8821C198.635 48.8821 198.671 48.8821 198.706 48.8821C198.706 48.2018 198.706 47.5214 198.706 46.8411C198.671 46.7702 198.636 46.6994 198.601 46.6285C198.673 44.5912 198.479 37.6458 198.688 40.6991C198.688 39.7422 198.688 38.7854 198.688 37.8285C198.662 37.8316 198.637 37.8347 198.611 37.8379C198.607 37.4265 198.604 37.0152 198.601 36.6038C198.624 36.7393 198.647 36.8747 198.67 37.0102C198.629 35.1251 198.751 33.3381 198.671 32.1004C198.653 32.9168 198.636 33.7332 198.618 34.5496C198.651 32.9838 198.582 30.0992 198.582 29.8411C198.582 29.0542 198.634 28.6393 198.636 27.7869C198.639 27.0173 198.599 27.1232 198.6 26.9799C198.641 22.8288 198.857 24.4108 198.601 22.4726C198.636 22.2663 198.671 22.06 198.706 21.8537C198.677 21.5791 198.647 21.3044 198.618 21.0298C198.621 19.8039 198.624 18.578 198.626 17.3521C198.583 17.7609 198.539 18.1698 198.495 18.5786C198.476 16.7411 198.563 15.8841 198.565 15.7061C198.571 15.2024 198.516 14.972 198.515 14.8163C198.52 7.32824 198.569 11.8764 198.775 8.13443C198.694 6.80016 198.613 8.15007 198.53 8.33948C198.542 7.80552 198.548 7.3821 198.551 7C198.53 6.22206 198.412 5.57807 197.681 4.67145C197.402 4.34148 197.047 4.02494 196.806 3.88807C196.604 3.75459 195.894 3.49624 195.325 3.4644C195.221 3.45503 195.113 3.44953 195 3.44894C193.986 3.44427 192.72 3.42201 191.423 3.42263C190.209 3.42333 186.496 3.45676 183.905 3.45711C182.8 3.45711 183.057 3.41753 182.771 3.41744C182.652 3.41744 181.791 3.46486 181.082 3.46505C175.299 3.46611 169.372 3.43609 163.561 3.43697C159.466 3.4375 155.306 3.47564 151.203 3.47176C150.33 3.47088 150.793 3.43607 150.411 3.43484C150.28 3.43453 150.123 3.49527 148.773 3.47085C148.285 3.46204 148.846 3.41956 148.367 3.41744C148.133 3.41643 148.034 3.46969 146.67 3.48183C144.19 3.50401 142.858 3.43303 142.637 3.43514C142.219 3.43923 142.341 3.4833 141.788 3.48488C139.084 3.49263 136.826 3.50011 134.412 3.5038C133.285 3.50557 125.514 3.51448 125.087 3.50655C124.133 3.48894 125.021 3.39691 123.797 3.40005C123.454 3.42334 123.111 3.44664 122.768 3.46993C123.313 3.48763 123.858 3.50533 124.403 3.52303C122.902 3.49344 121.202 3.5353 120.091 3.53371C119.886 3.53335 117.997 3.49162 117.034 3.49618C117.444 3.47888 117.853 3.46159 118.262 3.4443C118.118 3.42955 117.973 3.4148 117.828 3.40005C115.902 3.42241 113.864 3.42183 111.889 3.41866C111.177 3.41758 111.418 3.38175 110.696 3.38052C106.496 3.37296 107.557 3.52196 103.516 3.24228C104.881 3.26763 109.858 3.23205 110.582 3.24136C111.086 3.24788 113.041 3.4842 112.324 3.24167C116.357 3.24272 112.854 3.37649 116.62 3.34725C116.545 3.31765 116.47 3.28805 116.394 3.25845C117.709 3.23979 118.681 3.22483 119.48 3.27707C119.748 3.13346 124.215 3.21748 126.666 3.20779C130.207 3.19405 134.207 3.15903 137.715 3.15286C138.924 3.15077 139.609 3.20705 139.76 3.20688C139.982 3.20647 140.605 3.15718 141.047 3.15683C142.699 3.15543 147.724 3.23875 148.974 3.1019C139.146 3.1019 129.317 3.1019 119.489 3.1019C120.725 3.16917 110.783 3.17574 110.279 3.17239C109.812 3.16939 110.205 3.12216 110.066 3.1193C109.033 3.09904 108.152 3.16751 107.824 3.16751C107.574 3.1675 107.069 3.13537 106.18 3.13608C106.017 3.13618 105.971 3.17016 105.796 3.17026C104.636 3.17026 103.491 3.16978 102.327 3.16995C102.256 3.16962 101.963 3.11999 101.669 3.11991C101.374 3.11991 101.083 3.16949 101.009 3.16965C100.078 3.1693 98.4833 3.13704 97.598 3.13669C97.2909 3.1367 97.5038 3.17305 97.1597 3.1727C96.1022 3.17182 96.4505 3.10067 95.1431 3.11899C94.7048 3.12516 94.7332 3.17957 93.894 3.17239C93.2997 3.16729 93.3637 3.07033 93.2694 3.06681C93.1393 3.06255 91.0885 3.13912 90.4176 3.07566C91.8835 2.90812 88.814 3.06691 88.9616 3.1376C88.1489 3.1198 87.3363 3.102 86.5236 3.0842C86.2464 3.1021 85.9693 3.12001 85.6921 3.13791C82.4133 3.05724 80.4129 3.10568 77.1874 3.08084C77.0317 3.07961 74.3139 3.03981 74.4409 3.01462C76.0677 2.9713 77.6908 2.96932 78.7319 3.04941C80.4451 2.89671 80.4744 3.0184 83.241 2.99814C84.1672 2.99127 84.233 2.94985 84.3396 2.94932C87.9418 2.92871 93.7114 2.91089 96.1382 3.03202C96.8186 2.99926 94.3728 2.98626 95.3237 2.96213C95.8424 2.94892 108.324 2.91024 104.336 3.04972C104.75 3.04585 105.164 3.04199 105.578 3.03812C105.992 2.90637 108.05 2.9365 107.816 3.06772C108.011 3.04087 108.206 3.01401 108.401 2.98716C108.787 2.96444 109.243 2.95227 109.882 2.94505C112.33 2.91758 126.896 2.96328 127.67 2.94443C127.688 2.91331 127.705 2.88218 127.723 2.85105C121.288 2.81583 115.046 2.89318 108.029 2.80406C108.233 2.83325 108.437 2.86245 108.64 2.89164C105.841 2.85075 103.041 2.80986 100.241 2.76896C103.204 2.71612 107.919 2.67175 111.029 2.71525C111.582 2.72301 111.177 2.76373 111.304 2.76866C111.636 2.78147 111.993 2.71083 113.185 2.70396C114.378 2.6971 117.375 2.74718 117.649 2.74577C118.179 2.74286 119.607 2.66205 120.509 2.66307C121.693 2.66448 120.899 2.7145 121.137 2.71556C122.12 2.72048 123.002 2.69569 123.772 2.69939C124.916 2.70489 127.292 2.79285 128.092 2.66368C127.274 2.65778 126.457 2.65188 125.64 2.64598C130.071 2.59966 133.535 2.76478 137.9 2.63744C138.892 2.48103 135.285 2.50217 138.334 2.43542C137.781 2.43766 137.227 2.43989 136.673 2.44213C136.544 2.47489 136.414 2.50764 136.284 2.54039C135.33 2.517 134.376 2.4936 133.423 2.47021C133.695 2.4994 133.967 2.52859 134.239 2.55779C130.858 2.57981 127.443 2.60974 126.263 2.45281C126.193 2.49075 126.124 2.5287 126.054 2.56664C122.915 2.52051 118.202 2.68132 119.083 2.47021C118.934 2.4814 118.785 2.49259 118.637 2.50377C116.739 2.46062 117.55 2.54793 116.837 2.55779C116.633 2.56057 112.945 2.51549 114.579 2.45281C110.981 2.40491 112.09 2.60223 111.099 2.61089C108.796 2.51314 104.652 2.65977 106.394 2.5053C106.051 2.4995 105.708 2.4937 105.365 2.48791C104.238 2.60943 103.127 2.47193 101.906 2.42596C101.492 2.42321 101.078 2.42046 100.664 2.41772C100.387 2.45861 100.11 2.4995 99.8328 2.54039C95.9392 2.34577 97.1721 2.87804 95.3933 2.43084C95.6704 2.40409 95.9476 2.37733 96.2247 2.35058C96.8819 2.33787 97.539 2.32515 98.1962 2.31244C95.5456 2.30064 92.8951 2.28884 90.2445 2.27704C86.8802 2.15169 84.9657 2.28769 81.2282 2.18854C80.8783 2.20044 80.5284 2.21234 80.1785 2.22424C80.535 2.12297 81.8926 2.13785 79.3639 2.09241C79.1484 2.02081 80.8561 2.01154 81.6345 2.06647C81.8221 2.07987 80.2254 2.13472 82.0201 2.13666C83.2403 2.13804 81.0247 2.05199 84.6801 2.08387C84.5446 2.06637 84.4092 2.04887 84.2738 2.03138C84.67 2.03189 85.0664 2.03239 85.4626 2.0329C85.8151 2.07339 86.1674 2.11387 86.5198 2.15436C87.4256 2.09588 87.934 2.01394 90.0037 2.03138C89.4424 2.05673 90.2041 2.13803 91.2284 2.13666C91.2284 2.10736 91.2284 2.07807 91.2284 2.04877C93.708 2.02993 92.852 2.11588 94.9136 2.04877C95.1199 2.07207 95.3262 2.09536 95.5325 2.11865C96.6554 2.02266 100.79 1.95736 100.036 2.10126C101.196 1.96141 103.632 2.02451 104.538 2.13635C104.607 2.10726 104.677 2.07817 104.746 2.04908C105.229 2.04318 105.711 2.03728 106.193 2.03138C106.462 2.04897 106.731 2.06657 107 2.08417C107.342 2.06657 107.683 2.04897 108.025 2.03138C108.232 2.06057 108.438 2.08977 108.644 2.11896C109.193 2.08397 109.743 2.04897 110.292 2.01398C110.628 2.03728 110.964 2.06057 111.3 2.08387C111.335 2.02297 114.665 2.00941 115.595 2.04938C115.872 2.03168 116.149 2.01398 116.426 1.99628C116.562 2.02527 116.697 2.05426 116.833 2.08326C117.039 2.06006 117.245 2.03687 117.452 2.01368C117.927 2.03687 118.402 2.06006 118.878 2.08326C120.816 1.94113 120.879 2.06583 121.321 2.06495C122.142 2.06331 124.936 1.97431 125.403 1.97889C125.87 1.9835 126.095 2.03451 126.472 2.03931C132.681 2.11945 130.129 1.98256 131.374 1.96088C132.046 1.94908 132.522 1.99667 133.116 1.9914C134.133 1.98259 139.26 1.91962 139.555 1.92579C139.985 1.93468 138.973 2.15909 140.37 2.10126C140.416 1.98076 143.402 2.10238 142.006 1.93433C143.236 1.94908 144.466 1.96383 145.695 1.97858C145.556 1.83574 147.072 1.92761 148.724 1.91969C151.065 1.90858 156.334 1.81466 156.141 1.96119C156.702 1.92752 157.263 1.89385 157.823 1.86018C161.659 1.90631 165.421 1.85797 169.229 1.85621C177.561 1.85219 186.415 1.86842 195 1.88881C197.756 1.83143 200.17 4.32087 200.096 7C200.093 7.92272 200.091 8.83986 200.089 9.75034C200.087 10.291 200.039 10.2133 200.038 10.6025C200.033 12.6477 200.067 17.9636 200.056 20.8285C200.053 21.7462 200.006 22.1929 200.004 22.4839C199.996 23.4716 200.058 23.2385 200.056 23.6935C200.053 24.4111 199.996 28.2064 199.99 29.5138C199.987 30.161 200.036 30.9268 200.021 31.6846C200.02 31.7498 199.969 31.6294 199.969 31.6846C199.962 33.0658 200.006 32.2351 200.004 32.7023C199.987 36.0343 199.986 39.5957 199.976 43.2105C199.973 44.108 199.938 45.4818 199.934 46.2523C199.933 46.5462 199.971 46.019 199.968 47.0349C199.967 47.3828 199.918 47.5018 199.914 47.8945C199.901 49.587 200.06 50.1534 199.932 51.6079C199.933 52.03 199.935 52.499 199.938 53C200.105 55.418 197.596 58.1065 195 57.9739C194.023 57.9788 193.131 57.9821 192.419 57.9824C191.813 57.9825 191.518 57.9531 190.941 57.9537C190.531 57.954 189.81 57.9995 189.171 58.0001C188.531 58.0006 187.522 57.9573 186.292 57.9589C184.998 57.9604 183.388 57.9862 183.096 57.986C182.744 57.986 182.58 57.9313 182.227 57.932C181.162 57.9338 178.309 57.9875 176.936 57.9933C175.46 57.9995 174.575 57.973 174.071 57.9735C173.604 57.9742 173.059 58.0204 172.846 58.0208C172.514 58.0215 172.436 57.9676 172.015 57.968C171.326 57.9689 170.616 58.0028 169.584 58.0037C150.993 58.0205 132.766 57.9908 114.679 57.9515C112.662 57.9471 111.523 57.985 108.552 57.9677C107.347 57.9607 107.855 57.905 106.917 57.9155C106.499 57.9203 106.605 57.9641 106.076 57.9662C103.74 57.9753 101.018 57.9347 100.006 57.9354C99.6043 57.9356 99.1454 57.9853 98.3221 57.986C92.1868 57.9917 84.928 57.9777 78.3254 57.9863C74.8294 57.9909 69.5367 58.0162 65.5242 58.0196C54.4379 58.0289 42.5116 58.0174 32.4008 58.0223C23.9177 58.0263 15.4573 58.0423 7 58.0464C4.3107 58.1116 1.88817 55.6895 1.95313 53C1.95495 48.3313 1.96219 43.6621 1.97889 38.9891C1.90978 43.0834 1.88369 48.0285 1.87153 53C1.79782 55.7634 4.31317 58.2122 7 58.1387C8.53202 58.1404 10.0317 58.142 11.4729 58.1444C34.3918 58.1817 58.7948 58.1119 82.2834 58.1145C90.4557 58.1154 100.76 58.1126 109.707 58.1404C110.113 58.1417 110.954 58.1034 111.831 58.1075C112.017 58.1084 114.327 58.1782 115.106 58.1789C114.368 58.0549 117.418 58.1654 118.36 58.1624C119.549 58.1585 122.028 58.0965 124.811 58.1316C127.335 58.1633 126.639 58.211 126.778 58.214C127.671 58.2333 127.983 58.1564 128.667 58.1487C131.462 58.1177 145.84 58.1623 149.853 58.1651C150.89 58.1659 150.919 58.2147 151.153 58.2149C151.771 58.2152 152.652 58.167 153.643 58.1673C155.43 58.168 157.488 58.2141 158.472 58.2143C160.825 58.2148 165.289 58.1604 168.346 58.1594C169.206 58.159 169.153 58.2099 169.543 58.2097C171.256 58.2088 175.719 58.1489 177.846 58.1484C181.301 58.1475 184.855 58.1804 188.367 58.1636C188.59 58.1863 188.813 58.209 189.035 58.2317C189.386 58.2079 189.738 58.1841 190.089 58.1603C191.719 58.1652 193.358 58.165 195 58.1621C197.751 58.2245 200.218 55.7376 200.143 53C200.136 50.7574 200.129 48.5213 200.131 46.305C200.131 45.6245 200.174 42.256 200.175 41.6943C200.175 41.227 200.118 40.7672 200.127 40.0746C200.138 39.1043 200.245 40.0173 200.215 38.4323C200.206 38.0061 200.161 38.4194 200.146 37.5632C200.141 37.2804 200.123 31.7916 200.126 31.4965C200.131 31.0049 200.23 30.5663 200.232 30.4393C200.243 29.7797 200.167 29.8078 200.161 29.3652C200.14 28.0593 200.191 26.3531 200.19 26.1409C200.176 23.5752 200.116 18.7788 200.151 16.0861C200.156 15.7137 200.212 15.7583 200.214 15.6929C200.226 15.271 200.162 15.0088 200.16 14.6075C200.153 12.4827 200.195 9.17499 200.206 7C200.207 6.95307 200.206 6.90666 200.205 6.86077C200.205 6.5359 200.092 5.8527 199.897 5.30654C198.423 2.39203 198.686 3.46624 198.675 3.25218C198.359 2.945 197.731 2.4294 196.609 2.05761C196.15 1.90916 195.599 1.80532 195 1.80651C192.554 1.81001 189.057 1.80392 186.955 1.80037C185.082 1.79702 185.11 1.73477 184.987 1.73353C184.724 1.7313 183.995 1.781 182.762 1.78663C180.389 1.79772 180.659 1.74882 179.684 1.75093C179.602 1.75093 179.745 1.79879 178.663 1.80372C176.572 1.81322 171.876 1.76617 169.639 1.76863C168.778 1.76951 168.577 1.81566 167.695 1.81654C166.298 1.81812 163.145 1.7682 162.897 1.76832C162.827 1.76832 162.671 1.82142 162.261 1.82142C161.81 1.82141 161.367 1.79409 161.031 1.79426C159.117 1.795 155.82 1.88766 156.736 1.69814C156.123 1.74493 155.509 1.79172 154.896 1.83851C150.888 1.82918 146.994 1.84792 143.022 1.85743C142.129 1.85954 141.383 1.82365 140.629 1.82539C139.876 1.82715 136.55 1.88653 135.994 1.88764C135.002 1.88958 129.366 1.89584 128.665 1.89161C127.296 1.88351 125.968 1.80518 125.411 1.82051C124.964 1.83284 125.377 1.87697 124.525 1.88947C123.049 1.91111 120.542 1.85442 120.091 1.8553C119.898 1.85566 120.259 1.89005 118.456 1.89253C117.485 1.89394 116.963 1.85604 116.611 1.85621C116.501 1.85641 116.666 1.91787 114.743 1.90962C113.415 1.9038 112.849 1.85639 112.709 1.85621C112.5 1.8559 111.995 1.90649 111.155 1.90473C109.192 1.90032 105.603 1.84231 103.738 1.8379C103.377 1.83702 103.5 1.89815 102.062 1.89253C101.033 1.88848 101.213 1.83985 100.828 1.8379C100.217 1.83491 99.3074 1.89445 97.9592 1.89253C96.2624 1.89006 83.6634 1.8283 83.0115 1.81227C82.5729 1.80152 82.0643 1.80085 81.8471 1.77443C82.0333 1.7491 82.2195 1.72377 82.4058 1.69844C84.3352 1.78732 83.5566 1.68574 84.0687 1.67921C84.8106 1.66988 87.6062 1.68284 88.2825 1.66029C88.5234 1.65215 87.9718 1.59809 89.2663 1.57027C90.6554 1.54053 91.2734 1.63679 91.8266 1.50527C93.798 1.65128 95.6915 1.49631 93.4086 1.45492C92.1342 1.43184 79.6331 1.37971 77.0802 1.37161C75.0103 1.3651 71.1337 1.40423 68.5887 1.39419C67.0927 1.3882 63.4084 1.38141 63.5641 1.31149C62.2362 1.30268 63.6415 1.3723 63.3628 1.38198C62.78 1.40221 58.6353 1.35413 57.851 1.35604C53.982 1.3652 49.0997 1.44337 45.3413 1.35513C45.5163 1.33641 45.6913 1.31769 45.8662 1.29898C46.7105 1.26463 50.6287 1.31373 51.0714 1.22391C45.3414 1.22391 39.6113 1.22391 33.8813 1.22391C33.9879 1.30035 26.8809 1.29932 26.5448 1.2648C26.6696 1.22777 26.7944 1.19075 26.9192 1.15372C30.9352 1.29424 30.5751 1.10849 33.2718 1.20712C34.3697 1.20851 34.0383 1.14734 34.5793 1.13571C39.9636 1.0202 34.6656 1.26125 38.7874 1.20651C37.5467 1.11777 40.9223 1.08535 42.435 1.07407C42.7792 1.0716 47.3007 1.09409 47.8376 1.09268C50.8541 1.08476 56.0345 1.03615 59.0305 1.08475C61.3911 1.09056 62.6906 1.02736 64.8339 1.01273C66.4607 1.00164 65.9944 1.04606 66.7602 1.0466C68.3668 1.04784 68.8956 0.912594 69.9243 1.10123C71.0135 1.07773 72.1027 1.05423 73.1919 1.03074C73.1919 1.06003 73.1919 1.08933 73.1919 1.11862C73.876 1.11862 74.5601 1.11862 75.2442 1.11862C75.4455 1.08943 75.6468 1.06024 75.848 1.03104C78.0193 1.07103 77.1128 1.14157 77.5185 1.22452C77.9876 1.23021 78.4566 1.23591 78.9256 1.24161C79.2887 1.17793 79.6517 1.11425 80.0148 1.05057C82.1092 1.05576 84.2035 1.06095 86.2979 1.06614C86.4333 1.09533 86.5688 1.12452 86.7042 1.15372C86.7086 1.12452 86.713 1.09533 86.7174 1.06614C90.264 1.06013 93.8106 1.05413 97.3572 1.04813C98.3006 1.0013 92.618 0.965807 92.1878 0.962989C89.794 0.947495 83.4373 0.994449 83.4291 0.89036C81.9412 0.968024 77.4616 0.948741 76.0681 0.855571C78.1832 0.861165 80.2982 0.86676 82.4133 0.872355C82.3449 0.837464 82.2766 0.802573 82.2082 0.767683C84.8435 0.908404 85.2291 0.90066 87.9382 0.767683C87.9407 0.814475 87.9433 0.861267 87.9458 0.908059C89.8348 0.745351 93.1737 1.02136 93.2694 0.820477C94.2752 0.836752 95.281 0.853028 96.2868 0.869303C98.4586 0.844816 95.0861 0.690325 103.589 0.750899C104.176 0.755126 104.053 0.806296 104.934 0.802777C105.189 0.80172 106.644 0.72728 109.427 0.73503C109.861 0.736268 109.894 0.780662 110.345 0.786298C111.386 0.799681 113.459 0.711881 112.517 0.85496C116.64 0.896689 114.931 0.779262 116.21 0.732589C117.062 0.701614 116.891 0.786269 117.629 0.767072C118.541 0.743266 117.871 0.657923 121.526 0.697189C121.116 0.702987 120.706 0.708786 120.296 0.714584C120.502 0.737777 120.709 0.760969 120.915 0.784162C123.001 0.728512 122.804 0.809824 123.787 0.67949C125.304 0.737612 126.616 0.74224 128.69 0.731673C132.718 0.711066 130.653 0.570606 135.251 0.759748C135.996 0.733199 136.741 0.70665 137.486 0.6801C138.711 0.735929 137.72 0.805778 139.548 0.819866C138.117 0.681956 141.974 0.732241 142.625 0.609301C142.694 0.638597 142.762 0.667893 142.83 0.697189C143.239 0.697189 143.647 0.697189 144.055 0.697189C144.056 0.673692 144.058 0.650194 144.059 0.626696C144.602 0.644294 145.146 0.661892 145.69 0.67949C146.099 0.656195 146.507 0.632901 146.916 0.609607C147.588 0.658738 148.261 0.70787 148.933 0.757002C149.355 0.760359 149.777 0.763716 150.199 0.767072C150.065 0.73208 149.932 0.697088 149.798 0.662095C150.341 0.673793 150.883 0.685491 151.425 0.697189C150.794 0.639771 151.191 0.572446 152.88 0.574207C154.273 0.57562 152.703 0.695461 155.699 0.645616C155.908 0.642063 156.278 0.556593 159.11 0.543386C162.506 0.527549 160.856 0.589457 161.461 0.591602C161.58 0.591954 162.618 0.54894 163.589 0.542775C164.14 0.539265 164.671 0.573993 164.744 0.573902C165.084 0.572317 165.183 0.523188 165.654 0.521414C166.851 0.517187 168.457 0.54126 169.629 0.538808C170.162 0.537751 170.663 0.508644 170.901 0.508291C171.27 0.507955 171.738 0.552411 172.111 0.552235C173.488 0.551305 175.578 0.403803 176.217 0.608691C177.541 0.420288 180.314 0.648072 180.111 0.521719C183.649 0.569405 193.084 0.414394 192.807 0.626696C194.332 0.488532 194.593 0.53168 195 0.558979C195.205 0.56817 195.432 0.58164 195.752 0.617661C197.234 0.884981 196.492 0.672995 197.621 1.09139C199.946 2.11423 201.466 4.50282 201.444 7C201.443 7.17438 201.443 7.3493 201.443 7.52494C201.424 7.34996 201.406 7.17498 201.387 7C201.377 6.84491 201.361 6.693 201.339 6.53924C201.351 6.70624 201.355 6.85753 201.355 7C201.354 8.46413 201.415 8.00877 201.427 9.75787C201.451 13.1719 201.397 11.7332 201.321 12.2372C201.394 12.102 201.383 16.1277 201.373 16.5376C201.367 16.7819 201.273 15.7108 201.303 18.176C201.332 18.0412 201.361 17.9064 201.391 17.7716C201.351 18.8947 201.401 21.9455 201.392 22.4632C201.387 22.7009 201.152 23.9724 201.338 25.1363C201.309 25.2768 201.28 25.4172 201.25 25.5577C201.285 26.85 201.321 28.1424 201.356 29.4348C201.303 29.6411 201.25 29.8474 201.198 30.0537C201.198 30.4638 201.198 30.8738 201.198 31.2839C201.245 31.0118 201.291 30.7397 201.338 30.4675C201.317 32.9998 201.39 36.0934 201.233 36.6151C201.262 37.1575 201.291 37.6999 201.321 38.2423C201.268 38.5954 201.216 38.9484 201.163 39.3014C201.177 41.813 201.212 41.8545 201.267 43.5716C201.227 43.5046 201.186 43.4375 201.145 43.3704C201.202 44.6369 201.256 46.9489 201.263 48.7768C201.266 49.6458 201.21 51.1378 201.215 51.3427C201.218 51.4731 201.307 52.3286 201.325 53C201.338 53.6229 201.219 54.1441 201.124 54.2532C199.872 58.8828 196.628 59.1753 195 59.2503C194.979 59.2503 194.958 59.2503 194.936 59.2503C194.146 59.2517 193.785 59.2978 192.892 59.3025C191.613 59.3094 190.326 59.2871 189.588 59.2903C189.166 59.2922 189.087 59.3371 188.796 59.3385C187.42 59.3454 188.227 59.2995 186.776 59.3025C186.642 59.303 185.582 59.3578 184.387 59.3507C183.719 59.3468 181.99 59.2853 181.838 59.2854C181.162 59.2865 181.702 59.4095 179.391 59.2674C179.458 59.2908 179.525 59.3142 179.592 59.3376C176.731 59.397 176.279 59.2926 175.702 59.2854C175.628 59.2848 174.931 59.3251 174.515 59.3196C173.811 59.3101 173.527 59.2549 173.371 59.2525C172.822 59.244 170.972 59.2683 169.763 59.2149C170.017 59.372 165.78 59.4279 164.842 59.25C164.092 59.2851 163.342 59.3202 162.592 59.3553C162.253 59.326 161.913 59.2967 161.574 59.2674C161.368 59.2966 161.162 59.3258 160.955 59.355C159.862 59.2907 158.769 59.2264 157.676 59.1621C157.607 59.2265 157.537 59.2909 157.468 59.3553C157.162 59.348 156.856 59.3407 156.55 59.3333C156.311 59.2822 156.072 59.231 155.833 59.1798C155.45 59.1896 155.068 59.1994 154.685 59.2091C154.591 59.2462 154.496 59.2832 154.401 59.3202C152.345 59.3629 153.402 59.0097 149.484 59.3202C148.874 59.291 148.265 59.2618 147.655 59.2326C146.967 59.3747 145.677 59.2887 144.636 59.3046C143.903 59.3159 143.943 59.3724 142.943 59.3736C141.943 59.3748 141.979 59.3209 141.901 59.3205C141.086 59.3172 140.471 59.3648 139.873 59.3553C139.783 59.3539 139.557 59.2898 138.795 59.2857C138.033 59.2817 137.573 59.3498 136.438 59.337C135.856 59.3305 135.688 59.2765 135.172 59.2717C132.713 59.2484 130.237 59.5219 128.392 59.1975C127.977 59.2386 124.961 59.3825 123.671 59.3742C121.664 59.361 122.437 59.2974 121.639 59.2857C121.524 59.284 120.913 59.3055 119.229 59.3016C118.928 59.3009 118.998 59.3368 118.955 59.3373C116.992 59.3366 113.18 59.3082 111.024 59.3031C110.831 59.3026 109.822 59.4027 108.114 59.268C105.581 59.3675 100.81 59.1537 97.47 59.3037C97.0069 59.3069 96.4447 59.2711 96.2397 59.2723C94.4732 59.2834 95.1206 59.3921 91.1286 59.2329C91.4518 59.2884 90.5179 59.3385 89.1985 59.3342C87.2148 59.3279 88.6239 59.2245 87.0295 59.2329C87.0295 59.2621 87.0295 59.2913 87.0295 59.3205C83.3619 59.242 82.6322 59.3668 78.9519 59.3675C77.628 59.3677 75.6726 59.303 75.357 59.3028C75.2349 59.303 73.7871 59.3734 73.6489 59.3739C72.8702 59.376 72.4305 59.3436 71.7583 59.3434C69.537 59.3427 66.8863 59.4343 67.3658 59.268C66.7551 59.3031 66.1443 59.3382 65.5336 59.3733C63.2261 59.1958 61.5006 59.4405 61.0169 59.268C60.6043 59.3036 60.1917 59.3392 59.7791 59.3748C49.8824 59.3568 39.9856 59.3388 30.0888 59.3208C29.6954 59.3763 25.3797 59.3566 25.1583 59.348C24.1421 59.3089 25.2155 59.1879 23.1417 59.2155C22.9122 59.2685 22.6827 59.3215 22.4532 59.3745C19.8467 59.3918 21.1004 59.339 20.0717 59.3031C19.6418 59.3097 19.7806 59.3508 19.1988 59.3538C16.2944 59.3688 10.5819 59.3717 7 59.3747C6.50936 59.3751 6.04061 59.3186 5.61202 59.2234C4.53483 58.943 4.72515 58.905 4.40552 58.7833C3.5482 58.4345 1.89013 57.3419 1.14137 55.5448C0.801768 54.7666 0.612561 53.8887 0.614064 53C0.61793 45.7763 0.644176 36.2831 0.681931 29.3952C0.684749 28.891 0.730604 28.8286 0.732894 28.4884C0.735874 28.017 0.698808 26.9639 0.702682 26.4681C0.706206 26.001 0.741034 25.7018 0.7451 25.2021C0.764123 22.9151 0.70528 19.8402 0.807965 17.3934C0.816627 17.1876 1.00123 14.624 1.01334 14.566C1.0852 14.2258 1.1981 16.504 1.30325 12.762C1.39501 16.1064 1.55723 15.0616 1.63649 10.7172C1.65694 12.8962 1.67738 15.0752 1.69783 17.2542C1.71706 17.2573 1.73628 17.2605 1.75551 17.2636C1.85079 15.28 1.8825 13.312 1.89131 10.2958C1.90911 10.3898 1.92691 10.4839 1.94471 10.578C2.03365 13.242 2.0501 16.4557 2.17145 18.4845C2.26127 15.5091 2.35109 12.5337 2.44091 9.55837C2.45495 9.70698 2.46899 9.8556 2.48302 10.0042C2.51948 11.4305 2.54089 14.546 2.57488 15.7304C2.7045 20.2543 2.67188 11.7711 2.75096 13.1645C2.74811 17.9408 2.74526 22.7171 2.74241 27.4933C2.80065 27.6608 2.9615 9.28633 3.1373 9.4756C3.1491 10.9768 3.1609 12.4779 3.1727 13.9791C3.21736 13.31 3.26201 12.641 3.30667 11.9719C3.32081 12.1562 3.33495 12.3406 3.34909 12.525C3.38377 15.0576 3.41846 17.5903 3.45315 20.1229C3.41828 12.4228 3.44359 8.84442 3.79524 7C3.80419 7.20881 3.81314 7.41762 3.82209 7.62642C3.60211 9.29454 3.67326 17.1686 3.71712 21.3532C3.78156 20.5003 3.73177 16.8157 3.77052 16.0371C3.78163 15.8164 3.82636 16.5859 3.84925 16.0747C3.90878 14.7386 3.98538 9.04514 4.05829 9.87253C4.10514 10.4053 4.16942 19.5662 4.16449 21.3532C4.24868 17.1646 4.27303 12.8488 4.37536 8.64789C4.51802 11.2996 4.69261 13.648 4.70036 18.4882C4.77522 19.9635 4.87891 9.71708 4.91978 9.47936C4.96362 11.2527 5.00746 13.026 5.0513 14.7993C5.03961 13.2994 5.02791 11.7995 5.01621 10.2995C5.03086 10.2952 5.04551 10.2908 5.06015 10.2864C5.12814 14.1718 5.25293 17.7265 5.24447 22.1734C5.32197 22.03 5.31426 19.3692 5.31497 18.0781ZM57.2359 0.907144C57.1461 0.842886 58.7766 0.853421 59.6946 0.854655C59.5566 0.842957 59.4186 0.831259 59.2807 0.819561C61.2398 0.831714 64.8867 0.856374 65.022 0.731673C66.4195 0.716175 65.8016 0.824615 66.2523 0.836956C66.4285 0.841887 68.2526 0.778778 69.7117 0.855571C70.0585 0.855266 70.4052 0.85496 70.752 0.854655C70.8191 0.813763 70.8862 0.772871 70.9533 0.731978C71.4367 0.781619 71.9202 0.831259 72.4037 0.880899C67.3502 0.889647 62.2968 0.898396 57.2434 0.907144C57.2409 0.907144 57.2384 0.907144 57.2359 0.907144ZM107.608 0.85435C109.448 0.877423 112.267 0.913855 111.697 0.801861C110.535 0.807761 109.372 0.813661 108.21 0.819561C108.009 0.831157 107.808 0.842754 107.608 0.85435ZM157.891 59.0575C156.354 58.9472 154.939 59.0426 152.561 59.0227C152.565 59.046 152.568 59.0693 152.571 59.0926C153.543 59.0366 156.113 59.0738 157.891 59.0575ZM11.5727 1.32858C11.2341 1.31993 10.8955 1.31129 10.5569 1.30264C11.9341 1.17741 12.1805 1.26566 13.7379 1.25351C13.8319 1.25275 13.7992 1.22408 13.832 1.22391C14.2131 1.22197 14.5656 1.25648 14.9099 1.25595C15.5739 1.25489 16.1152 1.21993 17.2914 1.22116C18.201 1.22223 18.2095 1.27719 18.5292 1.27578C18.8016 1.27443 21.5007 1.12322 23.2378 1.18851C26.5412 1.31286 12.581 1.3402 11.5727 1.32858ZM1.4273 5.48152C1.55091 5.02495 1.73117 4.58428 1.96218 4.17239C1.41476 5.52297 2.49455 2.6679 4.53747 1.85113C4.53508 1.90326 3.47985 2.36332 2.63334 3.41456C1.74997 4.43504 1.31439 6.03661 1.36398 7C1.31757 6.50222 1.33689 5.98978 1.4273 5.48152ZM43.0952 1.39877C41.8169 1.40702 42.0299 1.3059 42.0832 1.27578C42.4901 1.27578 42.8971 1.27578 43.3041 1.27578C43.2344 1.31678 43.1649 1.35777 43.0952 1.39877ZM33.4806 1.43386C33.8782 1.36517 36.6534 1.33513 37.9691 1.32949C38.0265 1.32948 37.6652 1.36718 38.5955 1.36367C38.8749 1.36257 41.6231 1.2254 41.0184 1.38107C38.5071 1.39867 35.9958 1.41626 33.4844 1.43386C33.4832 1.43386 33.4819 1.43386 33.4806 1.43386ZM30.6777 1.39327C31.2007 1.37171 31.7236 1.35014 32.2466 1.32858C32.5169 1.36082 32.7871 1.39307 33.0574 1.42532C32.4623 1.43345 31.8673 1.44159 31.2722 1.44973C31.074 1.43091 30.8759 1.41209 30.6777 1.39327ZM24.4284 58.5152C24.5501 58.5497 24.6717 58.5841 24.7934 58.6186C25.2647 58.6398 27.5561 58.4896 26.8307 58.4606C26.0299 58.4788 25.2292 58.497 24.4284 58.5152ZM14.7518 58.4429C14.2752 58.4255 13.7987 58.4081 13.3221 58.3907C12.7741 58.4492 12.226 58.5076 11.678 58.5661C14.0587 58.6056 16.5918 58.651 16.1833 58.4786C16.7282 58.4786 17.2731 58.4786 17.8181 58.4786C17.3592 58.5499 17.4209 58.5734 18.8471 58.6186C19.159 58.5194 20.6336 58.57 22.3215 58.5481C21.0938 58.5423 19.866 58.5365 18.6382 58.5307C18.6382 58.5132 18.6382 58.4957 18.6382 58.4783C21.3749 58.4846 17.9736 58.3736 16.1909 58.4432C16.0504 58.4199 15.9099 58.3966 15.7695 58.3733C15.4302 58.3965 15.091 58.4197 14.7518 58.4429ZM200.478 41.7225C200.461 42.0617 200.443 42.4009 200.425 42.7402C200.655 44.0548 200.437 41.3783 200.619 39.4726C200.481 40.1021 200.487 37.1971 200.477 37.0309C200.431 37.3651 200.385 37.6993 200.338 38.0335C200.385 39.2632 200.432 40.4928 200.478 41.7225ZM200.32 51.3389C200.372 50.8086 200.401 51.6921 200.416 53C200.62 55.2787 198.304 57.7809 196.862 58.0872C196.379 58.2734 195.538 58.3835 195 58.3577C194.903 58.3549 194.818 58.3537 194.752 58.3553C194.546 58.3785 194.339 58.4017 194.133 58.4248C193.889 58.3447 190.103 58.4348 188.612 58.4779C188.472 58.4488 188.331 58.4196 188.191 58.3904C187.647 58.402 187.103 58.4136 186.56 58.4252C186.628 58.3961 186.696 58.367 186.765 58.3379C186.353 58.3729 185.942 58.4079 185.531 58.4429C183.916 58.4818 184.912 58.3232 183.698 58.3727C182.35 58.4276 184.56 58.5221 184.519 58.5835C185.613 58.5677 188.101 58.5322 189.212 58.5304C189.85 58.5295 189.127 58.6396 191.876 58.513C192.478 58.5425 193.081 58.572 193.684 58.6015C194.122 58.5829 194.561 58.5643 195 58.5457C195.921 58.5192 196.837 58.2554 197.622 57.7912C197.888 57.6915 198.15 57.5697 198.403 57.4267C198.759 57.5076 200.561 54.4289 200.253 54.5144C200.386 54.1345 200.506 53.6154 200.518 53C200.551 51.8706 200.559 50.3237 200.562 48.7185C200.54 48.5028 200.518 48.2871 200.496 48.0714C200.544 50.2388 200.472 48.761 200.43 49.407C200.405 49.78 200.357 50.9209 200.32 51.3389ZM39.5285 58.4258C35.8891 58.5253 38.1424 58.4432 34.2086 58.4432C34.4832 58.4958 34.7579 58.5485 35.0325 58.6012C36.9666 58.505 40.1491 58.569 39.5322 58.4258C39.531 58.4258 39.5297 58.4258 39.5285 58.4258ZM1.41643 53.4432C1.59988 54.893 1.90821 55.1917 2.11308 55.5873C2.381 55.9398 2.55645 56.5573 4.04058 57.59C4.04201 57.5909 4.04345 57.5918 4.04489 57.5928C2.51089 56.6137 1.534 54.8164 1.55643 53C1.55657 52.968 1.5567 52.936 1.55684 52.904C1.54464 52.936 1.53244 52.968 1.52023 53C1.47986 53.1453 1.44507 53.2919 1.41643 53.4432ZM122.728 58.5371C124.724 58.56 124.331 58.519 126.143 58.6009C128.839 58.5016 126.556 58.5156 126.556 58.4255C125.94 58.4519 125.324 58.4784 124.707 58.5048C123.213 58.4205 124.63 58.378 124.63 58.3699C124.629 58.3699 124.628 58.3699 124.626 58.3699C124.626 58.3428 124.675 58.3372 124.101 58.3208C123.644 58.3929 123.186 58.465 122.728 58.5371ZM131.271 58.4258C130.586 58.4856 130.278 58.5625 132.078 58.6009C132.079 58.6009 132.08 58.6009 132.081 58.6009C132.226 58.4671 133.951 58.5751 134.738 58.5661C134.944 58.5516 135.15 58.537 135.356 58.5225C133.994 58.4903 132.633 58.458 131.271 58.4258ZM161.369 58.3028C161.377 58.4506 159.867 58.4647 161.992 58.6009C162.404 58.5983 162.817 58.5956 163.23 58.593C163.5 58.5605 163.771 58.5281 164.042 58.4956C169.276 58.7632 170.836 58.3076 161.992 58.4779C161.99 58.478 161.989 58.4781 161.988 58.4783C161.782 58.4198 161.575 58.3613 161.369 58.3028ZM152.151 58.3153C152.085 58.3929 152.018 58.4705 151.952 58.5481C150.796 58.3609 149.303 58.5396 147.037 58.4075C146.831 58.4311 146.626 58.4547 146.421 58.4783C145.574 58.4263 137.254 58.4114 139.057 58.5307C139.844 58.5829 141.558 58.5121 141.705 58.5136C142.205 58.5195 142.857 58.5862 143.701 58.5823C144.189 58.58 145.217 58.5016 146.213 58.5017C148.438 58.5021 152.5 58.7125 155.426 58.5133C155.637 58.5367 155.848 58.5601 156.059 58.5835C158.23 58.5693 157.505 58.4951 159.526 58.5835C160.921 58.2149 151.404 58.6017 153.385 58.3028C153.384 58.3028 153.383 58.3028 153.382 58.3028C152.972 58.3069 152.562 58.3111 152.151 58.3153ZM92.3626 58.4258C92.2315 58.3596 89.7128 58.4617 90.3046 58.3031C89.4826 58.3583 88.6605 58.4136 87.8384 58.4688C87.8447 58.4835 87.851 58.4983 87.8573 58.513C88.6743 58.5014 89.4914 58.4898 90.3084 58.4783C90.3115 58.5016 90.3147 58.525 90.3178 58.5484C91.5353 58.4638 96.6164 58.5007 96.4617 58.5835C96.7332 58.5485 97.0047 58.5135 97.2762 58.4786C99.7066 58.5738 101.798 58.4725 104.445 58.5655C104.65 58.5365 104.855 58.5075 105.06 58.4786C105.194 58.502 105.328 58.5253 105.461 58.5487C106.426 58.5517 107.39 58.5546 108.354 58.5576C111.497 58.4634 105.391 58.3414 104.65 58.3553C104.552 58.3572 104.567 58.4178 103.952 58.4273C102.861 58.444 96.7487 58.3837 94.8589 58.4236C94.8426 58.3834 94.8263 58.3433 94.81 58.3031C93.9942 58.344 93.1784 58.3849 92.3626 58.4258ZM173.047 58.4609C173.185 58.5017 173.323 58.5426 173.461 58.5835C175.842 58.5427 177.341 58.5784 176.731 58.4432C176.729 58.4432 176.728 58.4432 176.727 58.4432C175.5 58.4491 174.274 58.455 173.047 58.4609ZM98.5912 1.50435C98.6537 1.58564 99.7918 1.61603 101.262 1.55776C101.192 1.53416 101.121 1.51056 101.05 1.48696C100.283 1.55618 99.327 1.43553 96.9621 1.45156C96.9621 1.49245 96.9621 1.53335 96.9621 1.57424C97.5052 1.55094 98.0482 1.52765 98.5912 1.50435ZM170.993 58.4432C170.267 58.3949 168.231 58.5412 169.571 58.5484C170.596 58.5539 171.382 58.469 170.993 58.4432ZM1.47811 45.1292C1.46957 45.6672 1.46102 46.2052 1.45248 46.7432C1.48727 47.0235 1.52205 47.3038 1.55684 47.5841C1.55684 47.5828 1.55684 47.5816 1.55684 47.5803C1.5306 46.7633 1.50435 45.9462 1.47811 45.1292ZM115.905 58.5439C117.73 58.5388 119.555 58.5337 121.379 58.5286C121.398 58.5059 121.416 58.4832 121.434 58.4606C119.606 58.5433 118.871 58.4541 118.445 58.4487C118.447 58.4487 118.449 58.4487 118.45 58.4487C117.082 58.4307 115.778 58.4175 114.483 58.3904C114.957 58.4415 115.431 58.4927 115.905 58.5439ZM109.65 58.4007C109.958 58.561 110.359 58.5797 113.163 58.467C113.052 58.4472 112.941 58.4275 112.83 58.4078C111.377 58.4196 110.53 58.4566 110.785 58.373C110.407 58.3822 110.029 58.3915 109.65 58.4007ZM138.225 58.452C137.889 58.401 135.219 58.4522 135.364 58.4779C135.421 58.4882 138.881 58.552 138.225 58.452ZM78.3218 1.53975C78.9369 1.55145 79.5521 1.56315 80.1672 1.57485C79.3489 1.59224 78.5306 1.60964 77.7123 1.62703C77.9155 1.59794 78.1186 1.56885 78.3218 1.53975ZM71.5684 1.76771C71.1299 1.74728 72.5556 1.60318 69.9337 1.566C71.8418 1.56295 73.7499 1.55989 75.6581 1.55684C74.7632 1.58014 73.8684 1.60343 72.9736 1.62673C73.1298 1.66813 73.2859 1.70953 73.4421 1.75093C72.8175 1.75652 72.193 1.76212 71.5684 1.76771ZM69.5198 1.66213C70.5474 1.77165 65.1367 1.77988 64.6326 1.76649C64.5203 1.76331 63.9865 1.68028 63.7898 1.66243C64.6069 1.66233 65.424 1.66223 66.241 1.66213C65.9676 1.63598 65.6942 1.60984 65.4208 1.5837C66.377 1.57475 67.3333 1.56579 68.2896 1.55684C67.8807 1.58309 67.4719 1.60933 67.0631 1.63558C67.882 1.64443 68.7009 1.65328 69.5198 1.66213ZM91.2284 1.63558C90.5443 1.63283 89.8602 1.63008 89.176 1.62734C89.3127 1.66823 89.4494 1.70912 89.5861 1.75001C89.9956 1.75001 90.4051 1.75001 90.8145 1.75001C90.9525 1.71187 91.0904 1.67372 91.2284 1.63558ZM77.289 1.68837C78.285 1.49148 80.9992 1.92192 77.827 1.76253C77.5074 1.74632 77.1947 1.70739 77.289 1.68837ZM62.6047 1.74299C60.4775 1.88654 60.9576 1.56961 62.9659 1.66243C63.0668 1.66737 62.7644 1.73239 62.6047 1.74299ZM46.6563 1.74757C46.484 1.74651 46.1828 1.64389 44.5381 1.74147C44.2666 1.72977 43.9951 1.71807 43.7236 1.70637C44.3589 1.6587 49.7944 1.63033 49.0435 1.73201C48.2115 1.73359 47.5169 1.75074 46.6563 1.74757ZM51.9198 2.1272C52.7355 2.12435 53.5513 2.1215 54.3671 2.11865C54.0981 2.08651 53.8291 2.05437 53.5601 2.02222C53.9614 2.01347 54.3628 2.00473 54.7641 1.99598C55.45 2.05142 56.136 2.10685 56.822 2.16229C55.0488 2.17114 53.2754 2.17999 51.5021 2.18884C51.6413 2.16829 51.7805 2.14775 51.9198 2.1272ZM73.6095 2.20654C72.0398 2.16621 70.1165 2.20914 67.5672 2.20227C67.5659 2.20217 67.5647 2.20207 67.5634 2.20196C67.4363 2.2015 67.2109 2.15734 66.8016 2.15558C66.4528 2.15417 59.5678 2.20266 60.1047 2.12781C62.7686 2.06071 63.7637 2.16272 64.4031 1.99628C64.5329 2.03138 64.6627 2.06647 64.7925 2.10157C67.3541 2.16233 68.085 2.04084 69.5236 1.99628C69.518 2.02273 69.5123 2.04918 69.5067 2.07563C70.4673 2.07827 71.428 2.08092 72.3886 2.08356C72.2532 2.06617 72.1177 2.04877 71.9823 2.03138C72.3221 2.03138 72.662 2.03138 73.0019 2.03138C73.8297 2.10975 74.8794 2.12801 73.6095 2.20654ZM48.2195 2.08356C47.4654 2.28417 40.1163 2.14676 36.7595 2.18884C38.5219 2.06805 41.2522 2.1513 43.1743 2.15253C46.8901 2.15481 44.3215 2.08088 44.9519 2.04847C45.2634 2.03244 47.3711 2.16106 48.2195 2.08356ZM79.3432 2.17145C77.4907 2.15524 76.4536 2.20143 74.851 2.12781C74.9852 2.11316 75.1194 2.09851 75.2536 2.08387C75.8025 2.09727 80.2771 2.13958 79.3432 2.17145ZM31.8403 2.13635C35.4183 2.20839 33.6534 2.02675 35.5142 2.1629C34.2896 2.17155 33.0649 2.1802 31.8403 2.18884C31.8403 2.17135 31.8403 2.15385 31.8403 2.13635ZM166.898 57.6885C165.39 57.6839 163.706 57.6473 162.804 57.723C163.829 57.7347 164.854 57.7464 165.878 57.7581C166.218 57.7349 166.558 57.7117 166.898 57.6885ZM198.949 44.3862C198.931 44.7305 198.984 46.0919 198.984 46.2354C198.984 46.5019 198.958 46.4291 198.951 46.4329C198.956 48.1775 199.038 46.568 199.056 47.8588C199.059 48.0795 199.018 51.1119 199.021 52.3454C199.022 52.5642 199.022 52.783 199.023 53C199.057 54.7356 197.814 55.9869 197.302 56.2995C196.811 56.6508 195.986 57.0453 195 57.0562C194.058 57.0721 193.023 57.0879 192.051 57.0894C191.24 57.0906 190.957 57.0415 190.141 57.0427C184.907 57.051 174.604 57.1185 169.96 57.0873C168.813 57.0796 167.719 57.0152 167.112 57.0205C166.634 57.044 166.155 57.0675 165.677 57.091C164.206 56.8794 163.713 57.0676 162.127 57.0873C161.12 57.0998 160.648 57.0371 160.513 57.0373C159.616 57.0385 159.173 57.0683 158.468 57.0733C157.677 57.0787 156.541 57.0505 156.258 57.0556C156.084 57.059 156.639 57.1423 153.57 57.1407C150.442 57.1391 147.354 57.1303 144.173 57.1264C145.234 57.3779 146.148 57.2057 147.447 57.1966C147.795 57.1941 147.574 57.234 147.877 57.2323C148.734 57.2275 150.374 57.1883 151.083 57.1978C151.848 57.208 151.587 57.3006 152.558 57.2664C152.607 57.2647 152.452 57.2265 152.68 57.2201C154.975 57.1568 155.726 57.2233 158.628 57.2252C160.551 57.2266 172.227 57.1887 172.628 57.2136C174.718 57.3475 162.414 57.3484 160.976 57.3378C160.472 57.3341 161 57.2919 160.541 57.2838C160.347 57.2806 158.598 57.3611 156.869 57.3678C154.779 57.3759 150.579 57.321 148.587 57.3229C131.463 57.3396 114.577 57.291 97.47 57.2899C97.1052 57.2899 96.6249 57.3381 95.4364 57.3382C73.2551 57.3373 50.2655 57.2993 27.8014 57.322C22.9038 57.3269 18.0465 57.3722 13.1039 57.3363C12.4906 57.3715 11.8774 57.4067 11.2641 57.4419C12.8327 57.4139 15.7071 57.4935 15.9689 57.4947C16.0631 57.4951 16.6579 57.4554 17.6168 57.4575C18.9652 57.4603 19.5566 57.4947 19.6672 57.4947C20.0102 57.4948 19.7855 57.4582 20.1131 57.4584C22.5558 57.46 24.4458 57.4496 26.6877 57.4492C29.2202 57.4489 30.5039 57.5171 32.3481 57.4422C32.5569 57.4714 32.7657 57.5006 32.9745 57.5298C34.3525 57.4035 42.5574 57.4175 45.8811 57.4242C46.9298 57.4263 46.7458 57.4776 47.0983 57.4776C47.3232 57.4775 47.2345 57.4104 49.9783 57.4236C51.3595 57.4303 51.7217 57.4792 52.4144 57.4776C52.7908 57.4767 52.7296 57.4282 53.2703 57.4282C56.3973 57.4282 58.9507 57.4439 62.0121 57.4529C62.8728 57.4554 62.8823 57.4958 63.0749 57.4953C63.7841 57.4935 65.0176 57.4249 66.8203 57.4251C69.7876 57.4255 75.7015 57.4257 78.1279 57.459C78.4845 57.4639 78.7799 57.5125 79.0422 57.5118C79.4393 57.5105 79.5951 57.4599 79.6648 57.4596C80.9927 57.4587 80.1938 57.5058 81.0832 57.4944C81.5626 57.4882 82.0626 57.4304 83.1769 57.4239C84.6483 57.4153 84.3587 57.4839 84.9734 57.477C85.0384 57.4759 85.0578 57.4282 85.6619 57.4266C87.953 57.421 91.2764 57.41 93.4443 57.4102C94.0671 57.4102 94.5303 57.4423 95.3988 57.4428C97.1489 57.4439 107.096 57.4234 107.912 57.4419C107.998 57.4438 107.114 57.5142 108.524 57.5121C108.933 57.4828 109.343 57.4535 109.752 57.4242C110.437 57.4711 111.121 57.518 111.806 57.5649C111.782 57.4029 115.81 57.3778 115.77 57.5435C116.211 57.5502 116.651 57.557 117.092 57.5637C118.01 57.4492 118.621 57.4915 120.396 57.4242C120.672 57.4593 120.949 57.4944 121.225 57.5295C121.295 57.5061 121.364 57.4827 121.434 57.4593C122.381 57.5861 123.934 57.4588 124.122 57.4581C124.847 57.4553 125.392 57.4875 125.732 57.4865C127.003 57.4831 129.753 57.4387 131.237 57.4593C131.306 57.4604 131.238 57.5146 131.66 57.5212C132.421 57.5333 132.496 57.454 133.511 57.5472C133.716 57.5238 133.921 57.5004 134.126 57.477C134.344 57.4891 134.561 57.5012 134.779 57.5133C136.063 57.5071 137.347 57.5009 138.632 57.4947C137.463 57.5865 138.808 57.6377 140.078 57.5655C140.508 57.541 140.127 57.4852 140.27 57.4767C140.467 57.4652 146.23 57.4937 146.611 57.5298C146.884 57.5122 147.157 57.4946 147.43 57.477C147.568 57.5122 147.706 57.5474 147.844 57.5826C147.994 57.5703 148.145 57.558 148.295 57.5457C149.795 57.6077 153.688 57.4655 154.394 57.4767C154.771 57.4827 154.432 57.6327 156.239 57.6174C156.302 57.5762 156.365 57.535 156.427 57.4938C156.841 57.4879 157.255 57.482 157.669 57.4761C158.445 57.4798 159.576 57.5512 159.612 57.6C159.855 57.5707 160.097 57.5414 160.34 57.5121C160.992 57.6075 164.467 57.5737 165.865 57.5133C166.274 57.5421 166.683 57.5709 167.092 57.5997C167.641 57.5647 168.19 57.5297 168.739 57.4947C170.012 57.4842 168.668 57.5423 168.939 57.5472C169.513 57.5572 172.437 57.459 172.244 57.5814C172.643 57.5817 173.042 57.582 173.44 57.5823C173.645 57.5473 173.851 57.5123 174.056 57.4773C174.74 57.5979 175.925 57.5554 178.354 57.5994C178.558 57.5716 178.762 57.5438 178.965 57.5161C179.717 57.5555 180.468 57.595 181.219 57.6345C181.373 57.5885 181.528 57.5425 181.682 57.4965C182.008 57.4899 182.335 57.4833 182.662 57.4767C183.326 57.5797 184.517 57.4684 185.124 57.5109C186.01 57.5729 185.325 57.6467 183.681 57.661C183.804 57.736 188.7 57.7016 189.829 57.6961C189.754 57.6815 189.68 57.6668 189.605 57.6522C188.451 57.6638 187.296 57.6754 186.142 57.687C185.175 57.4983 188.31 57.5489 189.748 57.5246C189.88 57.5223 190.625 57.4508 192.075 57.4575C192.564 57.4598 194.286 57.5392 195 57.5636C195.122 57.5672 195.217 57.5649 195.279 57.562C197.21 57.3381 197.334 56.856 197.544 56.7773C197.687 56.583 198.105 56.6549 199.121 55.0444C198.721 55.5347 199.542 54.6031 199.564 53C199.567 52.578 199.568 52.1196 199.563 51.6569C199.56 51.3206 199.479 48.469 199.477 48.2764C199.464 47.0756 199.552 48.3828 199.529 46.6455C199.506 46.4366 199.483 46.2278 199.459 46.019C199.459 45.6146 199.459 45.2101 199.459 44.8057C199.667 42.3514 199.514 41.7805 199.494 40.9079C199.486 40.5554 199.541 41.0092 199.529 40.0953C199.525 39.7511 199.48 39.3695 199.477 38.4436C199.467 35.5463 199.66 34.5628 199.459 31.8991C199.488 31.4902 199.517 31.0814 199.546 30.6726C199.511 30.3967 199.476 30.1208 199.442 29.8449C199.543 27.7346 199.439 28.4965 199.44 27.7342C199.444 25.7217 199.463 21.603 199.547 21.2423C199.355 19.5049 199.571 17.4275 199.564 16.7426C199.541 16.3356 199.517 15.9287 199.494 15.5217C199.517 15.0433 199.541 14.5649 199.564 14.0864C199.376 14.319 199.561 11.8411 199.564 11.6033C199.566 11.3754 199.528 8.71039 199.516 7C199.514 6.60503 199.46 6.25726 199.399 5.9923C199.235 4.24892 196.721 2.57721 196.436 2.66627C196.323 2.63176 195.774 2.44485 195 2.4555C194.079 2.46984 192.819 2.48668 191.733 2.48638C190.083 2.48583 180.31 2.41312 180.926 2.49706C181.565 2.52031 182.475 2.54046 183.262 2.55138C184.668 2.57064 190.016 2.59302 195 2.6111C197.663 2.56553 199.496 5.12347 199.367 7C199.364 8.012 199.361 8.84865 199.359 9.42302C199.332 16.7714 199.337 24.4352 199.319 31.8163C199.318 32.2506 199.269 32.3166 199.268 32.6892C199.267 33.2548 199.315 34.6901 199.314 35.2475C199.31 37.3295 199.302 39.8628 199.301 40.9775C199.298 43.469 199.269 45.178 199.264 47.0631C199.263 47.6532 199.323 50.6369 199.298 52.6821C199.294 52.7881 199.29 52.894 199.286 53C199.276 53.2832 199.239 53.5649 199.174 53.8392C199.214 53.6229 199.25 53.3338 199.245 53C199.226 51.7126 199.198 49.7251 199.194 48.694C199.188 46.7848 199.227 45.789 199.226 45.0841C199.226 44.494 199.181 41.478 199.18 40.1047C199.179 39.6784 199.231 39.5909 199.23 39.2262C199.229 37.2467 199.228 34.6395 199.178 32.9224C199.194 33.6233 199.225 29.2467 199.225 29.0171C199.225 28.6238 199.177 28.1969 199.177 27.3937C199.177 25.8492 199.278 26.045 199.177 24.1149C199.207 23.637 199.236 23.1592 199.265 22.6814C199.131 22.652 199.313 16.6144 199.151 14.8972C199.132 14.8521 199.08 22.6979 199.078 23.3455C199.062 27.2306 199.095 32.9801 199.071 36.7506C199.064 37.8854 198.983 41.4533 198.984 41.7225C198.987 42.1566 199.033 41.7644 199.035 41.952C199.069 45.791 198.976 43.8757 198.949 44.3862ZM69.5236 2.29443C70.6899 2.29992 71.8562 2.30542 73.0225 2.31091C72.9379 2.34021 72.8533 2.3695 72.7686 2.3988C72.2344 2.3874 71.7001 2.37601 71.1659 2.36462C70.7551 2.38211 70.3444 2.39961 69.9337 2.41711C69.797 2.37621 69.6603 2.33532 69.5236 2.29443ZM66.6492 2.41711C65.6378 2.43186 65.5884 2.37008 65.355 2.36706C64.6583 2.3579 64.0558 2.38288 63.3797 2.38201C64.1585 2.23526 65.8172 2.30252 66.6492 2.41711ZM87.5394 2.4699C87.3114 2.46288 85.789 2.3049 84.0574 2.4519C82.7619 2.40521 81.4664 2.35852 80.171 2.31182C82.3718 2.38316 85.4175 2.30901 86.4954 2.31182C86.9048 2.3129 86.9828 2.36139 87.3099 2.36218C89.1953 2.36605 91.0282 2.25617 91.2208 2.4168C89.438 2.37013 87.8304 2.47853 87.5394 2.4699ZM76.1622 2.41283C75.8606 2.37927 75.559 2.3457 75.2574 2.31213C76.3472 2.31213 77.437 2.31213 78.5268 2.31213C78.2321 2.34611 77.9374 2.38008 77.6427 2.41406C77.1492 2.41365 76.6557 2.41324 76.1622 2.41283ZM160.003 2.52392C159.331 2.52351 158.659 2.5231 157.987 2.52269C158.024 2.54716 158.793 2.54706 159.076 2.56359C159.075 2.56359 159.074 2.56359 159.072 2.56359C159.388 2.58226 159.253 2.61376 159.827 2.62767C159.886 2.59309 159.944 2.5585 160.003 2.52392ZM10.4496 57.3369C10.0746 57.3363 8.67201 57.3359 7 57.3389C4.4103 57.51 2.41107 54.5479 2.62394 53C2.61185 52.2709 2.59615 51.8853 2.57579 52.0875C2.56393 52.2065 2.55798 52.546 2.55562 53C2.38871 54.4695 3.92045 56.4997 4.73937 56.8112C5.20692 57.099 6.05786 57.4523 7 57.4505C8.54011 57.4638 10.219 57.4605 10.4496 57.3369ZM2.68047 44.3052C2.59156 44.1249 2.57741 50.6278 2.59288 51.2636C2.60556 51.1286 2.63378 50.9205 2.64018 50.7406C2.67083 49.8636 2.65616 45.7071 2.68047 44.3052ZM197.593 3.67123C197.185 3.29557 196.695 2.99527 196.156 2.80088C196.285 2.89706 196.407 2.99919 196.52 3.10617C196.901 3.24031 197.264 3.43126 197.593 3.67123ZM199.089 54.2817C198.564 56.0278 196.823 57.3098 195 57.2822C187.956 57.2799 180.913 57.2776 173.869 57.2753C174.637 57.251 175.406 57.2267 176.174 57.2024C182.344 57.2094 188.851 57.2272 195 57.2128C196.428 57.222 197.796 56.4405 198.527 55.2773C198.756 54.9762 198.946 54.6409 199.089 54.2817ZM90 2.73326C92.2376 2.73413 94.1064 2.69117 96.5408 2.7595C94.221 2.82573 93.0725 2.72327 90.8183 2.82084C90.817 2.82084 90.8158 2.82084 90.8145 2.82084C90.543 2.79165 90.2715 2.76245 90 2.73326ZM139.956 2.75096C139.276 2.79185 138.595 2.83274 137.915 2.87364C138.733 2.87364 139.552 2.87364 140.37 2.87364C140.232 2.83274 140.094 2.79185 139.956 2.75096ZM123.893 57.0565C121.552 57.1457 115.565 56.9842 113.663 57.0916C113.54 57.0986 114.671 57.1439 112.843 57.2316C114.224 57.2137 115.198 57.1954 115.301 57.1264C115.712 57.1498 116.122 57.1732 116.532 57.1966C117.212 57.1789 117.892 57.1612 118.573 57.1435C118.499 57.2121 118.553 57.2085 119.598 57.1615C120.075 57.1789 120.551 57.1962 121.028 57.2136C121.23 57.1845 121.431 57.1555 121.633 57.1264C122.046 57.1671 122.459 57.2077 122.871 57.2484C124.479 57.2043 123.5 57.1255 123.893 57.0565ZM132.085 57.0733C131.705 57.0581 120.854 57.1075 125.785 57.2445C127.067 57.2401 128.349 57.2357 129.63 57.2313C128.569 57.0045 132.062 57.2074 132.348 57.2121C133.721 57.2343 135.47 57.1803 136.466 57.1831C137.323 57.1856 137.832 57.2263 138.434 57.2252C140.486 57.2217 143.727 57.2202 144.173 57.1264C142.578 57.1244 140.958 57.1234 139.299 57.1258C137.545 57.1282 136.003 57.0396 132.708 57.1612C131.893 57.1481 132.183 57.0771 132.085 57.0733ZM135.866 2.86418C135.948 2.76989 131.807 2.79243 131.78 2.82969C131.772 2.85153 133.121 2.85102 133.314 2.85929C133.315 2.85929 133.316 2.85929 133.317 2.85929C133.398 2.86291 132.99 2.899 133.624 2.90904C134.371 2.89408 135.119 2.87913 135.866 2.86418ZM26.6332 57.1261C26.0734 57.0732 13.2849 57.0922 12.9082 57.1175C12.8059 57.1245 12.9486 57.1478 12.9082 57.1612C15.8917 57.0865 20.1329 57.1749 22.9649 57.1807C23.7543 57.1823 23.5184 57.1448 23.5631 57.1441C23.565 57.1441 23.5669 57.1441 23.5688 57.1441C24.0167 57.144 26.0391 57.2355 26.6332 57.1261ZM109.568 57.1346C110.111 57.1494 110.655 57.1641 111.199 57.1789C111.337 57.1497 111.475 57.1205 111.613 57.0913C111.611 57.0913 111.61 57.0913 111.609 57.0913C110.928 57.1057 110.248 57.1202 109.568 57.1346ZM90.7317 57.0385C90.864 57.059 90.9963 57.0796 91.1286 57.1001C92.4974 57.103 93.8663 57.1058 95.2352 57.1087C95.0972 57.1203 94.9593 57.1319 94.8213 57.1435C96.8911 57.1745 97.7482 57.1022 98.8507 57.1126C98.8495 57.1126 98.8482 57.1126 98.847 57.1126C98.9656 57.1138 99.1092 57.1567 99.5505 57.1581C100.562 57.1614 103.463 57.1774 103.813 57.1343C104.555 57.0424 98.7182 57.086 97.6299 57.0818C97.1381 57.0799 96.5464 57.0424 96.2472 57.0415C95.9195 57.0407 95.4729 57.0913 94.6746 57.0897C94.441 57.0892 91.8509 57.0297 90.7317 57.0385ZM66.5701 57.0998C66.9922 57.1461 67.8735 57.1014 68.1973 57.109C68.2746 57.1108 67.6731 57.1495 68.4023 57.1612C68.6086 57.1347 68.8149 57.1083 69.0212 57.0818C68.2042 57.0878 67.3872 57.0938 66.5701 57.0998ZM128.908 2.90873C129.027 2.91867 131.25 2.91503 131.357 2.90873C132.689 2.82419 128.084 2.83335 128.908 2.90873ZM72.7987 3.00547C73.8215 3.12835 61.687 3.00754 60.511 3.01401C60.5698 2.93679 63.4564 3.01443 61.9444 2.90843C63.3872 2.96672 67.3754 2.93577 68.314 2.95267C68.8837 2.96289 69.0275 3.0296 69.1135 3.03171C69.4513 3.03923 72.4381 2.96215 72.7987 3.00547ZM50.4844 2.96152C51.6376 2.97617 52.7907 2.99082 53.9439 3.00547C52.5831 3.01422 51.2225 3.02296 49.8618 3.03171C50.0693 3.00832 50.2769 2.98492 50.4844 2.96152ZM49.0341 2.99662C49.0709 3.07147 45.1567 3.01445 44.128 3.03171C45.2878 2.90438 47.2226 3.02443 49.0341 2.99662ZM114.16 3.1019C115.963 3.15139 116.738 2.92322 114.545 3.02256C114.479 3.02584 114.084 3.09928 114.16 3.1019ZM123.336 56.7354C123.028 56.734 119.204 56.6601 118.983 56.6967C118.283 56.8136 120.792 56.7667 121.633 56.8108C122.99 56.8823 120.995 56.9412 124.307 56.8981C124.171 56.9215 124.036 56.9449 123.9 56.9683C125.838 56.976 125.204 56.814 125.552 56.7931C125.658 56.7868 126.87 56.8004 127.089 56.7901C129.82 56.6595 123.621 56.7365 123.336 56.7354ZM158.801 3.1193C162.392 3.18798 160.847 3.0872 164.531 3.09336C164.654 3.04193 159.269 3.07421 158.801 3.1193ZM158.295 56.8279C154.582 56.8482 151.529 56.7809 148.066 56.8712C148.291 57.0104 159.258 56.8638 158.295 56.8279ZM3.31308 36.1165C3.22079 41.4971 3.17418 47.1852 3.15224 53C3.09148 55.0344 4.92909 56.91 7 56.8628C14.8069 56.8721 22.7231 56.8512 30.3259 56.8493C32.0022 56.8489 32.1629 56.9041 32.7695 56.8981C33.1668 56.8942 33.0974 56.8498 33.6254 56.8496C52.7123 56.8424 70.9883 56.7842 89.2719 56.8108C90.4235 56.8126 96.0265 56.908 97.2235 56.7641C98.1289 56.655 94.1038 56.7401 93.433 56.7391C92.9289 56.7384 92.9074 56.6871 92.5714 56.6869C92.2149 56.6867 92.5095 56.7218 92.0955 56.7223C90.3414 56.7248 88.4274 56.7111 86.8414 56.7141C71.2875 56.7428 56.1555 56.7346 40.6835 56.7296C38.8107 56.7291 39.1957 56.688 39.1015 56.6878C39.1002 56.6879 39.0989 56.688 39.0977 56.6881C29.0712 56.6843 17.6224 56.7762 7 56.7414C6.98508 56.7413 6.97019 56.7412 6.95531 56.741C4.97854 56.7566 3.2264 54.9635 3.2823 53C3.30273 47.5891 3.32316 42.1783 3.34359 36.7674C3.33342 36.5504 3.32325 36.3335 3.31308 36.1165ZM131.265 56.8804C130.33 56.7254 130.122 56.8817 126.769 56.8185C126.496 56.8449 126.223 56.8713 125.951 56.8978C127.724 56.892 129.497 56.8862 131.271 56.8804C131.269 56.8804 131.267 56.8804 131.265 56.8804ZM109.122 56.8239C108.555 56.6146 101.058 56.7626 97.6825 56.7226C97.0638 56.8278 101.971 56.7805 103.128 56.7916C103.706 56.7971 106.801 56.9052 109.154 56.8453C109.143 56.8382 109.133 56.8311 109.122 56.8239ZM85.4946 3.31308C86.0402 3.30697 86.5857 3.30087 87.1312 3.29477C85.7661 3.27157 84.401 3.24838 83.0359 3.22519C85.2137 3.24014 87.3914 3.25509 89.5692 3.27005C89.1635 3.31348 88.7578 3.35692 88.3521 3.40035C87.3996 3.37126 86.4471 3.34217 85.4946 3.31308ZM92.5602 3.2908C88.7466 3.30716 92.7278 3.19088 93.6795 3.24258C94.2492 3.27358 92.9496 3.28904 92.5602 3.2908ZM102.48 3.36556C100.701 3.44182 97.1067 3.44707 98.3843 3.29477C100.307 3.3661 101.546 3.30683 104.333 3.34786C103.926 3.37706 103.519 3.40625 103.112 3.43545C103.11 3.43545 103.108 3.43545 103.106 3.43545C102.897 3.41215 102.688 3.38886 102.48 3.36556ZM90.8183 3.38296C88.3205 3.29546 95.5519 3.32538 93.2788 3.38296C93.1723 3.3856 90.9167 3.38631 90.8183 3.38296ZM3.47054 52.0875C3.44355 51.9243 3.43147 52.4149 3.42553 53C3.41409 53.4441 3.5287 53.9385 3.61846 54.1837C4.01902 55.4613 5.42917 56.6178 7 56.584C8.47042 56.5814 9.94047 56.5785 11.2679 56.5816C11.0509 56.5653 10.834 56.5489 10.617 56.5325C9.41133 56.5322 8.20566 56.5318 7 56.5315C5.11936 56.5772 3.42332 54.8796 3.47028 53C3.47037 52.6958 3.47046 52.3917 3.47054 52.0875ZM20.2805 56.5819C22.2601 56.5819 24.2397 56.5819 26.2193 56.5819C26.4037 56.5819 27.2691 56.5392 26.6256 56.5288C24.5106 56.5465 22.3955 56.5642 20.2805 56.5819ZM143.761 56.5819C142.244 56.5541 146.614 56.4112 146.418 56.5642C145.532 56.5701 144.647 56.576 143.761 56.5819ZM157.885 56.5209C156.933 56.5355 155.981 56.55 155.03 56.5646C155.028 56.547 155.027 56.5294 155.026 56.5118C155.979 56.5148 156.932 56.5179 157.885 56.5209ZM3.50564 44.3052C3.44542 45.3135 3.45468 47.7188 3.45345 49.2188C3.50519 48.1856 3.47975 45.7231 3.50564 44.3052ZM121.02 56.5203C121.143 56.5613 115.106 56.551 117.196 56.4788C118.471 56.4926 119.745 56.5065 121.02 56.5203ZM108.757 56.4596C110.052 56.4506 111.055 56.4647 110.789 56.5292C110.102 56.5264 109.415 56.5237 108.729 56.5209C108.738 56.5005 108.747 56.48 108.757 56.4596ZM109.25 3.48824C111.432 3.48244 113.614 3.47664 115.796 3.47085C115.715 3.48844 115.635 3.50604 115.554 3.52364C113.45 3.52934 111.346 3.53503 109.242 3.54073C109.245 3.52323 109.247 3.50574 109.25 3.48824ZM3.66371 43.0712C3.65222 41.5725 3.64072 40.0739 3.62923 38.5752C3.61743 40.0751 3.60563 41.575 3.59383 43.0749C3.61722 43.0749 3.64062 43.0749 3.66402 43.0749C3.66392 43.0737 3.66381 43.0724 3.66371 43.0712ZM79.3564 3.7162C86.0227 3.79827 77.5167 3.88502 75.7578 3.76442C75.7559 3.76452 75.754 3.76462 75.7521 3.76472C75.5981 3.75406 75.9238 3.70251 75.6675 3.68172C76.3459 3.70501 77.0244 3.72831 77.7029 3.7516C78.3217 3.72261 78.9407 3.69362 79.5596 3.66463C79.7634 3.67602 79.9672 3.68741 80.171 3.69881C79.8995 3.7046 79.6279 3.7104 79.3564 3.7162ZM52.4521 3.76198C46.4075 3.75246 52.5924 3.62355 55.5842 3.72536C55.5627 3.74891 53.009 3.76286 52.4521 3.76198ZM68.2933 3.73421C69.2458 3.72251 70.1983 3.71081 71.1508 3.69911C71.2725 3.71386 71.3941 3.72861 71.5157 3.74336C70.7846 3.75801 70.0535 3.77266 69.3223 3.7873C68.9793 3.7696 68.6363 3.7519 68.2933 3.73421ZM99.6183 3.96186C101.151 3.97806 103.106 3.81406 98.1849 3.85719C98.1874 3.87479 98.1899 3.89238 98.1924 3.90998C98.3886 3.90717 98.9642 3.89066 98.9957 3.89198C99.0858 3.89638 98.9795 3.95514 99.6183 3.96186ZM41.2592 4.22552C41.0872 4.23222 40.9934 4.41785 39.2031 4.22583C38.662 4.23753 38.1208 4.24922 37.5797 4.26092C37.4399 4.22003 37.3 4.17914 37.1602 4.13825C39.2546 4.16995 39.4766 4.08721 39.6283 4.08545C40.3245 4.07771 39.8092 4.12027 40.2585 4.12085C41.4182 4.12226 44.0536 4.09368 42.8582 4.21515C42.4279 4.25865 41.4314 4.21883 41.2592 4.22552ZM45.3545 4.33111C45.1005 4.31562 45.9188 4.26132 45.727 4.24597C45.5589 4.23259 43.0347 4.17719 43.7179 4.08545C44.1324 4.08932 44.5469 4.09318 44.9613 4.09705C45.1018 4.12217 45.2423 4.1473 45.3827 4.17242C45.784 4.14923 46.1854 4.12604 46.5867 4.10285C47.263 4.16484 48.7021 4.24516 46.993 4.29571C47.6213 4.29042 48.2496 4.28513 48.8779 4.27984C49.2034 4.25014 49.5288 4.22044 49.8542 4.19073C49.6837 4.236 49.5131 4.28127 49.3426 4.32653C48.0132 4.32806 46.6839 4.32959 45.3545 4.33111ZM25.877 4.31372C25.9535 4.29032 26.03 4.26692 26.1065 4.24353C23.799 4.28702 20.2056 4.30356 22.2464 4.15686C25.3723 4.14465 28.4981 4.13245 31.624 4.12024C31.8315 4.13784 32.0391 4.15544 32.2466 4.17303C29.9146 4.10523 30.6353 4.39375 28.6066 4.31097C28.2646 4.29694 29.2571 4.19604 27.1073 4.26062C27.1838 4.28412 27.2603 4.30761 27.3368 4.33111C26.8502 4.32531 26.3636 4.31951 25.877 4.31372ZM6.35198 4.35594C6.61754 4.29519 6.83423 4.28641 7 4.29031C8.07443 4.30929 7.71178 4.33443 7 4.34677C6.51783 4.33578 5.8639 4.58437 5.66656 4.68239C5.66729 4.68197 5.66801 4.68155 5.66874 4.68113C4.6472 5.20306 6.1374 4.0622 7 4.21885C7.24946 4.22257 7.42824 4.22544 7.47556 4.22522C7.82418 4.2235 8.63612 4.08445 10.5324 4.28717C9.35494 4.28493 8.17748 4.28269 7 4.28045C6.78011 4.27982 6.56284 4.30514 6.35198 4.35594ZM18.9393 4.31341C18.6074 4.31799 18.7911 4.28268 18.6477 4.2832C18.6465 4.2832 18.6452 4.2832 18.644 4.2832C16.5291 4.29077 11.4989 4.32239 10.9538 4.20843C12.5193 4.19892 19.5241 4.1743 19.9476 4.25177C19.6115 4.27232 19.2754 4.29286 18.9393 4.31341ZM33.8211 4.22857C35.1195 4.30236 32.1966 4.31218 31.4302 4.27801C31.2855 4.27061 32.476 4.15215 33.8211 4.22857ZM133.415 4.419C136.272 4.37461 132.519 4.33032 133.818 4.26092C133.272 4.26682 132.727 4.27272 132.181 4.27862C132.592 4.32541 133.004 4.37221 133.415 4.419ZM184.912 55.4409C184.246 55.4327 184.561 55.4751 184.504 55.4757C184.066 55.4745 183.654 55.44 183.486 55.4437C180.382 55.5133 182.446 55.5489 182.478 55.5572C182.543 55.5991 181.727 55.6482 182.858 55.696C183.544 55.6812 184.23 55.6663 184.915 55.6515C185.256 55.6748 185.596 55.6981 185.937 55.7214C187.3 55.6714 185.516 55.6577 185.314 55.5914C185.236 55.5653 186.518 55.5341 184.912 55.4409ZM138.534 4.55938C138.997 4.48575 140.132 4.39288 139.017 4.3189C139.016 4.3189 139.015 4.3189 139.014 4.3189C138.807 4.30537 137.968 4.29793 137.71 4.27893C135.871 4.37701 136.575 4.47837 138.534 4.55938ZM196.214 54.965C196.769 54.6442 197.186 54.0765 197.32 53.4413C197.361 53.4604 197.402 53.48 197.443 53.5002C197.359 53.8581 197.194 54.1929 196.964 54.477C196.903 54.5912 196.833 54.7021 196.753 54.8078C197.122 54.5209 197.418 54.122 197.587 53.6608C197.635 53.4447 197.656 53.2231 197.649 53C197.638 52.4476 197.627 51.8951 197.616 51.3427C197.593 51.7497 197.57 52.1566 197.546 52.5636C197.52 50.3995 197.628 50.8707 197.669 49.0797C197.628 48.4664 197.587 47.8532 197.546 47.2399C197.587 46.352 197.628 45.4641 197.669 44.5762C197.65 43.0843 197.619 42.9531 197.572 43.9573C197.519 43.2155 197.603 42.4033 197.581 41.5099C197.579 41.4362 197.529 41.5751 197.528 41.5099C197.494 36.8908 197.627 37.1365 197.632 36.3988C197.636 35.8782 197.547 33.7998 197.516 33.7671C197.475 33.727 197.313 38.0496 197.309 31.2802C197.197 34.78 197.311 38.759 197.475 36.1862C197.459 37.2939 197.5 42.1785 197.495 42.49C197.488 42.944 197.425 42.7847 197.424 43.3534C197.423 43.6895 197.565 44.5799 197.441 47.2399C197.464 47.5798 197.487 47.9196 197.511 48.2595C197.492 48.578 197.472 48.8966 197.453 49.2151C197.385 48.5592 197.316 47.9033 197.247 47.2474C197.313 49.5393 197.212 51.4868 197.268 53C197.276 53.1169 197.277 53.2283 197.276 53.3364C197.122 54.1129 196.792 54.3758 196.936 54.0731C196.825 54.2713 196.683 54.4536 196.517 54.6102C196.431 54.7362 196.329 54.8557 196.214 54.965ZM146.928 4.45409C148.287 4.52254 148.776 4.37487 148.564 4.36651C147.372 4.32056 146.22 4.41848 146.928 4.45409ZM187.38 55.5194C188.88 55.5574 190.38 55.5954 191.88 55.6335C191.88 55.5868 191.88 55.5401 191.88 55.4934C190.38 55.5021 188.88 55.5107 187.38 55.5194ZM132.998 4.52398C132.86 4.48898 132.722 4.45399 132.584 4.419C130.941 4.54682 129.31 4.36343 128.498 4.4013C128.322 4.40957 128.677 4.47136 129.013 4.48461C129.222 4.49289 132.707 4.53578 132.998 4.52398ZM64.6044 4.50719C65.2164 4.48369 65.8284 4.4602 66.4404 4.4367C66.4065 4.47606 66.3727 4.51543 66.3388 4.5548C66.0366 4.56212 65.7343 4.56945 65.4321 4.57677C65.1562 4.55358 64.8803 4.53038 64.6044 4.50719ZM71.5684 4.44463C72.6601 4.44779 73.7518 4.45094 74.8435 4.45409C70.6795 4.4902 74.0968 4.50782 71.5684 4.55907C71.5684 4.52092 71.5684 4.48278 71.5684 4.44463ZM82.6183 4.52428C82.4841 4.54778 82.35 4.57128 82.2158 4.59477C81.1241 4.59477 80.0324 4.59477 78.9407 4.59477C79.6311 4.67636 80.3214 4.75794 81.0118 4.83952C81.4119 4.83972 81.8119 4.83993 82.212 4.84013C82.3475 4.73485 82.4829 4.62956 82.6183 4.52428ZM155.423 55.2655C154.763 55.264 152.467 55.3353 152.565 55.3616C153.519 55.3938 154.473 55.4261 155.426 55.4583C155.431 55.4115 155.435 55.3647 155.44 55.3179C155.574 55.3412 155.709 55.3645 155.844 55.3878C156.387 55.3703 156.929 55.3528 157.471 55.3353C157.745 55.3762 158.018 55.4171 158.292 55.458C158.566 55.4113 158.841 55.3646 159.115 55.3179C156.497 55.2352 156.587 55.3179 156.042 55.317C155.765 55.3166 155.59 55.2877 155.492 55.2731C155.469 55.2705 155.446 55.268 155.423 55.2655ZM188.416 55.2215C185.289 55.2099 183.502 55.3331 181.24 55.2301C182.641 55.4419 191.422 55.238 195 55.3883C195.078 55.3937 195.151 55.3959 195.22 55.396C195.423 55.3424 195.613 55.2633 195.785 55.1633C195.515 55.2706 195.248 55.3097 195 55.3057C193.921 55.2957 193.1 55.2562 192.47 55.2487C191.773 55.2404 191.846 55.2773 191.793 55.2767C191.79 55.2767 191.788 55.2767 191.785 55.2767C190.154 55.2616 189.65 55.2261 188.416 55.2215ZM130.674 4.69609C131.515 4.7517 132.985 4.74614 133.001 4.66496C132.183 4.64147 131.365 4.61797 130.546 4.59447C130.714 4.61525 130.531 4.68658 130.674 4.69609ZM83.8881 4.75102C84.5439 4.77744 86.0931 4.75429 85.425 4.68419C85.3049 4.67175 83.7619 4.72102 84.6669 4.59447C83.1634 4.59643 83.5152 4.73583 83.8881 4.75102ZM197.388 12.431C197.385 11.8792 197.383 11.3274 197.381 10.7756C197.348 10.647 197.315 10.5185 197.283 10.3899C197.318 11.0703 197.353 11.7506 197.388 12.431ZM123.582 4.75224C122.849 4.59194 121.596 4.74794 120.219 4.61614C119.71 4.61512 119.202 4.6141 118.693 4.61308C118.692 4.61308 118.691 4.61308 118.689 4.61308C118.676 4.65683 118.662 4.70057 118.648 4.74431C120.293 4.74695 121.938 4.7496 123.582 4.75224ZM197.309 46.8373C197.329 46.4975 197.349 46.1576 197.37 45.8177C197.346 45.2126 197.322 44.6075 197.299 44.0024C197.282 44.3298 197.265 44.6571 197.248 44.9844C197.268 45.602 197.288 46.2197 197.309 46.8373ZM114.643 4.76597C116.422 4.78605 117.091 4.6467 114.816 4.64635C113.857 4.64635 112.779 4.74499 114.643 4.76597ZM121.442 55.3173C122.051 55.3292 122.661 55.3411 123.27 55.353C123.478 55.3237 123.685 55.2944 123.893 55.2652C123.076 55.2825 122.259 55.2999 121.442 55.3173ZM75.453 4.73515C75.5245 4.70586 75.596 4.67656 75.6675 4.64726C76.2111 4.65316 76.7548 4.65906 77.2984 4.66496C77.1617 4.69406 77.025 4.72315 76.8883 4.75224C76.4099 4.74654 75.9314 4.74085 75.453 4.73515ZM125.542 55.3353C126.03 55.3409 126.517 55.3465 127.004 55.3521C127.331 55.3379 127.659 55.3236 127.986 55.3094C127.53 55.2953 127.074 55.2811 126.618 55.267C126.26 55.2898 125.901 55.3126 125.542 55.3353ZM97.7823 4.75255C98.4667 4.78777 101.201 4.67802 98.738 4.65001C97.1687 4.63223 97.6796 4.74719 97.7823 4.75255ZM94.0934 4.78764C96.7 4.85475 94.7455 4.51415 91.6347 4.73485C94.7663 4.70459 93.9402 4.78359 94.0934 4.78764ZM71.1715 4.96342C71.1059 4.96324 71.0519 4.91427 70.5281 4.91245C68.6428 4.90611 66.1541 4.88676 64.8057 4.88377C61.564 4.87655 51.6345 4.96508 50.4731 4.82334C50.2313 4.79358 50.7878 4.70464 50.6895 4.70006C50.4009 4.68728 48.74 4.73044 49.0472 4.66496C50.6769 4.66547 52.3067 4.66598 53.9363 4.66649C53.5363 4.71267 53.1362 4.75885 52.7362 4.80503C56.7969 4.78038 55.4528 4.78323 56.6208 4.68266C57.308 4.72162 57.9952 4.76058 58.6825 4.79954C60.1786 4.76038 61.6748 4.72122 63.1709 4.68205C62.8317 4.71125 62.4925 4.74044 62.1532 4.76964C64.4073 4.8237 63.7811 4.78825 65.0145 4.71745C65.017 4.74665 65.0195 4.77584 65.022 4.80503C67.1983 4.73388 67.6223 4.82137 68.0977 4.82243C69.073 4.82415 70.3162 4.47873 74.0365 4.82243C75.6052 4.65713 75.5694 4.99341 76.4914 4.82243C79.1465 5.00857 74.097 4.9412 71.7076 4.93504C71.7064 4.93504 71.7051 4.93504 71.7039 4.93504C71.5236 4.93451 71.8098 4.96585 71.1715 4.96342ZM84.8099 4.79222C83.2026 4.94395 89.5525 4.95816 87.451 4.73912C87.1381 4.732 86.8252 4.72488 86.5123 4.71776C85.9436 4.74258 85.3749 4.7674 84.8061 4.79222C84.8074 4.79222 84.8086 4.79222 84.8099 4.79222ZM144.473 4.89292C150.354 4.83057 147.01 4.74328 145.018 4.82853C144.621 4.84544 144.403 4.86862 144.473 4.89292ZM183.949 55.1049C183.863 55.1231 183.777 55.1414 183.691 55.1596C185.663 55.1425 189.477 55.2128 189.425 55.09C187.599 55.095 185.774 55.1 183.949 55.1049ZM196.839 53.849C196.787 54.0734 196.148 54.6799 196.239 54.6279C196.566 54.4204 196.84 54.1117 197.009 53.7491C197.055 53.5677 197.076 53.3835 197.073 53.1999C197.051 53.459 196.87 53.8019 196.839 53.849Z" fill="white"/>
</svg>
