<svg width="313" height="110" viewBox="0 0 313 110" fill="none" xmlns="http://www.w3.org/2000/svg">
<path d="M9.62993 26.9523C10.5039 43.6692 9.5753 55.0801 9.4273 70.5879C9.33729 80.0397 9.29464 90.3255 9.27954 101C9.27451 100.848 9.15121 100.727 9 100.726C35.1249 100.739 63.0132 100.613 86.3776 100.628C112.805 100.646 139.659 100.708 165.927 100.758C167.274 100.761 168.078 100.857 168.689 100.858C174.44 100.869 184.085 100.782 189.79 100.795C201.792 100.821 222.674 100.806 233.667 100.896C238.335 100.934 243.122 100.95 244.937 101.178C246.642 101.19 247.573 100.984 248.019 100.972C248.024 100.973 248.029 100.973 248.034 100.973C249.468 100.938 253.091 101.083 253.89 101.074C254.01 101.072 253.274 100.923 255.213 100.968C255.386 100.972 255.226 101.074 256.859 101.075C257.284 101.075 262.746 100.92 264.307 100.91C269.501 100.879 281.905 101.001 288.115 100.999C289.065 100.999 289.612 100.94 290.615 100.939C291.133 100.938 291.91 101.003 292.069 101.002C292.768 101 295.82 100.707 294.724 101.285C297.911 101.248 296.972 101.057 297.044 100.933C300.503 100.915 302.171 101.187 303.074 100.899C303.383 100.9 303.691 100.9 304 100.901C303.943 100.91 303.913 100.95 303.914 101C303.944 86.3918 303.974 71.7836 304.004 57.1754C303.957 57.1704 303.91 57.1653 303.863 57.1602C304.05 52.1462 303.733 50.4261 304.005 47.5637C303.945 45.7986 303.885 44.0336 303.825 42.2685C303.871 31.1712 303.892 20.0802 303.898 9C303.903 9.0589 303.942 9.09669 304 9.1006C271.895 9.09892 239.886 9.2093 208.082 9.20881C206.189 9.20881 205.716 9.1088 202.594 9.1081C199.148 9.1074 194.3 9.22362 189.757 9.22223C185.773 9.22118 179.894 9.12657 175.451 9.11176C174.448 9.10859 173.723 9.17193 173.61 9.17158C172.946 9.1691 172.912 9.06883 172.268 9.06599C171.498 9.06282 170.567 9.13709 169.677 9.13251C166.351 9.11597 162.727 9.14157 162.306 9.13984C160.278 9.13035 159.83 9.03228 159.663 9.0312C157.407 9.01923 158.253 9.10774 157.691 9.10261C154.775 9.07548 152.714 8.85454 148.722 9.0666C148.831 8.98461 148.94 8.90262 149.048 8.82063C145.994 8.7745 148.011 8.99236 147.387 9.03181C147.132 9.04643 140.557 9.01982 140.049 9.01594C138.283 9.00185 138.236 8.8929 138.083 8.89143C137.711 8.88791 133.268 9.01157 130.989 8.91646C128.294 8.80375 131.467 8.58211 130.797 8.54049C130.684 8.53345 127.863 8.55616 127.484 8.48678C127.065 8.41214 129.506 8.41372 129.468 8.38241C129.442 8.36093 125.39 8.20706 126.167 8.10349C126.791 7.99962 132.288 8.1328 133.453 8.08396C133.645 8.07588 133.282 7.94768 133.453 7.94298C134.136 7.92572 146.801 7.92186 147.381 7.94298C146.721 8.00136 146.062 8.05975 145.402 8.11814C146.279 8.12404 147.156 8.12994 148.033 8.13584C146.786 8.18263 145.54 8.22942 144.293 8.27622C146.146 8.75699 151.727 8.26961 151.957 8.02964C152.056 7.91868 148.645 7.63318 151.819 7.46692C151.337 7.43843 150.854 7.40995 150.371 7.38147C149.377 7.42826 148.382 7.47505 147.387 7.52185C148.049 7.55134 148.712 7.58084 149.375 7.61034C149.131 7.64371 148.887 7.67707 148.643 7.71044C146.783 7.76394 144.924 7.81745 143.064 7.87096C142.108 7.8463 142.307 7.74779 141.65 7.72875C133.454 7.48887 138.8 7.79412 133.434 7.75011C132.668 7.69721 131.902 7.64432 131.136 7.59142C131.406 7.81019 129.029 7.67283 126.155 7.7672C126.498 7.6964 126.841 7.6256 127.185 7.5548C123.02 7.5925 114.579 7.23555 116.857 7.62621C115.903 7.59285 114.948 7.55948 113.994 7.52612C113.188 7.59 112.383 7.65388 111.577 7.71776C110.463 7.71044 109.349 7.70311 108.236 7.69579C108.231 7.6612 108.226 7.62662 108.22 7.59203C109.109 7.59183 109.997 7.59163 110.885 7.59142C110.218 7.48604 109.552 7.38065 108.885 7.27527C108.23 7.29277 107.574 7.31026 106.919 7.32776C109.668 7.42743 106.043 7.59023 105.166 7.72936C102.848 7.78078 101.367 7.60017 100.59 7.59203C100.225 7.58816 95.9218 7.90678 97.6088 7.55663C95.3946 7.59915 93.1804 7.64167 90.9662 7.68419C90.1005 7.65734 89.2347 7.63048 88.3689 7.60363C90.2478 7.44054 84.8026 7.24403 88.814 7.1764C91.8094 7.12567 92.5476 7.27816 93.969 7.2771C95.2503 7.27635 95.9278 7.17365 97.3223 7.16907C106.7 7.14019 114.34 7.15903 123.246 7.20447C125.006 7.2136 126.606 7.16325 127.789 7.17029C129.123 7.17842 127.451 7.30723 129.151 7.27588C130.937 7.24274 131.323 7.13762 131.794 7.1355C132.087 7.13431 133.017 7.22889 133.873 7.22889C137.39 7.22887 142.543 7.13742 143.043 7.13795C143.607 7.139 153.553 7.22434 154.03 7.23987C154.282 7.24833 153.758 7.59756 155.95 7.22522C156.634 7.21831 157.318 7.21139 158.002 7.20447C157.891 7.27425 157.78 7.34403 157.669 7.41382C161.721 7.14928 160.327 7.29727 164.233 7.27649C173.584 7.22648 187.379 7.28528 197.607 7.26062C199.891 7.25498 200.761 7.17142 203.463 7.16541C205.974 7.16013 212.528 7.40944 211.103 7.0641C216.688 7.36313 217.586 6.84746 220.382 7.16907C220.721 7.12228 221.059 7.07549 221.397 7.0287C224.433 7.22948 225.369 7.05302 228.683 7.0287C230.111 7.01813 228.465 7.23168 231.348 6.99391C231.898 7.01161 232.449 7.02931 233 7.04701C232.872 7.09868 232.744 7.15036 232.616 7.20203C235.817 7.15976 236.023 7.18669 235.658 6.9933C237.204 7.02849 238.749 7.06369 240.295 7.09888C240.487 7.03541 240.679 6.97194 240.871 6.90846C240.13 6.78739 205.037 6.96997 200.15 7.02809C194.418 6.88441 182.904 7.06403 178.274 7.02992C176.421 7.01618 175.602 6.87262 172.906 6.85536C170.21 6.83812 166.817 6.9685 165.382 6.97316C160.6 6.98936 137.944 6.96072 153.353 6.78212C152.91 6.71214 152.467 6.64215 152.024 6.57217C145.901 6.81098 148.118 6.66396 143.037 6.6393C140.898 6.62878 135.812 6.78506 136.096 6.46719C140.067 6.40801 144.287 6.50961 147.741 6.50503C148.083 6.50453 152.172 6.3594 154.277 6.39883C156.175 6.43483 154.868 6.73785 158.999 6.39761C162.066 6.72997 163.84 6.42844 164.65 6.39639C166.051 6.34081 166.204 6.50485 167.604 6.52395C169.129 6.54505 170.179 6.43616 170.388 6.43545C172.479 6.43299 183.372 6.41814 183.871 6.48428C183.433 6.51337 182.995 6.54246 182.557 6.57156C185.386 6.61838 184.795 6.45065 185.538 6.43057C186.092 6.43118 186.646 6.43179 187.2 6.4324C186.98 6.46719 186.761 6.50198 186.541 6.53677C189.882 6.52937 187.326 6.40848 192.068 6.41165C195.079 6.41378 198.189 6.54659 198.482 6.53677C198.568 6.53395 197.62 6.44441 198.848 6.4324C200.88 6.41268 204.393 6.41496 204.786 6.53677C205.782 6.51953 205.697 6.40033 205.829 6.39761C206.407 6.38599 216.348 6.34546 218.129 6.33841C223.064 6.31904 228.559 6.34445 233.905 6.32437C234.455 6.32236 234.104 6.39886 234.655 6.39639C235.54 6.39247 240.08 6.27243 240.758 6.26395C242.451 6.24318 246.904 6.29079 247.605 6.25601C247.705 6.25108 246.239 6.14769 247.952 6.11564C249.855 6.08017 248.831 6.21923 248.934 6.22062C252.806 6.26817 255.25 6.17155 257.893 6.15287C258.75 6.14688 260.331 6.25153 261.539 6.22062C261.678 6.2171 261.403 6.1204 261.539 6.11564C263.366 6.06491 265.075 6.24439 265.865 6.25601C267.799 6.28443 266.746 6.15198 266.847 6.15104C268.135 6.14681 269.869 6.19459 271.828 6.18827C280.562 6.16009 287.689 6.152 296.975 6.1608C298.141 6.16186 299.525 6.25528 299.703 6.2554C300.254 6.2547 300.097 6.14491 301.691 6.14738C302.472 6.14869 303.24 6.1494 304 6.14976C305.525 6.11947 306.881 7.46791 306.851 9C306.851 9.40105 306.85 9.80443 306.85 10.211C306.85 10.8809 306.748 11.1665 306.746 11.6773C306.739 13.3904 307.006 19.233 306.674 19.3289C306.968 22.7293 306.715 24.988 306.718 27.7243C306.724 34.2067 306.784 44.3569 306.746 50.8194C306.738 52.18 306.653 52.8183 306.648 53.5752C306.64 54.9326 306.687 62.6928 306.674 63.0986C306.648 63.8956 306.274 63.4178 306.6 67.5158C306.623 69.9183 306.47 69.6345 306.461 70.1314C306.4 74.0035 306.742 77.7707 306.428 77.0666C306.514 81.5751 306.687 84.4971 306.394 86.3369C306.537 86.313 306.623 88.4333 306.568 90.9889C306.328 88.3722 306.174 88.6961 306.218 82.3679C306.219 82.2682 306.322 82.4584 306.323 82.3587C306.33 81.4551 306.278 79.5701 306.283 78.0299C306.289 76.4895 306.36 77.3448 306.358 76.7282C306.357 76.1637 306.258 76.1825 306.256 75.3656C306.252 72.7157 306.225 70.3708 306.223 68.8632C306.222 67.9136 306.309 66.8506 306.309 66.1135C306.309 63.264 306.241 57.2258 306.25 53.5996C306.252 52.8441 306.35 53.1612 306.358 51.5084C306.359 51.3153 306.257 50.6112 306.236 49.1641C306.215 47.7165 306.266 46.5942 306.255 45.6645C306.246 44.8875 306.156 45.2122 306.15 43.619C306.146 42.2906 306.211 27.2457 306.225 26.4287C306.246 25.2536 306.373 24.695 306.358 23.9778C306.354 23.8515 306.232 23.6379 306.223 23.2004C306.155 19.8224 306.155 14.5249 306.175 9C306.217 7.84237 305.157 6.77227 304 6.79684C299.874 6.7763 295.984 6.75551 293.063 6.75588C275.835 6.75764 259.941 6.82988 242.56 6.85841C242.25 6.87978 241.94 6.90114 241.63 6.9225C243.387 6.92331 245.144 6.92413 246.901 6.92494C246.912 6.98272 246.923 7.0405 246.934 7.09827C249.31 7.10742 248.995 6.97078 248.928 6.88832C249.807 6.92331 250.686 6.9583 251.565 6.9933C252.323 6.79195 258.185 6.92586 261.207 6.92555C263.173 6.92555 265.512 6.84879 266.548 6.85475C268.738 6.86707 268.681 6.99132 268.853 6.9933C269.145 6.99611 272.202 6.88653 274.407 6.89076C277.667 6.89679 278.02 7.08757 282.482 6.92555C288.201 7.02453 294.537 6.97471 300.7 6.95851C299.963 7.0692 301.865 7.04464 304 7.0117C304.644 6.97598 305.282 7.33746 305.571 7.71586C305.864 8.07401 306.028 8.52313 306.026 9C306.003 23.6602 305.933 41.045 305.867 55.5262C305.858 57.5047 305.754 58.9996 305.758 60.102C305.759 60.6997 305.882 60.9606 305.866 61.7908C305.863 61.9366 305.748 62.0381 305.731 63.5833C305.688 67.4289 305.879 77.008 305.659 79.4322C305.677 86.6215 305.696 93.8107 305.715 101C305.746 101.91 304.92 102.75 304 102.731C300.136 102.741 296.272 102.751 292.407 102.761C292.077 102.714 291.747 102.667 291.417 102.62C288.919 102.859 279.045 102.719 274.229 102.73C265.755 102.75 254.941 102.825 247.516 102.833C245.902 102.835 244.58 102.767 243.053 102.768C242.396 102.769 241.578 102.857 240.895 102.857C233.217 102.864 222.821 102.773 215.083 102.775C197.516 102.78 180.971 102.767 163.171 102.771C111.563 102.782 60.2108 102.88 9 102.873C8.00414 102.9 7.10015 101.995 7.12784 101C7.12967 94.8064 7.13313 88.6148 7.13856 82.425C7.13926 81.628 7.24038 81.6678 7.24109 81.0502C7.24602 77.4039 7.16267 69.2614 7.16724 65.1434C7.17076 61.8623 7.32538 56.6546 7.16968 55.5255C6.93402 67.1818 6.95175 79.4968 6.88588 91.6314C6.88124 92.494 6.7851 92.6012 6.78334 92.7075C6.74994 94.672 6.88233 93.4314 6.88832 96.2803C6.88927 96.7289 6.82162 98.9189 6.78178 101C6.70918 102.408 8.08916 103.097 7.85193 102.772C8.00929 102.899 8.39157 103.152 9 103.172C13.8616 103.252 24.1772 103.287 26.5151 103.254C27.3852 103.242 26.7692 103.151 26.9419 103.146C27.6918 103.126 28.0305 103.251 28.7008 103.255C30.4875 103.262 35.0318 103.161 35.8952 103.162C37.8818 103.163 43.8378 103.264 46.4611 103.24C48.8655 103.219 48.4154 103.088 50.4942 103.076C52.1327 103.067 50.3479 103.177 54.0061 103.21C55.8191 103.226 62.1616 103.148 63.7032 103.148C65.2441 103.148 66.9583 103.226 69.0837 103.22C72.1453 103.211 78.8053 103.168 81.9207 103.143C82.1067 103.141 82.5599 103.04 83.0182 103.042C83.9675 103.046 83.6823 103.172 84.3991 103.184C85.1163 103.197 97.5377 103.182 99.6475 103.183C101.102 103.184 102.106 103.109 102.909 103.11C103.54 103.111 103.607 103.215 104.251 103.216C104.45 103.216 106.145 103.125 107.839 103.128C109.439 103.13 115.515 103.216 116.219 103.217C116.677 103.217 116.175 103.143 117.53 103.145C118.765 103.146 119.576 103.243 120.279 103.244C121.913 103.247 123.738 103.165 125.471 103.165C130.452 103.164 130.196 103.283 130.495 103.287C131.323 103.298 131.656 103.188 131.928 103.186C133.076 103.177 135.891 103.157 136.915 103.153C138.19 103.147 138.73 103.251 140.085 103.251C141.095 103.251 143.134 103.15 145.438 103.145C150.632 103.134 156.808 103.115 161.909 103.118C163.43 103.119 163.663 103.214 164.128 103.217C166.572 103.23 167.94 103.124 168.637 103.125C173.612 103.135 182.486 103.301 187.102 103.315C188.981 103.321 197.21 103.244 201.853 103.258C202.384 103.259 201.887 103.333 202.478 103.322C203.892 103.294 203.761 103.143 204.478 103.147C204.824 103.15 205.613 103.235 206.621 103.244C211.848 103.288 215.442 103.221 217.827 103.226C240.727 103.27 264.08 103.309 285.466 103.323C287.85 103.324 290.807 103.234 294.407 103.322C294.518 103.369 294.629 103.416 294.739 103.463C294.865 103.416 294.991 103.37 295.117 103.324C298.887 103.301 300.489 103.248 304 103.287C304.166 103.29 304.338 103.277 304.515 103.241C304.697 103.231 305.446 103.13 305.547 102.636C306.669 101.45 306.242 101.293 306.284 101C306.261 100.726 306.238 100.289 306.232 99.3295C306.214 96.268 306.273 93.2928 306.287 90.3243C306.382 88.6971 306.602 95.5251 306.602 95.9701C306.601 96.687 306.468 97.4319 306.461 98.1223C306.451 99.1626 306.473 100.186 306.481 101C306.49 101.496 306.341 101.846 306.236 101.947C305.516 103.406 306.52 101.644 306.47 101.823C306.094 102.847 305.035 103.533 304 103.47C303.902 103.468 303.803 103.465 303.705 103.463C302.806 103.846 293.059 103.346 293.736 103.638C292.961 103.579 292.186 103.521 291.41 103.463C288.01 103.828 286.011 103.571 281.476 103.462C281.803 103.509 282.13 103.556 282.457 103.602C282.364 103.622 278.362 103.697 279.793 103.497C275.69 103.76 275.862 103.323 272.184 103.639C269.999 103.68 271.313 103.496 267.401 103.499C265.083 103.501 262.205 103.597 259.615 103.604C259.018 103.605 258.759 103.499 258.228 103.499C257.697 103.499 257.438 103.603 256.795 103.605C255.467 103.611 253.745 103.538 252.915 103.545C252.171 103.551 251.107 103.643 249.314 103.657C243.053 103.708 244.944 103.577 243.955 103.533C242.893 103.486 242.129 103.658 240.01 103.638C239.798 103.636 240.348 103.529 239.657 103.533C239.1 103.536 238.819 103.653 236.974 103.675C236.239 103.684 224.832 103.709 223.095 103.711C220.431 103.714 214.499 103.615 211.742 103.616C210.68 103.616 209.545 103.71 208.416 103.709C204.677 103.707 198.691 103.699 193.948 103.695C189.678 103.69 182.182 103.483 179.843 103.67C173.847 103.694 172.39 103.534 171.939 103.532C170.716 103.526 170.15 103.632 168.61 103.637C148.651 103.699 122.369 103.629 103.467 103.637C72.0609 103.652 40.532 103.686 9 103.688C7.56961 103.725 6.27536 102.43 6.31204 101C6.31275 90.6026 6.31727 80.2057 6.32742 69.8136C6.28043 69.6957 6.23343 69.5778 6.18644 69.46C6.15614 74.6605 6.0745 80.7723 6.05583 85.9064C6.03998 90.3164 6.11534 96.0982 6.08555 101C6.05057 102.816 7.70725 104.039 9 104.056C9.23309 104.068 9.45745 104.081 9.6724 104.094C9.46039 104.097 9.23451 104.099 9 104.099C7.24707 104.224 6.11217 102.165 6.10127 102.272C6.57986 103.401 7.76491 104.19 9 104.179C11.102 104.186 13.204 104.193 15.3059 104.2C15.1972 104.124 15.0885 104.047 14.9798 103.971C18.7854 103.949 22.6779 103.965 26.4968 103.955C27.1602 103.953 26.6904 103.883 27.2681 103.883C27.9144 103.883 27.4762 103.953 27.5973 103.954C29.2309 103.955 29.724 103.883 29.9233 103.884C30.4347 103.887 30.037 103.955 31.5115 103.974C34.2468 104.01 36.2054 103.829 35.5629 104.13C36.446 104.13 37.329 104.13 38.212 104.13C38.4407 104.048 38.6693 103.966 38.8979 103.884C44.3296 104.215 46.8341 103.635 49.8358 104.095C50.8255 104.025 51.8152 103.955 52.805 103.884C53.3628 103.966 53.9207 104.048 54.4786 104.13C54.5873 104.06 54.696 103.989 54.8048 103.919C60.1375 103.971 65.8155 103.887 70.9158 103.895C74.4686 103.9 75.3198 103.928 78.4669 103.923C85.467 103.911 78.5154 104.05 84.3321 104.201C84.0293 104.114 83.7264 104.028 83.4236 103.942C84.3869 103.911 85.3503 103.879 86.3136 103.848C86.9842 103.918 87.6549 103.988 88.3255 104.058C91.3005 103.694 93.2278 103.988 93.6329 103.988C93.9602 103.987 95.0841 103.768 98.6049 103.954C97.1449 103.654 101.291 103.952 101.623 103.954C101.939 103.955 105.975 103.888 107.613 103.891C108.902 103.893 111.651 103.958 113.57 103.955C115.264 103.952 115.092 103.85 115.216 103.849C117.301 103.841 115.995 103.92 117.502 103.923C119.01 103.927 120.18 103.841 120.505 103.848C120.669 103.852 120.121 103.947 120.871 103.956C122.884 103.981 126.523 103.898 128.827 103.901C129.644 103.902 130.674 103.982 131.583 103.984C132.978 103.988 133.629 103.881 134.439 103.884C134.721 103.886 136.52 104.051 138.756 104.025C139.181 104.02 140.431 103.671 142.091 104.166C142.219 104.096 142.347 104.027 142.475 103.957C149.974 103.785 152.06 104.35 155.395 103.848C160.839 103.904 157.101 104.1 157.699 104.13C158.085 104.149 159.86 104.095 160.056 104.098C160.401 104.104 160.342 104.167 160.72 104.166C167.661 104.155 164.579 104.036 166.777 103.961C172.004 103.783 176.082 104.179 166.991 104.06C166.991 104.095 166.991 104.13 166.991 104.165C169.23 104.132 174.912 104.148 173.015 104.325C171.52 104.465 158.038 104.374 165.674 104.57C167.407 104.614 168.305 104.483 171.307 104.729C173.293 104.742 173.579 104.423 176.267 104.551C175.825 104.44 175.383 104.329 174.941 104.218C178.607 104.073 183.13 104.267 185.946 104.205C186.903 104.184 190.35 103.653 189.546 104.183C191.155 104.15 198.732 104.248 200.14 104.201C200.478 104.189 200.919 103.907 205.819 104.005C206.159 104.041 206.5 104.076 206.84 104.111C202.359 104.214 210.273 104.319 208.124 104.587C207.393 104.466 203.84 104.393 203.267 104.332C202.291 104.228 205.199 104.094 201.493 104.13C199.157 104.578 205.837 104.372 204.816 104.797C209.682 104.599 210.168 104.788 211.27 104.796C215.978 104.828 218.942 104.783 223.384 104.833C224.467 104.745 216.424 104.619 215.428 104.657C219.094 104.347 212.784 104.333 210.12 104.517C209.897 104.424 209.673 104.33 209.45 104.237C212.917 104.287 216.298 104.313 219.732 104.237C219.956 104.272 220.179 104.307 220.403 104.342C219.633 104.394 218.862 104.447 218.092 104.5C220.948 104.586 219.235 104.313 223.04 104.552C223.158 104.447 223.275 104.341 223.393 104.236C227.041 104.271 230.689 104.306 234.337 104.341C236.237 104.13 243.256 104.208 241.971 104.482C244.804 104.501 241.306 104.356 243.961 104.289C245.117 104.26 247.376 104.252 247.933 104.326C247.693 104.586 244.313 104.619 243.291 104.797C243.911 104.855 259.629 104.669 258.228 104.974C259.483 105.01 258.906 104.853 261.17 104.813C267.513 104.701 277.337 105.012 282.445 104.622C276.447 104.406 274.673 104.635 270.077 104.644C267.142 104.65 249.242 104.687 253.241 104.412C252.583 104.447 251.926 104.482 251.268 104.517C250.604 104.435 249.939 104.353 249.275 104.271C251.148 104.259 253.02 104.247 254.893 104.235C255.34 104.317 255.787 104.399 256.234 104.481C256.441 104.422 256.647 104.364 256.853 104.305C257.642 104.294 258.43 104.282 259.219 104.271C258.997 104.341 258.776 104.411 258.554 104.481C259.77 104.493 260.985 104.505 262.2 104.517C261.873 104.423 261.546 104.33 261.219 104.236C266.942 104.212 265.004 104.271 268.178 104.446C270.548 104.464 266.545 104.284 271.559 104.238C277.39 104.185 273.564 104.472 281.116 104.41C281.225 104.364 281.333 104.317 281.442 104.27C283.102 104.317 284.763 104.364 286.423 104.41C286.204 104.352 285.984 104.294 285.765 104.236C289.192 104.258 293.915 104.147 295.05 104.376C291.577 104.266 291.611 104.664 292.514 104.738C293.259 104.798 298.107 104.811 304 104.806C305.943 104.869 307.853 103.074 307.794 101C307.775 93.7484 307.743 86.4963 307.738 84.0201C307.726 77.1928 307.853 72.0326 307.657 65.7965C307.496 70.0225 307.628 84.8835 307.517 87.6996C307.506 87.9785 307.14 87.9 307.551 89.6933C307.51 93.1216 307.534 96.9474 307.558 101C307.625 102.842 305.959 104.626 304 104.586C303.233 104.587 302.462 104.588 301.687 104.586C301.907 104.481 302.128 104.376 302.348 104.271C302.907 104.299 303.46 104.316 304 104.324C306.947 104.283 307.284 101.226 307.286 101C307.312 100.9 307.353 100.886 307.412 100.97C307.412 100.086 307.412 99.2034 307.412 98.3204C307.341 98.3204 307.271 98.3204 307.201 98.3204C307.201 96.9893 307.201 95.6581 307.201 94.3269C307.271 94.3269 307.341 94.3269 307.412 94.3269C307.412 93.2244 307.412 92.1219 307.412 91.0194C307.341 90.9045 307.271 90.7897 307.201 90.6749C307.347 87.3734 306.957 76.1182 307.376 81.0662C307.376 79.5155 307.376 77.9649 307.376 76.4142C307.325 76.4193 307.273 76.4244 307.222 76.4295C307.215 75.7629 307.208 75.0963 307.201 74.4297C307.248 74.6492 307.294 74.8687 307.341 75.0882C307.257 72.0334 307.503 69.1375 307.341 67.1317C307.306 68.4547 307.271 69.7777 307.236 71.1008C307.303 68.5634 307.164 63.8888 307.164 63.4705C307.163 62.1953 307.267 61.5231 307.273 60.1416C307.277 58.8945 307.197 59.0662 307.2 58.8338C307.281 52.1069 307.714 54.6706 307.202 51.5297C307.272 51.1954 307.342 50.8611 307.412 50.5268C307.353 50.0817 307.295 49.6366 307.237 49.1915C307.242 47.205 307.247 45.2184 307.253 43.2318C307.166 43.8943 307.078 44.5569 306.991 45.2194C306.952 42.2416 307.127 40.8528 307.131 40.5644C307.141 39.7482 307.031 39.3748 307.031 39.1225C307.04 26.9879 307.137 34.3584 307.551 28.2944C307.389 26.1322 307.226 28.3197 307.061 28.6267C307.138 25.7517 307.092 24.8544 307.102 21.8195C307.104 21.0299 307.193 20.1807 307.194 19.6825C307.195 19.2509 307.101 17.9018 307.1 16.8657C307.1 15.139 307.156 12.8405 307.155 10.4762C307.154 10.1112 307.152 9.60665 307.148 9C307.246 7.74068 305.92 5.82868 304 5.89738C302.468 5.90693 300.929 5.914 299.578 5.91423C297.787 5.91422 298.202 5.83505 297.74 5.83489C297.547 5.83489 296.151 5.92973 295.002 5.9301C285.631 5.93221 276.027 5.87219 266.609 5.87395C259.974 5.875 253.232 5.95127 246.584 5.94352C245.169 5.94176 245.918 5.87214 245.3 5.86967C245.088 5.86905 244.833 5.99054 242.645 5.94169C241.855 5.92408 242.764 5.83911 241.987 5.83489C241.608 5.83287 241.448 5.93937 239.237 5.96367C235.219 6.00803 233.06 5.86606 232.701 5.87028C232.025 5.87846 232.222 5.9666 231.326 5.96977C226.944 5.98527 223.284 6.00021 219.373 6.00761C217.547 6.01113 204.954 6.02895 204.262 6.0131C202.715 5.97788 204.155 5.79383 202.171 5.8001C201.615 5.84668 201.059 5.89327 200.503 5.93986C201.386 5.97526 202.269 6.01066 203.152 6.04606C200.721 5.98688 197.965 6.07059 196.165 6.06742C195.833 6.0667 192.773 5.98323 191.212 5.99235C191.875 5.95777 192.539 5.92318 193.202 5.88859C192.967 5.8591 192.733 5.8296 192.498 5.8001C189.377 5.84482 186.075 5.84367 182.874 5.83733C181.72 5.83517 182.11 5.7635 180.941 5.76103C174.135 5.74592 175.854 6.04392 169.305 5.48455C171.516 5.53527 179.583 5.46411 180.755 5.48272C181.572 5.49576 184.741 5.9684 183.578 5.48333C190.114 5.48545 184.437 5.75298 190.541 5.69451C190.419 5.63531 190.297 5.5761 190.175 5.5169C192.306 5.47958 193.88 5.44967 195.175 5.55413C195.609 5.26692 202.849 5.43496 206.82 5.41559C212.558 5.38811 219.041 5.31806 224.726 5.30573C226.685 5.30155 227.794 5.41411 228.04 5.41376C228.399 5.41295 229.408 5.31437 230.125 5.31366C232.802 5.31085 240.946 5.4775 242.971 5.2038C227.044 5.2038 211.117 5.2038 195.19 5.2038C197.192 5.33833 181.081 5.35148 180.265 5.34479C179.508 5.33877 180.145 5.24432 179.92 5.23859C178.246 5.19808 176.818 5.33502 176.286 5.33502C175.881 5.335 175.063 5.27075 173.622 5.27216C173.358 5.27236 173.284 5.34031 173 5.34052C171.121 5.34052 169.265 5.33955 167.379 5.33991C167.264 5.33925 166.788 5.23999 166.312 5.23981C165.834 5.23981 165.362 5.33899 165.242 5.33929C163.734 5.33859 161.15 5.27408 159.715 5.27338C159.217 5.27341 159.562 5.34609 159.005 5.3454C157.291 5.34364 157.855 5.20134 155.737 5.23798C155.027 5.25032 155.072 5.35914 153.713 5.34479C152.749 5.33457 152.853 5.14066 152.7 5.13361C152.49 5.1251 149.166 5.27823 148.079 5.15131C150.455 4.81624 145.48 5.13383 145.719 5.27521C144.403 5.23961 143.086 5.204 141.769 5.1684C141.32 5.20421 140.87 5.24001 140.421 5.27582C135.108 5.11449 131.866 5.21135 126.639 5.16169C126.387 5.15922 121.983 5.07962 122.189 5.02925C124.825 4.94261 127.455 4.93865 129.142 5.09882C131.918 4.79341 131.966 5.0368 136.449 4.99629C137.95 4.98255 138.057 4.89969 138.229 4.89863C144.067 4.85743 153.417 4.82177 157.349 5.06403C158.452 4.99851 154.488 4.97253 156.029 4.92427C156.87 4.89784 177.096 4.82047 170.635 5.09943C171.305 5.0917 171.976 5.08397 172.646 5.07624C173.317 4.81275 176.653 4.87301 176.274 5.13544C176.59 5.08173 176.906 5.02803 177.222 4.97432C177.847 4.92887 178.585 4.90453 179.621 4.89009C183.589 4.83516 207.192 4.92656 208.448 4.88887C208.476 4.82662 208.504 4.76436 208.533 4.70211C198.105 4.63166 187.989 4.78636 176.619 4.60812C176.949 4.66651 177.279 4.72489 177.609 4.78328C173.072 4.7015 168.535 4.61971 163.998 4.53793C168.8 4.43225 176.44 4.3435 181.481 4.43051C182.377 4.44603 181.72 4.52746 181.926 4.53732C182.464 4.56293 183.042 4.42166 184.974 4.40793C186.908 4.39421 191.763 4.49436 192.208 4.49154C193.066 4.48573 195.382 4.32409 196.842 4.32614C198.762 4.32896 197.475 4.42901 197.86 4.43112C199.454 4.44095 200.883 4.39138 202.131 4.39877C203.984 4.40977 207.835 4.5857 209.13 4.32736C207.806 4.31556 206.482 4.30376 205.158 4.29196C212.338 4.19932 217.952 4.52956 225.025 4.27487C226.632 3.96207 220.788 4.00434 225.729 3.87083C224.832 3.87531 223.935 3.87979 223.037 3.88426C222.827 3.94977 222.617 4.01528 222.406 4.08079C220.861 4.034 219.315 3.9872 217.77 3.94041C218.211 3.9988 218.652 4.05719 219.093 4.11558C213.613 4.15961 208.08 4.21948 206.167 3.90562C206.054 3.98151 205.942 4.05739 205.829 4.13328C200.742 4.04101 193.105 4.36265 194.531 3.94041C194.291 3.96279 194.05 3.98517 193.809 4.00755C190.734 3.92124 192.047 4.09585 190.891 4.11558C190.561 4.12113 184.584 4.03098 187.233 3.90562C181.402 3.80982 183.2 4.20446 181.594 4.22178C177.861 4.02627 171.147 4.31953 173.97 4.0106C173.414 3.999 172.858 3.98741 172.302 3.97581C170.476 4.21887 168.675 3.94386 166.696 3.85191C166.025 3.84642 165.355 3.84093 164.684 3.83544C164.235 3.91722 163.786 3.999 163.337 4.08079C157.027 3.69154 159.025 4.75607 156.142 3.86168C156.591 3.80817 157.04 3.75467 157.49 3.70116C158.555 3.67573 159.619 3.6503 160.684 3.62487C156.389 3.60127 152.094 3.57767 147.799 3.55407C142.347 3.30338 139.244 3.57538 133.187 3.37708C132.62 3.40088 132.053 3.42468 131.486 3.44848C132.064 3.24594 134.264 3.2757 130.166 3.18482C129.817 3.04162 132.584 3.02308 133.846 3.13294C134.15 3.15975 131.562 3.26944 134.471 3.27332C136.448 3.27608 132.858 3.10398 138.781 3.16773C138.562 3.13274 138.342 3.09775 138.123 3.06275C138.765 3.06377 139.407 3.06479 140.049 3.06581C140.62 3.14678 141.192 3.22775 141.763 3.30872C143.23 3.19177 144.054 3.02788 147.408 3.06275C146.499 3.11347 147.733 3.27607 149.393 3.27332C149.393 3.21473 149.393 3.15613 149.393 3.09754C153.411 3.05985 152.024 3.23175 155.365 3.09754C155.699 3.14413 156.033 3.19072 156.368 3.23731C158.188 3.04533 164.888 2.91472 163.666 3.20252C165.545 2.92282 169.493 3.04902 170.961 3.27271C171.074 3.21452 171.186 3.15634 171.299 3.09815C172.08 3.08635 172.862 3.07455 173.643 3.06275C174.079 3.09795 174.515 3.13315 174.951 3.16834C175.505 3.13315 176.059 3.09795 176.613 3.06275C176.947 3.12114 177.281 3.17953 177.615 3.23792C178.506 3.16793 179.396 3.09795 180.286 3.02796C180.831 3.07455 181.375 3.12114 181.92 3.16773C181.976 3.04594 187.372 3.01882 188.88 3.09876C189.329 3.06336 189.778 3.02796 190.227 2.99257C190.446 3.05055 190.666 3.10853 190.885 3.16651C191.22 3.12013 191.554 3.07374 191.888 3.02735C192.659 3.07374 193.429 3.12013 194.199 3.16651C197.34 2.88225 197.442 3.13165 198.159 3.12989C199.489 3.12663 204.017 2.94862 204.774 2.95778C205.53 2.967 205.895 3.06903 206.506 3.07862C216.568 3.23889 212.431 2.96511 214.45 2.92177C215.539 2.89817 216.31 2.99334 217.273 2.9828C218.92 2.96519 227.229 2.83925 227.708 2.85158C228.404 2.86937 226.765 3.31819 229.028 3.20252C229.103 2.96152 233.942 3.20476 231.68 2.86867C233.672 2.89817 235.665 2.92767 237.658 2.95717C237.432 2.67148 239.889 2.85522 242.566 2.83937C246.359 2.81716 254.898 2.62932 254.586 2.92238C255.494 2.85504 256.403 2.7877 257.311 2.72036C263.527 2.81261 269.624 2.71595 275.794 2.71242C284.941 2.70697 294.476 2.72011 304 2.74184C307.34 2.66871 310.328 5.67856 310.243 9C310.223 16.4277 310.2 23.7955 310.177 30.913C310.174 31.7892 310.079 31.6632 310.076 32.294C310.066 35.6082 310.134 44.2227 310.112 48.8654C310.106 50.3525 310.012 51.0764 310.008 51.548C309.993 53.1487 310.116 52.7709 310.112 53.5081C310.107 54.671 309.993 60.8215 309.981 62.9401C309.975 63.9889 310.072 65.23 310.042 66.458C310.04 66.5637 309.939 66.3685 309.937 66.458C309.925 68.6963 310.012 67.35 310.007 68.1072C309.975 73.5067 309.973 79.2781 309.952 85.1358C309.947 86.5904 309.876 88.8165 309.869 90.0652C309.867 90.5415 309.943 89.6872 309.937 91.3334C309.934 91.8972 309.835 92.09 309.829 92.7265C309.801 95.4692 310.121 96.3871 309.864 98.7441C309.867 99.428 309.871 100.188 309.876 101C310.02 103.84 307.325 106.994 304 106.921C300.96 106.943 297.977 106.964 295.919 106.965C294.937 106.965 294.459 106.906 293.523 106.907C292.859 106.908 291.69 106.999 290.654 107C289.618 107.001 287.983 106.915 285.99 106.918C283.892 106.921 281.284 106.972 280.811 106.972C280.24 106.972 279.974 106.863 279.403 106.864C277.676 106.868 273.052 106.975 270.827 106.987C268.437 106.999 267.001 106.946 266.185 106.947C265.428 106.948 264.546 107.041 264.2 107.042C263.662 107.043 263.535 106.935 262.853 106.936C261.737 106.938 260.587 107.006 258.914 107.007C228.787 107.041 199.249 106.982 169.939 106.903C166.671 106.894 164.825 106.97 160.01 106.935C158.058 106.921 158.88 106.81 157.361 106.831C156.683 106.841 156.855 106.928 155.998 106.932C152.212 106.951 147.801 106.869 146.161 106.871C145.51 106.871 144.767 106.971 143.432 106.972C133.49 106.983 121.727 106.955 111.027 106.973C105.362 106.982 96.785 107.032 90.2827 107.039C72.3172 107.058 52.9903 107.035 36.6055 107.045C27.3903 107.05 18.1917 107.066 9 107.079C5.75954 107.158 2.83978 104.244 2.9135 101C2.89878 87.6127 2.89871 74.2355 2.95778 60.839C2.71719 72.3888 2.73727 88.1165 2.7112 100.975C2.71119 100.983 2.71117 100.992 2.71115 101C2.62667 104.338 5.62824 107.374 9 107.299C44.2895 107.348 81.5251 107.224 117.441 107.229C130.685 107.231 147.383 107.225 161.882 107.281C162.539 107.283 163.902 107.207 165.323 107.215C165.625 107.217 169.369 107.356 170.631 107.358C169.435 107.11 174.377 107.331 175.905 107.325C177.831 107.317 181.849 107.193 186.358 107.263C190.449 107.327 189.321 107.422 189.546 107.428C190.993 107.467 191.498 107.313 192.607 107.297C197.137 107.235 220.436 107.325 226.939 107.33C228.619 107.332 228.667 107.429 229.045 107.43C230.048 107.43 231.475 107.334 233.081 107.335C235.977 107.336 239.313 107.428 240.907 107.429C244.719 107.43 251.953 107.321 256.908 107.319C258.301 107.318 258.216 107.42 258.847 107.419C261.624 107.418 268.856 107.298 272.303 107.297C277.902 107.295 283.661 107.361 289.353 107.327C289.713 107.373 290.074 107.418 290.435 107.463C291.004 107.416 291.573 107.368 292.142 107.321C296.075 107.335 300.037 107.327 304 107.313C307.368 107.383 310.376 104.346 310.287 101C310.272 97.3658 310.259 93.7422 310.261 90.1506C310.262 89.0479 310.349 83.5892 310.349 82.6788C310.349 81.9216 310.237 81.1765 310.253 80.0541C310.276 78.4818 310.49 79.9613 310.429 77.3928C310.413 76.7021 310.321 77.3718 310.292 75.9844C310.283 75.5261 310.246 66.6314 310.252 66.1531C310.263 65.3564 310.459 64.6457 310.463 64.4399C310.486 63.3709 310.335 63.4165 310.321 62.6992C310.28 60.5831 310.381 57.8181 310.379 57.4742C310.351 53.3164 310.231 45.5439 310.302 41.1802C310.312 40.5768 310.424 40.6491 310.428 40.5431C310.451 39.8594 310.323 39.4344 310.321 38.7841C310.306 35.2839 310.392 29.8026 310.414 26.2824C310.416 25.877 310.355 25.0213 310.361 24.2979C310.395 20.2065 310.494 21.5337 310.498 21.3012C310.509 20.7499 310.4 19.7806 310.393 18.3138C310.382 15.9995 310.384 12.3849 310.389 9C310.452 5.44 307.322 2.84887 304.826 2.65386C304.533 2.61559 304.259 2.59954 304 2.59826C301.489 2.57937 301.518 2.46938 301.331 2.46707C300.905 2.4626 299.723 2.562 297.725 2.57327C293.88 2.59545 294.318 2.49764 292.737 2.50186C292.604 2.50186 292.835 2.59758 291.082 2.60745C287.694 2.62644 280.085 2.53234 276.459 2.53726C275.064 2.53902 274.737 2.63132 273.309 2.63308C271.046 2.63624 265.936 2.53639 265.533 2.53665C265.42 2.53665 265.167 2.64284 264.502 2.64284C263.772 2.64283 263.053 2.58817 262.509 2.58853C259.407 2.58999 254.064 2.77532 255.549 2.39627C254.555 2.48985 253.562 2.58344 252.568 2.67702C246.072 2.65835 239.762 2.69584 233.326 2.71486C231.879 2.71908 230.67 2.64729 229.448 2.65078C228.227 2.6543 222.838 2.77306 221.937 2.77529C220.33 2.77916 211.196 2.79167 210.06 2.78322C207.842 2.76702 205.69 2.61037 204.786 2.64101C204.062 2.66567 204.732 2.75394 203.351 2.77895C200.959 2.82221 196.896 2.70883 196.165 2.71059C195.853 2.71131 196.437 2.78011 193.516 2.78505C191.942 2.78787 191.097 2.71207 190.526 2.71242C190.348 2.71282 190.614 2.83574 187.499 2.81923C185.347 2.80761 184.429 2.71277 184.203 2.71242C183.864 2.71179 183.046 2.81299 181.685 2.80947C178.504 2.80063 172.687 2.68462 169.665 2.6758C169.081 2.67404 169.279 2.7963 166.949 2.78505C165.282 2.77695 165.573 2.67969 164.949 2.6758C163.96 2.66982 162.485 2.78891 160.3 2.78505C157.551 2.78012 137.134 2.65659 136.077 2.62453C135.367 2.60305 134.542 2.60169 134.19 2.54885C134.492 2.4982 134.794 2.44754 135.096 2.39688C138.222 2.57465 136.961 2.37148 137.79 2.35843C138.993 2.33976 143.523 2.36568 144.619 2.32059C145.009 2.3043 144.116 2.19617 146.213 2.14054C148.464 2.08107 149.466 2.27357 150.362 2.01054C153.557 2.30257 156.626 1.99262 152.926 1.90984C150.861 1.86368 130.603 1.75942 126.465 1.74321C123.111 1.7302 116.829 1.80845 112.705 1.78838C110.281 1.7764 104.31 1.76283 104.562 1.62298C102.41 1.60537 104.688 1.74459 104.236 1.76397C103.292 1.80442 96.5752 1.70827 95.3042 1.71209C89.0343 1.7304 81.1225 1.88674 75.032 1.71026C75.3155 1.67282 75.599 1.63539 75.8825 1.59795C77.2507 1.52926 83.6003 1.62747 84.3176 1.44781C75.032 1.44781 65.7463 1.44781 56.4608 1.44781C56.6334 1.60069 45.1165 1.59864 44.5718 1.5296C44.774 1.45554 44.9763 1.38149 45.1785 1.30744C51.6866 1.58848 51.103 1.21699 55.4731 1.41424C57.2521 1.41703 56.7152 1.29467 57.5918 1.27143C66.3172 1.04041 57.7317 1.52251 64.4112 1.41302C62.4005 1.23555 67.8709 1.17069 70.3221 1.14814C70.8801 1.14321 78.2072 1.18819 79.0773 1.18537C83.9655 1.16952 92.3604 1.07229 97.2156 1.1695C101.041 1.18113 103.147 1.05471 106.62 1.02546C109.256 1.00327 108.501 1.09212 109.742 1.09321C112.345 1.09568 113.202 0.825187 114.869 1.20246C116.634 1.15546 118.399 1.10847 120.164 1.06147C120.164 1.12006 120.164 1.17866 120.164 1.23725C121.273 1.23725 122.382 1.23725 123.49 1.23725C123.816 1.17886 124.143 1.12047 124.469 1.06208C127.987 1.14205 126.518 1.28314 127.176 1.44903C127.936 1.46043 128.696 1.47182 129.456 1.48321C130.044 1.35586 130.633 1.2285 131.221 1.10114C134.615 1.11152 138.009 1.1219 141.403 1.13227C141.622 1.19066 141.842 1.24905 142.061 1.30744C142.068 1.24905 142.076 1.19066 142.083 1.13227C147.83 1.12027 153.577 1.10826 159.325 1.09626C160.854 1.00259 151.645 0.931613 150.948 0.925979C147.068 0.89499 136.767 0.988898 136.754 0.780719C134.343 0.936047 127.084 0.897481 124.825 0.711142C128.253 0.722331 131.68 0.73352 135.108 0.744709C134.997 0.674928 134.886 0.605147 134.776 0.535366C139.046 0.816809 139.671 0.801319 144.061 0.535366C144.065 0.62895 144.069 0.722534 144.073 0.816119C147.134 0.490703 152.545 1.04271 152.7 0.640953C154.33 0.673504 155.96 0.706055 157.59 0.738606C161.11 0.689631 155.644 0.380651 169.424 0.501797C170.374 0.510251 170.176 0.612593 171.604 0.605554C172.016 0.60344 174.374 0.45456 178.884 0.47006C179.588 0.472536 179.641 0.561323 180.371 0.572596C182.058 0.599363 185.418 0.423762 183.892 0.709921C190.573 0.793378 187.804 0.558523 189.876 0.465177C191.257 0.403228 190.979 0.572538 192.175 0.534145C193.654 0.486531 192.569 0.315847 198.491 0.394379C197.827 0.405975 197.162 0.417571 196.498 0.429168C196.832 0.475553 197.166 0.521938 197.501 0.568324C200.881 0.457024 200.562 0.619647 202.156 0.358979C204.613 0.475224 206.739 0.484481 210.1 0.463346C216.628 0.422132 213.281 0.141212 220.733 0.519497C221.94 0.466398 223.147 0.413299 224.354 0.3602C226.339 0.471858 224.734 0.611557 227.695 0.639732C225.377 0.363912 231.627 0.464482 232.683 0.218603C232.793 0.277194 232.904 0.335787 233.015 0.394379C233.677 0.394379 234.338 0.394379 235 0.394379C235.002 0.347383 235.004 0.300387 235.006 0.253392C235.887 0.288588 236.768 0.323783 237.649 0.358979C238.311 0.312391 238.974 0.265802 239.636 0.219213C240.726 0.317477 241.815 0.41574 242.904 0.514004C243.588 0.520718 244.272 0.527431 244.956 0.534145C244.739 0.46416 244.523 0.394175 244.306 0.32419C245.185 0.347587 246.064 0.370983 246.943 0.394379C245.921 0.279541 246.563 0.144892 249.3 0.148415C251.558 0.15124 249.014 0.390921 253.869 0.291233C254.208 0.284126 254.808 0.113185 259.396 0.086771C264.899 0.0550981 262.226 0.178914 263.207 0.183203C263.4 0.183908 265.081 0.0978808 266.655 0.0855503C267.548 0.0785308 268.408 0.147985 268.526 0.147804C269.078 0.144634 269.238 0.0463762 270.002 0.0428271C271.941 0.0343747 274.544 0.0825195 276.443 0.0776157C277.307 0.0755024 278.119 0.0172873 278.504 0.0165825C279.102 0.0159097 279.86 0.104823 280.464 0.104471C282.696 0.10261 286.083 -0.192394 287.119 0.217382C289.264 -0.159424 293.758 0.296144 293.429 0.043437C295.871 0.0840554 300.046 0.0511432 304 0.032764C309.384 -0.0887413 313.22 5.04742 312.967 9C312.946 11.3322 312.885 12.8664 312.747 12.7198C313.11 15.9666 312.847 15.6765 312.852 17.0365C312.858 18.5574 312.929 17.7695 312.925 18.9783C312.918 21.8007 312.888 24.4976 312.886 27.3067C312.828 26.8657 312.77 26.4247 312.712 25.9837C312.693 28.9324 312.829 27.9172 312.855 30.9252C312.902 36.4577 312.794 34.1263 312.642 34.9431C312.789 34.7239 312.766 41.2476 312.747 41.9118C312.735 42.3078 312.545 40.5721 312.606 44.567C312.665 44.3486 312.723 44.1301 312.781 43.9116C312.702 45.7317 312.803 50.6755 312.783 51.5145C312.774 51.8997 312.303 53.9601 312.676 55.8463C312.617 56.0739 312.559 56.3015 312.501 56.5292C312.571 58.6235 312.641 60.7177 312.711 62.812C312.606 63.1463 312.501 63.4807 312.396 63.815C312.396 64.4795 312.396 65.1441 312.396 65.8087C312.489 65.3676 312.582 64.9266 312.676 64.4856C312.634 68.5892 312.781 73.6025 312.466 74.448C312.524 75.3269 312.583 76.2059 312.641 77.0849C312.536 77.657 312.431 78.2291 312.327 78.8012C312.353 82.8713 312.423 82.9385 312.535 85.7212C312.453 85.6124 312.371 85.5037 312.289 85.395C312.404 87.4473 312.511 91.1941 312.526 94.1562C312.532 95.5644 312.42 97.9823 312.43 98.3143C312.437 98.5256 312.615 99.912 312.65 101C312.679 102.381 312.273 103.523 312.049 103.736C310.583 108.082 306.658 109.632 304 109.57C302.298 109.553 301.121 109.498 299.998 109.501C298.716 109.503 298.132 109.596 296.684 109.605C294.612 109.619 292.527 109.574 291.331 109.581C290.647 109.584 290.519 109.674 290.048 109.677C287.818 109.691 289.124 109.599 286.774 109.605C286.557 109.606 284.839 109.716 282.902 109.701C281.82 109.694 279.018 109.571 278.772 109.571C277.676 109.573 278.551 109.819 274.806 109.535C274.914 109.582 275.023 109.628 275.132 109.675C270.496 109.794 269.764 109.585 268.828 109.571C268.708 109.57 267.579 109.65 266.904 109.639C265.763 109.62 265.303 109.51 265.05 109.505C264.16 109.488 261.163 109.537 259.204 109.43C259.615 109.744 252.75 109.856 251.229 109.5C250.013 109.57 248.798 109.64 247.583 109.711C247.033 109.652 246.483 109.593 245.934 109.535C245.599 109.593 245.265 109.652 244.931 109.71C243.16 109.581 241.388 109.453 239.617 109.324C239.504 109.453 239.392 109.582 239.279 109.711C238.783 109.696 238.287 109.681 237.791 109.667C237.404 109.564 237.017 109.462 236.63 109.36C236.01 109.379 235.39 109.399 234.77 109.418C234.617 109.492 234.463 109.566 234.31 109.64C230.978 109.726 232.69 109.019 226.341 109.64C225.354 109.582 224.366 109.524 223.378 109.465C222.263 109.749 220.172 109.577 218.485 109.609C217.297 109.632 217.361 109.745 215.742 109.747C214.121 109.75 214.179 109.642 214.053 109.641C212.732 109.634 211.736 109.73 210.767 109.711C210.621 109.708 210.255 109.58 209.02 109.571C207.785 109.563 207.04 109.7 205.2 109.674C204.257 109.661 203.985 109.553 203.149 109.543C199.164 109.497 195.151 110.044 192.162 109.395C191.488 109.477 186.602 109.765 184.51 109.748C181.258 109.722 182.511 109.595 181.218 109.571C181.032 109.568 180.042 109.611 177.313 109.603C176.825 109.602 176.938 109.674 176.868 109.675C173.687 109.673 167.509 109.616 164.016 109.606C163.703 109.605 162.069 109.805 159.3 109.536C155.195 109.735 147.465 109.307 142.051 109.607C141.301 109.614 140.39 109.542 140.058 109.545C137.195 109.567 138.244 109.784 131.775 109.466C132.299 109.577 130.785 109.677 128.647 109.668C125.433 109.656 127.716 109.449 125.133 109.466C125.133 109.524 125.133 109.583 125.133 109.641C119.189 109.484 118.006 109.734 112.043 109.735C109.897 109.735 106.728 109.606 106.217 109.606C106.019 109.606 103.673 109.747 103.449 109.748C102.187 109.752 101.474 109.687 100.385 109.687C96.7856 109.685 92.4901 109.869 93.2671 109.536C92.2774 109.606 91.2876 109.676 90.2979 109.747C86.5585 109.392 83.7623 109.881 82.9786 109.536C82.3099 109.607 81.6413 109.678 80.9727 109.75C64.9348 109.714 48.8969 109.678 32.8589 109.642C32.2213 109.753 25.2276 109.713 24.8689 109.696C23.2221 109.618 24.9616 109.376 21.601 109.431C21.2291 109.537 20.8572 109.643 20.4853 109.749C16.2614 109.784 18.293 109.678 16.6259 109.606C15.9293 109.619 16.1543 109.702 15.2114 109.708C13.5777 109.718 11.3956 109.726 9 109.731C4.53616 109.892 0.129196 105.74 0.258191 101C0.254163 97.7483 0.25188 94.6088 0.249119 92.302C0.247712 91.1744 0.324605 91.3445 0.3248 90.9942C0.324096 90.0314 0.227198 88.1313 0.227148 86.199C0.227852 74.2508 0.282494 57.32 0.363862 45.2918C0.369498 44.4749 0.461208 44.3738 0.465787 43.8225C0.471747 43.0585 0.397616 41.352 0.405365 40.5484C0.412411 39.7915 0.482068 39.3067 0.490201 38.4968C0.528245 34.7907 0.410561 29.8079 0.61593 25.8427C0.633253 25.5092 1.00247 21.3549 1.02668 21.2609C1.17041 20.7096 1.3962 24.4014 1.6065 18.3374C1.79003 23.7571 2.11447 22.064 2.27298 15.0237C2.31388 18.5549 2.35477 22.086 2.39566 25.6171C2.43411 25.6222 2.47256 25.6273 2.51101 25.6324C2.70158 22.4179 2.76499 19.2288 2.78261 14.3409C2.81821 14.4933 2.85382 14.6457 2.88942 14.7982C3.06731 19.1153 3.10019 24.3232 3.3429 27.6108C3.52254 22.7892 3.70218 17.9675 3.88182 13.1459C3.9099 13.3867 3.93797 13.6276 3.96605 13.8684C4.03896 16.1797 4.08177 21.2284 4.14976 23.1479C4.40899 30.4789 4.34376 16.7316 4.50192 18.9898C4.49622 26.7298 4.49053 34.4698 4.48483 42.2099C4.6013 42.4812 4.923 12.705 5.2746 13.0118C5.2982 15.4444 5.3218 17.8771 5.3454 20.3098C5.43471 19.2255 5.52402 18.1413 5.61333 17.0571C5.64161 17.3558 5.66989 17.6546 5.69817 17.9533C5.76755 22.0575 5.83692 26.1618 5.90629 30.266C5.83656 17.7877 5.88718 11.9889 6.59048 9C6.60838 9.33838 6.62628 9.67676 6.64419 10.0151C6.20421 12.7183 6.34652 25.4784 6.43423 32.2597C6.56311 30.8776 6.46355 24.9066 6.54104 23.6448C6.56326 23.2872 6.65271 24.5341 6.69851 23.7057C6.81757 21.5406 6.97075 12.3142 7.11658 13.655C7.21029 14.5184 7.33884 29.3639 7.32898 32.2597C7.49736 25.4719 7.54607 18.4781 7.75072 11.6704C8.03605 15.9675 8.38522 19.7732 8.40072 27.6169C8.55044 30.0077 8.75783 13.4031 8.83955 13.0179C8.92724 15.8915 9.01492 18.7652 9.10261 21.6389C9.07921 19.2083 9.05582 16.7776 9.03242 14.347C9.06172 14.3399 9.09101 14.3328 9.12031 14.3256C9.25628 20.6221 9.50586 26.3825 9.48895 33.5888C9.64394 33.3564 9.62853 29.0445 9.62993 26.9523ZM94.3073 0.814288C94.1619 0.685772 96.804 0.706843 98.2917 0.709311C98.0681 0.685914 97.8446 0.662518 97.621 0.639122C100.796 0.663428 106.706 0.712748 106.925 0.463346C109.19 0.432349 108.188 0.64923 108.919 0.673911C109.204 0.683774 112.16 0.557555 114.525 0.711142C115.087 0.710531 115.649 0.709921 116.21 0.709311C116.319 0.627526 116.428 0.545741 116.537 0.463956C117.32 0.563237 118.104 0.662518 118.887 0.761799C110.698 0.779295 102.509 0.796792 94.3195 0.814288C94.3155 0.814288 94.3114 0.814288 94.3073 0.814288ZM175.936 0.7087C178.918 0.754846 183.486 0.827709 182.563 0.603723C180.679 0.615522 178.795 0.627322 176.911 0.639122C176.586 0.662315 176.261 0.685507 175.936 0.7087ZM239.965 109.115C237.474 108.894 235.181 109.085 231.328 109.045C231.334 109.092 231.339 109.139 231.344 109.185C232.919 109.073 237.083 109.148 239.965 109.115ZM20.3092 1.65716C19.7604 1.63986 19.2118 1.62257 18.663 1.60528C20.8947 1.35482 21.2941 1.53132 23.818 1.50702C23.9702 1.50549 23.9173 1.44816 23.9704 1.44781C24.5881 1.44395 25.1592 1.51295 25.7172 1.5119C26.7931 1.50978 27.6704 1.43985 29.5765 1.44232C31.0505 1.44446 31.0643 1.55439 31.5824 1.55157C32.0239 1.54885 36.3976 1.24643 39.2126 1.37701C44.5659 1.62571 21.9431 1.68041 20.3092 1.65716ZM2.14184 5.84106C2.56017 4.9305 3.15936 4.10995 3.89312 3.43539C2.26743 5.60592 4.74657 1.50238 8.99999 1.58912C9.34253 1.58836 9.68363 1.58745 10.0085 1.58697C9.98842 1.63135 9.59975 1.65838 8.99999 1.67522C7.56753 1.65766 5.35437 2.28332 3.8565 3.82711C2.30862 5.31879 1.66939 7.54882 1.72796 9C1.63371 7.96393 1.76896 6.86737 2.14184 5.84106ZM71.3921 1.79753C69.3205 1.81405 69.6657 1.6118 69.7521 1.55157C70.4116 1.55157 71.071 1.55157 71.7305 1.55157C71.6177 1.63356 71.5049 1.71555 71.3921 1.79753ZM55.8115 1.86772C56.4558 1.73034 60.9531 1.67026 63.0851 1.65899C63.1782 1.65897 62.5926 1.73436 64.1002 1.72735C64.553 1.72515 69.0065 1.4508 68.0266 1.76213C63.9569 1.79733 59.8873 1.83253 55.8176 1.86772C55.8155 1.86772 55.8135 1.86772 55.8115 1.86772ZM51.2693 1.78655C52.1168 1.74342 52.9642 1.70029 53.8117 1.65716C54.2497 1.72165 54.6876 1.78614 55.1256 1.85063C54.1613 1.86691 53.1969 1.88318 52.2326 1.89946C51.9115 1.86182 51.5904 1.82418 51.2693 1.78655ZM23.6861 108.03C23.8833 108.099 24.0804 108.168 24.2775 108.237C25.0413 108.28 28.7546 107.979 27.579 107.921C26.2814 107.958 24.9838 107.994 23.6861 108.03ZM7.30636 107.675C6.01922 107.315 4.86172 106.573 4.00569 105.587C2.90147 104.566 2.11975 103.115 1.88833 101.544C2.01886 105.78 6.45751 108.484 9 108.194C10.0372 108.17 10.6035 108.102 10.3248 107.957C11.2078 107.957 12.0908 107.957 12.9739 107.957C12.2303 108.1 12.3303 108.147 14.6414 108.237C15.1468 108.039 17.5365 108.14 20.2719 108.096C18.2823 108.085 16.2926 108.073 14.303 108.061C14.303 108.026 14.303 107.991 14.303 107.957C18.7378 107.969 13.2259 107.747 10.337 107.886C10.1093 107.84 9.88173 107.793 9.65411 107.747C9.43608 107.765 9.21804 107.783 9 107.802C8.44035 107.83 7.86814 107.789 7.30636 107.675ZM310.956 82.7245C310.921 83.2743 310.886 83.824 310.851 84.3737C311.309 86.5042 310.874 82.1667 311.237 79.0786C310.962 80.0988 310.973 75.3911 310.955 75.1217C310.862 75.6633 310.769 76.2049 310.676 76.7465C310.77 78.7392 310.863 80.7318 310.956 82.7245ZM310.64 98.3082C310.743 97.4487 310.803 98.8805 310.832 101C311.12 104.444 307.31 108.133 304 107.849C303.37 107.845 302.813 107.84 302.376 107.833C301.612 107.82 300.25 107.695 299.699 107.711C299.365 107.757 299.031 107.803 298.696 107.85C298.3 107.689 292.166 107.87 289.749 107.956C289.521 107.898 289.294 107.839 289.066 107.781C288.185 107.804 287.304 107.827 286.423 107.85C286.534 107.792 286.645 107.734 286.755 107.676C286.089 107.746 285.422 107.816 284.756 107.886C282.139 107.964 283.752 107.646 281.786 107.745C279.601 107.855 283.182 108.044 283.116 108.167C284.889 108.135 288.922 108.064 290.721 108.061C291.755 108.059 290.584 108.279 295.038 108.026C296.015 108.085 296.991 108.144 297.968 108.203C299.76 108.109 301.553 108.016 303.345 107.922C303.563 107.975 303.782 108.028 304 108.082C304.205 108.11 304.41 108.129 304.62 108.14C304.771 108.156 306.803 107.873 308.229 106.675C309.704 105.548 310.339 103.87 310.227 104.049C310.631 103.331 311.012 102.271 311.037 101C311.103 99.1698 311.119 96.6629 311.124 94.0617C311.08 93.7122 311.036 93.3626 310.991 93.0131C311.087 96.5254 310.944 94.1306 310.859 95.1775C310.81 95.7819 310.714 97.6307 310.64 98.3082ZM48.1561 107.852C42.2585 108.051 45.9099 107.886 39.5351 107.886C39.9801 107.992 40.4252 108.097 40.8703 108.202C44.0046 108.01 49.1618 108.138 48.1622 107.852C48.1601 107.852 48.1581 107.852 48.1561 107.852ZM1.79814 84.059C1.8619 87.4325 2.02579 85.7396 2.07829 90.0157C2.07829 90.0177 2.07829 90.0198 2.07829 90.0218C2.09009 87.8107 2.10189 85.5995 2.11369 83.3884C2.00851 83.6119 1.90332 83.8355 1.79814 84.059ZM182.983 108.074C186.217 108.12 185.581 108.038 188.516 108.202C192.886 108.003 189.187 108.031 189.187 107.851C188.188 107.904 187.189 107.957 186.19 108.01C183.768 107.841 186.065 107.756 186.065 107.74C186.063 107.74 186.061 107.74 186.059 107.74C186.059 107.686 186.137 107.674 185.208 107.642C184.467 107.786 183.725 107.93 182.983 108.074ZM196.826 107.852C195.717 107.971 195.218 108.125 198.134 108.202C198.136 108.202 198.138 108.202 198.14 108.202C198.374 107.934 201.17 108.15 202.444 108.132C202.779 108.103 203.113 108.074 203.447 108.045C201.24 107.981 199.033 107.916 196.826 107.852ZM245.601 107.606C245.614 107.901 243.167 107.929 246.61 108.202C247.279 108.197 247.948 108.191 248.616 108.186C249.055 108.121 249.494 108.056 249.933 107.991C258.415 108.526 260.943 107.615 246.61 107.956C246.608 107.956 246.606 107.956 246.604 107.957C246.27 107.84 245.936 107.723 245.601 107.606ZM230.664 107.631C230.556 107.786 230.449 107.941 230.341 108.096C228.468 107.722 226.048 108.079 222.375 107.815C222.043 107.862 221.711 107.909 221.378 107.957C220.006 107.853 206.523 107.823 209.444 108.061C210.719 108.166 213.497 108.024 213.736 108.027C214.546 108.039 215.603 108.172 216.97 108.165C217.761 108.16 219.427 108.003 221.04 108.004C224.646 108.004 231.229 108.425 235.971 108.027C236.313 108.073 236.654 108.12 236.996 108.167C240.514 108.139 239.34 107.99 242.614 108.167C244.876 107.43 229.452 108.203 232.664 107.606C232.662 107.606 232.66 107.606 232.658 107.606C231.993 107.614 231.328 107.622 230.664 107.631ZM133.775 107.852C133.562 107.719 129.481 107.923 130.44 107.606C129.108 107.717 127.776 107.827 126.443 107.938C126.454 107.967 126.464 107.997 126.474 108.026C127.798 108.003 129.122 107.98 130.446 107.957C130.451 108.003 130.456 108.05 130.461 108.097C132.434 107.928 140.668 108.001 140.418 108.167C140.858 108.097 141.297 108.027 141.738 107.957C145.676 108.148 149.065 107.945 153.355 108.131C153.687 108.073 154.02 108.015 154.352 107.957C154.568 108.004 154.785 108.051 155.001 108.097C156.564 108.103 158.127 108.109 159.69 108.115C164.783 107.927 154.887 107.683 153.687 107.711C153.528 107.714 153.553 107.836 152.556 107.855C150.787 107.888 140.883 107.767 137.82 107.847C137.794 107.767 137.767 107.687 137.741 107.606C136.419 107.688 135.097 107.77 133.775 107.852ZM264.526 107.922C264.75 108.004 264.973 108.085 265.197 108.167C269.055 108.085 271.484 108.157 270.495 107.886C270.493 107.886 270.491 107.886 270.489 107.886C268.501 107.898 266.514 107.91 264.526 107.922ZM161.325 2.00871C161.426 2.17128 163.27 2.23206 165.653 2.11552C165.539 2.06832 165.424 2.02112 165.309 1.97392C164.067 2.11236 162.517 1.87107 158.685 1.90312C158.685 1.98491 158.685 2.06669 158.685 2.14848C159.565 2.10189 160.445 2.0553 161.325 2.00871ZM261.197 107.886C260.021 107.79 256.721 108.082 258.893 108.097C260.553 108.108 261.828 107.938 261.197 107.886ZM1.95622 70.7891C1.93913 71.6609 1.92204 72.5328 1.90495 73.4047C1.97453 73.8589 2.04411 74.3131 2.11369 74.7673C2.11369 74.7653 2.11369 74.7633 2.11369 74.7612C2.0612 73.4372 2.00871 72.1131 1.95622 70.7891ZM171.926 108.088C174.883 108.078 177.84 108.067 180.797 108.057C180.827 108.012 180.856 107.966 180.886 107.921C177.923 108.087 176.732 107.908 176.042 107.897C176.045 107.897 176.048 107.897 176.051 107.897C173.833 107.861 171.72 107.835 169.622 107.781C170.39 107.883 171.158 107.985 171.926 108.088ZM161.79 107.801C162.288 108.122 162.939 108.159 167.482 107.934C167.302 107.894 167.122 107.855 166.942 107.816C164.588 107.839 163.215 107.913 163.628 107.746C163.016 107.764 162.403 107.783 161.79 107.801ZM208.096 107.904C207.551 107.802 203.224 107.904 203.46 107.956C203.552 107.976 209.159 108.104 208.096 107.904ZM128.477 2.07951C129.474 2.1029 130.471 2.1263 131.468 2.1497C130.142 2.18448 128.816 2.21927 127.49 2.25406C127.819 2.19588 128.148 2.13769 128.477 2.07951ZM117.534 2.53543C116.823 2.49457 119.133 2.20636 114.884 2.132C117.977 2.12589 121.069 2.11979 124.161 2.11369C122.711 2.16027 121.261 2.20686 119.811 2.25345C120.064 2.33625 120.317 2.41906 120.57 2.50186C119.558 2.51305 118.546 2.52424 117.534 2.53543ZM114.214 2.32425C115.879 2.5433 107.111 2.55975 106.294 2.53298C106.112 2.52662 105.247 2.36055 104.928 2.32486C106.252 2.32466 107.576 2.32445 108.9 2.32425C108.457 2.27197 108.014 2.21968 107.571 2.1674C109.121 2.14949 110.67 2.13159 112.22 2.11369C111.558 2.16617 110.895 2.21866 110.232 2.27115C111.56 2.28885 112.887 2.30655 114.214 2.32425ZM149.393 2.27115C148.284 2.26566 147.176 2.26017 146.067 2.25467C146.289 2.33646 146.51 2.41824 146.732 2.50003C147.395 2.50003 148.059 2.50003 148.722 2.50003C148.946 2.42374 149.169 2.34744 149.393 2.27115ZM126.804 2.37674C128.418 1.98296 132.816 2.84383 127.676 2.52505C127.158 2.49264 126.651 2.41478 126.804 2.37674ZM103.008 2.48599C99.5606 2.77308 100.338 2.13922 103.593 2.32486C103.757 2.33474 103.266 2.46479 103.008 2.48599ZM77.1628 2.49514C76.8836 2.49301 76.3955 2.28778 73.7303 2.48294C73.2903 2.45954 72.8503 2.43615 72.4103 2.41275C73.44 2.31739 82.2483 2.26066 81.0313 2.46402C79.6831 2.46719 78.5576 2.50148 77.1628 2.49514ZM85.6924 3.2544C87.0144 3.2487 88.3364 3.24301 89.6585 3.23731C89.2225 3.17302 88.7866 3.10873 88.3507 3.04444C89.001 3.02695 89.6513 3.00945 90.3017 2.99196C91.4133 3.10283 92.525 3.21371 93.6367 3.32459C90.763 3.34229 87.8893 3.35999 85.0156 3.37769C85.2412 3.33659 85.4668 3.29549 85.6924 3.2544ZM120.841 3.41308C118.297 3.33242 115.181 3.41828 111.049 3.40454C111.047 3.40434 111.045 3.40413 111.043 3.40393C110.837 3.40299 110.472 3.31468 109.809 3.31116C109.243 3.30835 98.0862 3.40533 98.9562 3.25562C103.273 3.12143 104.886 3.32544 105.922 2.99257C106.132 3.06275 106.343 3.13294 106.553 3.20313C110.704 3.32466 111.889 3.08169 114.22 2.99257C114.211 3.04546 114.202 3.09836 114.192 3.15125C115.749 3.15654 117.306 3.16183 118.863 3.16712C118.643 3.13233 118.424 3.09754 118.204 3.06275C118.755 3.06275 119.306 3.06275 119.856 3.06275C121.198 3.21949 122.899 3.25602 120.841 3.41308ZM79.6961 3.16712C78.4741 3.56834 66.5647 3.29352 61.1249 3.37769C63.9809 3.1361 68.4053 3.30259 71.5201 3.30506C77.5417 3.30961 73.3794 3.16175 74.4009 3.09693C74.9057 3.06488 78.3213 3.32212 79.6961 3.16712ZM130.133 3.3429C127.131 3.31049 125.45 3.40286 122.853 3.25562C123.071 3.22632 123.288 3.19703 123.505 3.16773C124.395 3.19455 131.646 3.27917 130.133 3.3429ZM53.1532 3.27271C58.9515 3.41678 56.0914 3.05351 59.1068 3.32581C57.1223 3.3431 55.1377 3.36039 53.1532 3.37769C53.1532 3.34269 53.1532 3.3077 53.1532 3.27271ZM254.561 106.377C252.117 106.368 249.388 106.295 247.927 106.446C249.588 106.469 251.248 106.493 252.908 106.516C253.459 106.47 254.01 106.423 254.561 106.377ZM307.898 87.0411C307.862 87.5991 307.969 89.8053 307.969 90.0378C307.969 90.4697 307.916 90.3517 307.902 90.3578C307.912 93.1851 308.076 90.5768 308.111 92.6686C308.117 93.0263 308.036 97.9403 308.043 99.9391C308.044 100.294 308.045 100.648 308.046 101C308.082 103.982 304.982 105.208 304.05 105.045C304.034 105.045 304.017 105.045 304 105.045C302.049 105.052 298.482 105.173 295.322 105.179C294.007 105.181 293.549 105.083 292.227 105.085C283.746 105.102 267.049 105.237 259.524 105.175C257.664 105.159 255.891 105.03 254.908 105.041C254.133 105.088 253.358 105.135 252.582 105.182C250.198 104.759 249.4 105.135 246.83 105.175C245.197 105.2 244.434 105.074 244.214 105.075C242.76 105.077 242.043 105.137 240.901 105.147C239.619 105.157 237.777 105.101 237.319 105.111C237.037 105.118 237.936 105.285 232.962 105.281C227.894 105.278 222.89 105.261 217.735 105.253C219.455 105.756 220.935 105.411 223.04 105.393C223.604 105.388 223.246 105.468 223.738 105.465C225.126 105.455 227.783 105.377 228.932 105.396C230.173 105.416 229.749 105.601 231.322 105.533C231.402 105.529 231.15 105.453 231.521 105.44C235.24 105.314 236.457 105.447 241.16 105.45C244.275 105.453 263.197 105.377 263.846 105.427C267.234 105.695 247.295 105.697 244.964 105.676C244.148 105.668 245.004 105.584 244.26 105.568C243.945 105.561 241.11 105.722 238.309 105.736C234.922 105.752 228.115 105.642 224.887 105.646C197.138 105.679 169.774 105.582 142.051 105.58C141.46 105.58 140.682 105.676 138.756 105.676C102.811 105.675 65.5557 105.599 29.152 105.644C22.4291 105.652 15.753 105.719 9 105.695C7.56685 105.702 6.14941 104.992 5.29291 103.845C4.62081 103.077 4.20016 102.059 4.14193 101C4.13335 100.879 4.12477 100.758 4.11619 100.637C4.11876 100.753 4.12088 100.875 4.12258 101C3.8716 103.538 7.03825 106.226 9 105.965C9.51689 105.979 9.87355 105.989 9.97725 105.989C10.13 105.99 11.0938 105.911 12.6477 105.915C14.8328 105.921 15.7912 105.989 15.9705 105.989C16.5263 105.99 16.1621 105.916 16.693 105.917C20.6515 105.92 23.7143 105.899 27.3473 105.898C31.4514 105.898 33.5316 106.034 36.5201 105.884C36.8585 105.943 37.1969 106.001 37.5353 106.06C39.7682 105.807 53.0646 105.835 58.4507 105.848C60.1501 105.853 59.8519 105.955 60.4231 105.955C60.7877 105.955 60.6438 105.821 65.0902 105.847C67.3285 105.861 67.9155 105.958 69.038 105.955C69.6479 105.953 69.5489 105.856 70.425 105.856C75.4924 105.856 79.6301 105.888 84.5912 105.906C85.986 105.911 86.0014 105.992 86.3136 105.991C87.4628 105.987 89.4618 105.85 92.383 105.85C97.1917 105.851 106.775 105.851 110.707 105.918C111.285 105.928 111.764 106.025 112.189 106.024C112.832 106.021 113.085 105.92 113.198 105.919C115.35 105.917 114.055 106.012 115.496 105.989C116.273 105.976 117.084 105.861 118.889 105.848C121.274 105.831 120.804 105.968 121.801 105.954C121.906 105.952 121.937 105.856 122.916 105.853C126.629 105.842 132.015 105.82 135.528 105.82C136.537 105.82 137.288 105.885 138.695 105.886C141.531 105.888 157.651 105.847 158.973 105.884C159.113 105.888 157.679 106.028 159.964 106.024C160.628 105.966 161.291 105.907 161.955 105.848C163.064 105.942 164.174 106.036 165.284 106.13C165.244 105.806 171.772 105.756 171.707 106.087C172.421 106.1 173.136 106.114 173.85 106.127C175.338 105.898 176.328 105.983 179.203 105.848C179.651 105.919 180.099 105.989 180.547 106.059C180.66 106.012 180.773 105.965 180.886 105.919C182.42 106.172 184.936 105.918 185.242 105.916C186.417 105.911 187.3 105.975 187.851 105.973C189.91 105.966 194.367 105.877 196.771 105.919C196.884 105.921 196.773 106.029 197.457 106.043C198.691 106.067 198.811 105.908 200.457 106.094C200.789 106.048 201.121 106.001 201.454 105.954C201.806 105.978 202.159 106.002 202.511 106.027C204.593 106.014 206.674 106.002 208.755 105.989C206.862 106.173 209.04 106.275 211.099 106.131C211.796 106.082 211.178 105.97 211.41 105.953C211.729 105.93 221.069 105.987 221.686 106.06C222.128 106.024 222.57 105.989 223.012 105.954C223.236 106.024 223.459 106.095 223.683 106.165C223.927 106.141 224.171 106.116 224.415 106.091C226.845 106.215 233.154 105.931 234.298 105.953C234.909 105.965 234.359 106.265 237.288 106.235C237.39 106.152 237.491 106.07 237.593 105.988C238.264 105.976 238.934 105.964 239.605 105.952C240.864 105.96 242.695 106.102 242.754 106.2C243.147 106.141 243.541 106.083 243.934 106.024C244.99 106.215 250.622 106.147 252.887 106.027C253.55 106.084 254.212 106.142 254.875 106.199C255.765 106.129 256.655 106.059 257.545 105.989C259.607 105.968 257.429 106.085 257.868 106.094C258.798 106.114 263.537 105.918 263.224 106.163C263.871 106.163 264.517 106.164 265.163 106.165C265.495 106.095 265.828 106.025 266.16 105.955C267.27 106.196 269.189 106.111 273.126 106.199C273.456 106.143 273.786 106.088 274.117 106.032C275.334 106.111 276.551 106.19 277.769 106.269C278.019 106.177 278.269 106.085 278.519 105.993C279.048 105.98 279.577 105.967 280.107 105.953C281.182 106.159 283.114 105.937 284.097 106.022C285.532 106.146 284.422 106.294 281.759 106.322C281.958 106.472 289.892 106.403 291.721 106.392C291.6 106.363 291.479 106.334 291.359 106.304C289.488 106.328 287.617 106.351 285.746 106.374C284.179 105.997 289.259 106.098 291.59 106.049C291.803 106.045 293.012 105.902 295.361 105.915C296.271 105.92 299.82 106.129 300.498 106.141C303.383 106.191 303.628 106.132 304 106.103C304.343 105.918 305.256 106.638 307.818 104.529C306.784 105.162 309.04 104.003 309.128 101C309.134 100.316 309.136 99.5733 309.127 98.8234C309.12 98.2785 308.958 93.6574 308.953 93.3453C308.927 91.3994 309.104 93.5178 309.058 90.7023C309.012 90.3639 308.965 90.0256 308.919 89.6872C308.919 89.0318 308.919 88.3764 308.919 87.7209C309.334 83.7437 309.028 82.8185 308.989 81.4045C308.973 80.8333 309.081 81.5687 309.058 80.0876C309.05 79.5299 308.96 78.9115 308.953 77.4111C308.934 72.716 309.319 71.1221 308.918 66.8055C308.976 66.143 309.034 65.4804 309.093 64.8179C309.023 64.3708 308.953 63.9237 308.883 63.4766C309.086 60.0568 308.878 61.2915 308.881 60.0562C308.887 56.7949 308.927 50.1205 309.094 49.536C308.71 46.7205 309.143 43.354 309.128 42.2441C309.081 41.5846 309.035 40.9251 308.988 40.2657C309.035 39.4903 309.082 38.715 309.129 37.9397C308.752 38.3166 309.122 34.3011 309.128 33.9157C309.134 33.4708 309.022 27.295 309.024 24.996C309.026 22.7002 309.128 18.6995 309.129 18.3473C309.129 17.9421 309.026 14.0344 309.027 10.9792C309.027 10.5798 309.031 9.8868 309.036 9C309.21 6.95065 307.126 3.86575 304 3.92817C299.152 3.90461 294.176 3.89774 294.749 3.99412C295.785 4.04062 297.26 4.08092 298.535 4.10276C299.46 4.1184 301.437 4.13506 304 4.15176C306.241 4.0605 308.872 6.15161 308.812 9C308.771 17.0996 308.734 26.8325 308.718 30.3826C308.665 42.2907 308.674 54.7101 308.638 66.6714C308.636 67.3751 308.538 67.4822 308.536 68.0858C308.533 69.0024 308.631 71.3285 308.629 72.2318C308.62 75.6057 308.604 79.7109 308.602 81.5173C308.597 85.5549 308.538 88.3242 308.529 91.3791C308.526 92.3354 308.647 97.1706 308.596 100.485C308.588 100.657 308.58 100.828 308.572 101C308.553 101.49 308.455 101.974 308.283 102.427C308.397 102.067 308.499 101.572 308.49 101C308.452 98.9138 308.396 95.6929 308.389 94.0221C308.375 90.9281 308.454 89.3144 308.453 88.1721C308.452 87.2159 308.362 82.3284 308.36 80.1029C308.359 79.4121 308.461 79.2703 308.461 78.6792C308.458 75.4714 308.456 71.2465 308.355 68.4639C308.388 69.5996 308.451 62.5072 308.45 62.1353C308.45 61.4978 308.355 60.806 308.355 59.5045C308.355 57.0015 308.555 57.3189 308.355 54.191C308.413 53.4167 308.471 52.6424 308.53 51.8681C308.263 51.8205 308.626 42.0363 308.302 39.2536C308.265 39.1805 308.161 51.8948 308.156 52.9442C308.124 59.2402 308.189 68.5573 308.142 74.6675C308.128 76.5064 307.966 82.2883 307.969 82.7245C307.973 83.428 308.066 82.7925 308.07 83.0964C308.139 89.3177 307.952 86.2139 307.898 87.0411ZM114.22 3.58886C116.11 3.59985 118 3.61083 119.89 3.62182C119.753 3.68041 119.616 3.739 119.478 3.79759C118.613 3.77481 117.747 3.75202 116.881 3.72924C116.216 3.76423 115.55 3.79922 114.884 3.83421C114.663 3.75243 114.441 3.67065 114.22 3.58886ZM109.562 3.83421C107.923 3.86372 107.843 3.74016 107.464 3.73412C106.336 3.71581 105.359 3.76577 104.264 3.76403C105.526 3.47053 108.214 3.60503 109.562 3.83421ZM143.415 3.9398C143.045 3.92576 140.578 3.60979 137.772 3.90379C135.673 3.81041 133.573 3.71703 131.474 3.62365C135.041 3.76632 139.976 3.61801 141.723 3.62365C142.386 3.62579 142.513 3.72278 143.043 3.72435C146.098 3.7321 149.069 3.51234 149.381 3.8336C146.492 3.74025 143.886 3.95706 143.415 3.9398ZM124.978 3.82567C124.489 3.75853 124 3.6914 123.512 3.62426C125.278 3.62426 127.044 3.62426 128.81 3.62426C128.332 3.69221 127.855 3.76016 127.377 3.82811C126.577 3.8273 125.778 3.82648 124.978 3.82567ZM260.844 4.04783C259.755 4.04702 258.666 4.0462 257.576 4.04539C257.636 4.09432 258.882 4.09413 259.341 4.12717C259.339 4.12717 259.337 4.12717 259.335 4.12717C259.847 4.16451 259.628 4.22752 260.558 4.25534C260.653 4.18617 260.749 4.117 260.844 4.04783ZM4.32614 99.3165C4.32966 97.4906 4.33002 80.6289 4.15159 82.0653C4.06247 82.7893 4.14018 88.5562 4.13877 90.2565C4.13696 92.5486 3.94399 98.7388 4.32614 99.3165ZM4.36093 69.4539C4.18311 69.1618 4.15483 79.6998 4.18577 80.7301C4.21112 80.5113 4.26756 80.1742 4.28037 79.8826C4.34166 78.4614 4.31233 71.7257 4.36093 69.4539ZM308.439 20.5635C308.529 19.714 308.619 18.8645 308.709 18.015C308.592 18.2386 308.475 18.4621 308.358 18.6857C308.385 19.3116 308.412 19.9375 308.439 20.5635ZM308.026 103.16C307.257 104.617 305.649 105.584 304 105.566C291.286 105.561 278.572 105.556 265.858 105.551C267.103 105.502 268.348 105.453 269.593 105.405C280.907 105.421 292.919 105.464 304 105.411C304.95 105.409 305.89 105.087 306.632 104.521C307.179 104.184 307.661 103.719 308.026 103.16ZM147.402 4.46652C151.028 4.46827 154.057 4.38234 158.002 4.51901C154.242 4.65146 152.381 4.44653 148.728 4.64168C148.726 4.64168 148.724 4.64168 148.722 4.64168C148.282 4.5833 147.842 4.52491 147.402 4.46652ZM228.357 4.50192C227.254 4.5837 226.152 4.66549 225.049 4.74727C226.375 4.74727 227.702 4.74727 229.028 4.74727C228.804 4.66549 228.581 4.5837 228.357 4.50192ZM184.87 105.113C181.077 105.291 171.375 104.968 168.293 105.183C168.093 105.197 169.926 105.288 166.963 105.463C169.201 105.427 170.781 105.391 170.948 105.253C171.612 105.3 172.277 105.346 172.941 105.393C174.044 105.358 175.147 105.322 176.249 105.287C176.129 105.424 176.217 105.417 177.91 105.323C178.683 105.358 179.455 105.392 180.227 105.427C180.554 105.369 180.882 105.311 181.209 105.253C181.878 105.334 182.546 105.415 183.215 105.497C185.821 105.409 184.234 105.251 184.87 105.113ZM198.146 105.147C197.53 105.116 179.945 105.215 187.937 105.489C190.014 105.48 192.091 105.471 194.168 105.463C192.448 105.009 198.108 105.415 198.573 105.424C200.797 105.469 203.632 105.361 205.246 105.366C206.634 105.371 207.458 105.453 208.435 105.45C211.76 105.443 217.013 105.44 217.735 105.253C215.151 105.249 212.525 105.247 209.837 105.252C206.994 105.256 204.495 105.079 199.155 105.322C197.835 105.296 198.305 105.154 198.146 105.147ZM221.73 4.72835C221.862 4.53977 215.151 4.58487 215.108 4.65938C215.095 4.70306 217.281 4.70203 217.593 4.71859C217.595 4.71859 217.597 4.71859 217.599 4.71859C217.729 4.72582 217.069 4.79801 218.096 4.81807C219.307 4.78816 220.518 4.75826 221.73 4.72835ZM27.2589 105.252C26.5923 105.174 15.2235 105.174 9 105.2C6.52954 105.166 5.52021 103.363 5.44614 103.304C5.33942 103.163 5.43301 103.396 5.37295 103.352C6.10804 104.441 7.48189 105.28 9 105.264C13.1774 105.252 17.884 105.353 21.3144 105.361C22.5937 105.365 22.2114 105.29 22.2839 105.288C22.2869 105.288 22.29 105.288 22.293 105.288C23.0189 105.288 26.2962 105.471 27.2589 105.252ZM161.656 105.269C162.537 105.299 163.418 105.328 164.299 105.358C164.523 105.299 164.746 105.241 164.97 105.183C164.968 105.183 164.966 105.183 164.964 105.183C163.861 105.211 162.759 105.24 161.656 105.269ZM131.132 105.077C131.346 105.118 131.561 105.159 131.775 105.2C133.993 105.206 136.212 105.212 138.43 105.217C138.206 105.241 137.983 105.264 137.759 105.287C141.113 105.349 142.502 105.204 144.289 105.225C144.287 105.225 144.285 105.225 144.283 105.225C144.475 105.228 144.708 105.313 145.423 105.316C147.063 105.323 151.763 105.355 152.331 105.269C153.533 105.085 144.074 105.172 142.311 105.164C141.514 105.16 140.555 105.085 140.07 105.083C139.539 105.081 138.815 105.183 137.521 105.179C137.143 105.178 132.946 105.059 131.132 105.077ZM91.9776 105.2C92.6617 105.292 94.0898 105.203 94.6145 105.218C94.7399 105.222 93.765 105.299 94.9468 105.322C95.2811 105.269 95.6154 105.217 95.9497 105.164C94.6257 105.176 93.3016 105.188 91.9776 105.2ZM210.453 4.81746C210.646 4.83734 214.249 4.83007 214.422 4.81746C216.581 4.64838 209.118 4.66669 210.453 4.81746ZM119.527 5.01094C121.185 5.25669 101.52 5.01509 99.6147 5.02803C99.7099 4.87357 104.388 5.02886 101.938 4.81685C104.276 4.93345 110.739 4.87153 112.26 4.90535C113.183 4.92579 113.416 5.0592 113.555 5.06342C114.103 5.07845 118.943 4.92431 119.527 5.01094ZM83.3664 4.92305C85.2351 4.95234 87.1039 4.98164 88.9725 5.01094C86.7675 5.02843 84.5625 5.04593 82.3574 5.06342C82.6937 5.01663 83.0301 4.96984 83.3664 4.92305ZM81.0161 4.99324C81.0758 5.14295 74.7328 5.0289 73.0657 5.06342C74.9452 4.80876 78.0805 5.04885 81.0161 4.99324ZM186.554 5.2038C189.476 5.30279 190.732 4.84644 187.178 5.04511C187.07 5.05168 186.432 5.19856 186.554 5.2038ZM183.968 104.471C183.47 104.468 177.272 104.32 176.914 104.393C175.779 104.627 179.846 104.533 181.209 104.622C183.407 104.765 180.174 104.883 185.541 104.796C185.321 104.843 185.102 104.89 184.882 104.937C188.023 104.952 186.995 104.628 187.559 104.586C187.731 104.574 189.695 104.601 190.049 104.58C194.475 104.319 184.43 104.473 183.968 104.471ZM258.896 5.23859C264.714 5.37597 262.211 5.17439 268.182 5.18671C268.381 5.08385 259.654 5.14841 258.896 5.23859ZM240.62 104.656C234.603 104.696 229.655 104.562 224.043 104.742C224.408 105.021 242.181 104.728 240.62 104.656ZM5.62615 56.184C5.32866 70.237 5.26852 85.5845 5.26966 101C5.22087 102.987 7.01582 104.778 9 104.727C17.1697 104.719 25.3116 104.701 33.243 104.699C35.9595 104.698 36.22 104.808 37.203 104.796C37.8469 104.788 37.7343 104.7 38.59 104.699C69.5208 104.685 99.1374 104.568 128.766 104.622C130.633 104.625 139.712 104.816 141.652 104.528C143.119 104.31 136.597 104.48 135.51 104.478C134.693 104.477 134.658 104.374 134.113 104.374C133.535 104.373 134.013 104.444 133.342 104.445C130.5 104.45 127.398 104.422 124.828 104.428C99.6222 104.486 75.1005 104.469 50.0278 104.459C46.9929 104.458 47.6168 104.376 47.4641 104.376C47.462 104.376 47.46 104.376 47.458 104.376C35.4106 104.371 22.0962 104.47 9 104.494C7.13119 104.544 5.4532 102.854 5.50166 101C5.50272 98.5299 5.50759 96.0763 5.51751 93.6495C5.57407 81.5125 5.63063 69.3756 5.68718 57.2387C5.66684 56.8871 5.6465 56.5355 5.62615 56.184ZM196.817 104.761C195.303 104.451 194.964 104.763 189.531 104.637C189.089 104.69 188.647 104.743 188.205 104.796C191.079 104.784 193.952 104.772 196.826 104.761C196.823 104.761 196.82 104.761 196.817 104.761ZM160.934 104.648C160.015 104.229 147.866 104.525 142.396 104.445C141.393 104.656 149.346 104.561 151.221 104.583C152.158 104.594 157.173 104.81 160.985 104.691C160.968 104.676 160.951 104.662 160.934 104.648ZM140.101 5.62615C140.985 5.61394 141.869 5.60174 142.753 5.58953C140.541 5.54315 138.329 5.49676 136.117 5.45038C139.646 5.48028 143.175 5.51019 146.704 5.54009C146.047 5.62697 145.389 5.71384 144.732 5.80071C143.188 5.74252 141.645 5.68434 140.101 5.62615ZM151.551 5.5816C145.371 5.61431 151.823 5.38176 153.365 5.48516C154.288 5.54716 152.182 5.57807 151.551 5.5816ZM167.626 5.73113C164.743 5.88364 158.919 5.89414 160.989 5.58953C164.104 5.7322 166.112 5.61365 170.628 5.69573C169.969 5.75412 169.309 5.81251 168.65 5.87089C168.647 5.87089 168.644 5.87089 168.641 5.87089C168.302 5.82431 167.964 5.77772 167.626 5.73113ZM148.728 5.76592C144.681 5.59092 156.399 5.65075 152.716 5.76592C152.543 5.7712 148.888 5.77261 148.728 5.76592ZM5.94108 82.0653C5.84154 81.5777 5.84341 84.6909 5.83672 85.7265C5.80714 90.216 5.85045 95.9738 5.83672 100.643C5.86947 100.291 5.90223 99.9394 5.93498 99.5878C5.93701 93.747 5.93905 87.9062 5.94108 82.0653ZM16.9643 104.164C20.1723 104.164 23.3803 104.164 26.5883 104.164C26.8871 104.164 28.2895 104.078 27.2467 104.058C23.8193 104.093 20.3918 104.128 16.9643 104.164ZM217.068 104.164C214.608 104.108 221.691 103.822 221.372 104.128C219.937 104.14 218.503 104.152 217.068 104.164ZM239.956 104.042C238.413 104.071 236.871 104.1 235.328 104.129C235.326 104.094 235.324 104.059 235.322 104.024C236.867 104.03 238.411 104.036 239.956 104.042ZM6.01127 69.4539C5.89083 71.0878 5.90937 74.9856 5.9069 77.4164C6.01039 75.7422 5.95951 71.7515 6.01127 69.4539ZM180.215 104.041C180.414 104.123 170.63 104.102 174.018 103.958C176.083 103.985 178.149 104.013 180.215 104.041ZM160.342 103.919C162.441 103.901 164.066 103.929 163.635 104.058C162.522 104.053 161.409 104.047 160.296 104.042C160.312 104.001 160.327 103.96 160.342 103.919ZM178.597 5.97648C182.133 5.96489 185.669 5.95329 189.206 5.94169C189.075 5.97689 188.944 6.01209 188.812 6.04728C185.403 6.05867 181.994 6.07007 178.585 6.08146C178.589 6.04647 178.593 6.01147 178.597 5.97648ZM6.32742 67.4541C6.30443 65.0255 6.28145 62.5969 6.25846 60.1683C6.23486 62.5989 6.21126 65.0296 6.18766 67.4602C6.23445 67.4602 6.28124 67.4602 6.32803 67.4602C6.32783 67.4582 6.32763 67.4561 6.32742 67.4541ZM130.154 6.4324C140.957 6.59654 127.173 6.77005 124.322 6.52883C124.319 6.52904 124.316 6.52924 124.313 6.52944C124.064 6.50813 124.591 6.40503 124.176 6.36343C125.276 6.41002 126.375 6.45661 127.475 6.5032C128.477 6.44522 129.48 6.38724 130.483 6.32925C130.814 6.35204 131.144 6.37483 131.474 6.39761C131.034 6.40921 130.594 6.4208 130.154 6.4324ZM86.5551 6.52395C76.7598 6.50492 86.7824 6.24711 91.6308 6.45071C91.5959 6.49783 87.4575 6.52571 86.5551 6.52395ZM112.226 6.46841C113.77 6.44501 115.313 6.42162 116.857 6.39822C117.054 6.42772 117.251 6.45722 117.448 6.48672C116.263 6.51602 115.078 6.54531 113.894 6.57461C113.338 6.53921 112.782 6.50381 112.226 6.46841ZM162.989 6.92372C165.473 6.95613 168.642 6.62811 160.666 6.71437C160.67 6.74957 160.674 6.78477 160.678 6.81996C160.996 6.81434 161.929 6.78133 161.98 6.78395C162.126 6.79276 161.954 6.91029 162.989 6.92372ZM68.4168 7.45105C68.1379 7.46444 67.9861 7.83569 65.0849 7.45166C64.2079 7.47505 63.331 7.49845 62.4541 7.52185C62.2274 7.44006 62.0009 7.35828 61.7743 7.27649C65.1682 7.3399 65.5281 7.17443 65.7738 7.1709C66.9021 7.15542 66.0671 7.24053 66.7951 7.2417C68.6744 7.24452 72.9451 7.18737 71.008 7.4303C70.3106 7.5173 68.6957 7.43766 68.4168 7.45105ZM75.0533 7.66222C74.6417 7.63123 75.9678 7.52263 75.6569 7.49194C75.3847 7.46517 71.294 7.35437 72.4012 7.1709C73.0729 7.17863 73.7445 7.18637 74.4162 7.1941C74.6438 7.24435 74.8714 7.2946 75.099 7.34485C75.7494 7.29846 76.3997 7.25208 77.05 7.20569C78.146 7.32969 80.4781 7.49032 77.7085 7.59142C78.7267 7.58084 79.7449 7.57027 80.7631 7.55969C81.2904 7.50028 81.8178 7.44087 82.3452 7.38147C82.0688 7.472 81.7924 7.56253 81.516 7.65307C79.3618 7.65612 77.2075 7.65917 75.0533 7.66222ZM43.4896 7.62743C43.6136 7.58064 43.7375 7.53385 43.8615 7.48706C40.1222 7.57405 34.2989 7.60712 37.6061 7.31372C42.6716 7.28931 47.7371 7.26489 52.8026 7.24048C53.139 7.27568 53.4753 7.31087 53.8117 7.34607C50.0327 7.21047 51.2006 7.7875 47.9129 7.62194C47.3587 7.59387 48.9671 7.39208 45.4833 7.52123C45.6073 7.56823 45.7313 7.61523 45.8552 7.66222C45.0667 7.65063 44.2781 7.63903 43.4896 7.62743ZM11.3437 7.55724C17.7464 7.62488 10.6938 7.79564 9.51156 7.65368C9.51361 7.65368 9.51562 7.65368 9.51766 7.65368C9.30122 7.62773 9.13032 7.60435 8.99999 7.58331C8.81675 7.50943 8.8355 7.4616 8.99999 7.43226C10.0789 7.36618 13.3811 7.45211 13.6697 7.45044C14.2346 7.447 15.5503 7.16889 18.6234 7.57433C16.1968 7.56864 13.7702 7.56294 11.3437 7.55724ZM32.2469 7.62682C31.7089 7.63598 32.0068 7.56535 31.7744 7.5664C31.7724 7.5664 31.7704 7.5664 31.7683 7.5664C28.3412 7.58155 20.1896 7.64478 19.3062 7.41687C21.8432 7.39785 33.1945 7.3486 33.8809 7.50354C33.3362 7.54463 32.7915 7.58573 32.2469 7.62682ZM56.3632 7.45715C58.4673 7.60471 53.7305 7.62436 52.4887 7.55602C52.2542 7.54122 54.1835 7.30429 56.3632 7.45715ZM217.758 7.838C222.387 7.74923 216.304 7.66064 218.41 7.52185C217.526 7.53365 216.642 7.54544 215.758 7.55724C216.424 7.65083 217.091 7.74441 217.758 7.838ZM283.753 101.882C282.674 101.865 283.185 101.95 283.091 101.951C282.382 101.949 281.714 101.88 281.442 101.887C276.413 102.027 279.757 102.098 279.808 102.114C279.914 102.198 278.592 102.296 280.424 102.392C281.535 102.362 282.647 102.333 283.759 102.303C284.311 102.35 284.862 102.396 285.414 102.443C287.623 102.343 284.733 102.315 284.405 102.183C284.279 102.131 286.356 102.068 283.753 101.882ZM226.052 8.11875C226.803 7.97151 228.642 7.78576 226.836 7.63781C226.834 7.63781 226.832 7.63781 226.83 7.63781C226.496 7.61074 225.135 7.59586 224.717 7.55785C221.737 7.75402 222.879 7.95674 226.052 8.11875ZM303.693 101.618C303.795 101.62 303.898 101.622 304 101.624C304.265 101.666 304.571 101.494 304.689 101.217C304.772 101.248 304.854 101.281 304.935 101.317C304.841 101.527 304.659 101.705 304.457 101.794C304.41 101.867 304.352 101.936 304.281 101.998C304.595 102.02 304.985 101.851 305.231 101.526C305.289 101.356 305.311 101.183 305.298 101C305.276 100.105 305.254 99.2095 305.232 98.3143C305.186 98.9738 305.139 99.6333 305.092 100.293C305.041 96.7859 305.256 97.5495 305.338 94.647C305.256 93.6532 305.174 92.6594 305.092 91.6656C305.175 90.2268 305.257 88.7879 305.339 87.349C305.301 84.9314 305.238 84.7188 305.144 86.3461C305.037 85.144 305.206 83.8278 305.162 82.3801C305.158 82.2606 305.058 82.4857 305.056 82.3801C304.988 74.8948 305.253 75.2929 305.265 74.0974C305.272 73.2537 305.094 69.8857 305.033 69.8326C304.95 69.7677 304.627 76.7726 304.618 65.8026C304.394 71.4742 304.622 77.9221 304.951 73.7529C304.918 75.5479 305 83.4636 304.99 83.9683C304.975 84.704 304.85 84.4459 304.847 85.3675C304.845 85.9122 305.13 87.3551 304.881 91.6656C304.928 92.2164 304.975 92.7671 305.022 93.3179C304.983 93.8341 304.945 94.3503 304.906 94.8665C304.769 93.8036 304.632 92.7407 304.495 91.6778C304.626 95.3919 304.424 98.5479 304.536 101C304.551 101.05 304.566 101.094 304.583 101.143C304.458 101.451 304.26 101.47 304.289 101.312C304.234 101.363 304.171 101.396 304.108 101.412C304.088 101.468 304.054 101.523 304 101.573C303.898 101.588 303.795 101.603 303.693 101.618ZM239.655 7.90819C241.858 8.04509 242.65 7.74974 242.307 7.73302C240.375 7.64111 238.508 7.83696 239.655 7.90819ZM287.752 102.039C290.183 102.115 292.614 102.191 295.044 102.267C295.044 102.174 295.044 102.08 295.044 101.987C292.614 102.004 290.183 102.021 287.752 102.039ZM217.081 8.04795C216.857 7.97797 216.634 7.90798 216.41 7.838C213.748 8.09363 211.104 7.72685 209.789 7.8026C209.503 7.81915 210.08 7.94272 210.624 7.96922C210.963 7.98578 216.609 8.07155 217.081 8.04795ZM106.248 8.01438C107.24 7.96739 108.232 7.92039 109.223 7.8734C109.169 7.95213 109.114 8.03086 109.059 8.1096C108.569 8.12424 108.079 8.13889 107.589 8.15354C107.142 8.10715 106.695 8.06077 106.248 8.01438ZM117.534 7.88927C119.303 7.89557 121.072 7.90188 122.841 7.90819C116.093 7.9804 121.631 8.01564 117.534 8.11814C117.534 8.04185 117.534 7.96556 117.534 7.88927ZM135.44 8.04856C135.223 8.09556 135.005 8.14255 134.788 8.18955C133.019 8.18955 131.249 8.18955 129.48 8.18955C130.599 8.35271 131.718 8.51587 132.837 8.67904C133.485 8.67944 134.133 8.67985 134.782 8.68026C135.001 8.46969 135.221 8.25913 135.44 8.04856ZM235.965 101.531C234.896 101.528 231.175 101.671 231.335 101.723C232.88 101.788 234.426 101.852 235.971 101.917C235.978 101.823 235.986 101.729 235.993 101.636C236.211 101.682 236.43 101.729 236.648 101.776C237.527 101.741 238.406 101.706 239.285 101.671C239.728 101.752 240.171 101.834 240.614 101.916C241.059 101.823 241.504 101.729 241.949 101.636C237.705 101.47 237.851 101.636 236.968 101.634C236.52 101.633 236.237 101.575 236.078 101.546C236.04 101.541 236.003 101.536 235.965 101.531ZM289.432 101.443C284.364 101.42 281.468 101.666 277.802 101.46C280.154 101.899 295.337 101.446 300.69 101.812C301.246 101.741 301.802 101.671 302.357 101.601C299.443 101.663 297.423 101.518 296.001 101.497C294.872 101.481 294.99 101.555 294.904 101.554C294.9 101.554 294.896 101.554 294.892 101.554C292.249 101.523 291.431 101.452 289.432 101.443ZM213.316 8.39218C214.678 8.5034 217.06 8.49227 217.087 8.32993C215.761 8.28293 214.435 8.23593 213.109 8.18894C213.381 8.23051 213.083 8.37316 213.316 8.39218ZM137.498 8.50204C138.561 8.55488 141.071 8.50858 139.988 8.36838C139.794 8.34349 137.293 8.44204 138.76 8.18894C136.323 8.19285 136.894 8.47167 137.498 8.50204ZM304.776 35.2571C304.771 34.3628 304.766 33.4686 304.762 32.5744C304.696 32.3661 304.631 32.1578 304.565 31.9495C304.635 33.052 304.705 34.1545 304.776 35.2571ZM201.823 8.50448C200.634 8.18388 198.604 8.49587 196.373 8.23227C195.549 8.23024 194.724 8.2282 193.9 8.22617C193.898 8.22617 193.896 8.22617 193.894 8.22617C193.872 8.31365 193.85 8.40113 193.827 8.48861C196.493 8.4939 199.158 8.49919 201.823 8.50448ZM304.618 91.0133C304.658 90.4625 304.699 89.9118 304.74 89.361C304.692 88.3804 304.645 87.3998 304.597 86.4193C304.563 86.9497 304.529 87.4801 304.496 88.0105C304.536 89.0115 304.577 90.0124 304.618 91.0133ZM187.337 8.53195C190.22 8.5721 191.304 8.2934 187.617 8.2927C186.063 8.2927 184.317 8.48999 187.337 8.53195ZM180.898 101.635C181.886 101.658 182.873 101.682 183.861 101.706C184.197 101.647 184.534 101.589 184.87 101.53C183.546 101.565 182.222 101.6 180.898 101.635ZM123.829 8.4703C123.944 8.41171 124.06 8.35312 124.176 8.29453C125.057 8.30633 125.938 8.31813 126.819 8.32993C126.598 8.38811 126.376 8.4463 126.155 8.50448C125.379 8.49309 124.604 8.4817 123.829 8.4703ZM187.544 101.671C188.333 101.682 189.123 101.693 189.912 101.704C190.443 101.676 190.973 101.647 191.503 101.619C190.765 101.591 190.026 101.562 189.287 101.534C188.706 101.58 188.125 101.625 187.544 101.671ZM160.014 8.50509C161.123 8.57554 165.553 8.35604 161.562 8.30002C159.019 8.26445 159.847 8.49437 160.014 8.50509ZM154.036 8.57528C158.26 8.70949 155.092 8.02831 150.051 8.46969C155.126 8.40918 153.787 8.56718 154.036 8.57528ZM116.89 8.92683C116.784 8.92648 116.697 8.82853 115.848 8.82491C112.793 8.81222 108.759 8.77352 106.574 8.76753C101.321 8.75309 85.2301 8.93015 83.3481 8.64669C82.9563 8.58716 83.8581 8.40927 83.6987 8.40011C83.2311 8.37457 80.5396 8.46088 81.0374 8.32993C83.6784 8.33094 86.3194 8.33196 88.9604 8.33298C88.3121 8.42534 87.6637 8.5177 87.0154 8.61007C93.5959 8.56076 91.4177 8.56645 93.3105 8.36533C94.4242 8.44324 95.5379 8.52116 96.6516 8.59908C99.0761 8.52076 101.501 8.44243 103.925 8.3641C103.375 8.42249 102.826 8.48088 102.276 8.53927C105.929 8.64741 104.914 8.5765 106.913 8.4349C106.917 8.49329 106.921 8.55168 106.925 8.61007C110.452 8.46775 111.139 8.64274 111.909 8.64486C113.49 8.6483 115.504 7.95746 121.533 8.64486C124.075 8.31425 124.017 8.98683 125.511 8.64486C129.814 9.01714 121.631 8.8824 117.759 8.87007C117.757 8.87007 117.755 8.87007 117.753 8.87007C117.461 8.86901 117.925 8.9317 116.89 8.92683ZM138.992 8.58443C136.387 8.88791 146.677 8.91632 143.272 8.47824C142.765 8.464 142.258 8.44975 141.75 8.43551C140.829 8.48515 139.907 8.53479 138.985 8.58443C138.987 8.58443 138.99 8.58443 138.992 8.58443ZM235.676 8.78584C245.207 8.66114 239.788 8.48657 236.56 8.65706C235.916 8.69088 235.563 8.73724 235.676 8.78584ZM282.192 101.21C282.053 101.246 281.914 101.283 281.774 101.319C284.97 101.285 291.151 101.426 291.066 101.18C288.108 101.19 285.15 101.2 282.192 101.21ZM304.039 101.03C304.005 101.04 304.012 100.997 304.012 101.091C304.039 101.156 304.134 101.199 304.242 101.154C304.231 101.097 304.199 101.057 304.163 101.03C304.143 101.064 304.042 101.034 304.039 101.03Z" fill="#FFFEF7"/>
</svg>
