<svg width="30" height="30" viewBox="0 0 30 30" fill="none" xmlns="http://www.w3.org/2000/svg">
<path d="M14.5 13.0625C14.897 13.0625 15.2188 13.3843 15.2188 13.7812V15.9375H17.375C17.772 15.9375 18.0938 16.2593 18.0938 16.6562C18.0938 17.0532 17.772 17.375 17.375 17.375H15.2188V19.5312C15.2188 19.9282 14.897 20.25 14.5 20.25C14.103 20.25 13.7812 19.9282 13.7812 19.5312V17.375H11.625C11.228 17.375 10.9062 17.0532 10.9062 16.6562C10.9062 16.2593 11.228 15.9375 11.625 15.9375H13.7812V13.7812C13.7812 13.3843 14.103 13.0625 14.5 13.0625Z" fill="#6E501F"/>
<path d="M8.03125 3C8.4282 3 8.75 3.3218 8.75 3.71875V4.4375H20.25V3.71875C20.25 3.3218 20.5718 3 20.9688 3C21.3657 3 21.6875 3.3218 21.6875 3.71875V4.4375H23.125C24.7128 4.4375 26 5.72468 26 7.3125V23.125C26 24.7128 24.7128 26 23.125 26H5.875C4.28718 26 3 24.7128 3 23.125V7.3125C3 5.72468 4.28718 4.4375 5.875 4.4375H7.3125V3.71875C7.3125 3.3218 7.6343 3 8.03125 3ZM4.4375 8.75V23.125C4.4375 23.9189 5.08109 24.5625 5.875 24.5625H23.125C23.9189 24.5625 24.5625 23.9189 24.5625 23.125V8.75H4.4375Z" fill="#6E501F"/>
</svg>
