<svg width="30" height="30" viewBox="0 0 30 30" fill="none" xmlns="http://www.w3.org/2000/svg">
<path fill-rule="evenodd" clip-rule="evenodd" d="M11.866 19.8962C11.8935 20.0596 11.855 20.2273 11.7589 20.3623C11.6627 20.4973 11.5169 20.5886 11.3535 20.6162C8.31035 21.1271 5.41072 22.2797 2.84726 23.9974C2.7791 24.0448 2.70219 24.0781 2.62102 24.0954C2.53986 24.1127 2.45606 24.1136 2.37451 24.0982C2.29297 24.0828 2.21531 24.0512 2.14608 24.0055C2.07684 23.9597 2.01742 23.9006 1.97127 23.8316C1.92512 23.7627 1.89317 23.6852 1.87728 23.6037C1.86139 23.5223 1.86189 23.4385 1.87874 23.3572C1.89559 23.2759 1.92845 23.1988 1.97541 23.1304C2.02238 23.062 2.0825 23.0036 2.15226 22.9587C4.86269 21.1426 7.92847 19.924 11.146 19.3837C11.3095 19.3562 11.4771 19.3947 11.6121 19.4908C11.7472 19.5869 11.8385 19.7327 11.866 19.8962ZM18.1335 19.8962C18.1611 19.7327 18.2524 19.5869 18.3874 19.4908C18.5224 19.3947 18.6901 19.3562 18.8535 19.3837C22.0711 19.924 25.1368 21.1426 27.8473 22.9587C27.9194 23.0025 27.9819 23.0605 28.031 23.1291C28.0802 23.1978 28.1149 23.2756 28.1331 23.3581C28.1513 23.4405 28.1526 23.5257 28.1369 23.6087C28.1213 23.6916 28.089 23.7705 28.042 23.8407C27.9951 23.9108 27.9344 23.9707 27.8636 24.0167C27.7929 24.0627 27.7135 24.094 27.6304 24.1085C27.5472 24.123 27.462 24.1206 27.3798 24.1013C27.2977 24.082 27.2202 24.0462 27.1523 23.9962C24.5887 22.2789 21.6891 21.1267 18.646 20.6162C18.4826 20.5886 18.3368 20.4973 18.2407 20.3623C18.1446 20.2273 18.106 20.0596 18.1335 19.8962Z" fill="#6E501F"/>
<path fill-rule="evenodd" clip-rule="evenodd" d="M8.125 12.5C8.125 10.6766 8.84933 8.92795 10.1386 7.63864C11.428 6.34933 13.1766 5.625 15 5.625C16.8234 5.625 18.572 6.34933 19.8614 7.63864C21.1507 8.92795 21.875 10.6766 21.875 12.5C21.875 15.8263 20.2175 18.7738 18.62 20.85C17.7406 21.9881 16.7558 23.0406 15.6788 23.9937L15.4138 24.2188L15.3975 24.2325L15.3925 24.2362H15.3912L15 23.75L14.6413 24.2625L14.6388 24.26L14.6337 24.2563L14.6175 24.245L14.5588 24.2025L14.3475 24.0413C14.0957 23.844 13.8497 23.6393 13.61 23.4275C12.8036 22.7148 12.06 21.934 11.3875 21.0938C9.775 19.0787 8.125 16.1313 8.125 12.5ZM15 23.75L14.6413 24.2625C14.7521 24.3401 14.8852 24.3796 15.0204 24.3751C15.1557 24.3706 15.2858 24.321 15.3912 24.2362L15 23.75ZM14.9775 22.9463C15.946 22.0752 16.8337 21.1184 17.63 20.0875C19.1575 18.1012 20.625 15.425 20.625 12.5C20.625 11.0082 20.0324 9.57742 18.9775 8.52252C17.9226 7.46763 16.4918 6.875 15 6.875C13.5082 6.875 12.0774 7.46763 11.0225 8.52252C9.96763 9.57742 9.375 11.0082 9.375 12.5C9.375 15.7437 10.85 18.4213 12.3625 20.3125C13.1383 21.2806 14.0149 22.1635 14.9775 22.9463ZM15 10.625C14.5027 10.625 14.0258 10.8225 13.6742 11.1742C13.3225 11.5258 13.125 12.0027 13.125 12.5C13.125 12.9973 13.3225 13.4742 13.6742 13.8258C14.0258 14.1775 14.5027 14.375 15 14.375C15.4973 14.375 15.9742 14.1775 16.3258 13.8258C16.6775 13.4742 16.875 12.9973 16.875 12.5C16.875 12.0027 16.6775 11.5258 16.3258 11.1742C15.9742 10.8225 15.4973 10.625 15 10.625ZM11.875 12.5C11.875 11.6712 12.2042 10.8763 12.7903 10.2903C13.3763 9.70424 14.1712 9.375 15 9.375C15.8288 9.375 16.6237 9.70424 17.2097 10.2903C17.7958 10.8763 18.125 11.6712 18.125 12.5C18.125 13.3288 17.7958 14.1237 17.2097 14.7097C16.6237 15.2958 15.8288 15.625 15 15.625C14.1712 15.625 13.3763 15.2958 12.7903 14.7097C12.2042 14.1237 11.875 13.3288 11.875 12.5Z" fill="#6E501F"/>
</svg>
