<svg width="30" height="30" viewBox="0 0 30 30" fill="none" xmlns="http://www.w3.org/2000/svg">
<path d="M6.5625 10C6.5625 9.08832 6.92466 8.21398 7.56932 7.56932C8.21398 6.92466 9.08832 6.5625 10 6.5625C10.9117 6.5625 11.786 6.92466 12.4307 7.56932C13.0753 8.21398 13.4375 9.08832 13.4375 10C13.4375 10.9117 13.0753 11.786 12.4307 12.4307C11.786 13.0753 10.9117 13.4375 10 13.4375C9.08832 13.4375 8.21398 13.0753 7.56932 12.4307C6.92466 11.786 6.5625 10.9117 6.5625 10ZM10 5C8.67392 5 7.40215 5.52678 6.46447 6.46447C5.52678 7.40215 5 8.67392 5 10C5 11.3261 5.52678 12.5979 6.46447 13.5355C7.40215 14.4732 8.67392 15 10 15C11.3261 15 12.5979 14.4732 13.5355 13.5355C14.4732 12.5979 15 11.3261 15 10C15 8.67392 14.4732 7.40215 13.5355 6.46447C12.5979 5.52678 11.3261 5 10 5ZM19.0625 11.25C19.0625 10.6698 19.293 10.1134 19.7032 9.7032C20.1134 9.29297 20.6698 9.0625 21.25 9.0625C21.8302 9.0625 22.3866 9.29297 22.7968 9.7032C23.207 10.1134 23.4375 10.6698 23.4375 11.25C23.4375 11.8302 23.207 12.3866 22.7968 12.7968C22.3866 13.207 21.8302 13.4375 21.25 13.4375C20.6698 13.4375 20.1134 13.207 19.7032 12.7968C19.293 12.3866 19.0625 11.8302 19.0625 11.25ZM21.25 7.5C20.2554 7.5 19.3016 7.89509 18.5983 8.59835C17.8951 9.30161 17.5 10.2554 17.5 11.25C17.5 12.2446 17.8951 13.1984 18.5983 13.9017C19.3016 14.6049 20.2554 15 21.25 15C22.2446 15 23.1984 14.6049 23.9017 13.9017C24.6049 13.1984 25 12.2446 25 11.25C25 10.2554 24.6049 9.30161 23.9017 8.59835C23.1984 7.89509 22.2446 7.5 21.25 7.5ZM21.25 24.375C19.89 24.375 18.7987 24.155 17.9275 23.7987L18.0438 23.6488C18.3525 23.2419 18.5894 22.8344 18.7706 22.4481C19.4081 22.67 20.2181 22.8125 21.2494 22.8125C23.9219 22.8125 25.1075 21.8544 25.6637 21.0431C25.9805 20.577 26.179 20.0407 26.2419 19.4806C26.2455 19.444 26.248 19.4074 26.2494 19.3706V19.2188C26.2494 18.7875 25.8994 18.4375 25.4681 18.4375H19.2894C19.1618 17.8596 18.8922 17.3226 18.505 16.875H25.4688C26.0904 16.875 26.6865 17.1219 27.126 17.5615C27.5656 18.001 27.8125 18.5971 27.8125 19.2188V19.4044L27.8106 19.4581C27.8085 19.5023 27.8044 19.5604 27.7981 19.6325C27.7095 20.4549 27.4195 21.2427 26.9538 21.9263C26.0631 23.2238 24.3581 24.375 21.2488 24.375M4.21875 16.875C3.59715 16.875 3.00101 17.1219 2.56147 17.5615C2.12193 18.001 1.875 18.5971 1.875 19.2188V20.0331L1.8775 20.0938C1.88 20.1438 1.88542 20.21 1.89375 20.2925C1.91187 20.4562 1.94625 20.6813 2.01375 20.9488C2.19309 21.6532 2.51188 22.3146 2.95125 22.8938C4.04938 24.3413 6.14125 25.625 10 25.625C13.8587 25.625 15.9513 24.3413 17.0481 22.8938C17.4878 22.3145 17.8068 21.6529 17.9862 20.9481C18.0537 20.6812 18.0881 20.4562 18.1062 20.2919C18.1155 20.2059 18.1217 20.1196 18.125 20.0331V19.2188C18.125 18.911 18.0644 18.6062 17.9466 18.3218C17.8288 18.0375 17.6562 17.7791 17.4385 17.5615C17.2209 17.3438 16.9625 17.1712 16.6782 17.0534C16.3938 16.9356 16.089 16.875 15.7812 16.875H4.21875ZM3.43812 20.015L3.4375 19.995V19.2188C3.4375 18.7875 3.7875 18.4375 4.21875 18.4375H15.7812C16.2125 18.4375 16.5625 18.7875 16.5625 19.2188V19.995L16.5619 20.015C16.5483 20.2006 16.5182 20.3847 16.4719 20.565C16.3437 21.0667 16.1163 21.5377 15.8031 21.95C15.0644 22.925 13.4844 24.0625 10 24.0625C6.51562 24.0625 4.93563 22.925 4.19688 21.95C3.88373 21.5378 3.65634 21.0671 3.52813 20.5656C3.48177 20.3851 3.45165 20.2009 3.43812 20.015Z" fill="#6E501F"/>
</svg>
