<svg width="30" height="30" viewBox="0 0 30 30" fill="none" xmlns="http://www.w3.org/2000/svg">
<path d="M12.2651 19.8008V12.136H11.3555C10.7603 12.4561 10.0471 12.8772 9.46875 13.2927V14.2922C10.0078 13.9216 10.8613 13.3994 11.2769 13.1748H11.2937V19.8008H12.2651Z" fill="#6E501F"/>
<path d="M13.9722 17.9253C14.0396 18.8462 14.8257 19.9468 16.4204 19.9468C18.2285 19.9468 19.2954 18.4138 19.2954 15.8196C19.2954 13.04 18.1724 11.9844 16.4878 11.9844C15.157 11.9844 13.9048 12.9502 13.9048 14.5842C13.9048 16.252 15.0896 17.1279 16.3137 17.1279C17.3862 17.1279 18.0825 16.5889 18.3015 15.9937H18.3408C18.3352 17.886 17.6782 19.1045 16.4653 19.1045C15.5107 19.1045 15.0166 18.4587 14.9548 17.9253H13.9722ZM18.2173 14.5955C18.2173 15.595 17.4143 16.2913 16.5159 16.2913C15.6511 16.2913 14.8706 15.741 14.8706 14.5674C14.8706 13.3826 15.7073 12.8267 16.5496 12.8267C17.4592 12.8267 18.2173 13.3994 18.2173 14.5955Z" fill="#6E501F"/>
<path d="M8.03125 3C8.4282 3 8.75 3.3218 8.75 3.71875V4.4375H20.25V3.71875C20.25 3.3218 20.5718 3 20.9688 3C21.3657 3 21.6875 3.3218 21.6875 3.71875V4.4375H23.125C24.7128 4.4375 26 5.72468 26 7.3125V23.125C26 24.7128 24.7128 26 23.125 26H5.875C4.28718 26 3 24.7128 3 23.125V7.3125C3 5.72468 4.28718 4.4375 5.875 4.4375H7.3125V3.71875C7.3125 3.3218 7.6343 3 8.03125 3ZM4.4375 8.75V23.125C4.4375 23.9189 5.08109 24.5625 5.875 24.5625H23.125C23.9189 24.5625 24.5625 23.9189 24.5625 23.125V8.75H4.4375Z" fill="#6E501F"/>
</svg>
