<svg width="20" height="20" viewBox="0 0 20 20" fill="none" xmlns="http://www.w3.org/2000/svg">
<g clip-path="url(#clip0_1292_746)">
<path d="M11.4837 7.88341C11.4421 7.88341 11.4009 7.89161 11.3625 7.90752C11.3241 7.92343 11.2891 7.94676 11.2597 7.97616C11.2303 8.00557 11.207 8.04048 11.1911 8.0789C11.1752 8.11732 11.167 8.1585 11.167 8.20008V9.59175L10.0003 8.04175C9.97126 7.99458 9.93089 7.9554 9.88287 7.92776C9.83486 7.90011 9.78071 7.88487 9.72533 7.88341C9.68374 7.88341 9.64256 7.89161 9.60414 7.90752C9.56572 7.92343 9.53081 7.94676 9.50141 7.97616C9.472 8.00557 9.44868 8.04048 9.43276 8.0789C9.41685 8.11732 9.40866 8.1585 9.40866 8.20008V10.5667C9.40866 10.6083 9.41685 10.6495 9.43276 10.6879C9.44868 10.7264 9.472 10.7613 9.50141 10.7907C9.53081 10.8201 9.56572 10.8434 9.60414 10.8593C9.64256 10.8752 9.68374 10.8834 9.72533 10.8834C9.76691 10.8834 9.80809 10.8752 9.84651 10.8593C9.88493 10.8434 9.91984 10.8201 9.94924 10.7907C9.97865 10.7613 10.002 10.7264 10.0179 10.6879C10.0338 10.6495 10.042 10.6083 10.042 10.5667V9.16675L11.2003 10.7584C11.2298 10.8028 11.2741 10.8353 11.3253 10.8501C11.3637 10.8593 11.4036 10.8593 11.442 10.8501C11.4785 10.8634 11.5175 10.8688 11.5563 10.8659C11.5951 10.863 11.6328 10.8519 11.667 10.8334L11.7503 10.7751C11.8081 10.7143 11.8408 10.6339 11.842 10.5501V8.20008C11.8424 8.15475 11.833 8.10985 11.8146 8.06844C11.7961 8.02703 11.769 7.99006 11.735 7.96004C11.7011 7.93002 11.661 7.90764 11.6177 7.89442C11.5743 7.8812 11.5286 7.87745 11.4837 7.88341ZM7.66699 10.2251H6.78366V8.20008C6.78366 8.1161 6.7503 8.03555 6.69091 7.97616C6.63152 7.91678 6.55098 7.88341 6.46699 7.88341C6.38301 7.88341 6.30246 7.91678 6.24307 7.97616C6.18369 8.03555 6.15033 8.1161 6.15033 8.20008V10.5667C6.15033 10.6507 6.18369 10.7313 6.24307 10.7907C6.30246 10.8501 6.38301 10.8834 6.46699 10.8834H7.66699C7.75176 10.8834 7.83319 10.8503 7.89391 10.7912C7.95462 10.732 7.98982 10.6515 7.99199 10.5667C7.99425 10.5227 7.98752 10.4786 7.97221 10.4373C7.95689 10.3959 7.93331 10.3581 7.9029 10.3261C7.87249 10.2941 7.8359 10.2687 7.79534 10.2513C7.75478 10.2339 7.71111 10.225 7.66699 10.2251ZM8.59199 7.88341C8.50722 7.88339 8.42579 7.91648 8.36508 7.97564C8.30436 8.0348 8.26917 8.11534 8.26699 8.20008V10.5667C8.26917 10.6515 8.30436 10.732 8.36508 10.7912C8.42579 10.8503 8.50722 10.8834 8.59199 10.8834C8.67598 10.8834 8.75652 10.8501 8.81591 10.7907C8.8753 10.7313 8.90866 10.6507 8.90866 10.5667V8.20008C8.90866 8.1161 8.8753 8.03555 8.81591 7.97616C8.75652 7.91678 8.67598 7.88341 8.59199 7.88341ZM14.9253 1.66675H5.07533C4.17206 1.66895 3.30641 2.02875 2.6677 2.66746C2.02899 3.30617 1.66919 4.17181 1.66699 5.07508V14.9251C1.66919 15.8284 2.02899 16.694 2.6677 17.3327C3.30641 17.9714 4.17206 18.3312 5.07533 18.3334H14.9253C15.8286 18.3312 16.6942 17.9714 17.333 17.3327C17.9717 16.694 18.3315 15.8284 18.3337 14.9251V5.07508C18.3315 4.17181 17.9717 3.30617 17.333 2.66746C16.6942 2.02875 15.8286 1.66895 14.9253 1.66675ZM15.1837 11.9001C15.1501 11.9492 15.1139 11.9965 15.0753 12.0417C14.8766 12.2863 14.6532 12.5097 14.4087 12.7084C12.742 14.2667 9.94199 16.1334 9.56699 15.8417C9.19199 15.5501 10.1003 14.3751 9.12533 14.1751C9.05615 14.1838 8.98616 14.1838 8.91699 14.1751C6.05033 13.7751 3.91699 11.7667 3.91699 9.35841C3.91699 6.65008 6.65866 4.45841 10.0337 4.45841C13.4087 4.45841 16.1503 6.65008 16.1503 9.35841C16.1214 10.2899 15.7811 11.1848 15.1837 11.9001ZM13.7587 7.89175H12.5003C12.4587 7.89175 12.4176 7.89994 12.3791 7.91585C12.3407 7.93177 12.3058 7.95509 12.2764 7.9845C12.247 8.0139 12.2237 8.04881 12.2078 8.08723C12.1918 8.12565 12.1837 8.16683 12.1837 8.20842V10.5751C12.1837 10.6591 12.217 10.7396 12.2764 10.799C12.3358 10.8584 12.4163 10.8917 12.5003 10.8917H13.7337C13.8176 10.8917 13.8982 10.8584 13.9576 10.799C14.017 10.7396 14.0503 10.6591 14.0503 10.5751C14.0503 10.5335 14.0421 10.4923 14.0262 10.4539C14.0103 10.4155 13.987 10.3806 13.9576 10.3512C13.9282 10.3218 13.8933 10.2984 13.8548 10.2825C13.8164 10.2666 13.7752 10.2584 13.7337 10.2584H12.8753V9.75841H13.7587C13.8434 9.75624 13.9239 9.72104 13.9831 9.66033C14.0423 9.59961 14.0754 9.51819 14.0753 9.43341C14.0753 9.34943 14.042 9.26888 13.9826 9.2095C13.9232 9.15011 13.8426 9.11675 13.7587 9.11675H12.8753V8.60841H13.7587C13.8002 8.60841 13.8414 8.60022 13.8798 8.58431C13.9183 8.5684 13.9532 8.54507 13.9826 8.51567C14.012 8.48626 14.0353 8.45135 14.0512 8.41293C14.0671 8.37451 14.0753 8.33333 14.0753 8.29175C14.0884 8.24385 14.0901 8.19354 14.0801 8.14489C14.0702 8.09623 14.049 8.05059 14.0182 8.01166C13.9873 7.97273 13.9478 7.94159 13.9027 7.92076C13.8576 7.89993 13.8083 7.88999 13.7587 7.89175Z" fill="#6E501F"/>
</g>
<defs>
<clipPath id="clip0_1292_746">
<rect width="20" height="20" fill="white"/>
</clipPath>
</defs>
</svg>
