<svg width="25" height="25" viewBox="0 0 25 25" fill="none" xmlns="http://www.w3.org/2000/svg">
<path d="M20.8299 10.5498C20.8296 10.724 20.7602 10.8909 20.6369 11.014C20.5136 11.137 20.3466 11.2061 20.1724 11.2061H18.3449V12.3786H20.1737C20.2622 12.3747 20.3505 12.3888 20.4335 12.42C20.5164 12.4512 20.5921 12.4989 20.6561 12.5602C20.7201 12.6214 20.771 12.695 20.8058 12.7765C20.8406 12.858 20.8585 12.9456 20.8585 13.0342C20.8585 13.1228 20.8406 13.2105 20.8058 13.292C20.771 13.3734 20.7201 13.447 20.6561 13.5083C20.5921 13.5695 20.5164 13.6172 20.4335 13.6484C20.3505 13.6796 20.2622 13.6937 20.1737 13.6898H17.6874C17.5143 13.6885 17.3487 13.619 17.2266 13.4964C17.1044 13.3738 17.0356 13.2079 17.0349 13.0348V8.06484C17.0349 7.70609 17.3287 7.40859 17.6912 7.40859H20.1762C20.3432 7.41922 20.4999 7.49315 20.6143 7.61531C20.7287 7.73746 20.7922 7.89865 20.7919 8.06602C20.7916 8.23339 20.7275 8.39433 20.6126 8.51605C20.4977 8.63777 20.3407 8.7111 20.1737 8.72109H18.3449V9.89359H20.1737C20.5362 9.89359 20.8299 10.1898 20.8299 10.5498ZM15.7062 13.6561C15.6392 13.6781 15.5691 13.6887 15.4987 13.6873C15.3959 13.6891 15.2941 13.6665 15.2017 13.6213C15.1094 13.5761 15.0291 13.5096 14.9674 13.4273L12.4224 9.97234V13.0348C12.4099 13.1998 12.3355 13.354 12.2142 13.4665C12.0929 13.579 11.9335 13.6415 11.768 13.6415C11.6026 13.6415 11.4432 13.579 11.3219 13.4665C11.2005 13.354 11.1262 13.1998 11.1137 13.0348V8.06484C11.1132 7.97917 11.1296 7.89424 11.1621 7.81495C11.1945 7.73565 11.2423 7.66355 11.3027 7.6028C11.3631 7.54204 11.4349 7.49383 11.514 7.46093C11.5932 7.42803 11.678 7.41109 11.7637 7.41109C11.9662 7.41109 12.1537 7.51859 12.2787 7.67484L14.8437 11.1436V8.06484C14.8437 7.70609 15.1374 7.40859 15.4999 7.40859C15.8587 7.40859 16.1562 7.70609 16.1562 8.06484V13.0348C16.1568 13.1727 16.1135 13.3073 16.0326 13.4189C15.9517 13.5306 15.8374 13.6137 15.7062 13.6561ZM9.51866 13.6898C9.34536 13.6889 9.17946 13.6195 9.05704 13.4968C8.93462 13.3742 8.86557 13.2081 8.86491 13.0348V8.06484C8.86491 7.70609 9.15866 7.40859 9.52116 7.40859C9.88241 7.40859 10.1762 7.70609 10.1762 8.06484V13.0348C10.1752 13.2087 10.1055 13.3751 9.98234 13.4978C9.85918 13.6205 9.69251 13.6895 9.51866 13.6898ZM7.60616 13.6898H5.12366C4.95033 13.6882 4.78454 13.6187 4.66186 13.4963C4.53917 13.3738 4.46937 13.2082 4.46741 13.0348V8.06484C4.46741 7.70609 4.76491 7.40859 5.12366 7.40859C5.48616 7.40859 5.77991 7.70609 5.77991 8.06484V12.3773H7.60991C7.78396 12.3773 7.95088 12.4465 8.07395 12.5696C8.19702 12.6926 8.26616 12.8595 8.26616 13.0336C8.26616 13.2076 8.19702 13.3746 8.07395 13.4976C7.95088 13.6207 7.78396 13.6898 7.60991 13.6898M12.5037 0.214844C5.61241 0.214844 0.00366211 4.76859 0.00366211 10.3623C0.00366211 15.3748 4.45116 19.5736 10.4574 20.3711C10.8637 20.4561 11.4187 20.6398 11.5587 20.9861C11.6837 21.2986 11.6412 21.7836 11.5987 22.1111L11.4274 23.1736C11.3812 23.4861 11.1774 24.4086 12.5199 23.8448C13.8649 23.2836 19.7249 19.5973 22.3499 16.5798C24.1424 14.6111 24.9999 12.5961 24.9999 10.3623C24.9999 4.76859 19.3899 0.214844 12.4999 0.214844" fill="white"/>
</svg>
