<svg width="18" height="18" viewBox="0 0 18 18" fill="none" xmlns="http://www.w3.org/2000/svg">
<path d="M2.125 14.0001C2.125 13.8343 2.05916 13.6754 1.94195 13.5581C1.82474 13.4409 1.66576 13.3751 1.5 13.3751C1.33424 13.3751 1.17527 13.4409 1.05806 13.5581C0.940852 13.6754 0.875004 13.8343 0.875004 14.0001H2.125ZM0.875004 10.6668C0.875004 10.8325 0.940852 10.9915 1.05806 11.1087C1.17527 11.2259 1.33424 11.2918 1.5 11.2918C1.66576 11.2918 1.82474 11.2259 1.94195 11.1087C2.05916 10.9915 2.125 10.8325 2.125 10.6668H0.875004ZM4.83334 6.29175C5.63667 6.29175 6.17667 6.29342 6.57917 6.34759C6.96334 6.39925 7.12834 6.48842 7.23667 6.59758L8.12 5.71259C7.74084 5.33342 7.26834 5.17925 6.745 5.10842C6.24 5.04008 5.60167 5.04175 4.83334 5.04175V6.29175ZM8.79167 9.00009C8.79167 8.23175 8.79334 7.59342 8.725 7.08842C8.655 6.56509 8.5 6.09175 8.12 5.71259L7.23667 6.59758C7.345 6.70592 7.43417 6.87009 7.48667 7.25509C7.54 7.65675 7.54167 8.19675 7.54167 9.00009H8.79167ZM4.83334 5.04175C4.065 5.04175 3.42667 5.04008 2.92167 5.10842C2.39834 5.17842 1.92584 5.33342 1.54667 5.71259L2.43 6.59675C2.53834 6.48842 2.70334 6.39925 3.08834 6.34675C3.49 6.29342 4.03 6.29175 4.83334 6.29175V5.04175ZM2.125 9.00009C2.125 8.19675 2.12667 7.65675 2.18084 7.25425C2.2325 6.87008 2.32084 6.70509 2.43 6.59675L1.54584 5.71342C1.16667 6.09258 1.0125 6.56509 0.94167 7.08842C0.873337 7.59342 0.875004 8.23175 0.875004 9.00009H2.125ZM2.125 17.3334V14.0001H0.875004V17.3334H2.125ZM2.125 10.6668V9.00009H0.875004V10.6668H2.125Z" fill="#6E501F"/>
<path d="M4.83332 17.3334V12.3334C4.83332 10.7617 4.83332 9.97675 5.32166 9.48841C5.80999 9.00008 6.59499 9.00008 8.16666 9.00008H9.83332M9.83332 9.00008C11.405 9.00008 12.19 9.00008 12.6783 9.48841C13.0717 9.88091 13.1483 10.4667 13.1633 11.5001M9.83332 9.00008V5.47675C9.83332 3.29175 9.83332 2.20008 10.5508 1.70175C11.2683 1.20508 12.2908 1.58841 14.3367 2.35591C15.3833 2.74758 15.9067 2.94425 16.2033 3.37258C16.5 3.80091 16.5 4.36008 16.5 5.47675M13.1667 17.3334V15.0417M16.5 17.3334V9.00008M2.33332 5.66675V4.41675C2.33332 3.63091 2.33332 3.23841 2.57749 2.99425C2.82166 2.75008 3.21416 2.75008 3.99999 2.75008H5.66666C6.45249 2.75008 6.84499 2.75008 7.08916 2.99425C7.33332 3.23841 7.33332 3.63091 7.33332 4.41675V5.66675M4.83332 2.33341V0.666748M17.3333 17.3334H0.666656M7.33332 11.5001H7.74999M10.6667 11.5001H9.41666M7.33332 14.0001H10.6667" stroke="#6E501F" stroke-width="1.25" stroke-linecap="round"/>
</svg>
