<svg width="18" height="19" viewBox="0 0 18 19" fill="none" xmlns="http://www.w3.org/2000/svg">
<path d="M10.6666 2.33341C10.6666 2.77544 10.4911 3.19937 10.1785 3.51193C9.86593 3.82449 9.44201 4.00008 8.99998 4.00008C8.55795 4.00008 8.13403 3.82449 7.82147 3.51193C7.50891 3.19937 7.33331 2.77544 7.33331 2.33341C7.33331 1.89139 7.50891 1.46746 7.82147 1.1549C8.13403 0.842343 8.55795 0.666748 8.99998 0.666748C9.44201 0.666748 9.86593 0.842343 10.1785 1.1549C10.4911 1.46746 10.6666 1.89139 10.6666 2.33341Z" stroke="#6E501F" stroke-width="1.25"/>
<path d="M8.99999 11.5001L9.54249 11.1901C9.4878 11.0945 9.40883 11.0151 9.31356 10.9598C9.2183 10.9046 9.11012 10.8755 8.99999 10.8755C8.88986 10.8755 8.78168 10.9046 8.68642 10.9598C8.59115 11.0151 8.51218 11.0945 8.45749 11.1901L8.99999 11.5001ZM7.62082 6.76927C7.78581 6.78673 7.95098 6.73793 8.07998 6.63361C8.20899 6.5293 8.29128 6.378 8.30874 6.21302C8.3262 6.04803 8.2774 5.88286 8.17309 5.75385C8.06877 5.62485 7.91748 5.54256 7.75249 5.5251L7.62082 6.76927ZM10.2475 5.5251C10.0826 5.54256 9.93143 5.6248 9.82719 5.75373C9.72295 5.88266 9.6742 6.04772 9.69166 6.2126C9.70912 6.37748 9.79136 6.52866 9.92029 6.6329C10.0492 6.73714 10.2143 6.78589 10.3792 6.76843L10.2475 5.5251ZM3.84249 8.63343L5.65499 9.23843L6.04999 8.0526L4.23749 7.4476L3.84249 8.63343ZM5.93082 9.8226L4.89166 12.5234L6.05832 12.9726L7.09749 10.2709L5.93082 9.8226ZM13.7625 7.4476L11.95 8.0526L12.345 9.23843L14.1575 8.63343L13.7625 7.4476ZM10.9025 10.2709L11.9417 12.9726L13.1083 12.5234L12.0692 9.8226L10.9025 10.2709ZM8.22916 14.1084L9.54249 11.8101L8.45749 11.1901L7.14416 13.4876L8.22916 14.1084ZM13.1575 4.9701L11.5775 5.30843L11.8383 6.53093L13.4208 6.19177L13.1575 4.9701ZM6.42499 5.30843L4.84166 4.9701L4.57999 6.19177L6.16166 6.53093L6.42499 5.30843ZM8.45832 11.8101L9.77166 14.1084L10.8567 13.4876L9.54332 11.1901L8.45832 11.8101ZM11.5775 5.30843L11.4058 5.3451L11.6592 6.56927L11.8383 6.53093L11.5775 5.30843ZM6.16166 6.53093L6.34166 6.56927L6.59499 5.34427L6.42332 5.30843L6.16166 6.53093ZM6.62082 15.0418C7.28582 15.0418 7.89999 14.6851 8.22916 14.1084L7.14416 13.4876C7.09171 13.5801 7.01562 13.6571 6.92366 13.7105C6.8317 13.764 6.72719 13.792 6.62082 13.7918V15.0418ZM11.9417 12.9726C11.9768 13.0639 11.9893 13.1624 11.9778 13.2596C11.9664 13.3567 11.9315 13.4497 11.8761 13.5303C11.8208 13.611 11.7466 13.6769 11.66 13.7225C11.5734 13.768 11.477 13.7918 11.3792 13.7918V15.0418C11.6799 15.0418 11.9762 14.9687 12.2423 14.8286C12.5085 14.6886 12.7365 14.4858 12.9068 14.2379C13.077 13.9899 13.1843 13.7043 13.2194 13.4056C13.2546 13.1069 13.2164 12.8041 13.1083 12.5234L11.9417 12.9726ZM11.95 8.0526C11.765 8.11427 11.5683 8.1751 11.4083 8.27343L12.065 9.3376C12.0567 9.34177 12.0633 9.33677 12.1117 9.31843C12.1625 9.29927 12.2308 9.27677 12.345 9.23843L11.95 8.0526ZM12.0692 9.8226C12.0388 9.7462 12.01 9.66924 11.9825 9.59177C11.9658 9.5426 11.9658 9.53427 11.9675 9.5426L10.7292 9.7126C10.7542 9.89843 10.8325 10.0893 10.9025 10.2709L12.0692 9.8226ZM11.4083 8.27343C11.1679 8.42176 10.9757 8.63672 10.8551 8.89221C10.7346 9.1477 10.6908 9.43271 10.7292 9.7126L11.9675 9.5426C11.9622 9.50266 11.9686 9.46204 11.9859 9.42565C12.0032 9.38927 12.0307 9.35868 12.065 9.3376L11.4083 8.27343ZM14.2083 6.82927C14.2086 6.96615 14.1656 7.09962 14.0856 7.21065C14.0055 7.32168 13.8924 7.4046 13.7625 7.4476L14.1575 8.63343C14.5364 8.50752 14.866 8.26545 15.0995 7.94159C15.333 7.61773 15.4586 7.22853 15.4583 6.82927H14.2083ZM4.89166 12.5234C4.78356 12.8041 4.74542 13.1069 4.78053 13.4056C4.81565 13.7043 4.92296 13.9899 5.0932 14.2379C5.26345 14.4858 5.4915 14.6886 5.75765 14.8286C6.02381 14.9687 6.32006 15.0418 6.62082 15.0418V13.7918C6.52298 13.7918 6.4266 13.768 6.34001 13.7225C6.25342 13.6769 6.17922 13.611 6.12384 13.5303C6.06846 13.4497 6.03355 13.3567 6.02213 13.2596C6.01072 13.1624 6.02314 13.0639 6.05832 12.9726L4.89166 12.5234ZM5.65499 9.23843C5.76916 9.27593 5.83749 9.29927 5.88832 9.31843C5.93666 9.33677 5.94249 9.34177 5.93499 9.3376L6.59166 8.27343C6.43166 8.1751 6.23499 8.11427 6.04999 8.0526L5.65499 9.23843ZM7.09666 10.2718C7.16749 10.0884 7.24499 9.89843 7.27082 9.7126L6.03249 9.5426C6.03332 9.53427 6.03332 9.5426 6.01749 9.59177C5.99003 9.66924 5.96113 9.7462 5.93082 9.8226L7.09666 10.2718ZM5.93499 9.3376C5.96932 9.35868 5.99681 9.38927 6.01411 9.42565C6.03142 9.46204 6.0378 9.50266 6.03249 9.5426L7.27082 9.7126C7.30918 9.43271 7.26541 9.1477 7.14485 8.89221C7.02428 8.63672 6.83209 8.42176 6.59166 8.27343L5.93499 9.3376ZM2.54166 6.82927C2.54166 7.64843 3.06666 8.3751 3.84249 8.63343L4.23749 7.4476C4.10753 7.4046 3.99447 7.32168 3.91441 7.21065C3.83436 7.09962 3.7914 6.96615 3.79166 6.82927H2.54166ZM3.79166 6.82927C3.79166 6.41427 4.17499 6.10427 4.57999 6.19177L4.84166 4.9701C4.56437 4.91057 4.27812 4.91381 4.00225 4.97959C3.72638 5.04537 3.46871 5.17202 3.24812 5.35027C3.02753 5.52851 2.84961 5.75384 2.72737 6.00975C2.60513 6.26565 2.54168 6.54566 2.54166 6.82927H3.79166ZM9.77166 14.1084C9.93349 14.3921 10.1667 14.6279 10.4492 14.7919C10.7317 14.9558 11.0525 15.042 11.3792 15.0418V13.7918C11.1625 13.7918 10.9633 13.6751 10.8567 13.4876L9.77166 14.1084ZM15.4583 6.82927C15.4583 6.54575 15.3948 6.26583 15.2726 6.01C15.1505 5.75416 14.9726 5.52889 14.7521 5.35066C14.5316 5.17243 14.2741 5.04576 13.9983 4.97991C13.7225 4.91406 13.4347 4.91071 13.1575 4.9701L13.4208 6.19177C13.5159 6.17138 13.6134 6.17251 13.708 6.19509C13.8025 6.21766 13.8908 6.2611 13.9664 6.32222C14.042 6.38335 14.103 6.46061 14.1448 6.54834C14.1867 6.63607 14.2084 6.73206 14.2083 6.82927H15.4583ZM7.75249 5.5251C7.3636 5.48399 6.97749 5.42399 6.59416 5.3451L6.34166 6.56927C6.76499 6.65704 7.19138 6.72371 7.62082 6.76927L7.75249 5.5251ZM11.4058 5.3451C11.0225 5.42399 10.6364 5.48399 10.2475 5.5251L10.3792 6.76843C10.8085 6.72252 11.2354 6.65577 11.6583 6.56843L11.4058 5.3451Z" fill="#6E501F"/>
<path d="M15.2117 11.5C16.5308 12.1633 17.3333 13.04 17.3333 14C17.3333 14.6233 16.995 15.2117 16.3967 15.7292M2.78832 11.5C1.46916 12.1633 0.666656 13.04 0.666656 14C0.666656 16.0708 4.39749 17.75 8.99999 17.75C10.5175 17.75 11.9417 17.5667 13.1667 17.2483" stroke="#6E501F" stroke-width="1.25" stroke-linecap="round"/>
</svg>
