<svg width="17" height="18" viewBox="0 0 17 18" fill="none" xmlns="http://www.w3.org/2000/svg">
<path d="M8.00001 1.58845L7.57668 2.04845C7.69201 2.15445 7.84295 2.21327 7.99959 2.21327C8.15624 2.21327 8.30717 2.15445 8.42251 2.04845L8.00001 1.58845ZM6.82668 5.83012C6.25168 5.41095 5.63751 4.90095 5.17418 4.36345C4.69584 3.80928 4.45834 3.31845 4.45834 2.92928H3.20834C3.20834 3.77678 3.69001 4.55762 4.22751 5.18012C4.78001 5.82012 5.47834 6.39428 6.09001 6.84012L6.82668 5.83012ZM4.45834 2.92928C4.45834 2.04678 4.89168 1.54345 5.41334 1.36845C5.95668 1.18512 6.76668 1.30345 7.57668 2.04845L8.42251 1.12845C7.35834 0.150117 6.08668 -0.17655 5.01501 0.18345C3.92084 0.551783 3.20834 1.58012 3.20834 2.92928H4.45834ZM9.91001 6.84012C10.5217 6.39512 11.22 5.82012 11.7725 5.18012C12.31 4.55762 12.7917 3.77678 12.7917 2.92928H11.5417C11.5417 3.31845 11.305 3.80928 10.8258 4.36345C10.3625 4.90095 9.74918 5.41095 9.17418 5.83012L9.91001 6.84012ZM12.7917 2.92928C12.7917 1.58012 12.0792 0.551783 10.9858 0.18345C9.91418 -0.17655 8.64168 0.150117 7.57751 1.12845L8.42334 2.04845C9.23334 1.30345 10.0442 1.18512 10.5875 1.36845C11.1083 1.54345 11.5417 2.04678 11.5417 2.92928H12.7917ZM6.09001 6.84012C6.71918 7.29845 7.21834 7.68845 8.00001 7.68845V6.43845C7.69584 6.43845 7.52918 6.34262 6.82668 5.83012L6.09001 6.84012ZM9.17334 5.83012C8.47084 6.34262 8.30418 6.43845 8.00001 6.43845V7.68845C8.78168 7.68845 9.28084 7.29928 9.91001 6.84012L9.17334 5.83012Z" fill="#6E501F"/>
<path d="M1.33334 16.8235H3.21668C4.05834 16.8235 4.91084 16.9118 5.73001 17.0802C7.19261 17.3797 8.69725 17.413 10.1717 17.1785M9.39668 14.431C9.49668 14.4193 9.59251 14.4063 9.68418 14.3918C10.4433 14.271 11.0808 13.8643 11.6642 13.4235L13.1708 12.286C13.4398 12.0909 13.7636 11.9858 14.0958 11.9858C14.4281 11.9858 14.7519 12.0909 15.0208 12.286C15.4983 12.6468 15.645 13.241 15.3425 13.726C14.99 14.291 14.4933 15.0135 14.0167 15.4552M9.39668 14.431L9.30501 14.441M9.39668 14.431C9.53003 14.3949 9.65231 14.3261 9.75251 14.231C9.87828 14.1225 9.98101 13.9899 10.0546 13.8409C10.1282 13.692 10.1712 13.5299 10.1809 13.364C10.1907 13.1982 10.1672 13.0321 10.1116 12.8756C10.056 12.719 9.96964 12.5752 9.85751 12.4527C9.74892 12.3321 9.62244 12.229 9.48251 12.1468C7.15168 10.756 3.52418 11.8152 1.33334 13.3693M9.39668 14.431C9.36658 14.4377 9.33584 14.4411 9.30501 14.441M9.30501 14.441C8.80243 14.4914 8.29614 14.4925 7.79334 14.4443" stroke="#6E501F" stroke-width="1.25" stroke-linecap="round"/>
</svg>
