<svg width="18" height="18" viewBox="0 0 18 18" fill="none" xmlns="http://www.w3.org/2000/svg">
<path d="M17.3333 12.3333V5.66659C17.3333 3.30992 17.3333 2.13075 16.6016 1.39909C15.8683 0.666585 14.6908 0.666586 12.3333 0.666586H11.5C9.14331 0.666586 7.96498 0.666585 7.23248 1.39909C6.59248 2.03909 6.51165 3.02075 6.50165 4.83325M6.50165 13.1666C6.51165 14.9791 6.59248 15.9608 7.23248 16.6008C7.96498 17.3333 9.14331 17.3333 11.5 17.3333H12.3333C14.6908 17.3333 15.8691 17.3333 16.6016 16.6008C16.8516 16.3508 17.0158 16.0491 17.1241 15.6666" stroke="#6E501F" stroke-width="1.25" stroke-linecap="round"/>
<path d="M0.666656 9H11.5M11.5 9L8.58332 11.5M11.5 9L8.58332 6.5" stroke="#6E501F" stroke-width="1.25" stroke-linecap="round" stroke-linejoin="round"/>
</svg>
