<svg width="18" height="18" viewBox="0 0 18 18" fill="none" xmlns="http://www.w3.org/2000/svg">
<path d="M5.27416 12.7258C1.15833 8.61083 -0.509174 3.60583 1.54833 1.54833C3.20666 -0.11084 6.78166 0.65166 10.2608 3.16666M12.7258 5.27416C16.8417 9.38999 18.5092 14.3942 16.4517 16.4517C14.7942 18.1092 11.2267 17.35 7.74999 14.8417M16.4517 1.54833C18.51 3.60583 16.8417 8.60999 12.7267 12.7258C8.60999 16.8417 3.60583 18.5092 1.54833 16.4517C-0.11084 14.7933 0.65166 11.2183 3.16666 7.73916C3.80269 6.86291 4.50741 6.03864 5.27416 5.27416C9.38999 1.15833 14.3942 -0.509174 16.4517 1.54833Z" stroke="#6E501F" stroke-width="1.25" stroke-linecap="round"/>
<path d="M11.0833 9.00008C11.0833 9.55262 10.8638 10.0825 10.4731 10.4732C10.0824 10.8639 9.55252 11.0834 8.99999 11.0834C8.44746 11.0834 7.91755 10.8639 7.52685 10.4732C7.13615 10.0825 6.91666 9.55262 6.91666 9.00008C6.91666 8.44755 7.13615 7.91764 7.52685 7.52694C7.91755 7.13624 8.44746 6.91675 8.99999 6.91675C9.55252 6.91675 10.0824 7.13624 10.4731 7.52694C10.8638 7.91764 11.0833 8.44755 11.0833 9.00008Z" stroke="#6E501F" stroke-width="1.25"/>
</svg>
