<svg width="20" height="20" viewBox="0 0 20 20" fill="none" xmlns="http://www.w3.org/2000/svg">
<path d="M14.1667 3.33341C14.1667 3.77544 13.9911 4.19937 13.6785 4.51193C13.366 4.82449 12.942 5.00008 12.5 5.00008C12.058 5.00008 11.6341 4.82449 11.3215 4.51193C11.0089 4.19937 10.8333 3.77544 10.8333 3.33341C10.8333 2.89139 11.0089 2.46746 11.3215 2.1549C11.6341 1.84234 12.058 1.66675 12.5 1.66675C12.942 1.66675 13.366 1.84234 13.6785 2.1549C13.9911 2.46746 14.1667 2.89139 14.1667 3.33341Z" fill="#6E501F"/>
<path fill-rule="evenodd" clip-rule="evenodd" d="M10.1342 5.92918L10.645 6.43668C11.4025 7.18918 11.6658 7.43668 11.9825 7.56668C12.2992 7.69668 12.6608 7.70835 13.7283 7.70835H15.4167C15.5824 7.70835 15.7414 7.7742 15.8586 7.89141C15.9758 8.00862 16.0417 8.16759 16.0417 8.33335C16.0417 8.49911 15.9758 8.65808 15.8586 8.77529C15.7414 8.8925 15.5824 8.95835 15.4167 8.95835H13.61C12.7075 8.95835 12.08 8.95835 11.5058 8.72252C10.9317 8.48585 10.4875 8.04335 9.8475 7.40585L9.76417 7.32252L9.2825 6.84502C8.94167 6.50668 8.7325 6.30085 8.56583 6.17585C8.51881 6.13849 8.46695 6.10766 8.41167 6.08418L8.40333 6.08918C8.3565 6.12115 8.31393 6.15895 8.27667 6.20168C8.135 6.35585 7.96583 6.59502 7.6925 6.99002L6.67 8.46252C6.39167 8.86418 6.2225 9.11002 6.12667 9.30168C6.09791 9.3552 6.0766 9.4124 6.06333 9.47168L6.06917 9.47835C6.1103 9.51888 6.15652 9.5539 6.20667 9.58252C6.38833 9.69502 6.66167 9.81585 7.10917 10.0117L8.3725 10.5617C8.9125 10.7984 9.3675 10.9967 9.7175 11.2017C10.09 11.42 10.405 11.6784 10.6158 12.0642C10.8267 12.4509 10.875 12.855 10.8575 13.2859C10.8417 13.6917 10.7633 14.1825 10.6708 14.7642L10.6175 15.0984C10.5914 15.2621 10.5014 15.4088 10.3671 15.5062C10.2329 15.6036 10.0654 15.6436 9.90167 15.6175C9.7379 15.5914 9.59119 15.5014 9.49383 15.3671C9.39647 15.2329 9.35642 15.0655 9.3825 14.9017L9.43083 14.6025C9.53083 13.9759 9.59583 13.5592 9.60917 13.2359C9.62083 12.93 9.58167 12.7784 9.51917 12.6642C9.45667 12.5509 9.35083 12.435 9.08583 12.2809C8.8075 12.1167 8.42167 11.9475 7.83917 11.6934L6.60917 11.1567L6.57083 11.14C6.17417 10.9667 5.81667 10.8109 5.54917 10.6459C5.25917 10.4667 4.97417 10.2167 4.86 9.81252C4.745 9.40752 4.85667 9.04585 5.01 8.74085C5.15 8.46085 5.3725 8.14085 5.61917 7.78418L5.64333 7.75002L6.66583 6.27668L6.68917 6.24335C6.93083 5.89335 7.15 5.57835 7.36083 5.35168C7.59 5.10502 7.88583 4.87668 8.29833 4.83918C8.71083 4.80168 9.0425 4.97252 9.3125 5.17418C9.56 5.35918 9.8325 5.62918 10.1342 5.92918ZM5 13.125C4.50272 13.125 4.02581 13.3226 3.67417 13.6742C3.32254 14.0258 3.125 14.5027 3.125 15C3.125 15.4973 3.32254 15.9742 3.67417 16.3258C4.02581 16.6775 4.50272 16.875 5 16.875C5.49728 16.875 5.97419 16.6775 6.32582 16.3258C6.67746 15.9742 6.875 15.4973 6.875 15C6.875 14.5027 6.67746 14.0258 6.32582 13.6742C5.97419 13.3226 5.49728 13.125 5 13.125ZM1.875 15C1.875 14.1712 2.20424 13.3764 2.79029 12.7903C3.37634 12.2043 4.1712 11.875 5 11.875C5.8288 11.875 6.62366 12.2043 7.20971 12.7903C7.79576 13.3764 8.125 14.1712 8.125 15C8.125 15.8288 7.79576 16.6237 7.20971 17.2097C6.62366 17.7958 5.8288 18.125 5 18.125C4.1712 18.125 3.37634 17.7958 2.79029 17.2097C2.20424 16.6237 1.875 15.8288 1.875 15ZM15 13.125C14.5027 13.125 14.0258 13.3226 13.6742 13.6742C13.3225 14.0258 13.125 14.5027 13.125 15C13.125 15.4973 13.3225 15.9742 13.6742 16.3258C14.0258 16.6775 14.5027 16.875 15 16.875C15.4973 16.875 15.9742 16.6775 16.3258 16.3258C16.6775 15.9742 16.875 15.4973 16.875 15C16.875 14.5027 16.6775 14.0258 16.3258 13.6742C15.9742 13.3226 15.4973 13.125 15 13.125ZM11.875 15C11.875 14.1712 12.2042 13.3764 12.7903 12.7903C13.3763 12.2043 14.1712 11.875 15 11.875C15.8288 11.875 16.6237 12.2043 17.2097 12.7903C17.7958 13.3764 18.125 14.1712 18.125 15C18.125 15.8288 17.7958 16.6237 17.2097 17.2097C16.6237 17.7958 15.8288 18.125 15 18.125C14.1712 18.125 13.3763 17.7958 12.7903 17.2097C12.2042 16.6237 11.875 15.8288 11.875 15Z" fill="#6E501F"/>
</svg>
