<svg width="16" height="16" viewBox="0 0 16 16" fill="none" xmlns="http://www.w3.org/2000/svg">
<mask id="mask0_53_387" style="mask-type:alpha" maskUnits="userSpaceOnUse" x="0" y="1" width="16" height="14">
<path d="M13.9678 1.40948C14.2932 1.08408 14.821 1.0832 15.1465 1.4085C15.4718 1.73385 15.4717 2.26175 15.1465 2.58721L13.3262 4.40655C14.4948 5.33126 15.43 6.55924 16 8.0003C15.1273 10.2255 13.3673 11.9781 11.1494 12.8509C9.04927 13.6764 6.82281 13.6166 4.87598 12.8567L3.14648 14.5872C2.82105 14.9127 2.29321 14.9126 1.96777 14.5872C1.64274 14.2619 1.6428 13.7349 1.96777 13.4095L13.9678 1.40948ZM10.1416 7.59112C10.1672 7.72504 10.1816 7.86198 10.1816 8.0003C10.1816 8.57884 9.95205 9.13416 9.54297 9.54327C9.13381 9.95236 8.5786 10.1819 8 10.1819C7.86163 10.1819 7.72482 10.1675 7.59082 10.1419L6.44531 11.2874C6.92684 11.5152 7.45714 11.637 8 11.637C8.96437 11.637 9.88935 11.2535 10.5713 10.5716C11.2532 9.8897 11.6367 8.96461 11.6367 8.0003C11.6367 7.4575 11.5149 6.92712 11.2871 6.44561L10.1416 7.59112ZM8 2.5462C8.92653 2.5462 9.82745 2.69764 10.6768 2.97784L9.11426 4.53936C8.75741 4.42447 8.38186 4.36358 8 4.36358C7.0356 4.36358 6.11066 4.74709 5.42871 5.42901C4.74686 6.11092 4.36331 7.03597 4.36328 8.0003C4.36331 8.38237 4.42402 8.75852 4.53906 9.11553L2.33496 11.3196C1.33416 10.4443 0.52045 9.32419 0 8.0003C1.29457 4.72762 4.46548 2.5462 8 2.5462ZM5.82617 7.82745C5.86715 7.31218 6.08892 6.8255 6.45703 6.45733C6.82523 6.08915 7.31182 5.86743 7.82715 5.82647L5.82617 7.82745Z" fill="#2897FF"/>
</mask>
<g mask="url(#mask0_53_387)">
<rect width="16" height="16" fill="#8F9098"/>
</g>
</svg>
