<svg width="16" height="16" viewBox="0 0 16 16" fill="none" xmlns="http://www.w3.org/2000/svg">
<mask id="mask0_53_507" style="mask-type:alpha" maskUnits="userSpaceOnUse" x="0" y="2" width="16" height="12">
<path d="M8 5.81832C7.42135 5.81832 6.86639 6.04819 6.45722 6.45736C6.04805 6.86653 5.81818 7.42148 5.81818 8.00014C5.81818 8.57879 6.04805 9.13375 6.45722 9.54292C6.86639 9.95209 7.42135 10.182 8 10.182C8.57865 10.182 9.13361 9.95209 9.54278 9.54292C9.95195 9.13375 10.1818 8.57879 10.1818 8.00014C10.1818 7.42148 9.95195 6.86653 9.54278 6.45736C9.13361 6.04819 8.57865 5.81832 8 5.81832ZM8 11.6365C7.03558 11.6365 6.11065 11.2534 5.4287 10.5714C4.74675 9.88949 4.36364 8.96456 4.36364 8.00014C4.36364 7.03572 4.74675 6.11079 5.4287 5.42884C6.11065 4.74689 7.03558 4.36378 8 4.36378C8.96442 4.36378 9.88935 4.74689 10.5713 5.42884C11.2532 6.11079 11.6364 7.03572 11.6364 8.00014C11.6364 8.96456 11.2532 9.88949 10.5713 10.5714C9.88935 11.2534 8.96442 11.6365 8 11.6365ZM8 2.54559C4.46545 2.54559 1.29455 4.72741 0 8.00014C1.73818 12.422 6.72727 14.5892 11.1491 12.851C13.3673 11.9783 15.1273 10.2256 16 8.00014C14.7055 4.72741 11.5345 2.54559 8 2.54559Z" fill="#2897FF"/>
</mask>
<g mask="url(#mask0_53_507)">
<rect width="16" height="16" fill="#6E501F"/>
</g>
</svg>
