<svg width="20" height="20" viewBox="0 0 20 20" fill="none" xmlns="http://www.w3.org/2000/svg">
<path d="M16.6667 10.0002C16.6667 9.0835 17.4167 8.3335 18.3333 8.3335V5.00016C18.3333 4.0835 17.5833 3.3335 16.6667 3.3335H3.33332C2.41666 3.3335 1.67499 4.0835 1.67499 5.00016V8.3335C2.59166 8.3335 3.33332 9.0835 3.33332 10.0002C3.33332 10.9168 2.59166 11.6668 1.66666 11.6668V15.0002C1.66666 15.9168 2.41666 16.6668 3.33332 16.6668H16.6667C17.5833 16.6668 18.3333 15.9168 18.3333 15.0002V11.6668C17.4167 11.6668 16.6667 10.9168 16.6667 10.0002ZM12.9833 14.0002L9.99999 12.0835L7.01666 14.0002L7.91666 10.5668L5.17499 8.32516L8.70832 8.11683L9.99999 4.8335L11.2833 8.12516L14.8167 8.3335L12.075 10.5752L12.9833 14.0002Z" fill="#6E501F"/>
</svg>
