<svg width="20" height="20" viewBox="0 0 20 20" fill="none" xmlns="http://www.w3.org/2000/svg">
<path d="M14.7717 10.85L11.6667 13.3333H7.49999V12.5H10.8875C10.9629 12.5 11.0368 12.4795 11.1015 12.4407C11.1661 12.402 11.219 12.3464 11.2546 12.28C11.2902 12.2136 11.3071 12.1387 11.3035 12.0634C11.2999 11.9881 11.2759 11.9152 11.2342 11.8525L10.4942 10.7425C10.3421 10.5143 10.136 10.3271 9.89429 10.1976C9.65255 10.0681 9.38258 10.0002 9.10832 10H2.49999C2.27898 10 2.06701 10.0878 1.91073 10.2441C1.75445 10.4004 1.66666 10.6123 1.66666 10.8333V15.8333C1.66666 16.2754 1.84225 16.6993 2.15481 17.0118C2.46737 17.3244 2.8913 17.5 3.33332 17.5H11.3658C11.7222 17.5001 12.0744 17.424 12.3989 17.2768C12.7235 17.1296 13.0128 16.9148 13.2475 16.6467L18.3333 10.8333L17.1233 10.43C16.7274 10.2982 16.3048 10.2676 15.8941 10.3409C15.4833 10.4143 15.0975 10.5893 14.7717 10.85ZM16.0483 6.15833C16.4242 5.77083 16.6567 5.235 16.6567 4.64333C16.6567 4.05167 16.4242 3.51583 16.0483 3.12833C15.8582 2.9301 15.63 2.77227 15.3774 2.66431C15.1248 2.55634 14.853 2.50046 14.5783 2.5C14.5783 2.5 13.5417 2.4975 12.5 3.57167C11.4583 2.4975 10.4217 2.5 10.4217 2.5C10.147 2.50035 9.87528 2.5561 9.6227 2.66392C9.37012 2.77174 9.14188 2.92941 8.95166 3.1275C8.57582 3.51583 8.34332 4.05083 8.34332 4.6425C8.34332 5.23417 8.57582 5.77083 8.95166 6.1575L12.5 10L16.0483 6.15833Z" fill="#6E501F"/>
</svg>
