<svg width="20" height="20" viewBox="0 0 20 20" fill="none" xmlns="http://www.w3.org/2000/svg">
<path d="M10 14.1668C10.442 14.1668 10.866 13.9912 11.1785 13.6787C11.4911 13.3661 11.6667 12.9422 11.6667 12.5002C11.6667 12.0581 11.4911 11.6342 11.1785 11.3217C10.866 11.0091 10.442 10.8335 10 10.8335C9.55798 10.8335 9.13406 11.0091 8.8215 11.3217C8.50894 11.6342 8.33334 12.0581 8.33334 12.5002C8.33334 12.9422 8.50894 13.3661 8.8215 13.6787C9.13406 13.9912 9.55798 14.1668 10 14.1668ZM15 6.66683C15.442 6.66683 15.866 6.84242 16.1785 7.15498C16.4911 7.46755 16.6667 7.89147 16.6667 8.3335V16.6668C16.6667 17.1089 16.4911 17.5328 16.1785 17.8453C15.866 18.1579 15.442 18.3335 15 18.3335H5.00001C4.55798 18.3335 4.13406 18.1579 3.8215 17.8453C3.50894 17.5328 3.33334 17.1089 3.33334 16.6668V8.3335C3.33334 7.89147 3.50894 7.46755 3.8215 7.15498C4.13406 6.84242 4.55798 6.66683 5.00001 6.66683H5.83334V5.00016C5.83334 3.89509 6.27233 2.83529 7.05373 2.05388C7.83513 1.27248 8.89494 0.833496 10 0.833496C10.5472 0.833496 11.089 0.94127 11.5945 1.15066C12.1 1.36006 12.5594 1.66697 12.9463 2.05388C13.3332 2.4408 13.6401 2.90013 13.8495 3.40565C14.0589 3.91117 14.1667 4.45299 14.1667 5.00016V6.66683H15ZM10 2.50016C9.33697 2.50016 8.70108 2.76355 8.23224 3.2324C7.7634 3.70124 7.50001 4.33712 7.50001 5.00016V6.66683H12.5V5.00016C12.5 4.33712 12.2366 3.70124 11.7678 3.2324C11.2989 2.76355 10.6631 2.50016 10 2.50016Z" fill="#6E501F"/>
</svg>
