<svg width="20" height="20" viewBox="0 0 20 20" fill="none" xmlns="http://www.w3.org/2000/svg">
<mask id="mask0_84_3927" style="mask-type:alpha" maskUnits="userSpaceOnUse" x="2" y="2" width="16" height="16">
<path fill-rule="evenodd" clip-rule="evenodd" d="M2.33474 2.33474C2.78105 1.88842 3.50467 1.88842 3.95098 2.33474L17.6653 16.049C18.1116 16.4953 18.1116 17.219 17.6653 17.6653C17.219 18.1116 16.4953 18.1116 16.049 17.6653L2.33474 3.95098C1.88842 3.50467 1.88842 2.78105 2.33474 2.33474Z" fill="#2897FF"/>
<path fill-rule="evenodd" clip-rule="evenodd" d="M17.6653 2.33474C17.219 1.88842 16.4953 1.88842 16.049 2.33474L2.33474 16.049C1.88842 16.4953 1.88842 17.219 2.33474 17.6653C2.78105 18.1116 3.50467 18.1116 3.95098 17.6653L17.6653 3.95098C18.1116 3.50467 18.1116 2.78105 17.6653 2.33474Z" fill="#2897FF"/>
</mask>
<g mask="url(#mask0_84_3927)">
<rect width="20" height="20" fill="#6E501F"/>
</g>
</svg>
